<svg width="514" height="514" viewBox="0 0 514 514" fill="none" xmlns="http://www.w3.org/2000/svg">
<rect width="514" height="514" rx="40" fill="white"/>
<path d="M323.759 89.2254C336.795 87.8174 351.589 92.9959 358.071 105.023C368.425 105.462 378.715 107.878 385.49 116.413C408.665 145.614 379.798 184.432 391.572 216.947C397.281 232.709 403.785 233.265 414.972 243.063C421.778 249.027 427.769 255.863 432.789 263.394C437.619 270.689 431.056 271.079 429.474 268.935C423.803 261.239 418.565 253.829 411.003 247.653C407.371 244.687 403.715 241.255 399.278 239.545C393.098 240.558 387.307 242.103 381.524 244.538C336.292 263.591 314.699 308.848 301.941 353.394C300.127 359.719 298.478 366.18 297.058 372.607C296.073 377.054 295.711 382.693 293.83 386.775C293.7 387.056 293.373 387.668 293.134 387.858C288.553 391.472 248.37 384.975 241.314 384.022C224.118 381.702 211.518 384.462 196.232 392.776C192.558 394.776 188.696 398.18 184.787 399.505C183.37 399.983 182.215 400.06 180.85 399.354C179.108 396.408 183.246 393.862 185.248 392.481C200.166 382.595 218.553 375.24 236.648 377.494C254.635 379.733 270.645 382.82 288.954 382.925C295.339 351.084 304.465 319.176 321.252 291.055C325.274 284.319 329.387 279 334.021 272.735C331.012 263.897 327.151 258.086 320.521 251.482C299.835 266.309 280.854 269.807 281.754 236.905C297.729 236.959 287.376 241.85 289.056 247.384C290.842 249.786 294.702 250.087 296.787 248.146C305.073 240.438 294.983 225.128 284.626 226.221C282.876 226.405 280.534 226.07 279.339 227.269C280.397 229.197 285.685 228.033 288.216 229.819L288.237 230.426C286.76 232.127 283.02 233.373 280.808 233.674C273.253 234.703 272.93 226.366 272.561 220.93C266.018 221.002 261.736 222.074 258.892 215.099C259.433 211.514 264.953 194.834 266.285 190.188C264.665 188.191 261.582 184.514 260.942 182.163C259.075 175.331 260.717 162.773 261.191 155.52C249.783 152.405 242.526 145.394 241.558 133.188C241.006 126.222 242.812 120.21 247.203 114.801C257.398 102.237 270.901 110.208 283.811 106.71C286.644 105.922 291.616 102.8 294.168 101.174C304.339 94.6947 311.507 90.2555 323.759 89.2254Z" fill="#323534"/>
<path d="M296.924 153.068C297.922 153.179 300.035 157.456 300.921 158.593C306.17 165.331 310.47 164.204 317.139 167.644C324.609 171.498 324.954 181.567 327.162 188.718C327.608 190.158 328.153 192.062 329.616 192.765C330.705 193.289 332.01 193.497 333.117 192.887C337.146 190.661 337.41 178.339 339.371 173.828C340.704 170.758 342.961 168.175 346.185 167.049C348.554 166.222 351.107 166.781 353.293 167.878C356.152 169.31 358.054 171.834 359.038 174.841C360.739 180.034 359.896 186.827 357.371 191.637C354.51 197.077 352.432 197.115 347.194 198.966C346.252 199.299 345.197 200.017 344.866 201.024C344.641 201.712 344.589 202.307 345.084 202.888C346.213 204.211 348.92 204.403 350.52 204.286C354.587 203.988 358.039 200.688 360.514 197.728C361.583 199.43 362.902 201.307 364.23 202.817C369.286 208.486 376.366 211.94 383.946 212.431C385.753 219.898 389.655 228.038 394.461 234.029C372.946 239.424 353.529 251.121 338.704 267.619C337.561 265.362 336.401 263.109 335.223 260.866C332.01 255.477 329.475 252.028 325.049 247.609C339.558 235.453 346.884 224.6 342.616 205.487C342.149 203.394 341.846 201.612 339.98 200.348C337.881 200.045 335.634 201.551 336.025 203.145C339.632 217.917 338.085 228.17 326.269 238.702C321.509 242.947 316.305 247.556 309.812 251.032C308.68 248.188 307.784 243.456 306.887 240.213C304.138 230.295 299.909 222.884 289.239 220.381C287.221 219.907 281.132 220.009 280.137 219.349C287.632 209.342 269.664 216.559 265.751 214.635C264.995 209.298 271.942 196.636 272.473 190.644C272.814 186.786 270.064 185.141 267.916 182.352C265.702 179.47 266.053 176.91 266.099 173.49C266.341 167.153 266.58 160.509 267.319 154.185C278.277 157.687 286.054 157.123 296.924 153.068Z" fill="#FFFFFE"/>
<path d="M286.503 174.948C286.873 174.915 287.242 174.89 287.614 174.873C290.019 174.748 299.079 175.577 299.051 178.672C297.008 180.331 291.225 179.294 288.395 179.767C286.205 180.132 285.681 180.302 283.603 181.034C280.854 182.338 275.851 185.289 273.105 182.9C272.824 177.995 282.787 175.627 286.503 174.948Z" fill="#323534"/>
<path d="M282.057 185.145C285.709 184.731 291.57 185.319 294.762 187.122C295.346 188.102 295.223 187.593 295.198 188.688L294.586 189.173C292.755 189.539 291.152 189.21 289.278 188.993L288.747 189.385C288.532 191.204 287.97 193.957 286.033 194.55C283.66 193.829 283.241 191.344 281.835 189.696C281.143 188.888 280.359 188.899 279.191 187.669L279.22 186.905C280.144 185.789 280.657 185.72 282.057 185.145Z" fill="#323534"/>
<path d="M325.639 95.1979C333.194 94.4108 342.82 97.2542 348.35 102.515C351.057 105.091 352.794 108.126 354.921 111.141C364.103 111.966 371.057 111.014 378.964 118.466C395.804 134.338 386.284 163.226 383.875 183.195C382.757 192.467 382.515 197.297 382.965 206.596C375.709 204.577 364.919 199.242 364.779 191.293C364.624 182.719 368.182 177.122 362.472 168.281C360.05 164.488 356.186 161.848 351.771 160.974C347.816 160.2 343.295 161.163 340.021 163.482C333.982 167.757 332.41 174.668 331.306 181.454C325.003 152.791 310.107 167.126 303.213 150.392C309.854 145.308 315.781 140.71 319.986 133.172C321.424 130.593 323.607 126.364 318.724 125.934C316.182 126.926 314.456 130.415 312.888 132.851C311.151 135.304 309.168 137.572 306.964 139.619C297.714 148.259 285.898 151.863 273.411 149.924C268.197 149.115 265.434 144.431 261.138 149.307C252.602 146.497 247.814 139.493 255.854 132.051C262.126 126.25 275.292 134.084 283.48 135.014C296.28 136.468 304.109 130.952 313.338 122.625C315.317 120.933 317.94 119.666 320.039 118.222C321.789 117.02 320.879 113.731 319.627 113.508C313.38 112.396 307.305 120.781 302.369 123.806C299.286 125.698 297.317 127.195 293.904 128.333C276.385 133.916 261.876 112.092 247.508 132.558C247.603 127.931 248.207 122.977 251.262 119.288C258.768 110.222 269.653 114.456 279.503 113.753C290.841 112.944 298.748 104.27 308.732 99.7057C315.419 96.6485 318.446 96.0403 325.639 95.1979Z" fill="#FFFFFE"/>
<path d="M50.9114 103.212C56.7966 102.705 66.5577 102.972 72.6183 102.977L111.647 103.042L147.79 103.03C154.429 103.026 161.152 102.901 167.773 103.243C171.471 103.434 175.253 107.064 175.568 110.767C176.025 116.136 175.893 121.59 175.89 126.977L175.86 153.953L175.874 185.109C175.875 190.994 176.032 196.886 175.615 202.755C175.168 209.057 171.041 211.126 165.379 211.711L91.3369 211.752L64.9672 211.779C63.2126 211.782 61.2157 211.893 59.4639 211.791C55.0426 211.534 49.5878 212.603 45.5772 210.454C40.2113 207.543 40.387 203.078 40.3892 197.805C40.3923 188.591 40.3783 179.41 40.3779 170.219L40.3747 136.158C40.3582 129.251 40.2408 122.461 40.5003 115.552C40.752 108.841 44.5938 105.08 50.9114 103.212Z" fill="#323534"/>
<path d="M45.6467 133.523C59.8158 133.08 76.316 133.489 90.6496 133.499L170.915 133.542C170.462 156.288 171.465 179.184 170.555 201.903C170.51 203.037 169.862 204.082 169.241 204.987C165.93 207.189 156.857 206.406 152.49 206.404L127.623 206.389L55.5204 206.407C51.1888 206.386 45.7599 207.07 45.7448 201.427C45.6858 178.901 45.2206 156.035 45.6467 133.523Z" fill="#FFFFFE"/>
<path d="M59.1094 147.191C64.9597 146.719 74.9149 147.028 81.0718 147.005C87.0818 146.982 97.8438 146.751 103.518 147.328C103.676 152.83 104.248 189.886 102.998 192.471C98.1528 193.185 64.4398 193.246 59.6149 192.486C58.5535 191.703 58.3412 186.338 58.466 184.92C58.9213 179.761 57.5273 149.373 59.1094 147.191Z" fill="#323534"/>
<path d="M62.124 153.564C63.9711 154.367 76.4224 167.555 78.7202 169.932C76.1032 172.72 73.238 175.468 70.5081 178.16C67.7293 181.031 65.1689 183.634 62.2534 186.376C62.3061 175.439 62.2632 164.501 62.124 153.564Z" fill="#FFFFFE"/>
<path d="M64.4756 151.029C73.9326 150.488 87.7821 150.956 97.6701 150.969L88.989 159.672C86.3611 162.276 83.7838 164.931 81.2578 167.635C75.5906 162.232 70.25 156.33 64.4756 151.029Z" fill="#FFFFFE"/>
<path d="M81.2023 172.318L97.6227 188.621C92.4228 188.934 86.2817 188.807 81.0051 188.818L64.2461 188.835C69.1068 185.023 76.1317 176.978 81.2023 172.318Z" fill="#FFFFFE"/>
<path d="M99.5087 153.669C100.287 156.68 99.8954 182.072 99.6022 186.269C97.1712 183.518 94.4325 180.877 91.8264 178.277L83.4697 169.847L99.5087 153.669Z" fill="#FFFFFE"/>
<path d="M117.231 160.877C127.906 160.349 145.068 160.592 156.372 160.875C157.115 160.894 157.451 161.635 157.769 162.197C157.802 163.521 157.883 163.526 157.188 164.713C148.202 165.729 127.839 164.666 118.071 164.824C117.225 164.837 116.926 164.14 116.594 163.544C116.562 162.108 116.578 162.183 117.231 160.877Z" fill="#323534"/>
<path d="M122.03 175.388C126.582 175.369 154.484 174.805 157.31 175.912C158.039 176.964 157.827 177.987 157.209 178.985C155.852 179.722 154.268 179.51 152.654 179.506C142.177 179.479 128.032 179.888 117.333 179.165C116.318 179.097 116.449 176.864 117.024 175.88C118.232 175.302 120.586 175.419 122.03 175.388Z" fill="#323534"/>
<path d="M52.5642 108.178C73.0326 107.761 94.8825 108.213 115.47 108.207L147.485 108.186C150.805 108.183 167.19 107.624 169.129 109.273C171.633 111.4 170.865 124.098 170.825 128.245L164.344 128.328L45.6297 128.309C45.4353 120.394 43.0914 110.664 52.5642 108.178Z" fill="#FFFFFE"/>
<path d="M69.4496 114.591C71.4409 114.319 73.3017 115.639 73.7028 117.608C74.1036 119.578 72.9069 121.521 70.9673 122.048C69.5959 122.421 68.1305 122 67.1662 120.957C66.2015 119.913 65.8974 118.419 66.3773 117.081C66.8572 115.744 68.0412 114.784 69.4496 114.591Z" fill="#323534"/>
<path d="M81.8197 114.863C83.7891 114.17 85.9474 115.204 86.6421 117.173C87.3364 119.142 86.3042 121.301 84.3362 121.997C82.3653 122.694 80.2028 121.661 79.5075 119.689C78.8121 117.718 79.8478 115.556 81.8197 114.863Z" fill="#323534"/>
<path d="M55.5499 114.858C56.8405 114.397 58.2798 114.674 59.3064 115.582C60.3333 116.489 60.7851 117.884 60.4852 119.221C60.1853 120.558 59.1816 121.626 57.8657 122.009C55.9145 122.576 53.8656 121.49 53.2395 119.557C52.6134 117.623 53.6367 115.543 55.5499 114.858Z" fill="#323534"/>
<path d="M193.613 225.235C201.252 224.956 233.067 224.265 238.468 226.088C240.804 226.877 242.132 228.508 243.204 230.684C243.813 231.921 243.867 233.291 243.912 234.646C244.153 241.883 244.385 307.325 243.517 309.632C242.22 313.077 240.139 314.617 236.865 315.998C231.724 316.779 220.216 316.097 214.239 316.266C207.555 315.984 200.351 316.775 193.719 316.097C183.501 315.053 185.407 302.375 185.415 295.625L185.414 274.011L185.409 248.85C185.41 243.927 185.333 239.034 185.568 234.113C185.814 228.952 188.684 226.24 193.613 225.235Z" fill="#323534"/>
<path d="M193.881 230.562C205.276 230.049 217.041 230.68 228.473 230.441C230.559 230.397 236.406 230.322 237.777 231.927C238.191 233.747 238.483 235.556 238.556 237.424C238.797 243.628 239.011 306.819 238.216 308.443C237.544 309.817 236.402 310.225 235.072 310.781C227.433 311.245 219.616 310.939 211.958 310.949C206.634 310.956 199.157 311.712 194.083 310.51C192.79 310.201 191.933 309.719 191.328 308.496C190.873 307.578 190.79 306.527 190.733 305.518C190.378 299.337 190.232 235.236 191.133 233.137C191.741 231.723 192.571 231.22 193.881 230.562Z" fill="#FFFFFE"/>
<path d="M201.853 243.22C206.149 243.066 225.576 242.918 229.041 243.535C229.452 252.115 229.264 264.272 228.986 273.083C228.967 273.701 228.899 273.596 228.272 273.993C219.528 274.278 209.21 274.102 200.425 273.947C200.089 270.277 199.84 245.993 200.832 243.628L201.853 243.22Z" fill="#323534"/>
<path d="M205.782 246.678C211.374 246.438 218.457 246.619 224.121 246.729L219.599 251.493C218.12 252.969 216.372 255.05 214.959 256.649C212.548 254.112 207.705 249.282 205.782 246.678Z" fill="#FFFFFE"/>
<path d="M214.525 261.2C215.887 261.96 222.594 269.209 224.204 270.837L215.587 270.865L205.479 270.851C208.507 267.588 211.512 264.533 214.525 261.2Z" fill="#FFFFFE"/>
<path d="M225.546 249.7C226.577 250.668 226.053 265.802 226.019 268.351C224.786 266.941 223.395 265.475 222.123 264.086C220.536 262.557 218.603 260.36 217.066 258.708C219.768 255.719 222.767 252.645 225.546 249.7Z" fill="#FFFFFE"/>
<path d="M203.7 249.545C204.627 250.048 211.501 257.507 212.728 258.808L207.936 263.591C206.552 264.987 205.009 266.78 203.67 268.26C203.538 262.023 203.548 255.782 203.7 249.545Z" fill="#FFFFFE"/>
<path d="M200.531 285.999C203.933 285.827 227.389 285.479 228.9 286.291C229.31 287.5 229.108 287.876 228.819 289.114C225.254 289.216 203.195 289.613 200.883 288.945C200.222 287.982 200.446 287.201 200.531 285.999Z" fill="#323534"/>
<path d="M200.612 295.129C203.343 294.939 217.503 294.637 219.349 295.498C219.97 296.757 219.73 296.553 219.545 298.219C216.658 298.613 203.196 299.042 200.79 298.117C200.28 297.105 200.503 296.286 200.612 295.129Z" fill="#323534"/>
<path d="M30.0885 274.092C39.9277 272.559 41.4461 283.303 43.9288 290.397L52.8339 315.981L84.4278 405.917L199.277 405.921L228.853 405.9C233.857 405.896 239.203 405.703 244.104 406.251C247.62 406.649 247.111 411.641 246.312 413.887C244.93 417.783 243.805 419.34 240.281 421.172C234.801 421.994 216.722 421.587 210.415 421.58L151.24 421.555L103.452 421.615C95.7179 421.622 85.8084 422.026 78.2656 420.947C75.4707 420.546 70.9661 416.967 69.8903 414.457C67.2417 408.273 65.0219 400.957 62.8042 394.523L49.704 357.282L32.6307 308.819C30.0449 301.465 27.3569 294.131 24.8861 286.738C22.8266 280.578 24.2758 276.866 30.0885 274.092Z" fill="#323534"/>
<path d="M31.8249 279.189C32.6092 279.355 33.3644 279.53 33.9659 280.107C35.7093 281.777 65.3675 367.825 69.2782 378.956L75.5188 396.812C76.1696 398.657 78.525 404.968 78.7163 406.469C77.978 407.306 77.0344 407.281 75.8704 407.482L73.2713 408.269C70.135 398.468 66.2407 388.068 62.8148 378.302L40.1488 313.829C36.8793 304.418 33.4073 295.066 30.3019 285.605C29.2975 282.543 28.8007 281.028 31.8249 279.189Z" fill="#FFFFFE"/>
<path d="M86.2877 411.201L189.139 411.215L222.142 411.201C225.968 411.201 236.691 410.716 240.748 411.799C241.121 411.897 241.085 412.484 241.15 412.924C240.555 414.428 240.402 414.513 239.275 415.736C235.972 416.682 201.91 416.267 196.183 416.26L84.7861 416.337C85.7318 414.158 85.8359 413.507 86.2877 411.201Z" fill="#FFFFFE"/>
<path d="M79.6571 411.845L80.0941 411.89L80.4526 412.347C80.3271 413.944 80.3064 414.436 78.8748 415.315L77.9847 415.062C76.7349 414.327 76.5239 414.474 75.9238 413.402C76.5282 412.569 78.5535 412.175 79.6571 411.845Z" fill="#FFFFFE"/>
<path d="M486.901 244.478C488.198 244.292 488.363 244.418 489.161 244.999C490.104 246.925 489.017 286.351 487.129 287.849C484.053 288.109 476.836 281.289 473.802 278.972C472.128 282.575 468.475 288.457 466.373 291.99C455.763 310.04 443.402 326.999 429.466 342.629C389.304 387.299 328.793 424.009 266.812 425.401C264 425.465 260.284 425.981 258.107 424.027C258.157 418.778 261.785 419.857 266.429 419.456C282.256 418.138 297.845 414.756 312.797 409.395C366.399 390.723 413.867 349.524 445.43 303.029C451.418 294.212 459.799 281.626 464.404 272.085C462.116 270.689 452.036 264.962 450.834 262.811C449.628 260.663 463.582 255.069 465.691 254.12C472.67 250.978 479.775 247.42 486.901 244.478Z" fill="#17C529"/>
<path d="M104.644 286.048C121.005 283.696 136.171 295.066 138.501 311.428C140.83 327.793 129.44 342.945 113.072 345.251C96.7378 347.551 81.6245 336.188 79.2993 319.858C76.9744 303.528 88.3155 288.397 104.644 286.048Z" fill="#323534"/>
<path d="M106.732 291.013C120.327 289.821 132.311 299.879 133.499 313.474C134.688 327.069 124.632 339.054 111.037 340.242C97.4427 341.43 85.4583 331.372 84.2693 317.781C83.0803 304.186 93.1374 292.201 106.732 291.013Z" fill="#FFFFFE"/>
<path d="M119.739 305.174C125.175 305.715 120.942 310.553 119.082 312.462C114.572 317.095 110.615 322.341 105.349 326.148C103.225 325.529 99.5904 321.332 97.8948 319.577C95.9995 317.725 94.929 317.18 95.8413 314.508C98.6183 312.244 103.3 318.428 105.261 320.481C109.399 316.153 115.445 308.911 119.739 305.174Z" fill="#17C529"/>
<path d="M214.283 333.158C217.057 334.466 214.988 334.87 216.489 337.177C217.805 337.901 219.189 337.718 220.746 337.725C221.04 341.48 220.859 346.359 220.614 350.093C217.37 350.325 213.223 350.223 209.912 350.23C209.295 350.177 209.436 350.16 208.839 349.886C208.252 348.518 208.427 346.869 208.432 345.326C206.183 345.386 204.748 345.846 203.479 343.839L203.669 343.114C204.961 342.288 206.439 342.267 208.005 342.06C208.58 341.121 208.525 338.959 208.605 337.697C215.101 337.69 211.131 336.793 214.283 333.158Z" fill="#323534"/>
<path d="M211.594 340.938L217.729 340.889L217.766 347.122L211.514 347.125C211.505 345.09 211.564 342.977 211.594 340.938Z" fill="#FFFFFE"/>
<path d="M157.873 259.407C159.772 258.979 161.754 259.618 163.045 261.074C164.336 262.533 164.732 264.575 164.079 266.411C163.426 268.246 161.827 269.578 159.905 269.891C157.054 270.355 154.351 268.471 153.802 265.634C153.252 262.8 155.055 260.04 157.873 259.407Z" fill="#323534"/>
<path d="M96.2494 225.632C98.8896 224.615 101.855 225.915 102.897 228.546C103.938 231.176 102.666 234.154 100.046 235.221C97.3906 236.301 94.3633 235.008 93.3079 232.342C92.2525 229.677 93.574 226.662 96.2494 225.632Z" fill="#323534"/>
<path d="M197.702 167.864C200.035 167.761 205.399 166.939 206.679 169.137C206.55 170.155 206.591 170.097 206.034 170.951C203.265 170.987 199.068 171.613 197.239 170.063C197.037 168.631 196.979 169.352 197.702 167.864Z" fill="#323534"/>
<path d="M123.994 263.183C127.161 263.046 130.04 262.452 132.959 263.485C133.827 264.529 133.548 264.301 133.686 265.95C130.545 265.978 127.319 266.54 124.436 265.588C123.617 264.579 123.877 264.913 123.994 263.183Z" fill="#323534"/>
<path d="M98.878 254.739L99.8627 255.246C100.996 257.91 102.212 259.464 104.252 261.531L104.559 261.837C104.762 262.905 104.531 262.824 103.912 264.048C100.437 262.955 96.0631 258.314 98.878 254.739Z" fill="#323534"/>
<path d="M189.723 342.309C192.458 342.351 195.941 341.617 198.243 342.749C198.991 343.93 198.782 343.469 198.642 345.143C195.78 345.375 192.602 345.993 190.078 344.9C189.337 343.807 189.606 343.99 189.723 342.309Z" fill="#323534"/>
<path d="M176.268 342.383C178.73 342.225 181.676 341.764 183.898 342.646C184.693 343.729 184.466 343.104 184.313 344.682L183.557 345.301C180.97 345.364 177.926 345.983 175.764 344.83C175.152 343.68 175.317 344.299 175.437 342.864L176.268 342.383Z" fill="#323534"/>
<path d="M183.002 167.81C185.67 167.799 189.329 167.119 191.476 168.393C191.99 169.578 191.821 169.24 191.601 170.726C188.744 170.939 186.027 171.574 183.467 170.58C182.648 169.426 182.939 169.6 183.002 167.81Z" fill="#323534"/>
<path d="M109.615 263.116C112.331 263 115.812 262.441 118.172 263.548C118.837 264.656 118.609 264.381 118.45 265.978C115.922 266.037 111.554 266.719 109.615 265.401C109.098 264.185 109.219 264.652 109.615 263.116Z" fill="#323534"/>
<path d="M139.015 263.126C142.144 263.066 144.665 262.497 147.575 263.446C148.407 264.452 148.132 264.216 148.159 265.879C145.191 266.044 142.205 266.663 139.515 265.619C138.71 264.557 138.978 264.817 139.015 263.126Z" fill="#323534"/>
<path d="M161.917 342.361C164.268 342.242 167.684 341.757 169.679 342.78C170.281 343.943 170.112 343.3 169.888 344.829L169.137 345.251C166.687 345.335 162.251 345.919 160.725 343.884C161.154 342.72 160.832 343.254 161.917 342.361Z" fill="#323534"/>
<path d="M147.562 342.334C149.891 342.242 154.762 341.659 156.133 343.659C155.709 344.847 156.029 344.306 154.973 345.234C152.573 345.357 148.061 346.039 146.653 343.87C146.84 342.952 146.889 343.012 147.562 342.334Z" fill="#323534"/>
<path d="M213.621 197.922C214.398 197.967 214.6 198.024 215.363 198.206C216.55 200.036 216.474 205.511 215.319 207.298C215.036 207.205 214.753 207.112 214.469 207.02C211.916 206.018 212.728 199.78 213.621 197.922Z" fill="#323534"/>
<path d="M213.68 184.163C214.244 184.186 215.263 184.176 215.507 184.667C216.567 186.796 216.069 191.208 215.767 193.466C215.386 193.4 215.005 193.334 214.623 193.268C211.876 192.711 212.735 186.056 213.68 184.163Z" fill="#323534"/>
<path d="M96.9465 240.471C97.5789 240.547 98.7123 240.536 99.0154 240.925C100.333 242.614 99.6151 247.843 99.4851 249.934C97.8035 249.805 98.1291 250.092 97.1236 249.18C96.2243 246.349 96.7369 243.503 96.9465 240.471Z" fill="#323534"/>
<path d="M210.769 171.169C215.119 171.484 215.994 175.953 215.745 179.58C214.166 179.531 214.793 179.795 213.649 179.091C212.527 177.196 210.463 173.316 210.769 171.169Z" fill="#323534"/>
<path d="M134.394 341.029C136.24 341.149 139.699 342.017 141.326 343.016C142.009 344.088 141.805 343.708 141.709 345.234C138.226 345.593 134.48 345.192 134.394 341.029Z" fill="#323534"/>
<path d="M169.663 263.152C172.001 263.029 174.644 262.579 176.668 263.559C177.365 264.653 177.142 264.333 177.067 265.901C174.489 265.922 171.967 266.572 169.797 265.542C169.203 264.396 169.4 264.727 169.663 263.152Z" fill="#323534"/>
<path d="M214.638 321.599L215.36 322.028C216.602 323.754 216.504 328.338 214.585 329.853C212.119 328.018 212 323.564 214.638 321.599Z" fill="#323534"/>
<path d="M214.293 211.871C216.971 212.883 216.024 216.599 215.165 218.638C211.991 216.738 212.823 214.64 214.293 211.871Z" fill="#323534"/>
<path d="M96.9952 217.164C97.9943 217.229 98.1322 217.128 98.9432 217.654C99.5546 218.693 99.3018 220.097 99.2315 221.367C98.0692 221.222 98.1026 221.281 97.0986 220.713C96.4735 219.637 96.8229 218.456 96.9952 217.164Z" fill="#323534"/>
<path d="M377.92 80.7223C378.642 80.2091 384.17 78.0569 384.713 78.598C386.791 80.6691 388.907 83.7442 390.97 85.8721C391.019 85.9233 391.971 86.0754 392.095 86.0954C391.991 86.1901 391.726 86.229 391.568 86.2676L391.646 86.3653C392.173 86.4582 397.379 86.7447 397.666 86.6074C397.682 86.5997 397.698 86.5912 397.715 86.5834C398.892 86.0152 399.711 84.7848 400.578 83.8432C401.645 82.6833 403.766 80.4285 405.007 79.6317C405.934 79.0366 406.74 79.8837 407.527 79.4543C408.596 79.928 412.035 81.2482 412.442 82.3128C412.997 83.7702 411.188 91.073 411.773 92.5605C412.096 93.3826 413.249 94.335 413.87 94.9954C414.48 95.6442 415.154 96.6144 415.937 97.0362C417.523 97.8902 425.442 96.6304 426.45 97.5469C427.274 98.2962 427.907 100.628 428.275 101.73C428.537 102.517 429.263 104.094 428.922 104.881C428.212 106.513 421.791 110.085 421.138 111.915C420.919 112.528 420.734 117.04 420.7 117.882C421.8 118.731 427.585 124.438 428.204 125.444C427.782 126.546 427.353 127.609 426.896 128.696C426.318 130.071 425.508 131.338 424.884 132.67C421.415 132.503 417.586 131.86 414.179 131.856C413.36 132.471 410.572 134.905 409.937 135.702C409.225 136.596 409.719 141.589 409.639 142.979C409.576 144.063 410.117 146.033 408.92 146.852C407.101 147.85 404.437 148.751 402.406 149.196C401.254 148.585 398.725 145.343 396.944 143.091C397.161 140.146 397.139 137.227 396.882 134.412C396.871 133.432 396.824 132.47 396.747 131.527C405.705 129.887 412.255 121.801 411.739 112.471C411.179 102.355 402.523 94.6084 392.406 95.1677C385.183 95.567 379.167 100.092 376.52 106.33C372.362 105.13 367.56 104.535 362.106 104.63C360.926 103.577 359.856 102.549 359.366 101.606L359.336 101.548C359.192 101.272 359.293 100.384 359.251 99.9242C359.531 99.1317 360.293 97.3038 360.726 96.6589C361.209 96.478 361.484 95.7973 361.83 95.4234C362.49 94.7115 367.28 95.0106 368.455 94.9398C369.321 94.9223 371.428 95.1286 372.439 95.183C372.58 95.1032 373.206 94.7036 373.283 94.6048C373.911 93.7886 376.919 91.6568 377.123 90.7615L377.138 90.6959C377.285 90.0423 377.226 88.4618 377.257 87.6543C377.497 86.3967 377.153 81.4642 377.92 80.7223Z" fill="#323534"/>
<path d="M393.653 100.292C401.52 100.232 407.947 106.561 408.007 114.429C408.064 121.973 402.246 128.191 394.831 128.742C393.544 119.911 388.907 112.909 380.769 108.685C382.986 103.772 387.91 100.335 393.653 100.292Z" fill="#323534"/>
</svg>
