<svg width="1184" height="798" viewBox="0 0 1184 798" fill="none" xmlns="http://www.w3.org/2000/svg">
<rect y="432" width="298.214" height="365" fill="#77403A"/>
<rect x="885.786" y="432" width="298.214" height="365" fill="#77403A"/>
<path fill-rule="evenodd" clip-rule="evenodd" d="M467.228 494.862C397.743 496.377 424.676 501.989 298.214 524.301V797.001H885.785V494.862C885.785 494.862 752.725 525.816 663.085 524.301C583.564 522.957 546.722 493.129 467.228 494.862Z" fill="#4A90B3" stroke="black"/>
<path d="M527.703 520.729C435.74 520.029 298.214 493.127 298.214 493.127V797H885.785V518.149C885.785 518.149 820.19 498.204 773.514 493.127C677.387 482.673 625.887 521.476 527.703 520.729Z" fill="#4A90B3" fill-opacity="0.5" stroke="black"/>
<path fill-rule="evenodd" clip-rule="evenodd" d="M923.186 404H262.783V469H923.186V404Z" fill="black" stroke="black" stroke-width="4"/>
<path fill-rule="evenodd" clip-rule="evenodd" d="M279.515 191V432H290.341V191H279.515Z" fill="black" stroke="black" stroke-width="4"/>
<path fill-rule="evenodd" clip-rule="evenodd" d="M897.596 191V432H908.422V191H897.596Z" fill="black" stroke="black" stroke-width="4"/>
<path d="M291.817 235C318.655 245.1 344.147 254.057 368.585 261.876M494.072 293.421C514.471 296.891 534.401 299.348 554.108 300.797C574.431 302.291 594.517 302.713 614.637 302.067C632.105 301.506 649.598 300.141 667.292 297.973C686.815 295.582 706.585 292.214 726.837 287.873C743.524 284.297 760.539 280.06 778.015 275.165C815.2 264.749 854.47 251.354 897.104 235M368.585 261.876V404L429.114 279.433M494.072 293.421C473.009 289.839 451.447 285.178 429.114 279.433C409.587 274.41 389.472 268.559 368.585 261.876M429.114 279.433V404M554.108 300.797V404H494.072V293.421M494.072 293.421L554.108 404M667.292 297.973V404H614.637V302.067M614.637 404L667.292 297.973M778.015 275.165V404H726.837V287.873M726.837 287.873L778.015 404" stroke="black" stroke-width="8"/>
<path d="M92.8207 586.768C92.8207 588.069 92.5221 589.264 91.9247 590.352C91.3274 591.419 90.4101 592.283 89.1727 592.944C87.9354 593.605 86.3994 593.936 84.5647 593.936H81.1727V602H75.7007V579.536H84.5647C86.3567 579.536 87.8714 579.845 89.1087 580.464C90.3461 581.083 91.2741 581.936 91.8927 583.024C92.5114 584.112 92.8207 585.36 92.8207 586.768ZM84.1487 589.584C85.1941 589.584 85.9727 589.339 86.4847 588.848C86.9967 588.357 87.2527 587.664 87.2527 586.768C87.2527 585.872 86.9967 585.179 86.4847 584.688C85.9727 584.197 85.1941 583.952 84.1487 583.952H81.1727V589.584H84.1487ZM94.5815 593.04C94.5815 591.205 94.9228 589.595 95.6055 588.208C96.3095 586.821 97.2588 585.755 98.4535 585.008C99.6482 584.261 100.981 583.888 102.453 583.888C103.712 583.888 104.811 584.144 105.749 584.656C106.709 585.168 107.445 585.84 107.957 586.672V584.144H113.429V602H107.957V599.472C107.424 600.304 106.677 600.976 105.717 601.488C104.779 602 103.68 602.256 102.421 602.256C100.971 602.256 99.6482 601.883 98.4535 601.136C97.2588 600.368 96.3095 599.291 95.6055 597.904C94.9228 596.496 94.5815 594.875 94.5815 593.04ZM107.957 593.072C107.957 591.707 107.573 590.629 106.805 589.84C106.059 589.051 105.141 588.656 104.053 588.656C102.965 588.656 102.037 589.051 101.269 589.84C100.523 590.608 100.149 591.675 100.149 593.04C100.149 594.405 100.523 595.493 101.269 596.304C102.037 597.093 102.965 597.488 104.053 597.488C105.141 597.488 106.059 597.093 106.805 596.304C107.573 595.515 107.957 594.437 107.957 593.072ZM116.3 593.072C116.3 591.216 116.674 589.595 117.42 588.208C118.188 586.821 119.244 585.755 120.588 585.008C121.954 584.261 123.511 583.888 125.26 583.888C127.5 583.888 129.367 584.475 130.86 585.648C132.375 586.821 133.367 588.475 133.836 590.608H128.012C127.522 589.243 126.572 588.56 125.164 588.56C124.162 588.56 123.362 588.955 122.764 589.744C122.167 590.512 121.868 591.621 121.868 593.072C121.868 594.523 122.167 595.643 122.764 596.432C123.362 597.2 124.162 597.584 125.164 597.584C126.572 597.584 127.522 596.901 128.012 595.536H133.836C133.367 597.627 132.375 599.269 130.86 600.464C129.346 601.659 127.479 602.256 125.26 602.256C123.511 602.256 121.954 601.883 120.588 601.136C119.244 600.389 118.188 599.323 117.42 597.936C116.674 596.549 116.3 594.928 116.3 593.072ZM147.675 602L142.235 594.512V602H136.763V578.32H142.235V591.408L147.643 584.144H154.395L146.971 593.104L154.459 602H147.675ZM155.456 593.04C155.456 591.205 155.798 589.595 156.48 588.208C157.184 586.821 158.134 585.755 159.328 585.008C160.523 584.261 161.856 583.888 163.328 583.888C164.587 583.888 165.686 584.144 166.624 584.656C167.584 585.168 168.32 585.84 168.832 586.672V584.144H174.304V602H168.832V599.472C168.299 600.304 167.552 600.976 166.592 601.488C165.654 602 164.555 602.256 163.296 602.256C161.846 602.256 160.523 601.883 159.328 601.136C158.134 600.368 157.184 599.291 156.48 597.904C155.798 596.496 155.456 594.875 155.456 593.04ZM168.832 593.072C168.832 591.707 168.448 590.629 167.68 589.84C166.934 589.051 166.016 588.656 164.928 588.656C163.84 588.656 162.912 589.051 162.144 589.84C161.398 590.608 161.024 591.675 161.024 593.04C161.024 594.405 161.398 595.493 162.144 596.304C162.912 597.093 163.84 597.488 164.928 597.488C166.016 597.488 166.934 597.093 167.68 596.304C168.448 595.515 168.832 594.437 168.832 593.072ZM185.047 583.888C186.306 583.888 187.405 584.144 188.343 584.656C189.303 585.168 190.039 585.84 190.551 586.672V584.144H196.023V601.968C196.023 603.611 195.693 605.093 195.031 606.416C194.391 607.76 193.399 608.827 192.055 609.616C190.733 610.405 189.079 610.8 187.095 610.8C184.45 610.8 182.306 610.171 180.663 608.912C179.021 607.675 178.082 605.989 177.847 603.856H183.255C183.426 604.539 183.831 605.072 184.471 605.456C185.111 605.861 185.901 606.064 186.839 606.064C187.97 606.064 188.866 605.733 189.527 605.072C190.21 604.432 190.551 603.397 190.551 601.968V599.44C190.018 600.272 189.282 600.955 188.343 601.488C187.405 602 186.306 602.256 185.047 602.256C183.575 602.256 182.242 601.883 181.047 601.136C179.853 600.368 178.903 599.291 178.199 597.904C177.517 596.496 177.175 594.875 177.175 593.04C177.175 591.205 177.517 589.595 178.199 588.208C178.903 586.821 179.853 585.755 181.047 585.008C182.242 584.261 183.575 583.888 185.047 583.888ZM190.551 593.072C190.551 591.707 190.167 590.629 189.399 589.84C188.653 589.051 187.735 588.656 186.647 588.656C185.559 588.656 184.631 589.051 183.863 589.84C183.117 590.608 182.743 591.675 182.743 593.04C182.743 594.405 183.117 595.493 183.863 596.304C184.631 597.093 185.559 597.488 186.647 597.488C187.735 597.488 188.653 597.093 189.399 596.304C190.167 595.515 190.551 594.437 190.551 593.072ZM216.814 592.784C216.814 593.296 216.782 593.829 216.718 594.384H204.334C204.419 595.493 204.771 596.347 205.39 596.944C206.03 597.52 206.809 597.808 207.726 597.808C209.091 597.808 210.041 597.232 210.574 596.08H216.398C216.099 597.253 215.555 598.309 214.766 599.248C213.998 600.187 213.027 600.923 211.854 601.456C210.681 601.989 209.369 602.256 207.918 602.256C206.169 602.256 204.611 601.883 203.246 601.136C201.881 600.389 200.814 599.323 200.046 597.936C199.278 596.549 198.894 594.928 198.894 593.072C198.894 591.216 199.267 589.595 200.014 588.208C200.782 586.821 201.849 585.755 203.214 585.008C204.579 584.261 206.147 583.888 207.918 583.888C209.646 583.888 211.182 584.251 212.526 584.976C213.87 585.701 214.915 586.736 215.662 588.08C216.43 589.424 216.814 590.992 216.814 592.784ZM211.214 591.344C211.214 590.405 210.894 589.659 210.254 589.104C209.614 588.549 208.814 588.272 207.854 588.272C206.937 588.272 206.158 588.539 205.518 589.072C204.899 589.605 204.515 590.363 204.366 591.344H211.214ZM126.649 634.768C126.649 636.069 126.35 637.264 125.753 638.352C125.156 639.419 124.238 640.283 123.001 640.944C121.764 641.605 120.228 641.936 118.393 641.936H115.001V650H109.529V627.536H118.393C120.185 627.536 121.7 627.845 122.937 628.464C124.174 629.083 125.102 629.936 125.721 631.024C126.34 632.112 126.649 633.36 126.649 634.768ZM117.977 637.584C119.022 637.584 119.801 637.339 120.313 636.848C120.825 636.357 121.081 635.664 121.081 634.768C121.081 633.872 120.825 633.179 120.313 632.688C119.801 632.197 119.022 631.952 117.977 631.952H115.001V637.584H117.977ZM128.41 641.04C128.41 639.205 128.751 637.595 129.434 636.208C130.138 634.821 131.087 633.755 132.282 633.008C133.476 632.261 134.81 631.888 136.282 631.888C137.54 631.888 138.639 632.144 139.578 632.656C140.538 633.168 141.274 633.84 141.786 634.672V632.144H147.258V650H141.786V647.472C141.252 648.304 140.506 648.976 139.546 649.488C138.607 650 137.508 650.256 136.25 650.256C134.799 650.256 133.476 649.883 132.282 649.136C131.087 648.368 130.138 647.291 129.434 645.904C128.751 644.496 128.41 642.875 128.41 641.04ZM141.786 641.072C141.786 639.707 141.402 638.629 140.634 637.84C139.887 637.051 138.97 636.656 137.882 636.656C136.794 636.656 135.866 637.051 135.098 637.84C134.351 638.608 133.978 639.675 133.978 641.04C133.978 642.405 134.351 643.493 135.098 644.304C135.866 645.093 136.794 645.488 137.882 645.488C138.97 645.488 139.887 645.093 140.634 644.304C141.402 643.515 141.786 642.437 141.786 641.072ZM158 631.888C159.259 631.888 160.358 632.144 161.296 632.656C162.256 633.168 162.992 633.84 163.504 634.672V632.144H168.976V649.968C168.976 651.611 168.646 653.093 167.984 654.416C167.344 655.76 166.352 656.827 165.008 657.616C163.686 658.405 162.032 658.8 160.048 658.8C157.403 658.8 155.259 658.171 153.616 656.912C151.974 655.675 151.035 653.989 150.8 651.856H156.208C156.379 652.539 156.784 653.072 157.424 653.456C158.064 653.861 158.854 654.064 159.792 654.064C160.923 654.064 161.819 653.733 162.48 653.072C163.163 652.432 163.504 651.397 163.504 649.968V647.44C162.971 648.272 162.235 648.955 161.296 649.488C160.358 650 159.259 650.256 158 650.256C156.528 650.256 155.195 649.883 154 649.136C152.806 648.368 151.856 647.291 151.152 645.904C150.47 644.496 150.128 642.875 150.128 641.04C150.128 639.205 150.47 637.595 151.152 636.208C151.856 634.821 152.806 633.755 154 633.008C155.195 632.261 156.528 631.888 158 631.888ZM163.504 641.072C163.504 639.707 163.12 638.629 162.352 637.84C161.606 637.051 160.688 636.656 159.6 636.656C158.512 636.656 157.584 637.051 156.816 637.84C156.07 638.608 155.696 639.675 155.696 641.04C155.696 642.405 156.07 643.493 156.816 644.304C157.584 645.093 158.512 645.488 159.6 645.488C160.688 645.488 161.606 645.093 162.352 644.304C163.12 643.515 163.504 642.437 163.504 641.072ZM189.767 640.784C189.767 641.296 189.735 641.829 189.671 642.384H177.287C177.372 643.493 177.724 644.347 178.343 644.944C178.983 645.52 179.762 645.808 180.679 645.808C182.044 645.808 182.994 645.232 183.527 644.08H189.351C189.052 645.253 188.508 646.309 187.719 647.248C186.951 648.187 185.98 648.923 184.807 649.456C183.634 649.989 182.322 650.256 180.871 650.256C179.122 650.256 177.564 649.883 176.199 649.136C174.834 648.389 173.767 647.323 172.999 645.936C172.231 644.549 171.847 642.928 171.847 641.072C171.847 639.216 172.22 637.595 172.967 636.208C173.735 634.821 174.802 633.755 176.167 633.008C177.532 632.261 179.1 631.888 180.871 631.888C182.599 631.888 184.135 632.251 185.479 632.976C186.823 633.701 187.868 634.736 188.615 636.08C189.383 637.424 189.767 638.992 189.767 640.784ZM184.167 639.344C184.167 638.405 183.847 637.659 183.207 637.104C182.567 636.549 181.767 636.272 180.807 636.272C179.89 636.272 179.111 636.539 178.471 637.072C177.852 637.605 177.468 638.363 177.319 639.344H184.167Z" fill="#F8F4F3"/>
<path d="M568.882 767.04H559.154L557.362 772H554.29L562.354 749.824H565.714L573.746 772H570.674L568.882 767.04ZM568.05 764.672L564.018 753.408L559.986 764.672H568.05ZM584.397 756.864H580.717V772H577.805V756.864H575.533V754.464H577.805V753.216C577.805 751.253 578.306 749.824 579.309 748.928C580.333 748.011 581.965 747.552 584.205 747.552V749.984C582.925 749.984 582.018 750.24 581.485 750.752C580.973 751.243 580.717 752.064 580.717 753.216V754.464H584.397V756.864ZM591.344 756.864V767.2C591.344 768.053 591.525 768.661 591.888 769.024C592.251 769.365 592.88 769.536 593.776 769.536H595.92V772H593.296C591.675 772 590.459 771.627 589.648 770.88C588.837 770.133 588.432 768.907 588.432 767.2V756.864H586.16V754.464H588.432V750.048H591.344V754.464H595.92V756.864H591.344ZM615.448 762.56C615.448 763.115 615.416 763.701 615.352 764.32H601.336C601.443 766.048 602.03 767.403 603.096 768.384C604.184 769.344 605.496 769.824 607.032 769.824C608.291 769.824 609.336 769.536 610.168 768.96C611.022 768.363 611.619 767.573 611.96 766.592H615.096C614.627 768.277 613.688 769.653 612.28 770.72C610.872 771.765 609.123 772.288 607.032 772.288C605.368 772.288 603.875 771.915 602.552 771.168C601.251 770.421 600.227 769.365 599.48 768C598.734 766.613 598.36 765.013 598.36 763.2C598.36 761.387 598.723 759.797 599.448 758.432C600.174 757.067 601.187 756.021 602.488 755.296C603.811 754.549 605.326 754.176 607.032 754.176C608.696 754.176 610.168 754.539 611.448 755.264C612.728 755.989 613.71 756.992 614.392 758.272C615.096 759.531 615.448 760.96 615.448 762.56ZM612.44 761.952C612.44 760.843 612.195 759.893 611.704 759.104C611.214 758.293 610.542 757.685 609.688 757.28C608.856 756.853 607.928 756.64 606.904 756.64C605.432 756.64 604.174 757.109 603.128 758.048C602.104 758.987 601.518 760.288 601.368 761.952H612.44ZM622.204 757.312C622.716 756.309 623.441 755.531 624.38 754.976C625.34 754.421 626.503 754.144 627.868 754.144V757.152H627.1C623.836 757.152 622.204 758.923 622.204 762.464V772H619.292V754.464H622.204V757.312Z" fill="black"/>
<path d="M971.65 545.736C971.65 543.517 972.13 541.544 973.09 539.816C974.05 538.067 975.383 536.712 977.09 535.752C978.818 534.771 980.77 534.28 982.946 534.28C985.612 534.28 987.895 534.984 989.794 536.392C991.692 537.8 992.962 539.72 993.602 542.152H987.586C987.138 541.213 986.498 540.499 985.666 540.008C984.855 539.517 983.927 539.272 982.882 539.272C981.196 539.272 979.831 539.859 978.786 541.032C977.74 542.205 977.218 543.773 977.218 545.736C977.218 547.699 977.74 549.267 978.786 550.44C979.831 551.613 981.196 552.2 982.882 552.2C983.927 552.2 984.855 551.955 985.666 551.464C986.498 550.973 987.138 550.259 987.586 549.32H993.602C992.962 551.752 991.692 553.672 989.794 555.08C987.895 556.467 985.612 557.16 982.946 557.16C980.77 557.16 978.818 556.68 977.09 555.72C975.383 554.739 974.05 553.384 973.09 551.656C972.13 549.928 971.65 547.955 971.65 545.736ZM1014.58 539.144V557H1009.11V554.568C1008.56 555.357 1007.8 555.997 1006.84 556.488C1005.9 556.957 1004.86 557.192 1003.7 557.192C1002.34 557.192 1001.13 556.893 1000.09 556.296C999.043 555.677 998.233 554.792 997.657 553.64C997.081 552.488 996.793 551.133 996.793 549.576V539.144H1002.23V548.84C1002.23 550.035 1002.54 550.963 1003.16 551.624C1003.78 552.285 1004.61 552.616 1005.66 552.616C1006.72 552.616 1007.57 552.285 1008.18 551.624C1008.8 550.963 1009.11 550.035 1009.11 548.84V539.144H1014.58ZM1025.78 557.256C1024.22 557.256 1022.84 556.989 1021.62 556.456C1020.4 555.923 1019.44 555.197 1018.74 554.28C1018.04 553.341 1017.64 552.296 1017.56 551.144H1022.96C1023.03 551.763 1023.32 552.264 1023.83 552.648C1024.34 553.032 1024.97 553.224 1025.72 553.224C1026.4 553.224 1026.92 553.096 1027.28 552.84C1027.67 552.563 1027.86 552.211 1027.86 551.784C1027.86 551.272 1027.59 550.899 1027.06 550.664C1026.53 550.408 1025.66 550.131 1024.47 549.832C1023.19 549.533 1022.12 549.224 1021.27 548.904C1020.41 548.563 1019.68 548.04 1019.06 547.336C1018.44 546.611 1018.13 545.64 1018.13 544.424C1018.13 543.4 1018.41 542.472 1018.96 541.64C1019.54 540.787 1020.37 540.115 1021.46 539.624C1022.57 539.133 1023.88 538.888 1025.4 538.888C1027.64 538.888 1029.4 539.443 1030.68 540.552C1031.98 541.661 1032.72 543.133 1032.92 544.968H1027.86C1027.77 544.349 1027.5 543.859 1027.03 543.496C1026.58 543.133 1025.98 542.952 1025.24 542.952C1024.6 542.952 1024.1 543.08 1023.76 543.336C1023.42 543.571 1023.25 543.901 1023.25 544.328C1023.25 544.84 1023.52 545.224 1024.05 545.48C1024.61 545.736 1025.46 545.992 1026.61 546.248C1027.93 546.589 1029.01 546.931 1029.84 547.272C1030.68 547.592 1031.4 548.125 1032.02 548.872C1032.66 549.597 1032.99 550.579 1033.01 551.816C1033.01 552.861 1032.71 553.8 1032.12 554.632C1031.54 555.443 1030.7 556.083 1029.59 556.552C1028.5 557.021 1027.23 557.256 1025.78 557.256ZM1046.31 552.36V557H1043.53C1041.54 557 1040 556.52 1038.89 555.56C1037.78 554.579 1037.22 552.989 1037.22 550.792V543.688H1035.05V539.144H1037.22V534.792H1042.7V539.144H1046.28V543.688H1042.7V550.856C1042.7 551.389 1042.82 551.773 1043.08 552.008C1043.34 552.243 1043.76 552.36 1044.36 552.36H1046.31ZM1057.49 557.256C1055.74 557.256 1054.16 556.883 1052.75 556.136C1051.36 555.389 1050.27 554.323 1049.46 552.936C1048.67 551.549 1048.27 549.928 1048.27 548.072C1048.27 546.237 1048.68 544.627 1049.49 543.24C1050.3 541.832 1051.41 540.755 1052.82 540.008C1054.22 539.261 1055.8 538.888 1057.55 538.888C1059.3 538.888 1060.88 539.261 1062.29 540.008C1063.7 540.755 1064.8 541.832 1065.62 543.24C1066.43 544.627 1066.83 546.237 1066.83 548.072C1066.83 549.907 1066.42 551.528 1065.58 552.936C1064.77 554.323 1063.65 555.389 1062.22 556.136C1060.82 556.883 1059.24 557.256 1057.49 557.256ZM1057.49 552.52C1058.53 552.52 1059.42 552.136 1060.14 551.368C1060.89 550.6 1061.26 549.501 1061.26 548.072C1061.26 546.643 1060.9 545.544 1060.18 544.776C1059.47 544.008 1058.6 543.624 1057.55 543.624C1056.48 543.624 1055.6 544.008 1054.9 544.776C1054.19 545.523 1053.84 546.621 1053.84 548.072C1053.84 549.501 1054.18 550.6 1054.86 551.368C1055.57 552.136 1056.44 552.52 1057.49 552.52ZM1092.52 538.952C1094.74 538.952 1096.5 539.624 1097.8 540.968C1099.12 542.312 1099.78 544.179 1099.78 546.568V557H1094.34V547.304C1094.34 546.152 1094.03 545.267 1093.41 544.648C1092.82 544.008 1091.98 543.688 1090.92 543.688C1089.85 543.688 1089.01 544.008 1088.39 544.648C1087.79 545.267 1087.49 546.152 1087.49 547.304V557H1082.05V547.304C1082.05 546.152 1081.74 545.267 1081.13 544.648C1080.53 544.008 1079.7 543.688 1078.63 543.688C1077.56 543.688 1076.72 544.008 1076.1 544.648C1075.5 545.267 1075.21 546.152 1075.21 547.304V557H1069.73V539.144H1075.21V541.384C1075.76 540.637 1076.49 540.051 1077.38 539.624C1078.28 539.176 1079.29 538.952 1080.42 538.952C1081.77 538.952 1082.96 539.24 1084.01 539.816C1085.07 540.392 1085.9 541.213 1086.5 542.28C1087.12 541.299 1087.96 540.499 1089.03 539.88C1090.1 539.261 1091.26 538.952 1092.52 538.952ZM986.604 589.768C986.604 591.069 986.305 592.264 985.708 593.352C985.111 594.419 984.193 595.283 982.956 595.944C981.719 596.605 980.183 596.936 978.348 596.936H974.956V605H969.484V582.536H978.348C980.14 582.536 981.655 582.845 982.892 583.464C984.129 584.083 985.057 584.936 985.676 586.024C986.295 587.112 986.604 588.36 986.604 589.768ZM977.932 592.584C978.977 592.584 979.756 592.339 980.268 591.848C980.78 591.357 981.036 590.664 981.036 589.768C981.036 588.872 980.78 588.179 980.268 587.688C979.756 587.197 978.977 586.952 977.932 586.952H974.956V592.584H977.932ZM988.365 596.04C988.365 594.205 988.706 592.595 989.389 591.208C990.093 589.821 991.042 588.755 992.237 588.008C993.431 587.261 994.765 586.888 996.237 586.888C997.495 586.888 998.594 587.144 999.533 587.656C1000.49 588.168 1001.23 588.84 1001.74 589.672V587.144H1007.21V605H1001.74V602.472C1001.21 603.304 1000.46 603.976 999.501 604.488C998.562 605 997.463 605.256 996.205 605.256C994.754 605.256 993.431 604.883 992.237 604.136C991.042 603.368 990.093 602.291 989.389 600.904C988.706 599.496 988.365 597.875 988.365 596.04ZM1001.74 596.072C1001.74 594.707 1001.36 593.629 1000.59 592.84C999.842 592.051 998.925 591.656 997.837 591.656C996.749 591.656 995.821 592.051 995.053 592.84C994.306 593.608 993.933 594.675 993.933 596.04C993.933 597.405 994.306 598.493 995.053 599.304C995.821 600.093 996.749 600.488 997.837 600.488C998.925 600.488 999.842 600.093 1000.59 599.304C1001.36 598.515 1001.74 597.437 1001.74 596.072ZM1010.08 596.072C1010.08 594.216 1010.46 592.595 1011.2 591.208C1011.97 589.821 1013.03 588.755 1014.37 588.008C1015.74 587.261 1017.29 586.888 1019.04 586.888C1021.28 586.888 1023.15 587.475 1024.64 588.648C1026.16 589.821 1027.15 591.475 1027.62 593.608H1021.8C1021.3 592.243 1020.36 591.56 1018.95 591.56C1017.94 591.56 1017.14 591.955 1016.55 592.744C1015.95 593.512 1015.65 594.621 1015.65 596.072C1015.65 597.523 1015.95 598.643 1016.55 599.432C1017.14 600.2 1017.94 600.584 1018.95 600.584C1020.36 600.584 1021.3 599.901 1021.8 598.536H1027.62C1027.15 600.627 1026.16 602.269 1024.64 603.464C1023.13 604.659 1021.26 605.256 1019.04 605.256C1017.29 605.256 1015.74 604.883 1014.37 604.136C1013.03 603.389 1011.97 602.323 1011.2 600.936C1010.46 599.549 1010.08 597.928 1010.08 596.072ZM1041.46 605L1036.02 597.512V605H1030.55V581.32H1036.02V594.408L1041.43 587.144H1048.18L1040.75 596.104L1048.24 605H1041.46ZM1049.24 596.04C1049.24 594.205 1049.58 592.595 1050.26 591.208C1050.97 589.821 1051.92 588.755 1053.11 588.008C1054.31 587.261 1055.64 586.888 1057.11 586.888C1058.37 586.888 1059.47 587.144 1060.41 587.656C1061.37 588.168 1062.1 588.84 1062.62 589.672V587.144H1068.09V605H1062.62V602.472C1062.08 603.304 1061.34 603.976 1060.38 604.488C1059.44 605 1058.34 605.256 1057.08 605.256C1055.63 605.256 1054.31 604.883 1053.11 604.136C1051.92 603.368 1050.97 602.291 1050.26 600.904C1049.58 599.496 1049.24 597.875 1049.24 596.04ZM1062.62 596.072C1062.62 594.707 1062.23 593.629 1061.46 592.84C1060.72 592.051 1059.8 591.656 1058.71 591.656C1057.62 591.656 1056.7 592.051 1055.93 592.84C1055.18 593.608 1054.81 594.675 1054.81 596.04C1054.81 597.405 1055.18 598.493 1055.93 599.304C1056.7 600.093 1057.62 600.488 1058.71 600.488C1059.8 600.488 1060.72 600.093 1061.46 599.304C1062.23 598.515 1062.62 597.437 1062.62 596.072ZM1078.83 586.888C1080.09 586.888 1081.19 587.144 1082.13 587.656C1083.09 588.168 1083.82 588.84 1084.33 589.672V587.144H1089.81V604.968C1089.81 606.611 1089.48 608.093 1088.81 609.416C1088.17 610.76 1087.18 611.827 1085.84 612.616C1084.52 613.405 1082.86 613.8 1080.88 613.8C1078.23 613.8 1076.09 613.171 1074.45 611.912C1072.8 610.675 1071.87 608.989 1071.63 606.856H1077.04C1077.21 607.539 1077.61 608.072 1078.25 608.456C1078.89 608.861 1079.68 609.064 1080.62 609.064C1081.75 609.064 1082.65 608.733 1083.31 608.072C1083.99 607.432 1084.33 606.397 1084.33 604.968V602.44C1083.8 603.272 1083.07 603.955 1082.13 604.488C1081.19 605 1080.09 605.256 1078.83 605.256C1077.36 605.256 1076.03 604.883 1074.83 604.136C1073.64 603.368 1072.69 602.291 1071.98 600.904C1071.3 599.496 1070.96 597.875 1070.96 596.04C1070.96 594.205 1071.3 592.595 1071.98 591.208C1072.69 589.821 1073.64 588.755 1074.83 588.008C1076.03 587.261 1077.36 586.888 1078.83 586.888ZM1084.33 596.072C1084.33 594.707 1083.95 593.629 1083.18 592.84C1082.44 592.051 1081.52 591.656 1080.43 591.656C1079.34 591.656 1078.41 592.051 1077.65 592.84C1076.9 593.608 1076.53 594.675 1076.53 596.04C1076.53 597.405 1076.9 598.493 1077.65 599.304C1078.41 600.093 1079.34 600.488 1080.43 600.488C1081.52 600.488 1082.44 600.093 1083.18 599.304C1083.95 598.515 1084.33 597.437 1084.33 596.072ZM1110.6 595.784C1110.6 596.296 1110.57 596.829 1110.5 597.384H1098.12C1098.2 598.493 1098.55 599.347 1099.17 599.944C1099.81 600.52 1100.59 600.808 1101.51 600.808C1102.87 600.808 1103.82 600.232 1104.36 599.08H1110.18C1109.88 600.253 1109.34 601.309 1108.55 602.248C1107.78 603.187 1106.81 603.923 1105.64 604.456C1104.46 604.989 1103.15 605.256 1101.7 605.256C1099.95 605.256 1098.39 604.883 1097.03 604.136C1095.66 603.389 1094.6 602.323 1093.83 600.936C1093.06 599.549 1092.68 597.928 1092.68 596.072C1092.68 594.216 1093.05 592.595 1093.8 591.208C1094.57 589.821 1095.63 588.755 1097 588.008C1098.36 587.261 1099.93 586.888 1101.7 586.888C1103.43 586.888 1104.97 587.251 1106.31 587.976C1107.65 588.701 1108.7 589.736 1109.45 591.08C1110.21 592.424 1110.6 593.992 1110.6 595.784ZM1105 594.344C1105 593.405 1104.68 592.659 1104.04 592.104C1103.4 591.549 1102.6 591.272 1101.64 591.272C1100.72 591.272 1099.94 591.539 1099.3 592.072C1098.68 592.605 1098.3 593.363 1098.15 594.344H1105ZM1017.04 637.768C1017.04 639.069 1016.74 640.264 1016.15 641.352C1015.55 642.419 1014.63 643.283 1013.39 643.944C1012.16 644.605 1010.62 644.936 1008.79 644.936H1005.39V653H999.922V630.536H1008.79C1010.58 630.536 1012.09 630.845 1013.33 631.464C1014.57 632.083 1015.49 632.936 1016.11 634.024C1016.73 635.112 1017.04 636.36 1017.04 637.768ZM1008.37 640.584C1009.41 640.584 1010.19 640.339 1010.71 639.848C1011.22 639.357 1011.47 638.664 1011.47 637.768C1011.47 636.872 1011.22 636.179 1010.71 635.688C1010.19 635.197 1009.41 634.952 1008.37 634.952H1005.39V640.584H1008.37ZM1018.8 644.04C1018.8 642.205 1019.14 640.595 1019.83 639.208C1020.53 637.821 1021.48 636.755 1022.67 636.008C1023.87 635.261 1025.2 634.888 1026.67 634.888C1027.93 634.888 1029.03 635.144 1029.97 635.656C1030.93 636.168 1031.67 636.84 1032.18 637.672V635.144H1037.65V653H1032.18V650.472C1031.64 651.304 1030.9 651.976 1029.94 652.488C1029 653 1027.9 653.256 1026.64 653.256C1025.19 653.256 1023.87 652.883 1022.67 652.136C1021.48 651.368 1020.53 650.291 1019.83 648.904C1019.14 647.496 1018.8 645.875 1018.8 644.04ZM1032.18 644.072C1032.18 642.707 1031.79 641.629 1031.03 640.84C1030.28 640.051 1029.36 639.656 1028.27 639.656C1027.19 639.656 1026.26 640.051 1025.49 640.84C1024.74 641.608 1024.37 642.675 1024.37 644.04C1024.37 645.405 1024.74 646.493 1025.49 647.304C1026.26 648.093 1027.19 648.488 1028.27 648.488C1029.36 648.488 1030.28 648.093 1031.03 647.304C1031.79 646.515 1032.18 645.437 1032.18 644.072ZM1048.39 634.888C1049.65 634.888 1050.75 635.144 1051.69 635.656C1052.65 636.168 1053.39 636.84 1053.9 637.672V635.144H1059.37V652.968C1059.37 654.611 1059.04 656.093 1058.38 657.416C1057.74 658.76 1056.75 659.827 1055.4 660.616C1054.08 661.405 1052.43 661.8 1050.44 661.8C1047.8 661.8 1045.65 661.171 1044.01 659.912C1042.37 658.675 1041.43 656.989 1041.19 654.856H1046.6C1046.77 655.539 1047.18 656.072 1047.82 656.456C1048.46 656.861 1049.25 657.064 1050.19 657.064C1051.32 657.064 1052.21 656.733 1052.87 656.072C1053.56 655.432 1053.9 654.397 1053.9 652.968V650.44C1053.36 651.272 1052.63 651.955 1051.69 652.488C1050.75 653 1049.65 653.256 1048.39 653.256C1046.92 653.256 1045.59 652.883 1044.39 652.136C1043.2 651.368 1042.25 650.291 1041.55 648.904C1040.86 647.496 1040.52 645.875 1040.52 644.04C1040.52 642.205 1040.86 640.595 1041.55 639.208C1042.25 637.821 1043.2 636.755 1044.39 636.008C1045.59 635.261 1046.92 634.888 1048.39 634.888ZM1053.9 644.072C1053.9 642.707 1053.51 641.629 1052.75 640.84C1052 640.051 1051.08 639.656 1049.99 639.656C1048.91 639.656 1047.98 640.051 1047.21 640.84C1046.46 641.608 1046.09 642.675 1046.09 644.04C1046.09 645.405 1046.46 646.493 1047.21 647.304C1047.98 648.093 1048.91 648.488 1049.99 648.488C1051.08 648.488 1052 648.093 1052.75 647.304C1053.51 646.515 1053.9 645.437 1053.9 644.072ZM1080.16 643.784C1080.16 644.296 1080.13 644.829 1080.06 645.384H1067.68C1067.77 646.493 1068.12 647.347 1068.74 647.944C1069.38 648.52 1070.15 648.808 1071.07 648.808C1072.44 648.808 1073.39 648.232 1073.92 647.08H1079.74C1079.45 648.253 1078.9 649.309 1078.11 650.248C1077.34 651.187 1076.37 651.923 1075.2 652.456C1074.03 652.989 1072.71 653.256 1071.26 653.256C1069.51 653.256 1067.96 652.883 1066.59 652.136C1065.23 651.389 1064.16 650.323 1063.39 648.936C1062.62 647.549 1062.24 645.928 1062.24 644.072C1062.24 642.216 1062.61 640.595 1063.36 639.208C1064.13 637.821 1065.19 636.755 1066.56 636.008C1067.93 635.261 1069.49 634.888 1071.26 634.888C1072.99 634.888 1074.53 635.251 1075.87 635.976C1077.22 636.701 1078.26 637.736 1079.01 639.08C1079.78 640.424 1080.16 641.992 1080.16 643.784ZM1074.56 642.344C1074.56 641.405 1074.24 640.659 1073.6 640.104C1072.96 639.549 1072.16 639.272 1071.2 639.272C1070.28 639.272 1069.5 639.539 1068.86 640.072C1068.25 640.605 1067.86 641.363 1067.71 642.344H1074.56Z" fill="#F8F4F3"/>
<path d="M150.742 297.836L143.411 298.376C131.682 298.762 123.889 305.012 122.191 316.278L112.468 357.176C112.314 357.948 111.928 358.642 111.465 359.259L80.3675 401.315L90.9391 408.028L122.808 376.622C128.364 371.297 133.071 366.899 135 362.655L144.106 329.551L150.742 297.836Z" fill="#636363"/>
<path d="M157.07 323.458L166.87 353.552C168.645 358.568 169.648 364.046 170.497 371.686L174.818 411.735L164.864 420.686L149.199 368.136L124.738 340.357C120.725 335.727 119.259 329.554 120.339 323.535L138.334 319.73L157.07 323.535V323.458Z" fill="#9B9B9B"/>
<path d="M74.8888 405.639L82.3738 398.617L94.6431 404.25L99.736 427.786C100.122 430.409 96.8809 431.953 95.0289 430.023L74.8116 408.34C74.1171 407.568 74.1171 406.334 74.8888 405.639ZM167.95 429.715L164.632 419.992L174.741 411.118L198.276 416.134C200.9 416.828 200.977 420.455 198.43 421.304L170.342 430.872C169.339 431.258 168.259 430.718 167.95 429.715Z" fill="#533566"/>
<path d="M105.809 326.956C106.045 326.226 106.264 325.513 106.465 324.819C106.64 324.176 106.815 323.592 106.989 323.067C116.751 294.732 136.852 282.663 138.92 281.429L139.09 281.321C140.792 280.424 142.072 278.891 142.65 277.056C143.228 275.221 143.058 273.231 142.177 271.521C140.325 267.971 135.926 266.582 132.454 268.434C131.374 268.974 105.523 282.787 93.3312 318.283L92.8836 319.541C92.5441 320.467 92.2277 321.339 92.0194 322.141L89.7044 327.929L89.6504 328.067C89.0254 329.804 87.8602 332.991 88.1611 334.719C88.5469 336.803 92.0194 339.118 94.9517 340.044C94.9517 340.044 98.6556 341.201 101.819 340.429C104.211 339.889 103.826 337.111 103.826 337.111C103.826 337.111 104.674 336.417 106.835 334.873C109.636 332.836 106.866 328.422 105.809 326.956ZM145.942 282.841C145.742 280.954 146.299 279.065 147.492 277.589C148.684 276.113 150.414 275.171 152.301 274.97C154.188 274.77 156.077 275.327 157.553 276.519C159.029 277.712 159.971 279.442 160.172 281.328L160.179 281.413L160.272 281.984C160.428 282.842 160.614 283.694 160.828 284.539C161.676 287.816 162.831 291.007 164.277 294.068C167.803 301.631 174.308 311.554 186.23 320.783C187.82 320.374 193.114 319.294 194.032 322.759C194.726 325.305 195.035 326.308 195.035 326.308C195.035 326.308 197.736 326.925 197.35 329.395C196.887 332.559 194.495 335.568 194.495 335.568C192.566 337.96 189.17 340.275 187.164 339.889C185.605 339.55 183.445 337.721 182.01 336.494L181.454 336.031L177.056 331.771C163.382 321.076 155.642 309.401 151.313 300.118C149.052 295.265 147.717 291.09 146.953 288.057C146.528 286.395 146.196 284.71 145.958 283.011L145.95 282.895V282.856L145.942 282.841Z" fill="#FFC83D"/>
<path d="M139.399 250.77L136.93 265.971L152.518 268.672L154.91 253.162L139.399 250.77Z" fill="#FCB100"/>
<path d="M152.054 303.624C147.347 294.673 145.032 286.571 143.952 280.706C143.026 275.845 146.73 271.292 151.668 271.061H151.977C155.681 271.061 157.687 272.913 158.382 276.616C158.768 278.777 160.542 282.481 161.545 285.568C162.703 289.194 164.246 292.744 166.098 296.216C166.407 296.834 166.175 297.528 165.558 297.837L153.675 304.087C153.057 304.473 152.363 304.242 152.054 303.624Z" fill="#0092E7"/>
<path d="M143.797 265.039C152.903 267.277 158.381 270.441 160.774 283.482C163.629 299.069 157.147 323.531 157.147 323.531H120.339L124.969 280.009C125.972 270.75 133.689 262.57 143.797 265.039Z" fill="#00A6ED"/>
<path d="M112.7 284.021C119.645 276.382 126.513 271.443 131.76 268.356C136.081 265.733 141.714 267.662 143.643 272.292L143.798 272.601C144.955 276.227 143.489 280.163 140.171 282.092C138.165 283.249 135.773 284.793 133.226 286.876C130.139 289.268 127.284 291.969 124.661 294.901C124.198 295.441 123.426 295.442 122.886 294.979L112.777 285.796C112.237 285.333 112.237 284.561 112.7 284.021Z" fill="#3BC6F6"/>
<path d="M148.041 222.833L156.607 222.679C163.937 222.524 169.956 228.389 170.11 235.643V239.346C170.11 240.504 170.419 241.661 171.036 242.665C172.888 245.597 173.737 245.906 173.814 247.372C173.969 249.687 171.808 250.304 170.805 250.458C170.496 250.535 170.265 250.767 170.265 251.076C170.188 259.255 168.799 265.12 158.999 265.274C153.057 265.351 143.566 262.573 140.711 255.551L138.01 246.137L134.923 236.26C134.923 229.006 140.788 222.987 148.041 222.833Z" fill="#FFC83D"/>
<path d="M166.869 243.279C167.332 243.279 167.795 242.816 167.795 242.198V242.121C167.718 239.729 165.635 238.34 163.628 238.417C161.622 238.417 159.539 239.883 159.616 242.275V242.353C159.616 242.97 160.079 243.433 160.542 243.433L166.869 243.279Z" fill="white"/>
<path d="M167.641 243.36C167.722 242.979 167.773 242.592 167.795 242.203C167.795 240.428 166.638 239.039 165.249 239.039C163.86 239.039 162.78 240.505 162.78 242.28C162.78 242.666 162.857 243.052 162.934 243.437L167.641 243.36Z" fill="#7D4533"/>
<path d="M166.816 243.362C167.019 243.01 167.125 242.611 167.125 242.204C167.125 241.201 166.43 240.43 165.658 240.43C164.887 240.43 164.269 241.279 164.269 242.282C164.269 242.745 164.408 243.053 164.563 243.362H166.816Z" fill="black"/>
<path d="M165.913 241.06C165.821 240.729 165.975 240.397 166.261 240.312C166.546 240.235 166.855 240.428 166.955 240.759C167.048 241.084 166.893 241.415 166.6 241.5C166.315 241.577 166.014 241.384 165.913 241.06Z" fill="white"/>
<path d="M162.024 251.088C161.561 251.242 161.321 251.752 161.484 252.215C161.904 253.403 162.775 254.377 163.91 254.926C165.044 255.475 166.349 255.554 167.541 255.147C167.739 255.053 167.895 254.89 167.979 254.688C168.064 254.486 168.071 254.261 167.999 254.054C167.927 253.847 167.782 253.675 167.591 253.569C167.399 253.463 167.175 253.431 166.962 253.48C165.419 254.02 163.683 253.172 163.15 251.628C163.072 251.408 162.909 251.227 162.698 251.126C162.487 251.025 162.245 251.011 162.024 251.088Z" fill="#990839"/>
<path d="M160.087 238.13C160.47 238.143 160.844 238.014 161.137 237.767C162.439 236.854 164.034 236.457 165.612 236.656C165.887 236.684 166.165 236.646 166.421 236.543C166.677 236.44 166.905 236.276 167.083 236.065C167.262 235.855 167.386 235.604 167.446 235.334C167.506 235.065 167.499 234.785 167.426 234.518C167.331 234.199 167.145 233.914 166.889 233.7C166.634 233.486 166.322 233.352 165.991 233.314C163.537 233.037 161.052 233.693 159.046 235.143C158.773 235.359 158.575 235.655 158.478 235.989C158.381 236.323 158.391 236.678 158.505 237.007C158.62 237.335 158.834 237.619 159.117 237.821C159.401 238.022 159.74 238.13 160.087 238.13Z" fill="#D37034"/>
<path d="M137.239 217.276C131.837 218.588 129.059 223.526 129.059 228.696C129.059 228.696 129.059 232.863 129.754 236.413C130.14 238.419 130.603 240.503 131.066 242.2C131.529 244.129 132.609 246.753 133.766 248.373C134.847 249.84 137.162 251.229 139.322 251.46C141.221 251.653 144.338 250.357 145.148 247.972C144.5 247.51 143.964 246.907 143.583 246.208C143.202 245.509 142.985 244.732 142.949 243.936C142.867 242.809 143.145 241.684 143.745 240.726C144.344 239.767 145.233 239.024 146.283 238.604C146.627 238.393 147.021 238.276 147.425 238.265L148.274 238.188C148.671 238.163 149.06 238.06 149.416 237.882C149.773 237.705 150.09 237.458 150.349 237.156C150.608 236.853 150.804 236.502 150.925 236.122C151.045 235.743 151.088 235.343 151.052 234.947C150.897 232.863 152.44 231.088 154.524 231.088L168.722 230.162C168.8 230.085 168.954 230.085 169.031 230.085C170.509 229.814 171.844 229.031 172.804 227.874C173.763 226.718 174.285 225.26 174.278 223.758C174.201 220.131 171.192 217.353 167.642 217.584C166.562 217.662 165.559 217.121 164.941 216.35C164.002 215.166 162.683 214.342 161.206 214.019C159.73 213.696 158.187 213.892 156.839 214.575C154.755 215.578 152.363 215.733 150.203 214.961C149.354 214.729 148.505 214.575 147.579 214.652C146.422 214.729 145.341 215.038 144.415 215.655C143.103 216.427 141.56 216.89 140.017 216.89C139.091 216.89 138.242 217.044 137.239 217.276Z" fill="#F1A11E"/>
<path d="M334.63 180C364.412 180 393.526 174.751 418.29 164.917C443.053 155.082 462.354 141.104 473.751 124.75C485.148 108.396 488.13 90.4007 482.32 73.0394C476.51 55.6782 462.168 39.7308 441.108 27.214C420.049 14.6972 393.218 6.17313 364.007 2.71976C334.797 -0.733619 304.52 1.03878 277.004 7.81282C249.489 14.5869 225.971 26.0583 209.424 40.7765C192.878 55.4947 184.046 72.7986 184.046 90.5C184.046 105.297 190.07 119.249 200.778 131.541L184.046 180L265.579 170.056C286.259 176.42 309.75 180 334.63 180Z" stroke="black" stroke-width="2" stroke-linecap="round" stroke-linejoin="round"/>
<path d="M216.139 99.168C214.555 99.168 213.099 98.8 211.771 98.064C210.459 97.328 209.411 96.304 208.627 94.992C207.859 93.664 207.475 92.176 207.475 90.528C207.475 88.88 207.859 87.4 208.627 86.088C209.411 84.776 210.459 83.752 211.771 83.016C213.099 82.28 214.555 81.912 216.139 81.912C217.723 81.912 219.171 82.28 220.483 83.016C221.811 83.752 222.851 84.776 223.603 86.088C224.371 87.4 224.755 88.88 224.755 90.528C224.755 92.176 224.371 93.664 223.603 94.992C222.835 96.304 221.795 97.328 220.483 98.064C219.171 98.8 217.723 99.168 216.139 99.168ZM216.139 95.424C217.483 95.424 218.555 94.976 219.355 94.08C220.171 93.184 220.579 92 220.579 90.528C220.579 89.04 220.171 87.856 219.355 86.976C218.555 86.08 217.483 85.632 216.139 85.632C214.779 85.632 213.691 86.072 212.875 86.952C212.075 87.832 211.675 89.024 211.675 90.528C211.675 92.016 212.075 93.208 212.875 94.104C213.691 94.984 214.779 95.424 216.139 95.424ZM235.27 85.464C236.806 85.464 238.038 85.976 238.966 87C239.894 88.008 240.358 89.4 240.358 91.176V99H236.278V91.728C236.278 90.832 236.046 90.136 235.582 89.64C235.118 89.144 234.494 88.896 233.71 88.896C232.926 88.896 232.302 89.144 231.838 89.64C231.374 90.136 231.142 90.832 231.142 91.728V99H227.038V81.24H231.142V87.408C231.558 86.816 232.126 86.344 232.846 85.992C233.566 85.64 234.374 85.464 235.27 85.464ZM253.696 81.552L253.216 93.048H249.736L249.256 81.552H253.696ZM251.536 99.192C250.816 99.192 250.224 98.984 249.76 98.568C249.312 98.136 249.088 97.608 249.088 96.984C249.088 96.344 249.312 95.808 249.76 95.376C250.224 94.944 250.816 94.728 251.536 94.728C252.24 94.728 252.816 94.944 253.264 95.376C253.728 95.808 253.96 96.344 253.96 96.984C253.96 97.608 253.728 98.136 253.264 98.568C252.816 98.984 252.24 99.192 251.536 99.192ZM266.884 82.152V99H262.78V82.152H266.884ZM277.323 95.52V99H275.235C273.747 99 272.587 98.64 271.755 97.92C270.923 97.184 270.507 95.992 270.507 94.344V89.016H268.875V85.608H270.507V82.344H274.611V85.608H277.299V89.016H274.611V94.392C274.611 94.792 274.707 95.08 274.899 95.256C275.091 95.432 275.411 95.52 275.859 95.52H277.323ZM285.057 99.192C283.889 99.192 282.849 98.992 281.937 98.592C281.025 98.192 280.305 97.648 279.777 96.96C279.249 96.256 278.953 95.472 278.889 94.608H282.945C282.993 95.072 283.209 95.448 283.593 95.736C283.977 96.024 284.449 96.168 285.009 96.168C285.521 96.168 285.913 96.072 286.185 95.88C286.473 95.672 286.617 95.408 286.617 95.088C286.617 94.704 286.417 94.424 286.017 94.248C285.617 94.056 284.969 93.848 284.073 93.624C283.113 93.4 282.313 93.168 281.673 92.928C281.033 92.672 280.481 92.28 280.017 91.752C279.553 91.208 279.321 90.48 279.321 89.568C279.321 88.8 279.529 88.104 279.945 87.48C280.377 86.84 281.001 86.336 281.817 85.968C282.649 85.6 283.633 85.416 284.769 85.416C286.449 85.416 287.769 85.832 288.729 86.664C289.705 87.496 290.265 88.6 290.409 89.976H286.617C286.553 89.512 286.345 89.144 285.993 88.872C285.657 88.6 285.209 88.464 284.649 88.464C284.169 88.464 283.801 88.56 283.545 88.752C283.289 88.928 283.161 89.176 283.161 89.496C283.161 89.88 283.361 90.168 283.761 90.36C284.177 90.552 284.817 90.744 285.681 90.936C286.673 91.192 287.481 91.448 288.105 91.704C288.729 91.944 289.273 92.344 289.737 92.904C290.217 93.448 290.465 94.184 290.481 95.112C290.481 95.896 290.257 96.6 289.809 97.224C289.377 97.832 288.745 98.312 287.913 98.664C287.097 99.016 286.145 99.192 285.057 99.192ZM306.669 99L303.165 92.64H302.181V99H298.077V82.152H304.965C306.293 82.152 307.421 82.384 308.349 82.848C309.293 83.312 309.997 83.952 310.461 84.768C310.925 85.568 311.157 86.464 311.157 87.456C311.157 88.576 310.837 89.576 310.197 90.456C309.573 91.336 308.645 91.96 307.413 92.328L311.301 99H306.669ZM302.181 89.736H304.725C305.477 89.736 306.037 89.552 306.405 89.184C306.789 88.816 306.981 88.296 306.981 87.624C306.981 86.984 306.789 86.48 306.405 86.112C306.037 85.744 305.477 85.56 304.725 85.56H302.181V89.736ZM315.798 84.216C315.078 84.216 314.486 84.008 314.022 83.592C313.574 83.16 313.35 82.632 313.35 82.008C313.35 81.368 313.574 80.84 314.022 80.424C314.486 79.992 315.078 79.776 315.798 79.776C316.502 79.776 317.078 79.992 317.526 80.424C317.99 80.84 318.222 81.368 318.222 82.008C318.222 82.632 317.99 83.16 317.526 83.592C317.078 84.008 316.502 84.216 315.798 84.216ZM317.838 85.608V99H313.734V85.608H317.838ZM325.9 85.416C326.844 85.416 327.668 85.608 328.372 85.992C329.092 86.376 329.644 86.88 330.028 87.504V85.608H334.132V98.976C334.132 100.208 333.884 101.32 333.388 102.312C332.908 103.32 332.164 104.12 331.156 104.712C330.164 105.304 328.924 105.6 327.436 105.6C325.452 105.6 323.844 105.128 322.612 104.184C321.38 103.256 320.676 101.992 320.5 100.392H324.556C324.684 100.904 324.988 101.304 325.468 101.592C325.948 101.896 326.54 102.048 327.244 102.048C328.092 102.048 328.764 101.8 329.26 101.304C329.772 100.824 330.028 100.048 330.028 98.976V97.08C329.628 97.704 329.076 98.216 328.372 98.616C327.668 99 326.844 99.192 325.9 99.192C324.796 99.192 323.796 98.912 322.9 98.352C322.004 97.776 321.292 96.968 320.764 95.928C320.252 94.872 319.996 93.656 319.996 92.28C319.996 90.904 320.252 89.696 320.764 88.656C321.292 87.616 322.004 86.816 322.9 86.256C323.796 85.696 324.796 85.416 325.9 85.416ZM330.028 92.304C330.028 91.28 329.74 90.472 329.164 89.88C328.604 89.288 327.916 88.992 327.1 88.992C326.284 88.992 325.588 89.288 325.012 89.88C324.452 90.456 324.172 91.256 324.172 92.28C324.172 93.304 324.452 94.12 325.012 94.728C325.588 95.32 326.284 95.616 327.1 95.616C327.916 95.616 328.604 95.32 329.164 94.728C329.74 94.136 330.028 93.328 330.028 92.304ZM345.333 85.464C346.869 85.464 348.101 85.976 349.029 87C349.957 88.008 350.421 89.4 350.421 91.176V99H346.341V91.728C346.341 90.832 346.109 90.136 345.645 89.64C345.181 89.144 344.557 88.896 343.773 88.896C342.989 88.896 342.365 89.144 341.901 89.64C341.437 90.136 341.205 90.832 341.205 91.728V99H337.101V81.24H341.205V87.408C341.621 86.816 342.189 86.344 342.909 85.992C343.629 85.64 344.437 85.464 345.333 85.464ZM360.737 95.52V99H358.649C357.161 99 356.001 98.64 355.169 97.92C354.337 97.184 353.921 95.992 353.921 94.344V89.016H352.289V85.608H353.921V82.344H358.025V85.608H360.713V89.016H358.025V94.392C358.025 94.792 358.121 95.08 358.313 95.256C358.505 95.432 358.825 95.52 359.273 95.52H360.737ZM380.229 82.152V85.44H375.765V99H371.661V85.44H367.197V82.152H380.229ZM390.52 85.464C392.056 85.464 393.288 85.976 394.216 87C395.144 88.008 395.608 89.4 395.608 91.176V99H391.528V91.728C391.528 90.832 391.296 90.136 390.832 89.64C390.368 89.144 389.744 88.896 388.96 88.896C388.176 88.896 387.552 89.144 387.088 89.64C386.624 90.136 386.392 90.832 386.392 91.728V99H382.288V81.24H386.392V87.408C386.808 86.816 387.376 86.344 388.096 85.992C388.816 85.64 389.624 85.464 390.52 85.464ZM411.084 92.088C411.084 92.472 411.06 92.872 411.012 93.288H401.724C401.788 94.12 402.052 94.76 402.516 95.208C402.996 95.64 403.58 95.856 404.268 95.856C405.292 95.856 406.004 95.424 406.404 94.56H410.772C410.548 95.44 410.14 96.232 409.548 96.936C408.972 97.64 408.244 98.192 407.364 98.592C406.484 98.992 405.5 99.192 404.412 99.192C403.1 99.192 401.932 98.912 400.908 98.352C399.884 97.792 399.084 96.992 398.508 95.952C397.932 94.912 397.644 93.696 397.644 92.304C397.644 90.912 397.924 89.696 398.484 88.656C399.06 87.616 399.86 86.816 400.884 86.256C401.908 85.696 403.084 85.416 404.412 85.416C405.708 85.416 406.86 85.688 407.868 86.232C408.876 86.776 409.66 87.552 410.22 88.56C410.796 89.568 411.084 90.744 411.084 92.088ZM406.884 91.008C406.884 90.304 406.644 89.744 406.164 89.328C405.684 88.912 405.084 88.704 404.364 88.704C403.676 88.704 403.092 88.904 402.612 89.304C402.148 89.704 401.86 90.272 401.748 91.008H406.884ZM417.353 87.84C417.833 87.104 418.433 86.528 419.153 86.112C419.873 85.68 420.673 85.464 421.553 85.464V89.808H420.425C419.401 89.808 418.633 90.032 418.121 90.48C417.609 90.912 417.353 91.68 417.353 92.784V99H413.249V85.608H417.353V87.84ZM436.139 92.088C436.139 92.472 436.115 92.872 436.067 93.288H426.779C426.843 94.12 427.107 94.76 427.571 95.208C428.051 95.64 428.635 95.856 429.323 95.856C430.347 95.856 431.059 95.424 431.459 94.56H435.827C435.603 95.44 435.195 96.232 434.603 96.936C434.027 97.64 433.299 98.192 432.419 98.592C431.539 98.992 430.555 99.192 429.467 99.192C428.155 99.192 426.987 98.912 425.963 98.352C424.939 97.792 424.139 96.992 423.563 95.952C422.987 94.912 422.699 93.696 422.699 92.304C422.699 90.912 422.979 89.696 423.539 88.656C424.115 87.616 424.915 86.816 425.939 86.256C426.963 85.696 428.139 85.416 429.467 85.416C430.763 85.416 431.915 85.688 432.923 86.232C433.931 86.776 434.715 87.552 435.275 88.56C435.851 89.568 436.139 90.744 436.139 92.088ZM431.939 91.008C431.939 90.304 431.699 89.744 431.219 89.328C430.739 88.912 430.139 88.704 429.419 88.704C428.731 88.704 428.147 88.904 427.667 89.304C427.203 89.704 426.915 90.272 426.803 91.008H431.939Z" fill="black"/>
<rect x="947.759" y="234" width="188.047" height="132" rx="26" fill="#E5BAB5"/>
<rect x="947.759" y="234" width="188.047" height="132" rx="26" stroke="#4E2A1D" stroke-width="4"/>
<path d="M961.873 273V255.545H968.094C969.452 255.545 970.577 255.793 971.469 256.287C972.361 256.781 973.029 257.457 973.472 258.315C973.915 259.168 974.137 260.128 974.137 261.196C974.137 262.27 973.912 263.236 973.464 264.094C973.02 264.946 972.35 265.622 971.452 266.122C970.56 266.616 969.438 266.864 968.086 266.864H963.807V264.631H967.847C968.705 264.631 969.401 264.483 969.935 264.188C970.469 263.886 970.861 263.477 971.111 262.96C971.361 262.443 971.486 261.855 971.486 261.196C971.486 260.537 971.361 259.952 971.111 259.44C970.861 258.929 970.466 258.528 969.927 258.239C969.393 257.949 968.688 257.804 967.813 257.804H964.506V273H961.873ZM980.448 273.29C979.619 273.29 978.869 273.136 978.198 272.83C977.528 272.517 976.996 272.065 976.604 271.474C976.218 270.884 976.025 270.159 976.025 269.301C976.025 268.562 976.167 267.955 976.451 267.477C976.735 267 977.119 266.622 977.602 266.344C978.085 266.065 978.624 265.855 979.221 265.713C979.818 265.571 980.425 265.463 981.045 265.389C981.829 265.298 982.465 265.224 982.954 265.168C983.443 265.105 983.798 265.006 984.019 264.869C984.241 264.733 984.352 264.511 984.352 264.205V264.145C984.352 263.401 984.141 262.824 983.721 262.415C983.306 262.006 982.687 261.801 981.863 261.801C981.005 261.801 980.329 261.991 979.835 262.372C979.346 262.747 979.008 263.165 978.82 263.625L976.425 263.08C976.71 262.284 977.124 261.642 977.67 261.153C978.221 260.659 978.854 260.301 979.57 260.08C980.286 259.852 981.039 259.739 981.829 259.739C982.352 259.739 982.906 259.801 983.491 259.926C984.082 260.045 984.633 260.267 985.144 260.591C985.661 260.915 986.085 261.378 986.414 261.98C986.744 262.577 986.908 263.352 986.908 264.307V273H984.42V271.21H984.318C984.153 271.54 983.906 271.864 983.576 272.182C983.246 272.5 982.823 272.764 982.306 272.974C981.789 273.185 981.17 273.29 980.448 273.29ZM981.002 271.244C981.707 271.244 982.309 271.105 982.809 270.827C983.315 270.548 983.698 270.185 983.96 269.736C984.227 269.281 984.36 268.795 984.36 268.278V266.591C984.269 266.682 984.093 266.767 983.832 266.847C983.576 266.92 983.283 266.986 982.954 267.043C982.624 267.094 982.303 267.142 981.991 267.188C981.678 267.227 981.417 267.261 981.207 267.29C980.712 267.352 980.261 267.457 979.852 267.605C979.448 267.753 979.124 267.966 978.88 268.244C978.641 268.517 978.522 268.881 978.522 269.335C978.522 269.966 978.755 270.443 979.221 270.767C979.687 271.085 980.281 271.244 981.002 271.244ZM995.553 273.264C994.286 273.264 993.195 272.977 992.28 272.403C991.371 271.824 990.672 271.026 990.183 270.009C989.695 268.991 989.451 267.827 989.451 266.514C989.451 265.185 989.701 264.011 990.201 262.994C990.701 261.972 991.405 261.173 992.314 260.599C993.223 260.026 994.294 259.739 995.527 259.739C996.522 259.739 997.408 259.923 998.186 260.293C998.965 260.656 999.593 261.168 1000.07 261.827C1000.55 262.486 1000.84 263.256 1000.93 264.136H998.451C998.314 263.523 998.002 262.994 997.513 262.551C997.03 262.108 996.382 261.886 995.57 261.886C994.86 261.886 994.237 262.074 993.703 262.449C993.175 262.818 992.763 263.347 992.468 264.034C992.172 264.716 992.024 265.523 992.024 266.455C992.024 267.409 992.169 268.233 992.459 268.926C992.749 269.619 993.158 270.156 993.686 270.537C994.22 270.918 994.848 271.108 995.57 271.108C996.053 271.108 996.49 271.02 996.882 270.844C997.28 270.662 997.612 270.403 997.88 270.068C998.152 269.733 998.343 269.33 998.451 268.858H1000.93C1000.84 269.705 1000.56 270.46 1000.1 271.125C999.644 271.79 999.027 272.312 998.255 272.693C997.487 273.074 996.587 273.264 995.553 273.264ZM1005.74 268.56L1005.72 265.449H1006.16L1011.38 259.909H1014.43L1008.48 266.216H1008.08L1005.74 268.56ZM1003.39 273V255.545H1005.94V273H1003.39ZM1011.66 273L1006.97 266.778L1008.73 264.997L1014.79 273H1011.66ZM1020.3 273.29C1019.47 273.29 1018.72 273.136 1018.05 272.83C1017.38 272.517 1016.85 272.065 1016.45 271.474C1016.07 270.884 1015.87 270.159 1015.87 269.301C1015.87 268.562 1016.02 267.955 1016.3 267.477C1016.58 267 1016.97 266.622 1017.45 266.344C1017.93 266.065 1018.47 265.855 1019.07 265.713C1019.67 265.571 1020.27 265.463 1020.89 265.389C1021.68 265.298 1022.31 265.224 1022.8 265.168C1023.29 265.105 1023.65 265.006 1023.87 264.869C1024.09 264.733 1024.2 264.511 1024.2 264.205V264.145C1024.2 263.401 1023.99 262.824 1023.57 262.415C1023.15 262.006 1022.54 261.801 1021.71 261.801C1020.85 261.801 1020.18 261.991 1019.68 262.372C1019.19 262.747 1018.86 263.165 1018.67 263.625L1016.27 263.08C1016.56 262.284 1016.97 261.642 1017.52 261.153C1018.07 260.659 1018.7 260.301 1019.42 260.08C1020.13 259.852 1020.89 259.739 1021.68 259.739C1022.2 259.739 1022.75 259.801 1023.34 259.926C1023.93 260.045 1024.48 260.267 1024.99 260.591C1025.51 260.915 1025.93 261.378 1026.26 261.98C1026.59 262.577 1026.76 263.352 1026.76 264.307V273H1024.27V271.21H1024.17C1024 271.54 1023.75 271.864 1023.42 272.182C1023.1 272.5 1022.67 272.764 1022.15 272.974C1021.64 273.185 1021.02 273.29 1020.3 273.29ZM1020.85 271.244C1021.56 271.244 1022.16 271.105 1022.66 270.827C1023.16 270.548 1023.55 270.185 1023.81 269.736C1024.08 269.281 1024.21 268.795 1024.21 268.278V266.591C1024.12 266.682 1023.94 266.767 1023.68 266.847C1023.42 266.92 1023.13 266.986 1022.8 267.043C1022.47 267.094 1022.15 267.142 1021.84 267.188C1021.53 267.227 1021.27 267.261 1021.06 267.29C1020.56 267.352 1020.11 267.457 1019.7 267.605C1019.3 267.753 1018.97 267.966 1018.73 268.244C1018.49 268.517 1018.37 268.881 1018.37 269.335C1018.37 269.966 1018.6 270.443 1019.07 270.767C1019.54 271.085 1020.13 271.244 1020.85 271.244ZM1035.38 278.182C1034.34 278.182 1033.44 278.045 1032.69 277.773C1031.95 277.5 1031.34 277.139 1030.87 276.69C1030.4 276.241 1030.04 275.75 1029.81 275.216L1032 274.312C1032.15 274.562 1032.36 274.827 1032.61 275.105C1032.88 275.389 1033.23 275.631 1033.67 275.83C1034.12 276.028 1034.7 276.128 1035.4 276.128C1036.37 276.128 1037.17 275.892 1037.8 275.42C1038.43 274.955 1038.74 274.21 1038.74 273.188V270.614H1038.58C1038.43 270.892 1038.21 271.202 1037.92 271.543C1037.63 271.884 1037.24 272.179 1036.74 272.429C1036.24 272.679 1035.59 272.804 1034.79 272.804C1033.75 272.804 1032.82 272.562 1031.99 272.08C1031.17 271.591 1030.52 270.872 1030.03 269.923C1029.55 268.969 1029.32 267.795 1029.32 266.403C1029.32 265.011 1029.55 263.818 1030.02 262.824C1030.5 261.83 1031.15 261.068 1031.98 260.54C1032.81 260.006 1033.75 259.739 1034.8 259.739C1035.62 259.739 1036.27 259.875 1036.77 260.148C1037.27 260.415 1037.66 260.727 1037.94 261.085C1038.23 261.443 1038.44 261.759 1038.6 262.031H1038.78V259.909H1041.28V273.29C1041.28 274.415 1041.02 275.338 1040.5 276.06C1039.98 276.781 1039.27 277.315 1038.38 277.662C1037.49 278.009 1036.49 278.182 1035.38 278.182ZM1035.35 270.69C1036.08 270.69 1036.7 270.52 1037.21 270.179C1037.72 269.832 1038.11 269.338 1038.37 268.696C1038.63 268.048 1038.77 267.273 1038.77 266.369C1038.77 265.489 1038.64 264.713 1038.38 264.043C1038.11 263.372 1037.73 262.849 1037.23 262.474C1036.72 262.094 1036.09 261.903 1035.35 261.903C1034.58 261.903 1033.94 262.102 1033.43 262.5C1032.92 262.892 1032.53 263.426 1032.27 264.102C1032.02 264.778 1031.89 265.534 1031.89 266.369C1031.89 267.227 1032.02 267.98 1032.28 268.628C1032.54 269.276 1032.93 269.781 1033.44 270.145C1033.96 270.509 1034.59 270.69 1035.35 270.69ZM1050.08 273.264C1048.79 273.264 1047.68 272.989 1046.75 272.438C1045.82 271.881 1045.1 271.099 1044.6 270.094C1044.1 269.082 1043.85 267.898 1043.85 266.54C1043.85 265.199 1044.1 264.017 1044.6 262.994C1045.1 261.972 1045.81 261.173 1046.71 260.599C1047.62 260.026 1048.68 259.739 1049.9 259.739C1050.64 259.739 1051.35 259.861 1052.05 260.105C1052.74 260.349 1053.36 260.733 1053.91 261.256C1054.46 261.778 1054.9 262.457 1055.22 263.293C1055.54 264.122 1055.69 265.131 1055.69 266.318V267.222H1045.29V265.312H1053.2C1053.2 264.642 1053.06 264.048 1052.79 263.531C1052.52 263.009 1052.13 262.597 1051.64 262.295C1051.15 261.994 1050.57 261.844 1049.92 261.844C1049.2 261.844 1048.57 262.02 1048.04 262.372C1047.51 262.719 1047.1 263.173 1046.81 263.736C1046.53 264.293 1046.39 264.898 1046.39 265.551V267.043C1046.39 267.918 1046.54 268.662 1046.85 269.276C1047.16 269.889 1047.59 270.358 1048.15 270.682C1048.71 271 1049.36 271.159 1050.1 271.159C1050.59 271.159 1051.03 271.091 1051.42 270.955C1051.82 270.812 1052.17 270.602 1052.46 270.324C1052.75 270.045 1052.97 269.702 1053.12 269.293L1055.53 269.727C1055.34 270.437 1054.99 271.06 1054.49 271.594C1054 272.122 1053.38 272.534 1052.63 272.83C1051.88 273.119 1051.03 273.264 1050.08 273.264ZM1068.07 263.105L1065.76 263.514C1065.66 263.219 1065.51 262.937 1065.3 262.67C1065.09 262.403 1064.81 262.185 1064.46 262.014C1064.11 261.844 1063.67 261.759 1063.14 261.759C1062.42 261.759 1061.82 261.92 1061.33 262.244C1060.85 262.562 1060.61 262.974 1060.61 263.48C1060.61 263.918 1060.77 264.27 1061.1 264.537C1061.42 264.804 1061.94 265.023 1062.66 265.193L1064.74 265.67C1065.95 265.949 1066.85 266.378 1067.44 266.957C1068.03 267.537 1068.32 268.29 1068.32 269.216C1068.32 270 1068.1 270.699 1067.64 271.312C1067.19 271.92 1066.56 272.398 1065.76 272.744C1064.96 273.091 1064.03 273.264 1062.97 273.264C1061.5 273.264 1060.31 272.952 1059.38 272.327C1058.46 271.696 1057.89 270.801 1057.68 269.642L1060.14 269.267C1060.29 269.909 1060.61 270.395 1061.09 270.724C1061.56 271.048 1062.19 271.21 1062.95 271.21C1063.79 271.21 1064.46 271.037 1064.96 270.69C1065.46 270.338 1065.71 269.909 1065.71 269.403C1065.71 268.994 1065.55 268.651 1065.25 268.372C1064.95 268.094 1064.48 267.884 1063.86 267.741L1061.64 267.256C1060.42 266.977 1059.52 266.534 1058.93 265.926C1058.35 265.318 1058.06 264.548 1058.06 263.616C1058.06 262.844 1058.28 262.168 1058.71 261.588C1059.14 261.009 1059.74 260.557 1060.5 260.233C1061.26 259.903 1062.13 259.739 1063.12 259.739C1064.53 259.739 1065.64 260.045 1066.46 260.659C1067.27 261.267 1067.81 262.082 1068.07 263.105ZM1079.79 273L1075.93 259.909H1078.57L1081.13 269.523H1081.26L1083.83 259.909H1086.47L1089.03 269.48H1089.15L1091.7 259.909H1094.33L1090.49 273H1087.89L1085.23 263.548H1085.04L1082.38 273H1079.79ZM1096.49 273V259.909H1099.04V273H1096.49ZM1097.78 257.889C1097.33 257.889 1096.95 257.741 1096.63 257.446C1096.32 257.145 1096.17 256.787 1096.17 256.372C1096.17 255.952 1096.32 255.594 1096.63 255.298C1096.95 254.997 1097.33 254.847 1097.78 254.847C1098.22 254.847 1098.6 254.997 1098.91 255.298C1099.23 255.594 1099.39 255.952 1099.39 256.372C1099.39 256.787 1099.23 257.145 1098.91 257.446C1098.6 257.741 1098.22 257.889 1097.78 257.889ZM1108.31 259.909V261.955H1101.16V259.909H1108.31ZM1103.08 256.773H1105.63V269.156C1105.63 269.651 1105.7 270.023 1105.85 270.273C1106 270.517 1106.19 270.685 1106.42 270.776C1106.66 270.861 1106.92 270.903 1107.2 270.903C1107.4 270.903 1107.58 270.889 1107.73 270.861C1107.89 270.832 1108.01 270.81 1108.09 270.793L1108.55 272.898C1108.4 272.955 1108.19 273.011 1107.92 273.068C1107.65 273.131 1107.31 273.165 1106.9 273.17C1106.23 273.182 1105.6 273.062 1105.02 272.812C1104.44 272.562 1103.97 272.176 1103.62 271.653C1103.26 271.131 1103.08 270.474 1103.08 269.685V256.773ZM1113.7 265.227V273H1111.15V255.545H1113.66V262.04H1113.82C1114.13 261.335 1114.6 260.776 1115.23 260.361C1115.86 259.946 1116.69 259.739 1117.7 259.739C1118.6 259.739 1119.38 259.923 1120.05 260.293C1120.73 260.662 1121.25 261.213 1121.62 261.946C1122 262.673 1122.19 263.582 1122.19 264.673V273H1119.64V264.98C1119.64 264.02 1119.39 263.276 1118.9 262.747C1118.4 262.213 1117.71 261.946 1116.83 261.946C1116.23 261.946 1115.69 262.074 1115.21 262.33C1114.74 262.585 1114.37 262.96 1114.1 263.455C1113.83 263.943 1113.7 264.534 1113.7 265.227ZM1009.33 295.909V297.955H1001.93V295.909H1009.33ZM1003.96 309V294.392C1003.96 293.574 1004.14 292.895 1004.5 292.355C1004.86 291.81 1005.33 291.403 1005.92 291.136C1006.51 290.864 1007.16 290.727 1007.85 290.727C1008.36 290.727 1008.8 290.77 1009.16 290.855C1009.53 290.935 1009.8 291.009 1009.97 291.077L1009.37 293.139C1009.26 293.105 1009.1 293.065 1008.91 293.02C1008.73 292.969 1008.5 292.943 1008.23 292.943C1007.61 292.943 1007.17 293.097 1006.9 293.403C1006.64 293.71 1006.51 294.153 1006.51 294.733V309H1003.96ZM1014.25 291.545V309H1011.7V291.545H1014.25ZM1023.05 309.264C1021.76 309.264 1020.65 308.989 1019.72 308.438C1018.79 307.881 1018.08 307.099 1017.57 306.094C1017.07 305.082 1016.82 303.898 1016.82 302.54C1016.82 301.199 1017.07 300.017 1017.57 298.994C1018.08 297.972 1018.78 297.173 1019.69 296.599C1020.59 296.026 1021.66 295.739 1022.87 295.739C1023.61 295.739 1024.33 295.861 1025.02 296.105C1025.71 296.349 1026.34 296.733 1026.89 297.256C1027.44 297.778 1027.87 298.457 1028.19 299.293C1028.51 300.122 1028.67 301.131 1028.67 302.318V303.222H1018.26V301.312H1026.17C1026.17 300.642 1026.03 300.048 1025.76 299.531C1025.49 299.009 1025.11 298.597 1024.61 298.295C1024.12 297.994 1023.55 297.844 1022.89 297.844C1022.17 297.844 1021.55 298.02 1021.01 298.372C1020.49 298.719 1020.08 299.173 1019.79 299.736C1019.5 300.293 1019.36 300.898 1019.36 301.551V303.043C1019.36 303.918 1019.51 304.662 1019.82 305.276C1020.13 305.889 1020.57 306.358 1021.13 306.682C1021.68 307 1022.33 307.159 1023.08 307.159C1023.56 307.159 1024 307.091 1024.4 306.955C1024.8 306.812 1025.14 306.602 1025.43 306.324C1025.72 306.045 1025.94 305.702 1026.09 305.293L1028.51 305.727C1028.31 306.437 1027.97 307.06 1027.47 307.594C1026.97 308.122 1026.35 308.534 1025.6 308.83C1024.86 309.119 1024.01 309.264 1023.05 309.264ZM1032.94 295.909L1035.83 301.006L1038.74 295.909H1041.53L1037.45 302.455L1041.56 309H1038.78L1035.83 304.108L1032.89 309H1030.09L1034.17 302.455L1030.14 295.909H1032.94ZM1043.88 309V295.909H1046.43V309H1043.88ZM1045.17 293.889C1044.73 293.889 1044.34 293.741 1044.03 293.446C1043.71 293.145 1043.56 292.787 1043.56 292.372C1043.56 291.952 1043.71 291.594 1044.03 291.298C1044.34 290.997 1044.73 290.847 1045.17 290.847C1045.61 290.847 1045.99 290.997 1046.3 291.298C1046.62 291.594 1046.78 291.952 1046.78 292.372C1046.78 292.787 1046.62 293.145 1046.3 293.446C1045.99 293.741 1045.61 293.889 1045.17 293.889ZM1049.8 309V291.545H1052.35V298.031H1052.5C1052.65 297.759 1052.86 297.443 1053.14 297.085C1053.42 296.727 1053.8 296.415 1054.3 296.148C1054.79 295.875 1055.45 295.739 1056.26 295.739C1057.32 295.739 1058.26 296.006 1059.09 296.54C1059.92 297.074 1060.57 297.844 1061.04 298.849C1061.52 299.855 1061.76 301.065 1061.76 302.48C1061.76 303.895 1061.52 305.108 1061.05 306.119C1060.58 307.125 1059.93 307.901 1059.11 308.446C1058.28 308.986 1057.34 309.256 1056.28 309.256C1055.49 309.256 1054.84 309.122 1054.33 308.855C1053.83 308.588 1053.44 308.276 1053.16 307.918C1052.87 307.56 1052.65 307.241 1052.5 306.963H1052.29V309H1049.8ZM1052.3 302.455C1052.3 303.375 1052.43 304.182 1052.7 304.875C1052.96 305.568 1053.35 306.111 1053.86 306.503C1054.36 306.889 1054.98 307.082 1055.71 307.082C1056.48 307.082 1057.11 306.881 1057.62 306.477C1058.13 306.068 1058.52 305.514 1058.78 304.815C1059.05 304.116 1059.18 303.33 1059.18 302.455C1059.18 301.591 1059.05 300.815 1058.79 300.128C1058.53 299.44 1058.15 298.898 1057.63 298.5C1057.12 298.102 1056.48 297.903 1055.71 297.903C1054.98 297.903 1054.35 298.094 1053.84 298.474C1053.33 298.855 1052.95 299.386 1052.69 300.068C1052.43 300.75 1052.3 301.545 1052.3 302.455ZM1066.9 291.545V309H1064.35V291.545H1066.9ZM1075.71 309.264C1074.42 309.264 1073.31 308.989 1072.38 308.438C1071.45 307.881 1070.73 307.099 1070.23 306.094C1069.73 305.082 1069.48 303.898 1069.48 302.54C1069.48 301.199 1069.73 300.017 1070.23 298.994C1070.73 297.972 1071.44 297.173 1072.34 296.599C1073.25 296.026 1074.31 295.739 1075.53 295.739C1076.27 295.739 1076.98 295.861 1077.68 296.105C1078.37 296.349 1078.99 296.733 1079.54 297.256C1080.09 297.778 1080.53 298.457 1080.85 299.293C1081.17 300.122 1081.32 301.131 1081.32 302.318V303.222H1070.92V301.312H1078.83C1078.83 300.642 1078.69 300.048 1078.42 299.531C1078.15 299.009 1077.76 298.597 1077.27 298.295C1076.78 297.994 1076.21 297.844 1075.55 297.844C1074.83 297.844 1074.21 298.02 1073.67 298.372C1073.14 298.719 1072.73 299.173 1072.44 299.736C1072.16 300.293 1072.02 300.898 1072.02 301.551V303.043C1072.02 303.918 1072.17 304.662 1072.48 305.276C1072.79 305.889 1073.23 306.358 1073.78 306.682C1074.34 307 1074.99 307.159 1075.73 307.159C1076.22 307.159 1076.66 307.091 1077.06 306.955C1077.45 306.812 1077.8 306.602 1078.09 306.324C1078.38 306.045 1078.6 305.702 1078.75 305.293L1081.16 305.727C1080.97 306.437 1080.62 307.06 1080.12 307.594C1079.63 308.122 1079.01 308.534 1078.26 308.83C1077.51 309.119 1076.66 309.264 1075.71 309.264ZM969.687 345.264C968.42 345.264 967.329 344.977 966.414 344.403C965.505 343.824 964.806 343.026 964.318 342.009C963.829 340.991 963.585 339.827 963.585 338.514C963.585 337.185 963.835 336.011 964.335 334.994C964.835 333.972 965.539 333.173 966.448 332.599C967.358 332.026 968.429 331.739 969.662 331.739C970.656 331.739 971.542 331.923 972.321 332.293C973.099 332.656 973.727 333.168 974.204 333.827C974.687 334.486 974.974 335.256 975.065 336.136H972.585C972.448 335.523 972.136 334.994 971.647 334.551C971.164 334.108 970.517 333.886 969.704 333.886C968.994 333.886 968.372 334.074 967.838 334.449C967.309 334.818 966.897 335.347 966.602 336.034C966.306 336.716 966.159 337.523 966.159 338.455C966.159 339.409 966.304 340.233 966.593 340.926C966.883 341.619 967.292 342.156 967.821 342.537C968.355 342.918 968.983 343.108 969.704 343.108C970.187 343.108 970.625 343.02 971.017 342.844C971.414 342.662 971.747 342.403 972.014 342.068C972.287 341.733 972.477 341.33 972.585 340.858H975.065C974.974 341.705 974.698 342.46 974.238 343.125C973.778 343.79 973.162 344.312 972.389 344.693C971.622 345.074 970.721 345.264 969.687 345.264ZM985.819 339.571V331.909H988.376V345H985.87V342.733H985.733C985.432 343.432 984.949 344.014 984.285 344.48C983.626 344.94 982.804 345.17 981.822 345.17C980.981 345.17 980.236 344.986 979.589 344.616C978.947 344.241 978.441 343.688 978.072 342.955C977.708 342.222 977.526 341.315 977.526 340.236V331.909H980.074V339.929C980.074 340.821 980.322 341.531 980.816 342.06C981.31 342.588 981.952 342.852 982.742 342.852C983.219 342.852 983.694 342.733 984.165 342.494C984.643 342.256 985.037 341.895 985.35 341.412C985.668 340.929 985.824 340.315 985.819 339.571ZM1001.35 335.105L999.036 335.514C998.939 335.219 998.786 334.937 998.575 334.67C998.371 334.403 998.092 334.185 997.74 334.014C997.388 333.844 996.947 333.759 996.419 333.759C995.697 333.759 995.095 333.92 994.612 334.244C994.129 334.562 993.888 334.974 993.888 335.48C993.888 335.918 994.05 336.27 994.374 336.537C994.697 336.804 995.22 337.023 995.942 337.193L998.021 337.67C999.226 337.949 1000.12 338.378 1000.71 338.957C1001.31 339.537 1001.6 340.29 1001.6 341.216C1001.6 342 1001.37 342.699 1000.92 343.312C1000.47 343.92 999.842 344.398 999.036 344.744C998.234 345.091 997.305 345.264 996.249 345.264C994.783 345.264 993.587 344.952 992.661 344.327C991.734 343.696 991.166 342.801 990.956 341.642L993.419 341.267C993.572 341.909 993.888 342.395 994.365 342.724C994.842 343.048 995.464 343.21 996.232 343.21C997.067 343.21 997.734 343.037 998.234 342.69C998.734 342.338 998.984 341.909 998.984 341.403C998.984 340.994 998.831 340.651 998.524 340.372C998.223 340.094 997.76 339.884 997.135 339.741L994.919 339.256C993.697 338.977 992.794 338.534 992.209 337.926C991.629 337.318 991.339 336.548 991.339 335.616C991.339 334.844 991.555 334.168 991.987 333.588C992.419 333.009 993.016 332.557 993.777 332.233C994.538 331.903 995.411 331.739 996.393 331.739C997.808 331.739 998.922 332.045 999.734 332.659C1000.55 333.267 1001.08 334.082 1001.35 335.105ZM1010.25 331.909V333.955H1003.1V331.909H1010.25ZM1005.02 328.773H1007.56V341.156C1007.56 341.651 1007.64 342.023 1007.79 342.273C1007.93 342.517 1008.12 342.685 1008.36 342.776C1008.6 342.861 1008.85 342.903 1009.13 342.903C1009.34 342.903 1009.52 342.889 1009.67 342.861C1009.82 342.832 1009.94 342.81 1010.03 342.793L1010.49 344.898C1010.34 344.955 1010.13 345.011 1009.86 345.068C1009.58 345.131 1009.24 345.165 1008.83 345.17C1008.16 345.182 1007.54 345.062 1006.96 344.812C1006.38 344.562 1005.91 344.176 1005.55 343.653C1005.2 343.131 1005.02 342.474 1005.02 341.685V328.773ZM1018.18 345.264C1016.95 345.264 1015.88 344.983 1014.96 344.42C1014.05 343.858 1013.34 343.071 1012.83 342.06C1012.33 341.048 1012.08 339.866 1012.08 338.514C1012.08 337.156 1012.33 335.969 1012.83 334.952C1013.34 333.935 1014.05 333.145 1014.96 332.582C1015.88 332.02 1016.95 331.739 1018.18 331.739C1019.41 331.739 1020.48 332.02 1021.39 332.582C1022.31 333.145 1023.02 333.935 1023.52 334.952C1024.03 335.969 1024.28 337.156 1024.28 338.514C1024.28 339.866 1024.03 341.048 1023.52 342.06C1023.02 343.071 1022.31 343.858 1021.39 344.42C1020.48 344.983 1019.41 345.264 1018.18 345.264ZM1018.19 343.125C1018.98 343.125 1019.64 342.915 1020.16 342.494C1020.69 342.074 1021.07 341.514 1021.32 340.815C1021.58 340.116 1021.71 339.347 1021.71 338.506C1021.71 337.67 1021.58 336.903 1021.32 336.205C1021.07 335.5 1020.69 334.935 1020.16 334.509C1019.64 334.082 1018.98 333.869 1018.19 333.869C1017.39 333.869 1016.72 334.082 1016.19 334.509C1015.67 334.935 1015.28 335.5 1015.02 336.205C1014.77 336.903 1014.65 337.67 1014.65 338.506C1014.65 339.347 1014.77 340.116 1015.02 340.815C1015.28 341.514 1015.67 342.074 1016.19 342.494C1016.72 342.915 1017.39 343.125 1018.19 343.125ZM1026.86 345V331.909H1029.31V334.04H1029.47C1029.74 333.318 1030.19 332.756 1030.81 332.352C1031.43 331.943 1032.17 331.739 1033.03 331.739C1033.91 331.739 1034.64 331.943 1035.23 332.352C1035.83 332.761 1036.27 333.324 1036.55 334.04H1036.69C1037 333.341 1037.5 332.784 1038.18 332.369C1038.86 331.949 1039.67 331.739 1040.62 331.739C1041.8 331.739 1042.77 332.111 1043.52 332.855C1044.28 333.599 1044.66 334.722 1044.66 336.222V345H1042.11V336.46C1042.11 335.574 1041.87 334.932 1041.38 334.534C1040.9 334.136 1040.32 333.938 1039.65 333.938C1038.82 333.938 1038.18 334.193 1037.72 334.705C1037.26 335.21 1037.03 335.861 1037.03 336.656V345H1034.49V336.298C1034.49 335.588 1034.27 335.017 1033.82 334.585C1033.38 334.153 1032.8 333.938 1032.09 333.938C1031.61 333.938 1031.16 334.065 1030.76 334.321C1030.35 334.571 1030.03 334.92 1029.78 335.369C1029.53 335.818 1029.41 336.338 1029.41 336.929V345H1026.86ZM1047.81 345V331.909H1050.36V345H1047.81ZM1049.09 329.889C1048.65 329.889 1048.27 329.741 1047.95 329.446C1047.64 329.145 1047.48 328.787 1047.48 328.372C1047.48 327.952 1047.64 327.594 1047.95 327.298C1048.27 326.997 1048.65 326.847 1049.09 326.847C1049.54 326.847 1049.92 326.997 1050.23 327.298C1050.55 327.594 1050.71 327.952 1050.71 328.372C1050.71 328.787 1050.55 329.145 1050.23 329.446C1049.92 329.741 1049.54 329.889 1049.09 329.889ZM1053.25 345V343.253L1060.34 334.244V334.125H1053.48V331.909H1063.52V333.767L1056.7 342.665V342.784H1063.76V345H1053.25ZM1070.31 345.29C1069.48 345.29 1068.73 345.136 1068.06 344.83C1067.39 344.517 1066.86 344.065 1066.46 343.474C1066.08 342.884 1065.88 342.159 1065.88 341.301C1065.88 340.562 1066.03 339.955 1066.31 339.477C1066.59 339 1066.98 338.622 1067.46 338.344C1067.94 338.065 1068.48 337.855 1069.08 337.713C1069.68 337.571 1070.29 337.463 1070.9 337.389C1071.69 337.298 1072.33 337.224 1072.81 337.168C1073.3 337.105 1073.66 337.006 1073.88 336.869C1074.1 336.733 1074.21 336.511 1074.21 336.205V336.145C1074.21 335.401 1074 334.824 1073.58 334.415C1073.17 334.006 1072.55 333.801 1071.72 333.801C1070.86 333.801 1070.19 333.991 1069.69 334.372C1069.21 334.747 1068.87 335.165 1068.68 335.625L1066.29 335.08C1066.57 334.284 1066.98 333.642 1067.53 333.153C1068.08 332.659 1068.71 332.301 1069.43 332.08C1070.15 331.852 1070.9 331.739 1071.69 331.739C1072.21 331.739 1072.77 331.801 1073.35 331.926C1073.94 332.045 1074.49 332.267 1075 332.591C1075.52 332.915 1075.94 333.378 1076.27 333.98C1076.6 334.577 1076.77 335.352 1076.77 336.307V345H1074.28V343.21H1074.18C1074.01 343.54 1073.77 343.864 1073.44 344.182C1073.11 344.5 1072.68 344.764 1072.17 344.974C1071.65 345.185 1071.03 345.29 1070.31 345.29ZM1070.86 343.244C1071.57 343.244 1072.17 343.105 1072.67 342.827C1073.17 342.548 1073.56 342.185 1073.82 341.736C1074.09 341.281 1074.22 340.795 1074.22 340.278V338.591C1074.13 338.682 1073.95 338.767 1073.69 338.847C1073.44 338.92 1073.14 338.986 1072.81 339.043C1072.48 339.094 1072.16 339.142 1071.85 339.188C1071.54 339.227 1071.28 339.261 1071.07 339.29C1070.57 339.352 1070.12 339.457 1069.71 339.605C1069.31 339.753 1068.98 339.966 1068.74 340.244C1068.5 340.517 1068.38 340.881 1068.38 341.335C1068.38 341.966 1068.61 342.443 1069.08 342.767C1069.55 343.085 1070.14 343.244 1070.86 343.244ZM1086.01 331.909V333.955H1078.86V331.909H1086.01ZM1080.78 328.773H1083.32V341.156C1083.32 341.651 1083.4 342.023 1083.55 342.273C1083.69 342.517 1083.88 342.685 1084.12 342.776C1084.36 342.861 1084.61 342.903 1084.89 342.903C1085.1 342.903 1085.28 342.889 1085.43 342.861C1085.58 342.832 1085.7 342.81 1085.79 342.793L1086.25 344.898C1086.1 344.955 1085.89 345.011 1085.62 345.068C1085.34 345.131 1085 345.165 1084.59 345.17C1083.92 345.182 1083.3 345.062 1082.72 344.812C1082.14 344.562 1081.67 344.176 1081.31 343.653C1080.96 343.131 1080.78 342.474 1080.78 341.685V328.773ZM1088.56 345V331.909H1091.11V345H1088.56ZM1089.85 329.889C1089.41 329.889 1089.03 329.741 1088.71 329.446C1088.4 329.145 1088.24 328.787 1088.24 328.372C1088.24 327.952 1088.4 327.594 1088.71 327.298C1089.03 326.997 1089.41 326.847 1089.85 326.847C1090.29 326.847 1090.67 326.997 1090.98 327.298C1091.3 327.594 1091.46 327.952 1091.46 328.372C1091.46 328.787 1091.3 329.145 1090.98 329.446C1090.67 329.741 1090.29 329.889 1089.85 329.889ZM1099.79 345.264C1098.56 345.264 1097.49 344.983 1096.58 344.42C1095.66 343.858 1094.95 343.071 1094.45 342.06C1093.94 341.048 1093.69 339.866 1093.69 338.514C1093.69 337.156 1093.94 335.969 1094.45 334.952C1094.95 333.935 1095.66 333.145 1096.58 332.582C1097.49 332.02 1098.56 331.739 1099.79 331.739C1101.02 331.739 1102.09 332.02 1103 332.582C1103.92 333.145 1104.63 333.935 1105.13 334.952C1105.64 335.969 1105.89 337.156 1105.89 338.514C1105.89 339.866 1105.64 341.048 1105.13 342.06C1104.63 343.071 1103.92 343.858 1103 344.42C1102.09 344.983 1101.02 345.264 1099.79 345.264ZM1099.8 343.125C1100.59 343.125 1101.25 342.915 1101.78 342.494C1102.3 342.074 1102.69 341.514 1102.94 340.815C1103.19 340.116 1103.32 339.347 1103.32 338.506C1103.32 337.67 1103.19 336.903 1102.94 336.205C1102.69 335.5 1102.3 334.935 1101.78 334.509C1101.25 334.082 1100.59 333.869 1099.8 333.869C1099 333.869 1098.33 334.082 1097.81 334.509C1097.28 334.935 1096.89 335.5 1096.64 336.205C1096.39 336.903 1096.26 337.67 1096.26 338.506C1096.26 339.347 1096.39 340.116 1096.64 340.815C1096.89 341.514 1097.28 342.074 1097.81 342.494C1098.33 342.915 1099 343.125 1099.8 343.125ZM1111.02 337.227V345H1108.47V331.909H1110.92V334.04H1111.08C1111.38 333.347 1111.85 332.79 1112.5 332.369C1113.14 331.949 1113.96 331.739 1114.94 331.739C1115.83 331.739 1116.62 331.926 1117.29 332.301C1117.96 332.67 1118.48 333.222 1118.85 333.955C1119.22 334.687 1119.4 335.594 1119.4 336.673V345H1116.85V336.98C1116.85 336.031 1116.6 335.29 1116.11 334.756C1115.62 334.216 1114.94 333.946 1114.07 333.946C1113.48 333.946 1112.96 334.074 1112.5 334.33C1112.04 334.585 1111.68 334.96 1111.41 335.455C1111.15 335.943 1111.02 336.534 1111.02 337.227Z" fill="black"/>
<rect x="1033.38" y="367" width="16.7947" height="67" fill="#4E2A1D" stroke="#4E2A1D" stroke-width="4"/>
<path d="M447.509 437.736C447.509 435.517 447.989 433.544 448.949 431.816C449.909 430.067 451.242 428.712 452.949 427.752C454.677 426.771 456.629 426.28 458.805 426.28C461.472 426.28 463.754 426.984 465.653 428.392C467.552 429.8 468.821 431.72 469.461 434.152H463.445C462.997 433.213 462.357 432.499 461.525 432.008C460.714 431.517 459.786 431.272 458.741 431.272C457.056 431.272 455.69 431.859 454.645 433.032C453.6 434.205 453.077 435.773 453.077 437.736C453.077 439.699 453.6 441.267 454.645 442.44C455.69 443.613 457.056 444.2 458.741 444.2C459.786 444.2 460.714 443.955 461.525 443.464C462.357 442.973 462.997 442.259 463.445 441.32H469.461C468.821 443.752 467.552 445.672 465.653 447.08C463.754 448.467 461.472 449.16 458.805 449.16C456.629 449.16 454.677 448.68 452.949 447.72C451.242 446.739 449.909 445.384 448.949 443.656C447.989 441.928 447.509 439.955 447.509 437.736ZM488.972 426.536V430.92H483.02V449H477.548V430.92H471.596V426.536H488.972ZM505.702 445.032H497.318L495.974 449H490.246L498.374 426.536H504.71L512.838 449H507.046L505.702 445.032ZM504.294 440.808L501.51 432.584L498.758 440.808H504.294ZM530.221 449.256C528.472 449.256 526.893 448.883 525.485 448.136C524.098 447.389 523 446.323 522.189 444.936C521.4 443.549 521.005 441.928 521.005 440.072C521.005 438.237 521.41 436.627 522.221 435.24C523.032 433.832 524.141 432.755 525.549 432.008C526.957 431.261 528.536 430.888 530.285 430.888C532.034 430.888 533.613 431.261 535.021 432.008C536.429 432.755 537.538 433.832 538.349 435.24C539.16 436.627 539.565 438.237 539.565 440.072C539.565 441.907 539.149 443.528 538.317 444.936C537.506 446.323 536.386 447.389 534.957 448.136C533.549 448.883 531.97 449.256 530.221 449.256ZM530.221 444.52C531.266 444.52 532.152 444.136 532.877 443.368C533.624 442.6 533.997 441.501 533.997 440.072C533.997 438.643 533.634 437.544 532.909 436.776C532.205 436.008 531.33 435.624 530.285 435.624C529.218 435.624 528.333 436.008 527.629 436.776C526.925 437.523 526.573 438.621 526.573 440.072C526.573 441.501 526.914 442.6 527.597 443.368C528.301 444.136 529.176 444.52 530.221 444.52ZM553.348 430.952C555.439 430.952 557.103 431.635 558.34 433C559.599 434.344 560.228 436.2 560.228 438.568V449H554.788V439.304C554.788 438.109 554.479 437.181 553.86 436.52C553.241 435.859 552.409 435.528 551.364 435.528C550.319 435.528 549.487 435.859 548.868 436.52C548.249 437.181 547.94 438.109 547.94 439.304V449H542.468V431.144H547.94V433.512C548.495 432.723 549.241 432.104 550.18 431.656C551.119 431.187 552.175 430.952 553.348 430.952ZM576.284 430.92V435.464H583.612V439.688H576.284V444.616H584.572V449H570.812V426.536H584.572V430.92H576.284ZM593.596 434.12C594.236 433.139 595.036 432.371 595.996 431.816C596.956 431.24 598.023 430.952 599.196 430.952V436.744H597.692C596.327 436.744 595.303 437.043 594.62 437.64C593.938 438.216 593.596 439.24 593.596 440.712V449H588.124V431.144H593.596V434.12ZM607.284 434.12C607.924 433.139 608.724 432.371 609.684 431.816C610.644 431.24 611.711 430.952 612.884 430.952V436.744H611.38C610.015 436.744 608.991 437.043 608.308 437.64C607.625 438.216 607.284 439.24 607.284 440.712V449H601.812V431.144H607.284V434.12ZM623.627 449.256C621.878 449.256 620.299 448.883 618.891 448.136C617.505 447.389 616.406 446.323 615.595 444.936C614.806 443.549 614.411 441.928 614.411 440.072C614.411 438.237 614.817 436.627 615.627 435.24C616.438 433.832 617.547 432.755 618.955 432.008C620.363 431.261 621.942 430.888 623.691 430.888C625.441 430.888 627.019 431.261 628.427 432.008C629.835 432.755 630.945 433.832 631.755 435.24C632.566 436.627 632.971 438.237 632.971 440.072C632.971 441.907 632.555 443.528 631.723 444.936C630.913 446.323 629.793 447.389 628.363 448.136C626.955 448.883 625.377 449.256 623.627 449.256ZM623.627 444.52C624.673 444.52 625.558 444.136 626.283 443.368C627.03 442.6 627.403 441.501 627.403 440.072C627.403 438.643 627.041 437.544 626.315 436.776C625.611 436.008 624.737 435.624 623.691 435.624C622.625 435.624 621.739 436.008 621.035 436.776C620.331 437.523 619.979 438.621 619.979 440.072C619.979 441.501 620.321 442.6 621.003 443.368C621.707 444.136 622.582 444.52 623.627 444.52ZM641.346 434.12C641.986 433.139 642.786 432.371 643.746 431.816C644.706 431.24 645.773 430.952 646.946 430.952V436.744H645.442C644.077 436.744 643.053 437.043 642.37 437.64C641.688 438.216 641.346 439.24 641.346 440.712V449H635.874V431.144H641.346V434.12ZM664.471 449.224C662.828 449.224 661.356 448.957 660.055 448.424C658.754 447.891 657.708 447.101 656.919 446.056C656.151 445.011 655.746 443.752 655.703 442.28H661.527C661.612 443.112 661.9 443.752 662.391 444.2C662.882 444.627 663.522 444.84 664.311 444.84C665.122 444.84 665.762 444.659 666.231 444.296C666.7 443.912 666.935 443.389 666.935 442.728C666.935 442.173 666.743 441.715 666.359 441.352C665.996 440.989 665.538 440.691 664.983 440.456C664.45 440.221 663.682 439.955 662.679 439.656C661.228 439.208 660.044 438.76 659.127 438.312C658.21 437.864 657.42 437.203 656.759 436.328C656.098 435.453 655.767 434.312 655.767 432.904C655.767 430.813 656.524 429.181 658.039 428.008C659.554 426.813 661.527 426.216 663.959 426.216C666.434 426.216 668.428 426.813 669.943 428.008C671.458 429.181 672.268 430.824 672.375 432.936H666.455C666.412 432.211 666.146 431.645 665.655 431.24C665.164 430.813 664.535 430.6 663.767 430.6C663.106 430.6 662.572 430.781 662.167 431.144C661.762 431.485 661.559 431.987 661.559 432.648C661.559 433.373 661.9 433.939 662.583 434.344C663.266 434.749 664.332 435.187 665.783 435.656C667.234 436.147 668.407 436.616 669.303 437.064C670.22 437.512 671.01 438.163 671.671 439.016C672.332 439.869 672.663 440.968 672.663 442.312C672.663 443.592 672.332 444.755 671.671 445.8C671.031 446.845 670.092 447.677 668.855 448.296C667.618 448.915 666.156 449.224 664.471 449.224ZM685.983 444.36V449H683.199C681.215 449 679.668 448.52 678.559 447.56C677.449 446.579 676.895 444.989 676.895 442.792V435.688H674.719V431.144H676.895V426.792H682.367V431.144H685.951V435.688H682.367V442.856C682.367 443.389 682.495 443.773 682.751 444.008C683.007 444.243 683.433 444.36 684.031 444.36H685.983ZM687.943 440.04C687.943 438.205 688.284 436.595 688.967 435.208C689.671 433.821 690.62 432.755 691.815 432.008C693.009 431.261 694.343 430.888 695.815 430.888C697.073 430.888 698.172 431.144 699.111 431.656C700.071 432.168 700.807 432.84 701.319 433.672V431.144H706.791V449H701.319V446.472C700.785 447.304 700.039 447.976 699.079 448.488C698.14 449 697.041 449.256 695.783 449.256C694.332 449.256 693.009 448.883 691.815 448.136C690.62 447.368 689.671 446.291 688.967 444.904C688.284 443.496 687.943 441.875 687.943 440.04ZM701.319 440.072C701.319 438.707 700.935 437.629 700.167 436.84C699.42 436.051 698.503 435.656 697.415 435.656C696.327 435.656 695.399 436.051 694.631 436.84C693.884 437.608 693.511 438.675 693.511 440.04C693.511 441.405 693.884 442.493 694.631 443.304C695.399 444.093 696.327 444.488 697.415 444.488C698.503 444.488 699.42 444.093 700.167 443.304C700.935 442.515 701.319 441.437 701.319 440.072ZM720.701 444.36V449H717.917C715.933 449 714.387 448.52 713.277 447.56C712.168 446.579 711.613 444.989 711.613 442.792V435.688H709.437V431.144H711.613V426.792H717.085V431.144H720.669V435.688H717.085V442.856C717.085 443.389 717.213 443.773 717.469 444.008C717.725 444.243 718.152 444.36 718.749 444.36H720.701ZM740.581 439.784C740.581 440.296 740.549 440.829 740.485 441.384H728.101C728.187 442.493 728.539 443.347 729.157 443.944C729.797 444.52 730.576 444.808 731.493 444.808C732.859 444.808 733.808 444.232 734.341 443.08H740.165C739.867 444.253 739.323 445.309 738.533 446.248C737.765 447.187 736.795 447.923 735.621 448.456C734.448 448.989 733.136 449.256 731.685 449.256C729.936 449.256 728.379 448.883 727.013 448.136C725.648 447.389 724.581 446.323 723.813 444.936C723.045 443.549 722.661 441.928 722.661 440.072C722.661 438.216 723.035 436.595 723.781 435.208C724.549 433.821 725.616 432.755 726.981 432.008C728.347 431.261 729.915 430.888 731.685 430.888C733.413 430.888 734.949 431.251 736.293 431.976C737.637 432.701 738.683 433.736 739.429 435.08C740.197 436.424 740.581 437.992 740.581 439.784ZM734.981 438.344C734.981 437.405 734.661 436.659 734.021 436.104C733.381 435.549 732.581 435.272 731.621 435.272C730.704 435.272 729.925 435.539 729.285 436.072C728.667 436.605 728.283 437.363 728.133 438.344H734.981Z" fill="white"/>
</svg>
