<svg width="1182" height="745" viewBox="0 0 1182 745" fill="none" xmlns="http://www.w3.org/2000/svg">
<rect y="384.461" width="297.711" height="359.782" fill="#77403A"/>
<rect x="884.289" y="384.461" width="297.711" height="359.782" fill="#77403A"/>
<path fill-rule="evenodd" clip-rule="evenodd" d="M466.439 446.425C397.072 447.918 423.959 453.451 297.711 475.443V744.245H884.289V446.425C884.289 446.425 751.454 476.937 661.965 475.443C582.578 474.119 545.799 444.717 466.439 446.425Z" fill="#4A90B3" stroke="black"/>
<path d="M526.812 471.922C435.004 471.232 297.711 444.715 297.711 444.715V744.243H884.289V469.379C884.289 469.379 818.805 449.719 772.208 444.715C676.243 434.41 624.831 472.658 526.812 471.922Z" fill="#4A90B3" fill-opacity="0.5" stroke="black"/>
<path d="M92.5688 537.299C92.5688 538.601 92.2701 539.795 91.6728 540.883C91.0754 541.95 90.1581 542.814 88.9208 543.475C87.6834 544.137 86.1474 544.467 84.3128 544.467H80.9208V552.531H75.4488V530.067H84.3128C86.1048 530.067 87.6194 530.377 88.8568 530.995C90.0941 531.614 91.0221 532.467 91.6408 533.555C92.2594 534.643 92.5688 535.891 92.5688 537.299ZM83.8968 540.115C84.9421 540.115 85.7208 539.87 86.2328 539.379C86.7448 538.889 87.0008 538.195 87.0008 537.299C87.0008 536.403 86.7448 535.71 86.2328 535.219C85.7208 534.729 84.9421 534.483 83.8968 534.483H80.9208V540.115H83.8968ZM94.3295 543.571C94.3295 541.737 94.6708 540.126 95.3535 538.739C96.0575 537.353 97.0068 536.286 98.2015 535.539C99.3962 534.793 100.73 534.419 102.202 534.419C103.46 534.419 104.559 534.675 105.498 535.187C106.458 535.699 107.194 536.371 107.706 537.203V534.675H113.178V552.531H107.706V550.003C107.172 550.835 106.426 551.507 105.466 552.019C104.527 552.531 103.428 552.787 102.17 552.787C100.719 552.787 99.3962 552.414 98.2015 551.667C97.0068 550.899 96.0575 549.822 95.3535 548.435C94.6708 547.027 94.3295 545.406 94.3295 543.571ZM107.706 543.603C107.706 542.238 107.322 541.161 106.554 540.371C105.807 539.582 104.89 539.187 103.802 539.187C102.714 539.187 101.786 539.582 101.018 540.371C100.271 541.139 99.8975 542.206 99.8975 543.571C99.8975 544.937 100.271 546.025 101.018 546.835C101.786 547.625 102.714 548.019 103.802 548.019C104.89 548.019 105.807 547.625 106.554 546.835C107.322 546.046 107.706 544.969 107.706 543.603ZM116.048 543.603C116.048 541.747 116.422 540.126 117.168 538.739C117.936 537.353 118.992 536.286 120.336 535.539C121.702 534.793 123.259 534.419 125.008 534.419C127.248 534.419 129.115 535.006 130.608 536.179C132.123 537.353 133.115 539.006 133.584 541.139H127.76C127.27 539.774 126.32 539.091 124.912 539.091C123.91 539.091 123.11 539.486 122.512 540.275C121.915 541.043 121.616 542.153 121.616 543.603C121.616 545.054 121.915 546.174 122.512 546.963C123.11 547.731 123.91 548.115 124.912 548.115C126.32 548.115 127.27 547.433 127.76 546.067H133.584C133.115 548.158 132.123 549.801 130.608 550.995C129.094 552.19 127.227 552.787 125.008 552.787C123.259 552.787 121.702 552.414 120.336 551.667C118.992 550.921 117.936 549.854 117.168 548.467C116.422 547.081 116.048 545.459 116.048 543.603ZM147.423 552.531L141.983 545.043V552.531H136.511V528.851H141.983V541.939L147.391 534.675H154.143L146.719 543.635L154.207 552.531H147.423ZM155.205 543.571C155.205 541.737 155.546 540.126 156.229 538.739C156.933 537.353 157.882 536.286 159.077 535.539C160.271 534.793 161.605 534.419 163.077 534.419C164.335 534.419 165.434 534.675 166.373 535.187C167.333 535.699 168.069 536.371 168.581 537.203V534.675H174.053V552.531H168.581V550.003C168.047 550.835 167.301 551.507 166.341 552.019C165.402 552.531 164.303 552.787 163.045 552.787C161.594 552.787 160.271 552.414 159.077 551.667C157.882 550.899 156.933 549.822 156.229 548.435C155.546 547.027 155.205 545.406 155.205 543.571ZM168.581 543.603C168.581 542.238 168.197 541.161 167.429 540.371C166.682 539.582 165.765 539.187 164.677 539.187C163.589 539.187 162.661 539.582 161.893 540.371C161.146 541.139 160.773 542.206 160.773 543.571C160.773 544.937 161.146 546.025 161.893 546.835C162.661 547.625 163.589 548.019 164.677 548.019C165.765 548.019 166.682 547.625 167.429 546.835C168.197 546.046 168.581 544.969 168.581 543.603ZM184.795 534.419C186.054 534.419 187.153 534.675 188.091 535.187C189.051 535.699 189.787 536.371 190.299 537.203V534.675H195.771V552.499C195.771 554.142 195.441 555.625 194.779 556.947C194.139 558.291 193.147 559.358 191.803 560.147C190.481 560.937 188.827 561.331 186.843 561.331C184.198 561.331 182.054 560.702 180.411 559.443C178.769 558.206 177.83 556.521 177.595 554.387H183.003C183.174 555.07 183.579 555.603 184.219 555.987C184.859 556.393 185.649 556.595 186.587 556.595C187.718 556.595 188.614 556.265 189.275 555.603C189.958 554.963 190.299 553.929 190.299 552.499V549.971C189.766 550.803 189.03 551.486 188.091 552.019C187.153 552.531 186.054 552.787 184.795 552.787C183.323 552.787 181.99 552.414 180.795 551.667C179.601 550.899 178.651 549.822 177.947 548.435C177.265 547.027 176.923 545.406 176.923 543.571C176.923 541.737 177.265 540.126 177.947 538.739C178.651 537.353 179.601 536.286 180.795 535.539C181.99 534.793 183.323 534.419 184.795 534.419ZM190.299 543.603C190.299 542.238 189.915 541.161 189.147 540.371C188.401 539.582 187.483 539.187 186.395 539.187C185.307 539.187 184.379 539.582 183.611 540.371C182.865 541.139 182.491 542.206 182.491 543.571C182.491 544.937 182.865 546.025 183.611 546.835C184.379 547.625 185.307 548.019 186.395 548.019C187.483 548.019 188.401 547.625 189.147 546.835C189.915 546.046 190.299 544.969 190.299 543.603ZM216.562 543.315C216.562 543.827 216.53 544.361 216.466 544.915H204.082C204.167 546.025 204.519 546.878 205.138 547.475C205.778 548.051 206.557 548.339 207.474 548.339C208.839 548.339 209.789 547.763 210.322 546.611H216.146C215.847 547.785 215.303 548.841 214.514 549.779C213.746 550.718 212.775 551.454 211.602 551.987C210.429 552.521 209.117 552.787 207.666 552.787C205.917 552.787 204.359 552.414 202.994 551.667C201.629 550.921 200.562 549.854 199.794 548.467C199.026 547.081 198.642 545.459 198.642 543.603C198.642 541.747 199.015 540.126 199.762 538.739C200.53 537.353 201.597 536.286 202.962 535.539C204.327 534.793 205.895 534.419 207.666 534.419C209.394 534.419 210.93 534.782 212.274 535.507C213.618 536.233 214.663 537.267 215.41 538.611C216.178 539.955 216.562 541.523 216.562 543.315ZM210.962 541.875C210.962 540.937 210.642 540.19 210.002 539.635C209.362 539.081 208.562 538.803 207.602 538.803C206.685 538.803 205.906 539.07 205.266 539.603C204.647 540.137 204.263 540.894 204.114 541.875H210.962ZM126.397 585.299C126.397 586.601 126.098 587.795 125.501 588.883C124.904 589.95 123.986 590.814 122.749 591.475C121.512 592.137 119.976 592.467 118.141 592.467H114.749V600.531H109.277V578.067H118.141C119.933 578.067 121.448 578.377 122.685 578.995C123.922 579.614 124.85 580.467 125.469 581.555C126.088 582.643 126.397 583.891 126.397 585.299ZM117.725 588.115C118.77 588.115 119.549 587.87 120.061 587.379C120.573 586.889 120.829 586.195 120.829 585.299C120.829 584.403 120.573 583.71 120.061 583.219C119.549 582.729 118.77 582.483 117.725 582.483H114.749V588.115H117.725ZM128.158 591.571C128.158 589.737 128.499 588.126 129.182 586.739C129.886 585.353 130.835 584.286 132.03 583.539C133.224 582.793 134.558 582.419 136.03 582.419C137.288 582.419 138.387 582.675 139.326 583.187C140.286 583.699 141.022 584.371 141.534 585.203V582.675H147.006V600.531H141.534V598.003C141 598.835 140.254 599.507 139.294 600.019C138.355 600.531 137.256 600.787 135.998 600.787C134.547 600.787 133.224 600.414 132.03 599.667C130.835 598.899 129.886 597.822 129.182 596.435C128.499 595.027 128.158 593.406 128.158 591.571ZM141.534 591.603C141.534 590.238 141.15 589.161 140.382 588.371C139.635 587.582 138.718 587.187 137.63 587.187C136.542 587.187 135.614 587.582 134.846 588.371C134.099 589.139 133.726 590.206 133.726 591.571C133.726 592.937 134.099 594.025 134.846 594.835C135.614 595.625 136.542 596.019 137.63 596.019C138.718 596.019 139.635 595.625 140.382 594.835C141.15 594.046 141.534 592.969 141.534 591.603ZM157.748 582.419C159.007 582.419 160.106 582.675 161.044 583.187C162.004 583.699 162.74 584.371 163.252 585.203V582.675H168.724V600.499C168.724 602.142 168.394 603.625 167.732 604.947C167.092 606.291 166.1 607.358 164.756 608.147C163.434 608.937 161.78 609.331 159.796 609.331C157.151 609.331 155.007 608.702 153.364 607.443C151.722 606.206 150.783 604.521 150.548 602.387H155.956C156.127 603.07 156.532 603.603 157.172 603.987C157.812 604.393 158.602 604.595 159.54 604.595C160.671 604.595 161.567 604.265 162.228 603.603C162.911 602.963 163.252 601.929 163.252 600.499V597.971C162.719 598.803 161.983 599.486 161.044 600.019C160.106 600.531 159.007 600.787 157.748 600.787C156.276 600.787 154.943 600.414 153.748 599.667C152.554 598.899 151.604 597.822 150.9 596.435C150.218 595.027 149.876 593.406 149.876 591.571C149.876 589.737 150.218 588.126 150.9 586.739C151.604 585.353 152.554 584.286 153.748 583.539C154.943 582.793 156.276 582.419 157.748 582.419ZM163.252 591.603C163.252 590.238 162.868 589.161 162.1 588.371C161.354 587.582 160.436 587.187 159.348 587.187C158.26 587.187 157.332 587.582 156.564 588.371C155.818 589.139 155.444 590.206 155.444 591.571C155.444 592.937 155.818 594.025 156.564 594.835C157.332 595.625 158.26 596.019 159.348 596.019C160.436 596.019 161.354 595.625 162.1 594.835C162.868 594.046 163.252 592.969 163.252 591.603ZM189.515 591.315C189.515 591.827 189.483 592.361 189.419 592.915H177.035C177.12 594.025 177.472 594.878 178.091 595.475C178.731 596.051 179.51 596.339 180.427 596.339C181.792 596.339 182.742 595.763 183.275 594.611H189.099C188.8 595.785 188.256 596.841 187.467 597.779C186.699 598.718 185.728 599.454 184.555 599.987C183.382 600.521 182.07 600.787 180.619 600.787C178.87 600.787 177.312 600.414 175.947 599.667C174.582 598.921 173.515 597.854 172.747 596.467C171.979 595.081 171.595 593.459 171.595 591.603C171.595 589.747 171.968 588.126 172.715 586.739C173.483 585.353 174.55 584.286 175.915 583.539C177.28 582.793 178.848 582.419 180.619 582.419C182.347 582.419 183.883 582.782 185.227 583.507C186.571 584.233 187.616 585.267 188.363 586.611C189.131 587.955 189.515 589.523 189.515 591.315ZM183.915 589.875C183.915 588.937 183.595 588.19 182.955 587.635C182.315 587.081 181.515 586.803 180.555 586.803C179.638 586.803 178.859 587.07 178.219 587.603C177.6 588.137 177.216 588.894 177.067 589.875H183.915Z" fill="#F8F4F3"/>
<path d="M556.007 706.512C556.818 706.64 557.554 706.971 558.215 707.504C558.898 708.037 559.431 708.699 559.815 709.488C560.22 710.277 560.423 711.12 560.423 712.016C560.423 713.147 560.135 714.171 559.559 715.088C558.983 715.984 558.14 716.699 557.031 717.232C555.943 717.744 554.652 718 553.159 718H544.839V695.696H552.839C554.354 695.696 555.644 695.952 556.711 696.464C557.778 696.955 558.578 697.627 559.111 698.48C559.644 699.333 559.911 700.293 559.911 701.36C559.911 702.683 559.548 703.781 558.823 704.656C558.119 705.509 557.18 706.128 556.007 706.512ZM547.751 705.328H552.647C554.012 705.328 555.068 705.008 555.815 704.368C556.562 703.728 556.935 702.843 556.935 701.712C556.935 700.581 556.562 699.696 555.815 699.056C555.068 698.416 553.991 698.096 552.583 698.096H547.751V705.328ZM552.903 715.6C554.354 715.6 555.484 715.259 556.295 714.576C557.106 713.893 557.511 712.944 557.511 711.728C557.511 710.491 557.084 709.52 556.231 708.816C555.378 708.091 554.236 707.728 552.807 707.728H547.751V715.6H552.903ZM580.464 708.56C580.464 709.115 580.432 709.701 580.368 710.32H566.352C566.459 712.048 567.045 713.403 568.112 714.384C569.2 715.344 570.512 715.824 572.048 715.824C573.307 715.824 574.352 715.536 575.184 714.96C576.037 714.363 576.635 713.573 576.976 712.592H580.112C579.643 714.277 578.704 715.653 577.296 716.72C575.888 717.765 574.139 718.288 572.048 718.288C570.384 718.288 568.891 717.915 567.568 717.168C566.267 716.421 565.243 715.365 564.496 714C563.749 712.613 563.376 711.013 563.376 709.2C563.376 707.387 563.739 705.797 564.464 704.432C565.189 703.067 566.203 702.021 567.504 701.296C568.827 700.549 570.341 700.176 572.048 700.176C573.712 700.176 575.184 700.539 576.464 701.264C577.744 701.989 578.725 702.992 579.408 704.272C580.112 705.531 580.464 706.96 580.464 708.56ZM577.456 707.952C577.456 706.843 577.211 705.893 576.72 705.104C576.229 704.293 575.557 703.685 574.704 703.28C573.872 702.853 572.944 702.64 571.92 702.64C570.448 702.64 569.189 703.109 568.144 704.048C567.12 704.987 566.533 706.288 566.384 707.952H577.456ZM591.444 702.864H587.764V718H584.852V702.864H582.58V700.464H584.852V699.216C584.852 697.253 585.353 695.824 586.356 694.928C587.38 694.011 589.012 693.552 591.252 693.552V695.984C589.972 695.984 589.065 696.24 588.532 696.752C588.02 697.243 587.764 698.064 587.764 699.216V700.464H591.444V702.864ZM602.487 718.288C600.844 718.288 599.351 717.915 598.007 717.168C596.684 716.421 595.639 715.365 594.871 714C594.124 712.613 593.751 711.013 593.751 709.2C593.751 707.408 594.135 705.829 594.903 704.464C595.692 703.077 596.759 702.021 598.103 701.296C599.447 700.549 600.951 700.176 602.615 700.176C604.279 700.176 605.783 700.549 607.127 701.296C608.471 702.021 609.527 703.067 610.295 704.432C611.084 705.797 611.479 707.387 611.479 709.2C611.479 711.013 611.074 712.613 610.263 714C609.474 715.365 608.396 716.421 607.031 717.168C605.666 717.915 604.151 718.288 602.487 718.288ZM602.487 715.728C603.532 715.728 604.514 715.483 605.431 714.992C606.348 714.501 607.084 713.765 607.639 712.784C608.215 711.803 608.503 710.608 608.503 709.2C608.503 707.792 608.226 706.597 607.671 705.616C607.116 704.635 606.391 703.909 605.495 703.44C604.599 702.949 603.628 702.704 602.583 702.704C601.516 702.704 600.535 702.949 599.639 703.44C598.764 703.909 598.06 704.635 597.527 705.616C596.994 706.597 596.727 707.792 596.727 709.2C596.727 710.629 596.983 711.835 597.495 712.816C598.028 713.797 598.732 714.533 599.607 715.024C600.482 715.493 601.442 715.728 602.487 715.728ZM618.22 703.312C618.732 702.309 619.457 701.531 620.396 700.976C621.356 700.421 622.518 700.144 623.884 700.144V703.152H623.116C619.852 703.152 618.22 704.923 618.22 708.464V718H615.308V700.464H618.22V703.312ZM643.245 708.56C643.245 709.115 643.213 709.701 643.149 710.32H629.133C629.24 712.048 629.827 713.403 630.893 714.384C631.981 715.344 633.293 715.824 634.829 715.824C636.088 715.824 637.133 715.536 637.965 714.96C638.819 714.363 639.416 713.573 639.757 712.592H642.893C642.424 714.277 641.485 715.653 640.077 716.72C638.669 717.765 636.92 718.288 634.829 718.288C633.165 718.288 631.672 717.915 630.349 717.168C629.048 716.421 628.024 715.365 627.277 714C626.531 712.613 626.157 711.013 626.157 709.2C626.157 707.387 626.52 705.797 627.245 704.432C627.971 703.067 628.984 702.021 630.285 701.296C631.608 700.549 633.123 700.176 634.829 700.176C636.493 700.176 637.965 700.539 639.245 701.264C640.525 701.989 641.507 702.992 642.189 704.272C642.893 705.531 643.245 706.96 643.245 708.56ZM640.237 707.952C640.237 706.843 639.992 705.893 639.501 705.104C639.011 704.293 638.339 703.685 637.485 703.28C636.653 702.853 635.725 702.64 634.701 702.64C633.229 702.64 631.971 703.109 630.925 704.048C629.901 704.987 629.315 706.288 629.165 707.952H640.237Z" fill="black"/>
<path d="M556.007 706.512C556.818 706.64 557.554 706.971 558.215 707.504C558.898 708.037 559.431 708.699 559.815 709.488C560.22 710.277 560.423 711.12 560.423 712.016C560.423 713.147 560.135 714.171 559.559 715.088C558.983 715.984 558.14 716.699 557.031 717.232C555.943 717.744 554.652 718 553.159 718H544.839V695.696H552.839C554.354 695.696 555.644 695.952 556.711 696.464C557.778 696.955 558.578 697.627 559.111 698.48C559.644 699.333 559.911 700.293 559.911 701.36C559.911 702.683 559.548 703.781 558.823 704.656C558.119 705.509 557.18 706.128 556.007 706.512ZM547.751 705.328H552.647C554.012 705.328 555.068 705.008 555.815 704.368C556.562 703.728 556.935 702.843 556.935 701.712C556.935 700.581 556.562 699.696 555.815 699.056C555.068 698.416 553.991 698.096 552.583 698.096H547.751V705.328ZM552.903 715.6C554.354 715.6 555.484 715.259 556.295 714.576C557.106 713.893 557.511 712.944 557.511 711.728C557.511 710.491 557.084 709.52 556.231 708.816C555.378 708.091 554.236 707.728 552.807 707.728H547.751V715.6H552.903ZM580.464 708.56C580.464 709.115 580.432 709.701 580.368 710.32H566.352C566.459 712.048 567.045 713.403 568.112 714.384C569.2 715.344 570.512 715.824 572.048 715.824C573.307 715.824 574.352 715.536 575.184 714.96C576.037 714.363 576.635 713.573 576.976 712.592H580.112C579.643 714.277 578.704 715.653 577.296 716.72C575.888 717.765 574.139 718.288 572.048 718.288C570.384 718.288 568.891 717.915 567.568 717.168C566.267 716.421 565.243 715.365 564.496 714C563.749 712.613 563.376 711.013 563.376 709.2C563.376 707.387 563.739 705.797 564.464 704.432C565.189 703.067 566.203 702.021 567.504 701.296C568.827 700.549 570.341 700.176 572.048 700.176C573.712 700.176 575.184 700.539 576.464 701.264C577.744 701.989 578.725 702.992 579.408 704.272C580.112 705.531 580.464 706.96 580.464 708.56ZM577.456 707.952C577.456 706.843 577.211 705.893 576.72 705.104C576.229 704.293 575.557 703.685 574.704 703.28C573.872 702.853 572.944 702.64 571.92 702.64C570.448 702.64 569.189 703.109 568.144 704.048C567.12 704.987 566.533 706.288 566.384 707.952H577.456ZM591.444 702.864H587.764V718H584.852V702.864H582.58V700.464H584.852V699.216C584.852 697.253 585.353 695.824 586.356 694.928C587.38 694.011 589.012 693.552 591.252 693.552V695.984C589.972 695.984 589.065 696.24 588.532 696.752C588.02 697.243 587.764 698.064 587.764 699.216V700.464H591.444V702.864ZM602.487 718.288C600.844 718.288 599.351 717.915 598.007 717.168C596.684 716.421 595.639 715.365 594.871 714C594.124 712.613 593.751 711.013 593.751 709.2C593.751 707.408 594.135 705.829 594.903 704.464C595.692 703.077 596.759 702.021 598.103 701.296C599.447 700.549 600.951 700.176 602.615 700.176C604.279 700.176 605.783 700.549 607.127 701.296C608.471 702.021 609.527 703.067 610.295 704.432C611.084 705.797 611.479 707.387 611.479 709.2C611.479 711.013 611.074 712.613 610.263 714C609.474 715.365 608.396 716.421 607.031 717.168C605.666 717.915 604.151 718.288 602.487 718.288ZM602.487 715.728C603.532 715.728 604.514 715.483 605.431 714.992C606.348 714.501 607.084 713.765 607.639 712.784C608.215 711.803 608.503 710.608 608.503 709.2C608.503 707.792 608.226 706.597 607.671 705.616C607.116 704.635 606.391 703.909 605.495 703.44C604.599 702.949 603.628 702.704 602.583 702.704C601.516 702.704 600.535 702.949 599.639 703.44C598.764 703.909 598.06 704.635 597.527 705.616C596.994 706.597 596.727 707.792 596.727 709.2C596.727 710.629 596.983 711.835 597.495 712.816C598.028 713.797 598.732 714.533 599.607 715.024C600.482 715.493 601.442 715.728 602.487 715.728ZM618.22 703.312C618.732 702.309 619.457 701.531 620.396 700.976C621.356 700.421 622.518 700.144 623.884 700.144V703.152H623.116C619.852 703.152 618.22 704.923 618.22 708.464V718H615.308V700.464H618.22V703.312ZM643.245 708.56C643.245 709.115 643.213 709.701 643.149 710.32H629.133C629.24 712.048 629.827 713.403 630.893 714.384C631.981 715.344 633.293 715.824 634.829 715.824C636.088 715.824 637.133 715.536 637.965 714.96C638.819 714.363 639.416 713.573 639.757 712.592H642.893C642.424 714.277 641.485 715.653 640.077 716.72C638.669 717.765 636.92 718.288 634.829 718.288C633.165 718.288 631.672 717.915 630.349 717.168C629.048 716.421 628.024 715.365 627.277 714C626.531 712.613 626.157 711.013 626.157 709.2C626.157 707.387 626.52 705.797 627.245 704.432C627.971 703.067 628.984 702.021 630.285 701.296C631.608 700.549 633.123 700.176 634.829 700.176C636.493 700.176 637.965 700.539 639.245 701.264C640.525 701.989 641.507 702.992 642.189 704.272C642.893 705.531 643.245 706.96 643.245 708.56ZM640.237 707.952C640.237 706.843 639.992 705.893 639.501 705.104C639.011 704.293 638.339 703.685 637.485 703.28C636.653 702.853 635.725 702.64 634.701 702.64C633.229 702.64 631.971 703.109 630.925 704.048C629.901 704.987 629.315 706.288 629.165 707.952H640.237Z" fill="black"/>
<path d="M972.15 507.98C972.15 505.761 972.63 503.788 973.59 502.06C974.55 500.311 975.883 498.956 977.59 497.996C979.318 497.015 981.27 496.524 983.446 496.524C986.112 496.524 988.395 497.228 990.294 498.636C992.192 500.044 993.462 501.964 994.102 504.396H988.086C987.638 503.457 986.998 502.743 986.166 502.252C985.355 501.761 984.427 501.516 983.382 501.516C981.696 501.516 980.331 502.103 979.286 503.276C978.24 504.449 977.718 506.017 977.718 507.98C977.718 509.943 978.24 511.511 979.286 512.684C980.331 513.857 981.696 514.444 983.382 514.444C984.427 514.444 985.355 514.199 986.166 513.708C986.998 513.217 987.638 512.503 988.086 511.564H994.102C993.462 513.996 992.192 515.916 990.294 517.324C988.395 518.711 986.112 519.404 983.446 519.404C981.27 519.404 979.318 518.924 977.59 517.964C975.883 516.983 974.55 515.628 973.59 513.9C972.63 512.172 972.15 510.199 972.15 507.98ZM1015.08 501.388V519.244H1009.61V516.812C1009.06 517.601 1008.3 518.241 1007.34 518.732C1006.4 519.201 1005.36 519.436 1004.2 519.436C1002.84 519.436 1001.63 519.137 1000.59 518.54C999.543 517.921 998.733 517.036 998.157 515.884C997.581 514.732 997.293 513.377 997.293 511.82V501.388H1002.73V511.084C1002.73 512.279 1003.04 513.207 1003.66 513.868C1004.28 514.529 1005.11 514.86 1006.16 514.86C1007.22 514.86 1008.07 514.529 1008.68 513.868C1009.3 513.207 1009.61 512.279 1009.61 511.084V501.388H1015.08ZM1026.28 519.5C1024.72 519.5 1023.34 519.233 1022.12 518.7C1020.9 518.167 1019.94 517.441 1019.24 516.524C1018.54 515.585 1018.14 514.54 1018.06 513.388H1023.46C1023.53 514.007 1023.82 514.508 1024.33 514.892C1024.84 515.276 1025.47 515.468 1026.22 515.468C1026.9 515.468 1027.42 515.34 1027.78 515.084C1028.17 514.807 1028.36 514.455 1028.36 514.028C1028.36 513.516 1028.09 513.143 1027.56 512.908C1027.03 512.652 1026.16 512.375 1024.97 512.076C1023.69 511.777 1022.62 511.468 1021.77 511.148C1020.91 510.807 1020.18 510.284 1019.56 509.58C1018.94 508.855 1018.63 507.884 1018.63 506.668C1018.63 505.644 1018.91 504.716 1019.46 503.884C1020.04 503.031 1020.87 502.359 1021.96 501.868C1023.07 501.377 1024.38 501.132 1025.9 501.132C1028.14 501.132 1029.9 501.687 1031.18 502.796C1032.48 503.905 1033.22 505.377 1033.42 507.212H1028.36C1028.27 506.593 1028 506.103 1027.53 505.74C1027.08 505.377 1026.48 505.196 1025.74 505.196C1025.1 505.196 1024.6 505.324 1024.26 505.58C1023.92 505.815 1023.75 506.145 1023.75 506.572C1023.75 507.084 1024.02 507.468 1024.55 507.724C1025.11 507.98 1025.96 508.236 1027.11 508.492C1028.43 508.833 1029.51 509.175 1030.34 509.516C1031.18 509.836 1031.9 510.369 1032.52 511.116C1033.16 511.841 1033.49 512.823 1033.51 514.06C1033.51 515.105 1033.21 516.044 1032.62 516.876C1032.04 517.687 1031.2 518.327 1030.09 518.796C1029 519.265 1027.73 519.5 1026.28 519.5ZM1046.81 514.604V519.244H1044.03C1042.04 519.244 1040.5 518.764 1039.39 517.804C1038.28 516.823 1037.72 515.233 1037.72 513.036V505.932H1035.55V501.388H1037.72V497.036H1043.2V501.388H1046.78V505.932H1043.2V513.1C1043.2 513.633 1043.32 514.017 1043.58 514.252C1043.84 514.487 1044.26 514.604 1044.86 514.604H1046.81ZM1057.99 519.5C1056.24 519.5 1054.66 519.127 1053.25 518.38C1051.86 517.633 1050.77 516.567 1049.96 515.18C1049.17 513.793 1048.77 512.172 1048.77 510.316C1048.77 508.481 1049.18 506.871 1049.99 505.484C1050.8 504.076 1051.91 502.999 1053.32 502.252C1054.72 501.505 1056.3 501.132 1058.05 501.132C1059.8 501.132 1061.38 501.505 1062.79 502.252C1064.2 502.999 1065.3 504.076 1066.12 505.484C1066.93 506.871 1067.33 508.481 1067.33 510.316C1067.33 512.151 1066.92 513.772 1066.08 515.18C1065.27 516.567 1064.15 517.633 1062.72 518.38C1061.32 519.127 1059.74 519.5 1057.99 519.5ZM1057.99 514.764C1059.03 514.764 1059.92 514.38 1060.64 513.612C1061.39 512.844 1061.76 511.745 1061.76 510.316C1061.76 508.887 1061.4 507.788 1060.68 507.02C1059.97 506.252 1059.1 505.868 1058.05 505.868C1056.98 505.868 1056.1 506.252 1055.4 507.02C1054.69 507.767 1054.34 508.865 1054.34 510.316C1054.34 511.745 1054.68 512.844 1055.36 513.612C1056.07 514.38 1056.94 514.764 1057.99 514.764ZM1093.02 501.196C1095.24 501.196 1097 501.868 1098.3 503.212C1099.62 504.556 1100.28 506.423 1100.28 508.812V519.244H1094.84V509.548C1094.84 508.396 1094.53 507.511 1093.91 506.892C1093.32 506.252 1092.48 505.932 1091.42 505.932C1090.35 505.932 1089.51 506.252 1088.89 506.892C1088.29 507.511 1087.99 508.396 1087.99 509.548V519.244H1082.55V509.548C1082.55 508.396 1082.24 507.511 1081.63 506.892C1081.03 506.252 1080.2 505.932 1079.13 505.932C1078.06 505.932 1077.22 506.252 1076.6 506.892C1076 507.511 1075.71 508.396 1075.71 509.548V519.244H1070.23V501.388H1075.71V503.628C1076.26 502.881 1076.99 502.295 1077.88 501.868C1078.78 501.42 1079.79 501.196 1080.92 501.196C1082.27 501.196 1083.46 501.484 1084.51 502.06C1085.57 502.636 1086.4 503.457 1087 504.524C1087.62 503.543 1088.46 502.743 1089.53 502.124C1090.6 501.505 1091.76 501.196 1093.02 501.196ZM987.104 552.012C987.104 553.313 986.805 554.508 986.208 555.596C985.611 556.663 984.693 557.527 983.456 558.188C982.219 558.849 980.683 559.18 978.848 559.18H975.456V567.244H969.984V544.78H978.848C980.64 544.78 982.155 545.089 983.392 545.708C984.629 546.327 985.557 547.18 986.176 548.268C986.795 549.356 987.104 550.604 987.104 552.012ZM978.432 554.828C979.477 554.828 980.256 554.583 980.768 554.092C981.28 553.601 981.536 552.908 981.536 552.012C981.536 551.116 981.28 550.423 980.768 549.932C980.256 549.441 979.477 549.196 978.432 549.196H975.456V554.828H978.432ZM988.865 558.284C988.865 556.449 989.206 554.839 989.889 553.452C990.593 552.065 991.542 550.999 992.737 550.252C993.931 549.505 995.265 549.132 996.737 549.132C997.995 549.132 999.094 549.388 1000.03 549.9C1000.99 550.412 1001.73 551.084 1002.24 551.916V549.388H1007.71V567.244H1002.24V564.716C1001.71 565.548 1000.96 566.22 1000 566.732C999.062 567.244 997.963 567.5 996.705 567.5C995.254 567.5 993.931 567.127 992.737 566.38C991.542 565.612 990.593 564.535 989.889 563.148C989.206 561.74 988.865 560.119 988.865 558.284ZM1002.24 558.316C1002.24 556.951 1001.86 555.873 1001.09 555.084C1000.34 554.295 999.425 553.9 998.337 553.9C997.249 553.9 996.321 554.295 995.553 555.084C994.806 555.852 994.433 556.919 994.433 558.284C994.433 559.649 994.806 560.737 995.553 561.548C996.321 562.337 997.249 562.732 998.337 562.732C999.425 562.732 1000.34 562.337 1001.09 561.548C1001.86 560.759 1002.24 559.681 1002.24 558.316ZM1010.58 558.316C1010.58 556.46 1010.96 554.839 1011.7 553.452C1012.47 552.065 1013.53 550.999 1014.87 550.252C1016.24 549.505 1017.79 549.132 1019.54 549.132C1021.78 549.132 1023.65 549.719 1025.14 550.892C1026.66 552.065 1027.65 553.719 1028.12 555.852H1022.3C1021.8 554.487 1020.86 553.804 1019.45 553.804C1018.44 553.804 1017.64 554.199 1017.05 554.988C1016.45 555.756 1016.15 556.865 1016.15 558.316C1016.15 559.767 1016.45 560.887 1017.05 561.676C1017.64 562.444 1018.44 562.828 1019.45 562.828C1020.86 562.828 1021.8 562.145 1022.3 560.78H1028.12C1027.65 562.871 1026.66 564.513 1025.14 565.708C1023.63 566.903 1021.76 567.5 1019.54 567.5C1017.79 567.5 1016.24 567.127 1014.87 566.38C1013.53 565.633 1012.47 564.567 1011.7 563.18C1010.96 561.793 1010.58 560.172 1010.58 558.316ZM1041.96 567.244L1036.52 559.756V567.244H1031.05V543.564H1036.52V556.652L1041.93 549.388H1048.68L1041.25 558.348L1048.74 567.244H1041.96ZM1049.74 558.284C1049.74 556.449 1050.08 554.839 1050.76 553.452C1051.47 552.065 1052.42 550.999 1053.61 550.252C1054.81 549.505 1056.14 549.132 1057.61 549.132C1058.87 549.132 1059.97 549.388 1060.91 549.9C1061.87 550.412 1062.6 551.084 1063.12 551.916V549.388H1068.59V567.244H1063.12V564.716C1062.58 565.548 1061.84 566.22 1060.88 566.732C1059.94 567.244 1058.84 567.5 1057.58 567.5C1056.13 567.5 1054.81 567.127 1053.61 566.38C1052.42 565.612 1051.47 564.535 1050.76 563.148C1050.08 561.74 1049.74 560.119 1049.74 558.284ZM1063.12 558.316C1063.12 556.951 1062.73 555.873 1061.96 555.084C1061.22 554.295 1060.3 553.9 1059.21 553.9C1058.12 553.9 1057.2 554.295 1056.43 555.084C1055.68 555.852 1055.31 556.919 1055.31 558.284C1055.31 559.649 1055.68 560.737 1056.43 561.548C1057.2 562.337 1058.12 562.732 1059.21 562.732C1060.3 562.732 1061.22 562.337 1061.96 561.548C1062.73 560.759 1063.12 559.681 1063.12 558.316ZM1079.33 549.132C1080.59 549.132 1081.69 549.388 1082.63 549.9C1083.59 550.412 1084.32 551.084 1084.83 551.916V549.388H1090.31V567.212C1090.31 568.855 1089.98 570.337 1089.31 571.66C1088.67 573.004 1087.68 574.071 1086.34 574.86C1085.02 575.649 1083.36 576.044 1081.38 576.044C1078.73 576.044 1076.59 575.415 1074.95 574.156C1073.3 572.919 1072.37 571.233 1072.13 569.1H1077.54C1077.71 569.783 1078.11 570.316 1078.75 570.7C1079.39 571.105 1080.18 571.308 1081.12 571.308C1082.25 571.308 1083.15 570.977 1083.81 570.316C1084.49 569.676 1084.83 568.641 1084.83 567.212V564.684C1084.3 565.516 1083.57 566.199 1082.63 566.732C1081.69 567.244 1080.59 567.5 1079.33 567.5C1077.86 567.5 1076.53 567.127 1075.33 566.38C1074.14 565.612 1073.19 564.535 1072.48 563.148C1071.8 561.74 1071.46 560.119 1071.46 558.284C1071.46 556.449 1071.8 554.839 1072.48 553.452C1073.19 552.065 1074.14 550.999 1075.33 550.252C1076.53 549.505 1077.86 549.132 1079.33 549.132ZM1084.83 558.316C1084.83 556.951 1084.45 555.873 1083.68 555.084C1082.94 554.295 1082.02 553.9 1080.93 553.9C1079.84 553.9 1078.91 554.295 1078.15 555.084C1077.4 555.852 1077.03 556.919 1077.03 558.284C1077.03 559.649 1077.4 560.737 1078.15 561.548C1078.91 562.337 1079.84 562.732 1080.93 562.732C1082.02 562.732 1082.94 562.337 1083.68 561.548C1084.45 560.759 1084.83 559.681 1084.83 558.316ZM1111.1 558.028C1111.1 558.54 1111.07 559.073 1111 559.628H1098.62C1098.7 560.737 1099.05 561.591 1099.67 562.188C1100.31 562.764 1101.09 563.052 1102.01 563.052C1103.37 563.052 1104.32 562.476 1104.86 561.324H1110.68C1110.38 562.497 1109.84 563.553 1109.05 564.492C1108.28 565.431 1107.31 566.167 1106.14 566.7C1104.96 567.233 1103.65 567.5 1102.2 567.5C1100.45 567.5 1098.89 567.127 1097.53 566.38C1096.16 565.633 1095.1 564.567 1094.33 563.18C1093.56 561.793 1093.18 560.172 1093.18 558.316C1093.18 556.46 1093.55 554.839 1094.3 553.452C1095.07 552.065 1096.13 550.999 1097.5 550.252C1098.86 549.505 1100.43 549.132 1102.2 549.132C1103.93 549.132 1105.47 549.495 1106.81 550.22C1108.15 550.945 1109.2 551.98 1109.95 553.324C1110.71 554.668 1111.1 556.236 1111.1 558.028ZM1105.5 556.588C1105.5 555.649 1105.18 554.903 1104.54 554.348C1103.9 553.793 1103.1 553.516 1102.14 553.516C1101.22 553.516 1100.44 553.783 1099.8 554.316C1099.18 554.849 1098.8 555.607 1098.65 556.588H1105.5ZM1017.54 600.012C1017.54 601.313 1017.24 602.508 1016.65 603.596C1016.05 604.663 1015.13 605.527 1013.89 606.188C1012.66 606.849 1011.12 607.18 1009.29 607.18H1005.89V615.244H1000.42V592.78H1009.29C1011.08 592.78 1012.59 593.089 1013.83 593.708C1015.07 594.327 1015.99 595.18 1016.61 596.268C1017.23 597.356 1017.54 598.604 1017.54 600.012ZM1008.87 602.828C1009.91 602.828 1010.69 602.583 1011.21 602.092C1011.72 601.601 1011.97 600.908 1011.97 600.012C1011.97 599.116 1011.72 598.423 1011.21 597.932C1010.69 597.441 1009.91 597.196 1008.87 597.196H1005.89V602.828H1008.87ZM1019.3 606.284C1019.3 604.449 1019.64 602.839 1020.33 601.452C1021.03 600.065 1021.98 598.999 1023.17 598.252C1024.37 597.505 1025.7 597.132 1027.17 597.132C1028.43 597.132 1029.53 597.388 1030.47 597.9C1031.43 598.412 1032.17 599.084 1032.68 599.916V597.388H1038.15V615.244H1032.68V612.716C1032.14 613.548 1031.4 614.22 1030.44 614.732C1029.5 615.244 1028.4 615.5 1027.14 615.5C1025.69 615.5 1024.37 615.127 1023.17 614.38C1021.98 613.612 1021.03 612.535 1020.33 611.148C1019.64 609.74 1019.3 608.119 1019.3 606.284ZM1032.68 606.316C1032.68 604.951 1032.29 603.873 1031.53 603.084C1030.78 602.295 1029.86 601.9 1028.77 601.9C1027.69 601.9 1026.76 602.295 1025.99 603.084C1025.24 603.852 1024.87 604.919 1024.87 606.284C1024.87 607.649 1025.24 608.737 1025.99 609.548C1026.76 610.337 1027.69 610.732 1028.77 610.732C1029.86 610.732 1030.78 610.337 1031.53 609.548C1032.29 608.759 1032.68 607.681 1032.68 606.316ZM1048.89 597.132C1050.15 597.132 1051.25 597.388 1052.19 597.9C1053.15 598.412 1053.89 599.084 1054.4 599.916V597.388H1059.87V615.212C1059.87 616.855 1059.54 618.337 1058.88 619.66C1058.24 621.004 1057.25 622.071 1055.9 622.86C1054.58 623.649 1052.93 624.044 1050.94 624.044C1048.3 624.044 1046.15 623.415 1044.51 622.156C1042.87 620.919 1041.93 619.233 1041.69 617.1H1047.1C1047.27 617.783 1047.68 618.316 1048.32 618.7C1048.96 619.105 1049.75 619.308 1050.69 619.308C1051.82 619.308 1052.71 618.977 1053.37 618.316C1054.06 617.676 1054.4 616.641 1054.4 615.212V612.684C1053.86 613.516 1053.13 614.199 1052.19 614.732C1051.25 615.244 1050.15 615.5 1048.89 615.5C1047.42 615.5 1046.09 615.127 1044.89 614.38C1043.7 613.612 1042.75 612.535 1042.05 611.148C1041.36 609.74 1041.02 608.119 1041.02 606.284C1041.02 604.449 1041.36 602.839 1042.05 601.452C1042.75 600.065 1043.7 598.999 1044.89 598.252C1046.09 597.505 1047.42 597.132 1048.89 597.132ZM1054.4 606.316C1054.4 604.951 1054.01 603.873 1053.25 603.084C1052.5 602.295 1051.58 601.9 1050.49 601.9C1049.41 601.9 1048.48 602.295 1047.71 603.084C1046.96 603.852 1046.59 604.919 1046.59 606.284C1046.59 607.649 1046.96 608.737 1047.71 609.548C1048.48 610.337 1049.41 610.732 1050.49 610.732C1051.58 610.732 1052.5 610.337 1053.25 609.548C1054.01 608.759 1054.4 607.681 1054.4 606.316ZM1080.66 606.028C1080.66 606.54 1080.63 607.073 1080.56 607.628H1068.18C1068.27 608.737 1068.62 609.591 1069.24 610.188C1069.88 610.764 1070.65 611.052 1071.57 611.052C1072.94 611.052 1073.89 610.476 1074.42 609.324H1080.24C1079.95 610.497 1079.4 611.553 1078.61 612.492C1077.84 613.431 1076.87 614.167 1075.7 614.7C1074.53 615.233 1073.21 615.5 1071.76 615.5C1070.01 615.5 1068.46 615.127 1067.09 614.38C1065.73 613.633 1064.66 612.567 1063.89 611.18C1063.12 609.793 1062.74 608.172 1062.74 606.316C1062.74 604.46 1063.11 602.839 1063.86 601.452C1064.63 600.065 1065.69 598.999 1067.06 598.252C1068.43 597.505 1069.99 597.132 1071.76 597.132C1073.49 597.132 1075.03 597.495 1076.37 598.22C1077.72 598.945 1078.76 599.98 1079.51 601.324C1080.28 602.668 1080.66 604.236 1080.66 606.028ZM1075.06 604.588C1075.06 603.649 1074.74 602.903 1074.1 602.348C1073.46 601.793 1072.66 601.516 1071.7 601.516C1070.78 601.516 1070 601.783 1069.36 602.316C1068.75 602.849 1068.36 603.607 1068.21 604.588H1075.06Z" fill="#F8F4F3"/>
<path d="M150.403 251.863L143.131 252.399C131.496 252.782 123.764 258.982 122.08 270.158L112.436 310.728C112.282 311.493 111.9 312.182 111.44 312.795L80.592 354.513L91.0789 361.172L122.693 330.018C128.204 324.736 132.874 320.373 134.787 316.163L143.82 283.324L150.403 251.863Z" fill="#636363"/>
<path d="M156.68 277.281L166.401 307.135C168.162 312.11 169.157 317.545 169.999 325.123L174.286 364.851L164.411 373.73L148.872 321.602L124.607 294.045C120.626 289.452 119.172 283.328 120.243 277.358L138.094 273.584L156.68 277.358V277.281Z" fill="#9B9B9B"/>
<path d="M75.1573 358.806L82.5824 351.84L94.7533 357.428L99.8054 380.775C100.188 383.377 96.9732 384.908 95.1361 382.994L75.0808 361.485C74.3918 360.719 74.3919 359.495 75.1573 358.806ZM167.473 382.688L164.181 373.043L174.209 364.24L197.556 369.216C200.158 369.905 200.235 373.503 197.709 374.345L169.846 383.836C168.851 384.219 167.779 383.683 167.473 382.688Z" fill="#533566"/>
<path d="M105.83 280.752C106.064 280.028 106.281 279.321 106.48 278.632C106.654 277.994 106.827 277.415 107.001 276.894C116.684 248.786 136.625 236.814 138.676 235.59L138.844 235.482C140.533 234.593 141.802 233.072 142.375 231.252C142.949 229.431 142.78 227.458 141.906 225.761C140.069 222.24 135.706 220.862 132.261 222.699C131.19 223.235 105.547 236.937 93.4521 272.148L93.0081 273.396C92.6713 274.315 92.3575 275.18 92.1508 275.976L89.8544 281.717L89.8008 281.855C89.1808 283.577 88.0249 286.738 88.3234 288.453C88.7062 290.52 92.1508 292.816 95.0596 293.735C95.0596 293.735 98.7338 294.883 101.872 294.117C104.245 293.582 103.862 290.826 103.862 290.826C103.862 290.826 104.704 290.137 106.848 288.606C109.626 286.585 106.878 282.207 105.83 280.752ZM145.642 236.99C145.443 235.119 145.996 233.244 147.178 231.78C148.361 230.316 150.077 229.382 151.949 229.183C153.821 228.984 155.695 229.536 157.159 230.719C158.624 231.902 159.558 233.618 159.757 235.49L159.765 235.574L159.857 236.141C160.012 236.991 160.195 237.836 160.408 238.674C161.249 241.926 162.395 245.091 163.829 248.128C167.328 255.63 173.78 265.474 185.607 274.629C187.184 274.223 192.435 273.151 193.346 276.588C194.035 279.114 194.341 280.109 194.341 280.109C194.341 280.109 197.02 280.722 196.637 283.171C196.178 286.31 193.805 289.295 193.805 289.295C191.891 291.668 188.523 293.964 186.533 293.582C184.987 293.245 182.844 291.431 181.42 290.213L180.869 289.754L176.506 285.529C162.941 274.919 155.264 263.338 150.969 254.129C148.727 249.314 147.402 245.173 146.645 242.165C146.223 240.516 145.893 238.845 145.657 237.159L145.649 237.044V237.006L145.642 236.99Z" fill="#FFC83D"/>
<path d="M139.151 205.176L136.702 220.256L152.164 222.935L154.537 207.549L139.151 205.176Z" fill="#FCB100"/>
<path d="M151.704 257.608C147.035 248.728 144.739 240.691 143.667 234.873C142.748 230.051 146.423 225.534 151.322 225.305H151.628C155.302 225.305 157.292 227.142 157.981 230.816C158.364 232.959 160.125 236.634 161.12 239.696C162.268 243.293 163.799 246.814 165.636 250.259C165.942 250.871 165.713 251.56 165.1 251.866L153.312 258.067C152.7 258.45 152.011 258.22 151.704 257.608Z" fill="#0092E7"/>
<path d="M143.514 219.331C152.546 221.551 157.981 224.689 160.354 237.625C163.186 253.088 156.756 277.353 156.756 277.353H120.243L124.836 234.181C125.831 224.995 133.486 216.881 143.514 219.331Z" fill="#00A6ED"/>
<path d="M112.666 238.161C119.555 230.583 126.368 225.684 131.573 222.622C135.86 220.02 141.447 221.933 143.361 226.526L143.514 226.832C144.662 230.43 143.208 234.334 139.917 236.248C137.926 237.396 135.553 238.927 133.027 240.994C129.965 243.367 127.133 246.046 124.531 248.955C124.071 249.49 123.306 249.49 122.77 249.031L112.742 239.922C112.207 239.463 112.207 238.697 112.666 238.161Z" fill="#3BC6F6"/>
<path d="M147.724 177.463L156.221 177.31C163.493 177.157 169.463 182.974 169.616 190.169V193.844C169.616 194.992 169.922 196.14 170.535 197.135C172.372 200.044 173.214 200.35 173.291 201.805C173.444 204.101 171.3 204.713 170.305 204.866C169.999 204.943 169.769 205.173 169.769 205.479C169.693 213.593 168.315 219.41 158.594 219.564C152.699 219.64 143.284 216.884 140.452 209.919L137.773 200.58L134.711 190.782C134.711 183.586 140.528 177.616 147.724 177.463Z" fill="#FFC83D"/>
<path d="M166.401 197.743C166.861 197.743 167.32 197.284 167.32 196.672V196.595C167.243 194.222 165.177 192.844 163.186 192.921C161.196 192.921 159.129 194.375 159.206 196.748V196.825C159.206 197.437 159.665 197.897 160.124 197.897L166.401 197.743Z" fill="white"/>
<path d="M167.167 197.826C167.247 197.447 167.298 197.064 167.32 196.677C167.32 194.917 166.172 193.539 164.794 193.539C163.416 193.539 162.344 194.993 162.344 196.754C162.344 197.137 162.421 197.52 162.497 197.902L167.167 197.826Z" fill="#7D4533"/>
<path d="M166.348 197.827C166.549 197.478 166.654 197.082 166.654 196.679C166.654 195.683 165.965 194.918 165.199 194.918C164.434 194.918 163.822 195.76 163.822 196.755C163.822 197.214 163.959 197.521 164.112 197.827H166.348Z" fill="black"/>
<path d="M165.452 195.544C165.36 195.215 165.513 194.886 165.797 194.802C166.08 194.725 166.386 194.917 166.486 195.246C166.577 195.567 166.424 195.897 166.134 195.981C165.85 196.057 165.552 195.866 165.452 195.544Z" fill="white"/>
<path d="M168.32 210.156C168.689 209.842 168.72 209.285 168.399 208.919C167.571 207.982 166.408 207.41 165.161 207.326C163.913 207.242 162.683 207.653 161.738 208.47C161.591 208.63 161.508 208.838 161.505 209.055C161.502 209.272 161.579 209.482 161.722 209.646C161.865 209.809 162.063 209.914 162.278 209.941C162.493 209.967 162.711 209.913 162.889 209.789C164.108 208.719 166.02 208.855 167.083 210.077C167.237 210.251 167.454 210.357 167.685 210.371C167.917 210.386 168.145 210.309 168.32 210.156Z" fill="#990839"/>
<path d="M159.673 192.637C160.053 192.651 160.424 192.522 160.714 192.278C162.006 191.372 163.588 190.979 165.154 191.175C165.426 191.204 165.702 191.165 165.956 191.063C166.21 190.961 166.436 190.799 166.613 190.59C166.79 190.381 166.914 190.132 166.973 189.864C167.032 189.597 167.025 189.319 166.953 189.055C166.859 188.738 166.674 188.456 166.42 188.244C166.167 188.031 165.857 187.898 165.529 187.861C163.095 187.585 160.63 188.236 158.64 189.675C158.37 189.889 158.173 190.182 158.077 190.514C157.981 190.845 157.99 191.198 158.104 191.523C158.217 191.849 158.429 192.131 158.711 192.331C158.992 192.53 159.328 192.638 159.673 192.637Z" fill="#D37034"/>
<path d="M137.007 171.952C131.649 173.253 128.893 178.152 128.893 183.281C128.893 183.281 128.893 187.414 129.582 190.935C129.965 192.925 130.424 194.992 130.884 196.676C131.343 198.59 132.415 201.193 133.563 202.8C134.634 204.254 136.931 205.632 139.074 205.862C140.957 206.053 144.05 204.767 144.853 202.402C144.21 201.944 143.679 201.345 143.301 200.652C142.923 199.958 142.708 199.188 142.672 198.399C142.59 197.28 142.866 196.165 143.461 195.214C144.056 194.263 144.937 193.526 145.979 193.109C146.32 192.9 146.711 192.784 147.112 192.772L147.954 192.696C148.348 192.672 148.733 192.569 149.087 192.393C149.441 192.217 149.755 191.972 150.013 191.672C150.27 191.372 150.464 191.024 150.583 190.647C150.703 190.271 150.746 189.874 150.709 189.481C150.556 187.414 152.087 185.654 154.154 185.654L168.239 184.735C168.315 184.658 168.468 184.658 168.545 184.658C170.011 184.389 171.336 183.613 172.287 182.465C173.239 181.318 173.757 179.872 173.75 178.382C173.673 174.784 170.688 172.028 167.167 172.258C166.095 172.334 165.1 171.799 164.488 171.033C163.556 169.859 162.247 169.042 160.783 168.721C159.318 168.4 157.788 168.595 156.45 169.272C154.384 170.268 152.011 170.421 149.867 169.655C149.025 169.426 148.183 169.272 147.265 169.349C146.116 169.426 145.045 169.732 144.126 170.344C142.825 171.11 141.294 171.569 139.763 171.569C138.845 171.569 138.003 171.722 137.007 171.952Z" fill="#F1A11E"/>
<path d="M349.786 177.441C379.518 177.441 408.583 172.267 433.304 162.573C458.026 152.879 477.294 139.101 488.672 122.981C500.05 106.861 503.027 89.1226 497.226 72.0095C491.426 54.8964 477.108 39.177 456.084 26.8392C435.061 14.5014 408.274 6.09917 379.113 2.69517C349.952 -0.708834 319.726 1.03822 292.257 7.71542C264.788 14.3926 241.31 25.7 224.792 40.2078C208.273 54.7156 199.457 71.7721 199.457 89.2205C199.457 103.806 205.47 117.559 216.16 129.674L199.457 177.441L280.851 167.639C301.497 173.912 324.948 177.441 349.786 177.441Z" stroke="black" stroke-width="2" stroke-linecap="round" stroke-linejoin="round"/>
<path d="M230.622 81.8965C229.39 81.8965 228.286 81.6965 227.31 81.2965C226.334 80.8965 225.55 80.3045 224.958 79.5205C224.382 78.7365 224.078 77.7925 224.046 76.6885H228.414C228.478 77.3125 228.694 77.7925 229.062 78.1285C229.43 78.4485 229.91 78.6085 230.502 78.6085C231.11 78.6085 231.59 78.4725 231.942 78.2005C232.294 77.9125 232.47 77.5205 232.47 77.0245C232.47 76.6085 232.326 76.2645 232.038 75.9925C231.766 75.7205 231.422 75.4965 231.006 75.3205C230.606 75.1445 230.03 74.9445 229.278 74.7205C228.19 74.3845 227.302 74.0485 226.614 73.7125C225.926 73.3765 225.334 72.8805 224.838 72.2245C224.342 71.5685 224.094 70.7125 224.094 69.6565C224.094 68.0885 224.662 66.8645 225.798 65.9845C226.934 65.0885 228.414 64.6405 230.238 64.6405C232.094 64.6405 233.59 65.0885 234.726 65.9845C235.862 66.8645 236.47 68.0965 236.55 69.6805H232.11C232.078 69.1365 231.878 68.7125 231.51 68.4085C231.142 68.0885 230.67 67.9285 230.094 67.9285C229.598 67.9285 229.198 68.0645 228.894 68.3365C228.59 68.5925 228.438 68.9685 228.438 69.4645C228.438 70.0085 228.694 70.4325 229.206 70.7365C229.718 71.0405 230.518 71.3685 231.606 71.7205C232.694 72.0885 233.574 72.4405 234.246 72.7765C234.934 73.1125 235.526 73.6005 236.022 74.2405C236.518 74.8805 236.766 75.7045 236.766 76.7125C236.766 77.6725 236.518 78.5445 236.022 79.3285C235.542 80.1125 234.838 80.7365 233.91 81.2005C232.982 81.6645 231.886 81.8965 230.622 81.8965ZM251.915 74.8165C251.915 75.2005 251.891 75.6005 251.843 76.0165H242.555C242.619 76.8485 242.883 77.4885 243.347 77.9365C243.827 78.3685 244.411 78.5845 245.099 78.5845C246.123 78.5845 246.835 78.1525 247.235 77.2885H251.603C251.379 78.1685 250.971 78.9605 250.379 79.6645C249.803 80.3685 249.075 80.9205 248.195 81.3205C247.315 81.7205 246.331 81.9205 245.243 81.9205C243.931 81.9205 242.763 81.6405 241.739 81.0805C240.715 80.5205 239.915 79.7205 239.339 78.6805C238.763 77.6405 238.475 76.4245 238.475 75.0325C238.475 73.6405 238.755 72.4245 239.315 71.3845C239.891 70.3445 240.691 69.5445 241.715 68.9845C242.739 68.4245 243.915 68.1445 245.243 68.1445C246.539 68.1445 247.691 68.4165 248.699 68.9605C249.707 69.5045 250.491 70.2805 251.051 71.2885C251.627 72.2965 251.915 73.4725 251.915 74.8165ZM247.715 73.7365C247.715 73.0325 247.475 72.4725 246.995 72.0565C246.515 71.6405 245.915 71.4325 245.195 71.4325C244.507 71.4325 243.923 71.6325 243.443 72.0325C242.979 72.4325 242.691 73.0005 242.579 73.7365H247.715ZM266.704 74.8165C266.704 75.2005 266.68 75.6005 266.632 76.0165H257.344C257.408 76.8485 257.672 77.4885 258.136 77.9365C258.616 78.3685 259.2 78.5845 259.888 78.5845C260.912 78.5845 261.624 78.1525 262.024 77.2885H266.392C266.168 78.1685 265.76 78.9605 265.168 79.6645C264.592 80.3685 263.864 80.9205 262.984 81.3205C262.104 81.7205 261.12 81.9205 260.032 81.9205C258.72 81.9205 257.552 81.6405 256.528 81.0805C255.504 80.5205 254.704 79.7205 254.128 78.6805C253.552 77.6405 253.264 76.4245 253.264 75.0325C253.264 73.6405 253.544 72.4245 254.104 71.3845C254.68 70.3445 255.48 69.5445 256.504 68.9845C257.528 68.4245 258.704 68.1445 260.032 68.1445C261.328 68.1445 262.48 68.4165 263.488 68.9605C264.496 69.5045 265.28 70.2805 265.84 71.2885C266.416 72.2965 266.704 73.4725 266.704 74.8165ZM262.504 73.7365C262.504 73.0325 262.264 72.4725 261.784 72.0565C261.304 71.6405 260.704 71.4325 259.984 71.4325C259.296 71.4325 258.712 71.6325 258.232 72.0325C257.768 72.4325 257.48 73.0005 257.368 73.7365H262.504ZM285.957 68.1925C287.621 68.1925 288.941 68.6965 289.917 69.7045C290.909 70.7125 291.405 72.1125 291.405 73.9045V81.7285H287.325V74.4565C287.325 73.5925 287.093 72.9285 286.629 72.4645C286.181 71.9845 285.557 71.7445 284.757 71.7445C283.957 71.7445 283.325 71.9845 282.861 72.4645C282.413 72.9285 282.189 73.5925 282.189 74.4565V81.7285H278.109V74.4565C278.109 73.5925 277.877 72.9285 277.413 72.4645C276.965 71.9845 276.341 71.7445 275.541 71.7445C274.741 71.7445 274.109 71.9845 273.645 72.4645C273.197 72.9285 272.973 73.5925 272.973 74.4565V81.7285H268.869V68.3365H272.973V70.0165C273.389 69.4565 273.933 69.0165 274.605 68.6965C275.277 68.3605 276.037 68.1925 276.885 68.1925C277.893 68.1925 278.789 68.4085 279.573 68.8405C280.373 69.2725 280.997 69.8885 281.445 70.6885C281.909 69.9525 282.541 69.3525 283.341 68.8885C284.141 68.4245 285.013 68.1925 285.957 68.1925ZM299.724 81.9205C298.556 81.9205 297.516 81.7205 296.604 81.3205C295.692 80.9205 294.972 80.3765 294.444 79.6885C293.916 78.9845 293.62 78.2005 293.556 77.3365H297.612C297.66 77.8005 297.876 78.1765 298.26 78.4645C298.644 78.7525 299.116 78.8965 299.676 78.8965C300.188 78.8965 300.58 78.8005 300.852 78.6085C301.14 78.4005 301.284 78.1365 301.284 77.8165C301.284 77.4325 301.084 77.1525 300.684 76.9765C300.284 76.7845 299.636 76.5765 298.74 76.3525C297.78 76.1285 296.98 75.8965 296.34 75.6565C295.7 75.4005 295.148 75.0085 294.684 74.4805C294.22 73.9365 293.988 73.2085 293.988 72.2965C293.988 71.5285 294.196 70.8325 294.612 70.2085C295.044 69.5685 295.668 69.0645 296.484 68.6965C297.316 68.3285 298.3 68.1445 299.436 68.1445C301.116 68.1445 302.436 68.5605 303.396 69.3925C304.372 70.2245 304.932 71.3285 305.076 72.7045H301.284C301.22 72.2405 301.012 71.8725 300.66 71.6005C300.324 71.3285 299.876 71.1925 299.316 71.1925C298.836 71.1925 298.468 71.2885 298.212 71.4805C297.956 71.6565 297.828 71.9045 297.828 72.2245C297.828 72.6085 298.028 72.8965 298.428 73.0885C298.844 73.2805 299.484 73.4725 300.348 73.6645C301.34 73.9205 302.148 74.1765 302.772 74.4325C303.396 74.6725 303.94 75.0725 304.404 75.6325C304.884 76.1765 305.132 76.9125 305.148 77.8405C305.148 78.6245 304.924 79.3285 304.476 79.9525C304.044 80.5605 303.412 81.0405 302.58 81.3925C301.764 81.7445 300.812 81.9205 299.724 81.9205ZM316.848 63.9685V81.7285H312.744V63.9685H316.848ZM321.886 66.9445C321.166 66.9445 320.574 66.7365 320.11 66.3205C319.662 65.8885 319.438 65.3605 319.438 64.7365C319.438 64.0965 319.662 63.5685 320.11 63.1525C320.574 62.7205 321.166 62.5045 321.886 62.5045C322.59 62.5045 323.166 62.7205 323.614 63.1525C324.078 63.5685 324.31 64.0965 324.31 64.7365C324.31 65.3605 324.078 65.8885 323.614 66.3205C323.166 66.7365 322.59 66.9445 321.886 66.9445ZM323.926 68.3365V81.7285H319.822V68.3365H323.926ZM335.085 81.7285L331.005 76.1125V81.7285H326.901V63.9685H331.005V73.7845L335.061 68.3365H340.125L334.557 75.0565L340.173 81.7285H335.085ZM354.361 74.8165C354.361 75.2005 354.337 75.6005 354.289 76.0165H345.001C345.065 76.8485 345.329 77.4885 345.793 77.9365C346.273 78.3685 346.857 78.5845 347.545 78.5845C348.569 78.5845 349.281 78.1525 349.681 77.2885H354.049C353.825 78.1685 353.417 78.9605 352.825 79.6645C352.249 80.3685 351.521 80.9205 350.641 81.3205C349.761 81.7205 348.777 81.9205 347.689 81.9205C346.377 81.9205 345.209 81.6405 344.185 81.0805C343.161 80.5205 342.361 79.7205 341.785 78.6805C341.209 77.6405 340.921 76.4245 340.921 75.0325C340.921 73.6405 341.201 72.4245 341.761 71.3845C342.337 70.3445 343.137 69.5445 344.161 68.9845C345.185 68.4245 346.361 68.1445 347.689 68.1445C348.985 68.1445 350.137 68.4165 351.145 68.9605C352.153 69.5045 352.937 70.2805 353.497 71.2885C354.073 72.2965 354.361 73.4725 354.361 74.8165ZM350.161 73.7365C350.161 73.0325 349.921 72.4725 349.441 72.0565C348.961 71.6405 348.361 71.4325 347.641 71.4325C346.953 71.4325 346.369 71.6325 345.889 72.0325C345.425 72.4325 345.137 73.0005 345.025 73.7365H350.161ZM365.716 64.8805V81.7285H361.612V64.8805H365.716ZM382.008 68.1925C383.544 68.1925 384.776 68.7045 385.704 69.7285C386.632 70.7365 387.096 72.1285 387.096 73.9045V81.7285H383.016V74.4565C383.016 73.5605 382.784 72.8645 382.32 72.3685C381.856 71.8725 381.232 71.6245 380.448 71.6245C379.664 71.6245 379.04 71.8725 378.576 72.3685C378.112 72.8645 377.88 73.5605 377.88 74.4565V81.7285H373.776V63.9685H377.88V70.1365C378.296 69.5445 378.864 69.0725 379.584 68.7205C380.304 68.3685 381.112 68.1925 382.008 68.1925ZM389.131 75.0085C389.131 73.6325 389.387 72.4245 389.899 71.3845C390.427 70.3445 391.139 69.5445 392.035 68.9845C392.931 68.4245 393.931 68.1445 395.035 68.1445C395.979 68.1445 396.803 68.3365 397.507 68.7205C398.227 69.1045 398.779 69.6085 399.163 70.2325V68.3365H403.267V81.7285H399.163V79.8325C398.763 80.4565 398.203 80.9605 397.483 81.3445C396.779 81.7285 395.955 81.9205 395.011 81.9205C393.923 81.9205 392.931 81.6405 392.035 81.0805C391.139 80.5045 390.427 79.6965 389.899 78.6565C389.387 77.6005 389.131 76.3845 389.131 75.0085ZM399.163 75.0325C399.163 74.0085 398.875 73.2005 398.299 72.6085C397.739 72.0165 397.051 71.7205 396.235 71.7205C395.419 71.7205 394.723 72.0165 394.147 72.6085C393.587 73.1845 393.307 73.9845 393.307 75.0085C393.307 76.0325 393.587 76.8485 394.147 77.4565C394.723 78.0485 395.419 78.3445 396.235 78.3445C397.051 78.3445 397.739 78.0485 398.299 77.4565C398.875 76.8645 399.163 76.0565 399.163 75.0325ZM412.261 77.8885L415.165 68.3365H419.533L414.781 81.7285H409.717L404.965 68.3365H409.357L412.261 77.8885ZM433.884 74.8165C433.884 75.2005 433.86 75.6005 433.812 76.0165H424.524C424.588 76.8485 424.852 77.4885 425.316 77.9365C425.796 78.3685 426.38 78.5845 427.068 78.5845C428.092 78.5845 428.804 78.1525 429.204 77.2885H433.572C433.348 78.1685 432.94 78.9605 432.348 79.6645C431.772 80.3685 431.044 80.9205 430.164 81.3205C429.284 81.7205 428.3 81.9205 427.212 81.9205C425.9 81.9205 424.732 81.6405 423.708 81.0805C422.684 80.5205 421.884 79.7205 421.308 78.6805C420.732 77.6405 420.444 76.4245 420.444 75.0325C420.444 73.6405 420.724 72.4245 421.284 71.3845C421.86 70.3445 422.66 69.5445 423.684 68.9845C424.708 68.4245 425.884 68.1445 427.212 68.1445C428.508 68.1445 429.66 68.4165 430.668 68.9605C431.676 69.5045 432.46 70.2805 433.02 71.2885C433.596 72.2965 433.884 73.4725 433.884 74.8165ZM429.684 73.7365C429.684 73.0325 429.444 72.4725 428.964 72.0565C428.484 71.6405 427.884 71.4325 427.164 71.4325C426.476 71.4325 425.892 71.6325 425.412 72.0325C424.948 72.4325 424.66 73.0005 424.548 73.7365H429.684ZM448.599 78.2485V81.7285H446.511C445.023 81.7285 443.863 81.3685 443.031 80.6485C442.199 79.9125 441.783 78.7205 441.783 77.0725V71.7445H440.151V68.3365H441.783V65.0725H445.887V68.3365H448.575V71.7445H445.887V77.1205C445.887 77.5205 445.983 77.8085 446.175 77.9845C446.367 78.1605 446.687 78.2485 447.135 78.2485H448.599ZM456.981 81.9205C455.669 81.9205 454.485 81.6405 453.429 81.0805C452.389 80.5205 451.565 79.7205 450.957 78.6805C450.365 77.6405 450.069 76.4245 450.069 75.0325C450.069 73.6565 450.373 72.4485 450.981 71.4085C451.589 70.3525 452.421 69.5445 453.477 68.9845C454.533 68.4245 455.717 68.1445 457.029 68.1445C458.341 68.1445 459.525 68.4245 460.581 68.9845C461.637 69.5445 462.469 70.3525 463.077 71.4085C463.685 72.4485 463.989 73.6565 463.989 75.0325C463.989 76.4085 463.677 77.6245 463.053 78.6805C462.445 79.7205 461.605 80.5205 460.533 81.0805C459.477 81.6405 458.293 81.9205 456.981 81.9205ZM456.981 78.3685C457.765 78.3685 458.429 78.0805 458.973 77.5045C459.533 76.9285 459.813 76.1045 459.813 75.0325C459.813 73.9605 459.541 73.1365 458.997 72.5605C458.469 71.9845 457.813 71.6965 457.029 71.6965C456.229 71.6965 455.565 71.9845 455.037 72.5605C454.509 73.1205 454.245 73.9445 454.245 75.0325C454.245 76.1045 454.501 76.9285 455.013 77.5045C455.541 78.0805 456.197 78.3685 456.981 78.3685ZM231.99 114.249V117.729H229.902C228.414 117.729 227.254 117.369 226.422 116.649C225.59 115.913 225.174 114.721 225.174 113.073V107.745H223.542V104.337H225.174V101.073H229.278V104.337H231.966V107.745H229.278V113.121C229.278 113.521 229.374 113.809 229.566 113.985C229.758 114.161 230.078 114.249 230.526 114.249H231.99ZM233.46 111.009C233.46 109.633 233.716 108.425 234.228 107.385C234.756 106.345 235.468 105.545 236.364 104.985C237.26 104.425 238.26 104.145 239.364 104.145C240.308 104.145 241.132 104.337 241.836 104.721C242.556 105.105 243.108 105.609 243.492 106.233V104.337H247.596V117.729H243.492V115.833C243.092 116.457 242.532 116.961 241.812 117.345C241.108 117.729 240.284 117.921 239.34 117.921C238.252 117.921 237.26 117.641 236.364 117.081C235.468 116.505 234.756 115.697 234.228 114.657C233.716 113.601 233.46 112.385 233.46 111.009ZM243.492 111.033C243.492 110.009 243.204 109.201 242.628 108.609C242.068 108.017 241.38 107.721 240.564 107.721C239.748 107.721 239.052 108.017 238.476 108.609C237.916 109.185 237.636 109.985 237.636 111.009C237.636 112.033 237.916 112.849 238.476 113.457C239.052 114.049 239.748 114.345 240.564 114.345C241.38 114.345 242.068 114.049 242.628 113.457C243.204 112.865 243.492 112.057 243.492 111.033ZM258.749 117.729L254.669 112.113V117.729H250.565V99.9685H254.669V109.785L258.725 104.337H263.789L258.221 111.057L263.837 117.729H258.749ZM278.025 110.817C278.025 111.201 278.001 111.601 277.953 112.017H268.665C268.729 112.849 268.993 113.489 269.457 113.937C269.937 114.369 270.521 114.585 271.209 114.585C272.233 114.585 272.945 114.153 273.345 113.289H277.713C277.489 114.169 277.081 114.961 276.489 115.665C275.913 116.369 275.185 116.921 274.305 117.321C273.425 117.721 272.441 117.921 271.353 117.921C270.041 117.921 268.873 117.641 267.849 117.081C266.825 116.521 266.025 115.721 265.449 114.681C264.873 113.641 264.585 112.425 264.585 111.033C264.585 109.641 264.865 108.425 265.425 107.385C266.001 106.345 266.801 105.545 267.825 104.985C268.849 104.425 270.025 104.145 271.353 104.145C272.649 104.145 273.801 104.417 274.809 104.961C275.817 105.505 276.601 106.281 277.161 107.289C277.737 108.297 278.025 109.473 278.025 110.817ZM273.825 109.737C273.825 109.033 273.585 108.473 273.105 108.057C272.625 107.641 272.025 107.433 271.305 107.433C270.617 107.433 270.033 107.633 269.553 108.033C269.089 108.433 268.801 109.001 268.689 109.737H273.825ZM284.46 111.009C284.46 109.633 284.716 108.425 285.228 107.385C285.756 106.345 286.468 105.545 287.364 104.985C288.26 104.425 289.26 104.145 290.364 104.145C291.244 104.145 292.044 104.329 292.764 104.697C293.5 105.065 294.076 105.561 294.492 106.185V99.9685H298.596V117.729H294.492V115.809C294.108 116.449 293.556 116.961 292.836 117.345C292.132 117.729 291.308 117.921 290.364 117.921C289.26 117.921 288.26 117.641 287.364 117.081C286.468 116.505 285.756 115.697 285.228 114.657C284.716 113.601 284.46 112.385 284.46 111.009ZM294.492 111.033C294.492 110.009 294.204 109.201 293.628 108.609C293.068 108.017 292.38 107.721 291.564 107.721C290.748 107.721 290.052 108.017 289.476 108.609C288.916 109.185 288.636 109.985 288.636 111.009C288.636 112.033 288.916 112.849 289.476 113.457C290.052 114.049 290.748 114.345 291.564 114.345C292.38 114.345 293.068 114.049 293.628 113.457C294.204 112.865 294.492 112.057 294.492 111.033ZM303.629 102.945C302.909 102.945 302.317 102.737 301.853 102.321C301.405 101.889 301.181 101.361 301.181 100.737C301.181 100.097 301.405 99.5685 301.853 99.1525C302.317 98.7205 302.909 98.5045 303.629 98.5045C304.333 98.5045 304.909 98.7205 305.357 99.1525C305.821 99.5685 306.053 100.097 306.053 100.737C306.053 101.361 305.821 101.889 305.357 102.321C304.909 102.737 304.333 102.945 303.629 102.945ZM305.669 104.337V117.729H301.565V104.337H305.669ZM315.363 107.745H313.155V117.729H309.051V107.745H307.563V104.337H309.051V103.953C309.051 102.305 309.523 101.057 310.467 100.209C311.411 99.3445 312.795 98.9125 314.619 98.9125C314.923 98.9125 315.147 98.9205 315.291 98.9365V102.417C314.507 102.369 313.955 102.481 313.635 102.753C313.315 103.025 313.155 103.513 313.155 104.217V104.337H315.363V107.745ZM324.011 107.745H321.803V117.729H317.699V107.745H316.211V104.337H317.699V103.953C317.699 102.305 318.171 101.057 319.115 100.209C320.059 99.3445 321.443 98.9125 323.267 98.9125C323.571 98.9125 323.795 98.9205 323.939 98.9365V102.417C323.155 102.369 322.603 102.481 322.283 102.753C321.963 103.025 321.803 103.513 321.803 104.217V104.337H324.011V107.745ZM338.564 110.817C338.564 111.201 338.54 111.601 338.492 112.017H329.204C329.268 112.849 329.532 113.489 329.996 113.937C330.476 114.369 331.06 114.585 331.748 114.585C332.772 114.585 333.484 114.153 333.884 113.289H338.252C338.028 114.169 337.62 114.961 337.028 115.665C336.452 116.369 335.724 116.921 334.844 117.321C333.964 117.721 332.98 117.921 331.892 117.921C330.58 117.921 329.412 117.641 328.388 117.081C327.364 116.521 326.564 115.721 325.988 114.681C325.412 113.641 325.124 112.425 325.124 111.033C325.124 109.641 325.404 108.425 325.964 107.385C326.54 106.345 327.34 105.545 328.364 104.985C329.388 104.425 330.564 104.145 331.892 104.145C333.188 104.145 334.34 104.417 335.348 104.961C336.356 105.505 337.14 106.281 337.7 107.289C338.276 108.297 338.564 109.473 338.564 110.817ZM334.364 109.737C334.364 109.033 334.124 108.473 333.644 108.057C333.164 107.641 332.564 107.433 331.844 107.433C331.156 107.433 330.572 107.633 330.092 108.033C329.628 108.433 329.34 109.001 329.228 109.737H334.364ZM344.833 106.569C345.313 105.833 345.913 105.257 346.633 104.841C347.353 104.409 348.153 104.193 349.033 104.193V108.537H347.905C346.881 108.537 346.113 108.761 345.601 109.209C345.089 109.641 344.833 110.409 344.833 111.513V117.729H340.729V104.337H344.833V106.569ZM363.618 110.817C363.618 111.201 363.594 111.601 363.546 112.017H354.258C354.322 112.849 354.586 113.489 355.05 113.937C355.53 114.369 356.114 114.585 356.802 114.585C357.826 114.585 358.538 114.153 358.938 113.289H363.306C363.082 114.169 362.674 114.961 362.082 115.665C361.506 116.369 360.778 116.921 359.898 117.321C359.018 117.721 358.034 117.921 356.946 117.921C355.634 117.921 354.466 117.641 353.442 117.081C352.418 116.521 351.618 115.721 351.042 114.681C350.466 113.641 350.178 112.425 350.178 111.033C350.178 109.641 350.458 108.425 351.018 107.385C351.594 106.345 352.394 105.545 353.418 104.985C354.442 104.425 355.618 104.145 356.946 104.145C358.242 104.145 359.394 104.417 360.402 104.961C361.41 105.505 362.194 106.281 362.754 107.289C363.33 108.297 363.618 109.473 363.618 110.817ZM359.418 109.737C359.418 109.033 359.178 108.473 358.698 108.057C358.218 107.641 357.618 107.433 356.898 107.433C356.21 107.433 355.626 107.633 355.146 108.033C354.682 108.433 354.394 109.001 354.282 109.737H359.418ZM373.943 104.193C375.511 104.193 376.759 104.705 377.687 105.729C378.631 106.737 379.103 108.129 379.103 109.905V117.729H375.023V110.457C375.023 109.561 374.791 108.865 374.327 108.369C373.863 107.873 373.239 107.625 372.455 107.625C371.671 107.625 371.047 107.873 370.583 108.369C370.119 108.865 369.887 109.561 369.887 110.457V117.729H365.783V104.337H369.887V106.113C370.303 105.521 370.863 105.057 371.567 104.721C372.271 104.369 373.063 104.193 373.943 104.193ZM389.419 114.249V117.729H387.331C385.843 117.729 384.683 117.369 383.851 116.649C383.019 115.913 382.603 114.721 382.603 113.073V107.745H380.971V104.337H382.603V101.073H386.707V104.337H389.395V107.745H386.707V113.121C386.707 113.521 386.803 113.809 386.995 113.985C387.187 114.161 387.507 114.249 387.955 114.249H389.419ZM400.895 106.569C401.375 105.833 401.975 105.257 402.695 104.841C403.415 104.409 404.215 104.193 405.095 104.193V108.537H403.967C402.943 108.537 402.175 108.761 401.663 109.209C401.151 109.641 400.895 110.409 400.895 111.513V117.729H396.791V104.337H400.895V106.569ZM413.153 117.921C411.841 117.921 410.657 117.641 409.601 117.081C408.561 116.521 407.737 115.721 407.129 114.681C406.537 113.641 406.241 112.425 406.241 111.033C406.241 109.657 406.545 108.449 407.153 107.409C407.761 106.353 408.593 105.545 409.649 104.985C410.705 104.425 411.889 104.145 413.201 104.145C414.513 104.145 415.697 104.425 416.753 104.985C417.809 105.545 418.641 106.353 419.249 107.409C419.857 108.449 420.161 109.657 420.161 111.033C420.161 112.409 419.849 113.625 419.225 114.681C418.617 115.721 417.777 116.521 416.705 117.081C415.649 117.641 414.465 117.921 413.153 117.921ZM413.153 114.369C413.937 114.369 414.601 114.081 415.145 113.505C415.705 112.929 415.985 112.105 415.985 111.033C415.985 109.961 415.713 109.137 415.169 108.561C414.641 107.985 413.985 107.697 413.201 107.697C412.401 107.697 411.737 107.985 411.209 108.561C410.681 109.121 410.417 109.945 410.417 111.033C410.417 112.105 410.673 112.929 411.185 113.505C411.713 114.081 412.369 114.369 413.153 114.369ZM435.562 104.337V117.729H431.458V115.905C431.042 116.497 430.474 116.977 429.754 117.345C429.05 117.697 428.266 117.873 427.402 117.873C426.378 117.873 425.474 117.649 424.69 117.201C423.906 116.737 423.298 116.073 422.866 115.209C422.434 114.345 422.218 113.329 422.218 112.161V104.337H426.298V111.609C426.298 112.505 426.53 113.201 426.994 113.697C427.458 114.193 428.082 114.441 428.866 114.441C429.666 114.441 430.298 114.193 430.762 113.697C431.226 113.201 431.458 112.505 431.458 111.609V104.337H435.562ZM445.974 114.249V117.729H443.886C442.398 117.729 441.238 117.369 440.406 116.649C439.574 115.913 439.158 114.721 439.158 113.073V107.745H437.526V104.337H439.158V101.073H443.262V104.337H445.95V107.745H443.262V113.121C443.262 113.521 443.358 113.809 443.55 113.985C443.742 114.161 444.062 114.249 444.51 114.249H445.974ZM460.884 110.817C460.884 111.201 460.86 111.601 460.812 112.017H451.524C451.588 112.849 451.852 113.489 452.316 113.937C452.796 114.369 453.38 114.585 454.068 114.585C455.092 114.585 455.804 114.153 456.204 113.289H460.572C460.348 114.169 459.94 114.961 459.348 115.665C458.772 116.369 458.044 116.921 457.164 117.321C456.284 117.721 455.3 117.921 454.212 117.921C452.9 117.921 451.732 117.641 450.708 117.081C449.684 116.521 448.884 115.721 448.308 114.681C447.732 113.641 447.444 112.425 447.444 111.033C447.444 109.641 447.724 108.425 448.284 107.385C448.86 106.345 449.66 105.545 450.684 104.985C451.708 104.425 452.884 104.145 454.212 104.145C455.508 104.145 456.66 104.417 457.668 104.961C458.676 105.505 459.46 106.281 460.02 107.289C460.596 108.297 460.884 109.473 460.884 110.817ZM456.684 109.737C456.684 109.033 456.444 108.473 455.964 108.057C455.484 107.641 454.884 107.433 454.164 107.433C453.476 107.433 452.892 107.633 452.412 108.033C451.948 108.433 451.66 109.001 451.548 109.737H456.684ZM473.535 100.281L473.055 111.777H469.575L469.095 100.281H473.535ZM471.375 117.921C470.655 117.921 470.063 117.713 469.599 117.297C469.151 116.865 468.927 116.337 468.927 115.713C468.927 115.073 469.151 114.537 469.599 114.105C470.063 113.673 470.655 113.457 471.375 113.457C472.079 113.457 472.655 113.673 473.103 114.105C473.567 114.537 473.799 115.073 473.799 115.713C473.799 116.337 473.567 116.865 473.103 117.297C472.655 117.713 472.079 117.921 471.375 117.921Z" fill="black"/>
<rect x="946.155" y="188.256" width="187.736" height="132" rx="26" fill="#E5BAB5"/>
<rect x="946.155" y="188.256" width="187.736" height="132" rx="26" stroke="#4E2A1D" stroke-width="4"/>
<path d="M987.344 227.256V209.801H993.565C994.923 209.801 996.048 210.048 996.94 210.543C997.833 211.037 998.5 211.713 998.943 212.571C999.386 213.423 999.608 214.384 999.608 215.452C999.608 216.526 999.384 217.492 998.935 218.35C998.492 219.202 997.821 219.878 996.923 220.378C996.031 220.872 994.909 221.119 993.557 221.119H989.279V218.887H993.318C994.176 218.887 994.872 218.739 995.406 218.443C995.94 218.142 996.333 217.733 996.583 217.216C996.833 216.699 996.958 216.111 996.958 215.452C996.958 214.793 996.833 214.208 996.583 213.696C996.333 213.185 995.938 212.784 995.398 212.494C994.864 212.205 994.159 212.06 993.284 212.06H989.977V227.256H987.344ZM1005.92 227.546C1005.09 227.546 1004.34 227.392 1003.67 227.085C1003 226.773 1002.47 226.321 1002.08 225.73C1001.69 225.139 1001.5 224.415 1001.5 223.557C1001.5 222.818 1001.64 222.21 1001.92 221.733C1002.21 221.256 1002.59 220.878 1003.07 220.6C1003.56 220.321 1004.1 220.111 1004.69 219.969C1005.29 219.827 1005.9 219.719 1006.52 219.645C1007.3 219.554 1007.94 219.48 1008.43 219.423C1008.91 219.361 1009.27 219.262 1009.49 219.125C1009.71 218.989 1009.82 218.767 1009.82 218.46V218.401C1009.82 217.656 1009.61 217.08 1009.19 216.671C1008.78 216.262 1008.16 216.057 1007.33 216.057C1006.48 216.057 1005.8 216.247 1005.31 216.628C1004.82 217.003 1004.48 217.421 1004.29 217.881L1001.9 217.335C1002.18 216.54 1002.6 215.898 1003.14 215.409C1003.69 214.915 1004.33 214.557 1005.04 214.335C1005.76 214.108 1006.51 213.994 1007.3 213.994C1007.82 213.994 1008.38 214.057 1008.96 214.182C1009.55 214.301 1010.1 214.523 1010.62 214.847C1011.13 215.171 1011.56 215.634 1011.89 216.236C1012.21 216.833 1012.38 217.608 1012.38 218.563V227.256H1009.89V225.466H1009.79C1009.62 225.796 1009.38 226.119 1009.05 226.438C1008.72 226.756 1008.29 227.02 1007.78 227.23C1007.26 227.441 1006.64 227.546 1005.92 227.546ZM1006.47 225.5C1007.18 225.5 1007.78 225.361 1008.28 225.083C1008.79 224.804 1009.17 224.441 1009.43 223.992C1009.7 223.537 1009.83 223.051 1009.83 222.534V220.847C1009.74 220.938 1009.56 221.023 1009.3 221.102C1009.05 221.176 1008.75 221.242 1008.43 221.298C1008.1 221.35 1007.77 221.398 1007.46 221.443C1007.15 221.483 1006.89 221.517 1006.68 221.546C1006.18 221.608 1005.73 221.713 1005.32 221.861C1004.92 222.009 1004.6 222.222 1004.35 222.5C1004.11 222.773 1003.99 223.137 1003.99 223.591C1003.99 224.222 1004.23 224.699 1004.69 225.023C1005.16 225.341 1005.75 225.5 1006.47 225.5ZM1021.02 227.52C1019.76 227.52 1018.67 227.233 1017.75 226.659C1016.84 226.08 1016.14 225.281 1015.65 224.264C1015.17 223.247 1014.92 222.083 1014.92 220.77C1014.92 219.441 1015.17 218.267 1015.67 217.25C1016.17 216.227 1016.88 215.429 1017.79 214.855C1018.69 214.281 1019.77 213.994 1021 213.994C1021.99 213.994 1022.88 214.179 1023.66 214.548C1024.44 214.912 1025.06 215.423 1025.54 216.083C1026.02 216.742 1026.31 217.512 1026.4 218.392H1023.92C1023.79 217.779 1023.47 217.25 1022.98 216.807C1022.5 216.364 1021.85 216.142 1021.04 216.142C1020.33 216.142 1019.71 216.33 1019.17 216.705C1018.65 217.074 1018.23 217.602 1017.94 218.29C1017.64 218.972 1017.5 219.779 1017.5 220.71C1017.5 221.665 1017.64 222.489 1017.93 223.182C1018.22 223.875 1018.63 224.412 1019.16 224.793C1019.69 225.173 1020.32 225.364 1021.04 225.364C1021.52 225.364 1021.96 225.276 1022.35 225.1C1022.75 224.918 1023.08 224.659 1023.35 224.324C1023.62 223.989 1023.81 223.585 1023.92 223.114H1026.4C1026.31 223.96 1026.04 224.716 1025.58 225.381C1025.11 226.046 1024.5 226.568 1023.73 226.949C1022.96 227.33 1022.06 227.52 1021.02 227.52ZM1031.21 222.816L1031.19 219.705H1031.63L1036.85 214.165H1039.9L1033.95 220.472H1033.55L1031.21 222.816ZM1028.86 227.256V209.801H1031.41V227.256H1028.86ZM1037.13 227.256L1032.44 221.034L1034.2 219.253L1040.26 227.256H1037.13ZM1045.77 227.546C1044.94 227.546 1044.19 227.392 1043.52 227.085C1042.85 226.773 1042.32 226.321 1041.92 225.73C1041.54 225.139 1041.34 224.415 1041.34 223.557C1041.34 222.818 1041.49 222.21 1041.77 221.733C1042.05 221.256 1042.44 220.878 1042.92 220.6C1043.4 220.321 1043.94 220.111 1044.54 219.969C1045.14 219.827 1045.75 219.719 1046.36 219.645C1047.15 219.554 1047.79 219.48 1048.27 219.423C1048.76 219.361 1049.12 219.262 1049.34 219.125C1049.56 218.989 1049.67 218.767 1049.67 218.46V218.401C1049.67 217.656 1049.46 217.08 1049.04 216.671C1048.63 216.262 1048.01 216.057 1047.18 216.057C1046.32 216.057 1045.65 216.247 1045.15 216.628C1044.67 217.003 1044.33 217.421 1044.14 217.881L1041.75 217.335C1042.03 216.54 1042.44 215.898 1042.99 215.409C1043.54 214.915 1044.17 214.557 1044.89 214.335C1045.61 214.108 1046.36 213.994 1047.15 213.994C1047.67 213.994 1048.23 214.057 1048.81 214.182C1049.4 214.301 1049.95 214.523 1050.46 214.847C1050.98 215.171 1051.4 215.634 1051.73 216.236C1052.06 216.833 1052.23 217.608 1052.23 218.563V227.256H1049.74V225.466H1049.64C1049.47 225.796 1049.23 226.119 1048.9 226.438C1048.57 226.756 1048.14 227.02 1047.63 227.23C1047.11 227.441 1046.49 227.546 1045.77 227.546ZM1046.32 225.5C1047.03 225.5 1047.63 225.361 1048.13 225.083C1048.63 224.804 1049.02 224.441 1049.28 223.992C1049.55 223.537 1049.68 223.051 1049.68 222.534V220.847C1049.59 220.938 1049.41 221.023 1049.15 221.102C1048.9 221.176 1048.6 221.242 1048.27 221.298C1047.94 221.35 1047.62 221.398 1047.31 221.443C1047 221.483 1046.74 221.517 1046.53 221.546C1046.03 221.608 1045.58 221.713 1045.17 221.861C1044.77 222.009 1044.44 222.222 1044.2 222.5C1043.96 222.773 1043.84 223.137 1043.84 223.591C1043.84 224.222 1044.07 224.699 1044.54 225.023C1045.01 225.341 1045.6 225.5 1046.32 225.5ZM1060.85 232.438C1059.81 232.438 1058.91 232.301 1058.16 232.029C1057.42 231.756 1056.81 231.395 1056.34 230.946C1055.87 230.497 1055.51 230.006 1055.28 229.472L1057.47 228.568C1057.63 228.818 1057.83 229.083 1058.09 229.361C1058.35 229.645 1058.7 229.887 1059.14 230.085C1059.59 230.284 1060.17 230.384 1060.87 230.384C1061.84 230.384 1062.64 230.148 1063.27 229.676C1063.9 229.21 1064.21 228.466 1064.21 227.443V224.869H1064.05C1063.9 225.148 1063.68 225.458 1063.39 225.798C1063.1 226.139 1062.71 226.435 1062.21 226.685C1061.71 226.935 1061.06 227.06 1060.26 227.06C1059.22 227.06 1058.29 226.818 1057.46 226.335C1056.64 225.847 1055.99 225.128 1055.5 224.179C1055.03 223.225 1054.79 222.051 1054.79 220.659C1054.79 219.267 1055.02 218.074 1055.49 217.08C1055.97 216.085 1056.63 215.324 1057.45 214.796C1058.28 214.262 1059.22 213.994 1060.28 213.994C1061.09 213.994 1061.74 214.131 1062.24 214.404C1062.74 214.671 1063.13 214.983 1063.41 215.341C1063.7 215.699 1063.92 216.014 1064.07 216.287H1064.26V214.165H1066.75V227.546C1066.75 228.671 1066.49 229.594 1065.97 230.316C1065.45 231.037 1064.74 231.571 1063.85 231.918C1062.96 232.264 1061.96 232.438 1060.85 232.438ZM1060.82 224.946C1061.55 224.946 1062.17 224.776 1062.68 224.435C1063.19 224.088 1063.58 223.594 1063.84 222.952C1064.11 222.304 1064.24 221.529 1064.24 220.625C1064.24 219.744 1064.11 218.969 1063.85 218.298C1063.59 217.628 1063.2 217.105 1062.7 216.73C1062.19 216.35 1061.57 216.159 1060.82 216.159C1060.05 216.159 1059.42 216.358 1058.9 216.756C1058.39 217.148 1058.01 217.682 1057.74 218.358C1057.49 219.034 1057.36 219.79 1057.36 220.625C1057.36 221.483 1057.49 222.236 1057.75 222.884C1058.01 223.531 1058.4 224.037 1058.91 224.401C1059.43 224.764 1060.07 224.946 1060.82 224.946ZM1075.55 227.52C1074.26 227.52 1073.15 227.244 1072.22 226.693C1071.29 226.137 1070.57 225.355 1070.07 224.35C1069.57 223.338 1069.32 222.154 1069.32 220.796C1069.32 219.455 1069.57 218.273 1070.07 217.25C1070.57 216.227 1071.28 215.429 1072.18 214.855C1073.09 214.281 1074.15 213.994 1075.37 213.994C1076.11 213.994 1076.82 214.117 1077.52 214.361C1078.21 214.605 1078.83 214.989 1079.38 215.512C1079.94 216.034 1080.37 216.713 1080.69 217.548C1081.01 218.378 1081.17 219.387 1081.17 220.574V221.477H1070.76V219.568H1078.67C1078.67 218.898 1078.53 218.304 1078.26 217.787C1077.99 217.264 1077.6 216.852 1077.11 216.551C1076.62 216.25 1076.05 216.1 1075.39 216.1C1074.67 216.1 1074.05 216.276 1073.51 216.628C1072.98 216.975 1072.57 217.429 1072.28 217.992C1072 218.548 1071.86 219.154 1071.86 219.807V221.298C1071.86 222.173 1072.01 222.918 1072.32 223.531C1072.63 224.145 1073.07 224.614 1073.62 224.938C1074.18 225.256 1074.83 225.415 1075.57 225.415C1076.06 225.415 1076.5 225.347 1076.9 225.21C1077.29 225.068 1077.64 224.858 1077.93 224.58C1078.22 224.301 1078.44 223.958 1078.59 223.548L1081 223.983C1080.81 224.693 1080.46 225.316 1079.96 225.85C1079.47 226.378 1078.85 226.79 1078.1 227.085C1077.35 227.375 1076.5 227.52 1075.55 227.52ZM1093.54 217.361L1091.23 217.77C1091.13 217.475 1090.98 217.193 1090.77 216.926C1090.56 216.659 1090.29 216.441 1089.93 216.27C1089.58 216.1 1089.14 216.014 1088.61 216.014C1087.89 216.014 1087.29 216.176 1086.81 216.5C1086.32 216.818 1086.08 217.23 1086.08 217.736C1086.08 218.173 1086.24 218.526 1086.57 218.793C1086.89 219.06 1087.41 219.279 1088.14 219.449L1090.21 219.926C1091.42 220.205 1092.32 220.634 1092.91 221.213C1093.5 221.793 1093.79 222.546 1093.79 223.472C1093.79 224.256 1093.57 224.955 1093.11 225.568C1092.66 226.176 1092.04 226.654 1091.23 227C1090.43 227.347 1089.5 227.52 1088.44 227.52C1086.98 227.52 1085.78 227.208 1084.85 226.583C1083.93 225.952 1083.36 225.057 1083.15 223.898L1085.61 223.523C1085.77 224.165 1086.08 224.651 1086.56 224.98C1087.04 225.304 1087.66 225.466 1088.42 225.466C1089.26 225.466 1089.93 225.293 1090.43 224.946C1090.93 224.594 1091.18 224.165 1091.18 223.659C1091.18 223.25 1091.02 222.906 1090.72 222.628C1090.42 222.35 1089.95 222.139 1089.33 221.997L1087.11 221.512C1085.89 221.233 1084.99 220.79 1084.4 220.182C1083.82 219.574 1083.53 218.804 1083.53 217.872C1083.53 217.1 1083.75 216.423 1084.18 215.844C1084.61 215.264 1085.21 214.813 1085.97 214.489C1086.73 214.159 1087.6 213.994 1088.59 213.994C1090 213.994 1091.12 214.301 1091.93 214.915C1092.74 215.523 1093.28 216.338 1093.54 217.361ZM976.95 263.256L973.098 250.165H975.731L978.297 259.779H978.424L980.998 250.165H983.632L986.189 259.736H986.316L988.865 250.165H991.498L987.654 263.256H985.055L982.396 253.804H982.2L979.541 263.256H976.95ZM993.653 263.256V250.165H996.201V263.256H993.653ZM994.939 248.145C994.496 248.145 994.116 247.997 993.797 247.702C993.485 247.401 993.329 247.043 993.329 246.628C993.329 246.208 993.485 245.85 993.797 245.554C994.116 245.253 994.496 245.102 994.939 245.102C995.383 245.102 995.76 245.253 996.073 245.554C996.391 245.85 996.55 246.208 996.55 246.628C996.55 247.043 996.391 247.401 996.073 247.702C995.76 247.997 995.383 248.145 994.939 248.145ZM1005.48 250.165V252.21H998.325V250.165H1005.48ZM1000.24 247.029H1002.79V259.412C1002.79 259.906 1002.87 260.279 1003.01 260.529C1003.16 260.773 1003.35 260.941 1003.58 261.031C1003.82 261.117 1004.08 261.159 1004.36 261.159C1004.56 261.159 1004.74 261.145 1004.9 261.117C1005.05 261.088 1005.17 261.066 1005.25 261.048L1005.71 263.154C1005.57 263.21 1005.36 263.267 1005.08 263.324C1004.81 263.387 1004.47 263.421 1004.06 263.426C1003.39 263.438 1002.77 263.318 1002.19 263.068C1001.61 262.818 1001.14 262.432 1000.78 261.909C1000.42 261.387 1000.24 260.73 1000.24 259.941V247.029ZM1010.86 255.483V263.256H1008.31V245.801H1010.83V252.296H1010.99C1011.29 251.591 1011.76 251.031 1012.39 250.617C1013.03 250.202 1013.85 249.994 1014.87 249.994C1015.76 249.994 1016.55 250.179 1017.22 250.548C1017.89 250.918 1018.42 251.469 1018.79 252.202C1019.16 252.929 1019.35 253.838 1019.35 254.929V263.256H1016.8V255.236C1016.8 254.276 1016.55 253.531 1016.06 253.003C1015.56 252.469 1014.88 252.202 1014 252.202C1013.39 252.202 1012.85 252.33 1012.38 252.585C1011.91 252.841 1011.53 253.216 1011.26 253.71C1010.99 254.199 1010.86 254.79 1010.86 255.483ZM1034.8 250.165V252.21H1027.41V250.165H1034.8ZM1029.43 263.256V248.648C1029.43 247.83 1029.61 247.151 1029.97 246.611C1030.33 246.066 1030.8 245.659 1031.39 245.392C1031.99 245.119 1032.63 244.983 1033.32 244.983C1033.83 244.983 1034.27 245.026 1034.63 245.111C1035 245.191 1035.27 245.264 1035.44 245.333L1034.85 247.395C1034.73 247.361 1034.57 247.321 1034.39 247.276C1034.2 247.225 1033.97 247.199 1033.7 247.199C1033.08 247.199 1032.64 247.352 1032.37 247.659C1032.11 247.966 1031.98 248.409 1031.98 248.989V263.256H1029.43ZM1039.72 245.801V263.256H1037.17V245.801H1039.72ZM1048.52 263.52C1047.23 263.52 1046.12 263.244 1045.19 262.693C1044.26 262.137 1043.55 261.355 1043.04 260.35C1042.54 259.338 1042.29 258.154 1042.29 256.796C1042.29 255.455 1042.54 254.273 1043.04 253.25C1043.55 252.227 1044.25 251.429 1045.16 250.855C1046.07 250.281 1047.13 249.994 1048.34 249.994C1049.08 249.994 1049.8 250.117 1050.49 250.361C1051.19 250.605 1051.81 250.989 1052.36 251.512C1052.91 252.034 1053.34 252.713 1053.66 253.548C1053.98 254.378 1054.14 255.387 1054.14 256.574V257.477H1043.73V255.568H1051.64C1051.64 254.898 1051.51 254.304 1051.23 253.787C1050.96 253.264 1050.58 252.852 1050.08 252.551C1049.59 252.25 1049.02 252.1 1048.36 252.1C1047.65 252.1 1047.02 252.276 1046.49 252.628C1045.96 252.975 1045.55 253.429 1045.26 253.992C1044.97 254.548 1044.83 255.154 1044.83 255.807V257.298C1044.83 258.173 1044.99 258.918 1045.29 259.531C1045.61 260.145 1046.04 260.614 1046.6 260.938C1047.15 261.256 1047.8 261.415 1048.55 261.415C1049.03 261.415 1049.47 261.347 1049.87 261.21C1050.27 261.068 1050.61 260.858 1050.9 260.58C1051.19 260.301 1051.41 259.958 1051.57 259.548L1053.98 259.983C1053.78 260.693 1053.44 261.316 1052.94 261.85C1052.44 262.378 1051.82 262.79 1051.07 263.085C1050.33 263.375 1049.48 263.52 1048.52 263.52ZM1058.41 250.165L1061.3 255.262L1064.21 250.165H1067L1062.92 256.71L1067.03 263.256H1064.25L1061.3 258.364L1058.36 263.256H1055.56L1059.64 256.71L1055.61 250.165H1058.41ZM1069.35 263.256V250.165H1071.9V263.256H1069.35ZM1070.64 248.145C1070.2 248.145 1069.82 247.997 1069.5 247.702C1069.19 247.401 1069.03 247.043 1069.03 246.628C1069.03 246.208 1069.19 245.85 1069.5 245.554C1069.82 245.253 1070.2 245.102 1070.64 245.102C1071.08 245.102 1071.46 245.253 1071.77 245.554C1072.09 245.85 1072.25 246.208 1072.25 246.628C1072.25 247.043 1072.09 247.401 1071.77 247.702C1071.46 247.997 1071.08 248.145 1070.64 248.145ZM1075.27 263.256V245.801H1077.82V252.287H1077.97C1078.12 252.014 1078.33 251.699 1078.61 251.341C1078.89 250.983 1079.28 250.671 1079.77 250.404C1080.26 250.131 1080.92 249.994 1081.73 249.994C1082.79 249.994 1083.73 250.262 1084.56 250.796C1085.39 251.33 1086.04 252.1 1086.51 253.105C1086.99 254.111 1087.23 255.321 1087.23 256.736C1087.23 258.151 1086.99 259.364 1086.52 260.375C1086.05 261.381 1085.4 262.156 1084.58 262.702C1083.75 263.242 1082.81 263.512 1081.76 263.512C1080.96 263.512 1080.31 263.378 1079.8 263.111C1079.3 262.844 1078.91 262.531 1078.63 262.173C1078.34 261.816 1078.13 261.497 1077.97 261.219H1077.76V263.256H1075.27ZM1077.77 256.71C1077.77 257.631 1077.9 258.438 1078.17 259.131C1078.43 259.824 1078.82 260.367 1079.33 260.759C1079.83 261.145 1080.45 261.338 1081.18 261.338C1081.95 261.338 1082.58 261.137 1083.09 260.733C1083.61 260.324 1083.99 259.77 1084.25 259.071C1084.52 258.372 1084.65 257.585 1084.65 256.71C1084.65 255.847 1084.52 255.071 1084.26 254.384C1084.01 253.696 1083.62 253.154 1083.1 252.756C1082.59 252.358 1081.95 252.159 1081.18 252.159C1080.45 252.159 1079.82 252.35 1079.31 252.73C1078.8 253.111 1078.42 253.642 1078.16 254.324C1077.9 255.006 1077.77 255.801 1077.77 256.71ZM1092.37 245.801V263.256H1089.83V245.801H1092.37ZM1101.18 263.52C1099.89 263.52 1098.78 263.244 1097.85 262.693C1096.92 262.137 1096.21 261.355 1095.7 260.35C1095.2 259.338 1094.95 258.154 1094.95 256.796C1094.95 255.455 1095.2 254.273 1095.7 253.25C1096.21 252.227 1096.91 251.429 1097.81 250.855C1098.72 250.281 1099.78 249.994 1101 249.994C1101.74 249.994 1102.46 250.117 1103.15 250.361C1103.84 250.605 1104.46 250.989 1105.01 251.512C1105.57 252.034 1106 252.713 1106.32 253.548C1106.64 254.378 1106.8 255.387 1106.8 256.574V257.477H1096.39V255.568H1104.3C1104.3 254.898 1104.16 254.304 1103.89 253.787C1103.62 253.264 1103.23 252.852 1102.74 252.551C1102.25 252.25 1101.68 252.1 1101.02 252.1C1100.3 252.1 1099.68 252.276 1099.14 252.628C1098.61 252.975 1098.21 253.429 1097.92 253.992C1097.63 254.548 1097.49 255.154 1097.49 255.807V257.298C1097.49 258.173 1097.64 258.918 1097.95 259.531C1098.26 260.145 1098.7 260.614 1099.25 260.938C1099.81 261.256 1100.46 261.415 1101.21 261.415C1101.69 261.415 1102.13 261.347 1102.53 261.21C1102.92 261.068 1103.27 260.858 1103.56 260.58C1103.85 260.301 1104.07 259.958 1104.22 259.548L1106.63 259.983C1106.44 260.693 1106.09 261.316 1105.59 261.85C1105.1 262.378 1104.48 262.79 1103.73 263.085C1102.98 263.375 1102.13 263.52 1101.18 263.52ZM967.928 299.52C966.661 299.52 965.57 299.233 964.655 298.659C963.746 298.08 963.047 297.281 962.558 296.264C962.07 295.247 961.825 294.083 961.825 292.77C961.825 291.441 962.075 290.267 962.575 289.25C963.075 288.227 963.78 287.429 964.689 286.855C965.598 286.281 966.669 285.994 967.902 285.994C968.896 285.994 969.783 286.179 970.561 286.548C971.34 286.912 971.967 287.423 972.445 288.083C972.928 288.742 973.215 289.512 973.305 290.392H970.825C970.689 289.779 970.376 289.25 969.888 288.807C969.405 288.364 968.757 288.142 967.945 288.142C967.234 288.142 966.612 288.33 966.078 288.705C965.55 289.074 965.138 289.602 964.842 290.29C964.547 290.972 964.399 291.779 964.399 292.71C964.399 293.665 964.544 294.489 964.834 295.182C965.124 295.875 965.533 296.412 966.061 296.793C966.595 297.173 967.223 297.364 967.945 297.364C968.428 297.364 968.865 297.276 969.257 297.1C969.655 296.918 969.987 296.659 970.254 296.324C970.527 295.989 970.717 295.585 970.825 295.114H973.305C973.215 295.96 972.939 296.716 972.479 297.381C972.019 298.046 971.402 298.568 970.629 298.949C969.862 299.33 968.962 299.52 967.928 299.52ZM984.059 293.827V286.165H986.616V299.256H984.11V296.989H983.974C983.673 297.688 983.19 298.27 982.525 298.736C981.866 299.196 981.045 299.426 980.062 299.426C979.221 299.426 978.477 299.242 977.829 298.872C977.187 298.497 976.681 297.943 976.312 297.21C975.948 296.477 975.767 295.571 975.767 294.492V286.165H978.315V294.185C978.315 295.077 978.562 295.787 979.056 296.316C979.551 296.844 980.193 297.108 980.983 297.108C981.46 297.108 981.934 296.989 982.406 296.75C982.883 296.512 983.278 296.151 983.59 295.668C983.909 295.185 984.065 294.571 984.059 293.827ZM999.586 289.361L997.276 289.77C997.179 289.475 997.026 289.193 996.816 288.926C996.611 288.659 996.333 288.441 995.981 288.27C995.628 288.1 995.188 288.014 994.66 288.014C993.938 288.014 993.336 288.176 992.853 288.5C992.37 288.818 992.128 289.23 992.128 289.736C992.128 290.173 992.29 290.526 992.614 290.793C992.938 291.06 993.461 291.279 994.182 291.449L996.262 291.926C997.466 292.205 998.364 292.634 998.955 293.213C999.546 293.793 999.841 294.546 999.841 295.472C999.841 296.256 999.614 296.955 999.16 297.568C998.711 298.176 998.083 298.654 997.276 299C996.475 299.347 995.546 299.52 994.489 299.52C993.023 299.52 991.827 299.208 990.901 298.583C989.975 297.952 989.407 297.057 989.197 295.898L991.66 295.523C991.813 296.165 992.128 296.651 992.606 296.98C993.083 297.304 993.705 297.466 994.472 297.466C995.307 297.466 995.975 297.293 996.475 296.946C996.975 296.594 997.225 296.165 997.225 295.659C997.225 295.25 997.072 294.906 996.765 294.628C996.464 294.35 996 294.139 995.375 293.997L993.16 293.512C991.938 293.233 991.035 292.79 990.449 292.182C989.87 291.574 989.58 290.804 989.58 289.872C989.58 289.1 989.796 288.423 990.228 287.844C990.66 287.264 991.256 286.813 992.018 286.489C992.779 286.159 993.651 285.994 994.634 285.994C996.049 285.994 997.162 286.301 997.975 286.915C998.787 287.523 999.324 288.338 999.586 289.361ZM1008.49 286.165V288.21H1001.34V286.165H1008.49ZM1003.26 283.029H1005.81V295.412C1005.81 295.906 1005.88 296.279 1006.03 296.529C1006.17 296.773 1006.37 296.941 1006.6 297.031C1006.84 297.117 1007.1 297.159 1007.37 297.159C1007.58 297.159 1007.76 297.145 1007.91 297.117C1008.06 297.088 1008.18 297.066 1008.27 297.048L1008.73 299.154C1008.58 299.21 1008.37 299.267 1008.1 299.324C1007.83 299.387 1007.48 299.421 1007.08 299.426C1006.4 299.438 1005.78 299.318 1005.2 299.068C1004.62 298.818 1004.15 298.432 1003.79 297.909C1003.44 297.387 1003.26 296.73 1003.26 295.941V283.029ZM1016.42 299.52C1015.19 299.52 1014.12 299.239 1013.21 298.676C1012.29 298.114 1011.58 297.327 1011.07 296.316C1010.57 295.304 1010.32 294.122 1010.32 292.77C1010.32 291.412 1010.57 290.225 1011.07 289.208C1011.58 288.191 1012.29 287.401 1013.21 286.838C1014.12 286.276 1015.19 285.994 1016.42 285.994C1017.65 285.994 1018.72 286.276 1019.63 286.838C1020.55 287.401 1021.26 288.191 1021.76 289.208C1022.27 290.225 1022.52 291.412 1022.52 292.77C1022.52 294.122 1022.27 295.304 1021.76 296.316C1021.26 297.327 1020.55 298.114 1019.63 298.676C1018.72 299.239 1017.65 299.52 1016.42 299.52ZM1016.43 297.381C1017.22 297.381 1017.88 297.171 1018.4 296.75C1018.93 296.33 1019.31 295.77 1019.56 295.071C1019.82 294.372 1019.95 293.602 1019.95 292.762C1019.95 291.926 1019.82 291.159 1019.56 290.46C1019.31 289.756 1018.93 289.191 1018.4 288.764C1017.88 288.338 1017.22 288.125 1016.43 288.125C1015.63 288.125 1014.96 288.338 1014.43 288.764C1013.91 289.191 1013.52 289.756 1013.27 290.46C1013.02 291.159 1012.89 291.926 1012.89 292.762C1012.89 293.602 1013.02 294.372 1013.27 295.071C1013.52 295.77 1013.91 296.33 1014.43 296.75C1014.96 297.171 1015.63 297.381 1016.43 297.381ZM1025.1 299.256V286.165H1027.55V288.296H1027.71C1027.98 287.574 1028.43 287.012 1029.05 286.608C1029.67 286.199 1030.41 285.994 1031.27 285.994C1032.15 285.994 1032.88 286.199 1033.47 286.608C1034.07 287.017 1034.51 287.58 1034.79 288.296H1034.93C1035.24 287.597 1035.74 287.04 1036.42 286.625C1037.1 286.205 1037.91 285.994 1038.86 285.994C1040.04 285.994 1041.01 286.367 1041.76 287.111C1042.52 287.855 1042.9 288.977 1042.9 290.477V299.256H1040.35V290.716C1040.35 289.83 1040.11 289.188 1039.62 288.79C1039.14 288.392 1038.56 288.193 1037.89 288.193C1037.06 288.193 1036.42 288.449 1035.96 288.96C1035.5 289.466 1035.27 290.117 1035.27 290.912V299.256H1032.73V290.554C1032.73 289.844 1032.51 289.273 1032.06 288.841C1031.62 288.409 1031.04 288.193 1030.33 288.193C1029.85 288.193 1029.41 288.321 1029 288.577C1028.59 288.827 1028.27 289.176 1028.02 289.625C1027.77 290.074 1027.65 290.594 1027.65 291.185V299.256H1025.1ZM1046.05 299.256V286.165H1048.6V299.256H1046.05ZM1047.34 284.145C1046.89 284.145 1046.51 283.997 1046.19 283.702C1045.88 283.401 1045.72 283.043 1045.72 282.628C1045.72 282.208 1045.88 281.85 1046.19 281.554C1046.51 281.253 1046.89 281.102 1047.34 281.102C1047.78 281.102 1048.16 281.253 1048.47 281.554C1048.79 281.85 1048.95 282.208 1048.95 282.628C1048.95 283.043 1048.79 283.401 1048.47 283.702C1048.16 283.997 1047.78 284.145 1047.34 284.145ZM1051.49 299.256V297.509L1058.58 288.5V288.381H1051.72V286.165H1061.76V288.023L1054.94 296.921V297.04H1062V299.256H1051.49ZM1068.55 299.546C1067.72 299.546 1066.97 299.392 1066.3 299.085C1065.63 298.773 1065.1 298.321 1064.7 297.73C1064.32 297.139 1064.13 296.415 1064.13 295.557C1064.13 294.818 1064.27 294.21 1064.55 293.733C1064.84 293.256 1065.22 292.878 1065.7 292.6C1066.18 292.321 1066.72 292.111 1067.32 291.969C1067.92 291.827 1068.53 291.719 1069.15 291.645C1069.93 291.554 1070.57 291.48 1071.05 291.423C1071.54 291.361 1071.9 291.262 1072.12 291.125C1072.34 290.989 1072.45 290.767 1072.45 290.46V290.401C1072.45 289.656 1072.24 289.08 1071.82 288.671C1071.41 288.262 1070.79 288.057 1069.96 288.057C1069.11 288.057 1068.43 288.247 1067.93 288.628C1067.45 289.003 1067.11 289.421 1066.92 289.881L1064.53 289.335C1064.81 288.54 1065.22 287.898 1065.77 287.409C1066.32 286.915 1066.95 286.557 1067.67 286.335C1068.39 286.108 1069.14 285.994 1069.93 285.994C1070.45 285.994 1071.01 286.057 1071.59 286.182C1072.18 286.301 1072.73 286.523 1073.24 286.847C1073.76 287.171 1074.18 287.634 1074.51 288.236C1074.84 288.833 1075.01 289.608 1075.01 290.563V299.256H1072.52V297.466H1072.42C1072.25 297.796 1072.01 298.119 1071.68 298.438C1071.35 298.756 1070.92 299.02 1070.41 299.23C1069.89 299.441 1069.27 299.546 1068.55 299.546ZM1069.1 297.5C1069.81 297.5 1070.41 297.361 1070.91 297.083C1071.42 296.804 1071.8 296.441 1072.06 295.992C1072.33 295.537 1072.46 295.051 1072.46 294.534V292.847C1072.37 292.938 1072.19 293.023 1071.93 293.102C1071.68 293.176 1071.38 293.242 1071.05 293.298C1070.72 293.35 1070.4 293.398 1070.09 293.443C1069.78 293.483 1069.52 293.517 1069.31 293.546C1068.81 293.608 1068.36 293.713 1067.95 293.861C1067.55 294.009 1067.22 294.222 1066.98 294.5C1066.74 294.773 1066.62 295.137 1066.62 295.591C1066.62 296.222 1066.86 296.699 1067.32 297.023C1067.79 297.341 1068.38 297.5 1069.1 297.5ZM1084.25 286.165V288.21H1077.1V286.165H1084.25ZM1079.02 283.029H1081.57V295.412C1081.57 295.906 1081.64 296.279 1081.79 296.529C1081.93 296.773 1082.12 296.941 1082.36 297.031C1082.6 297.117 1082.85 297.159 1083.13 297.159C1083.34 297.159 1083.52 297.145 1083.67 297.117C1083.82 297.088 1083.94 297.066 1084.03 297.048L1084.49 299.154C1084.34 299.21 1084.13 299.267 1083.86 299.324C1083.59 299.387 1083.24 299.421 1082.84 299.426C1082.16 299.438 1081.54 299.318 1080.96 299.068C1080.38 298.818 1079.91 298.432 1079.55 297.909C1079.2 297.387 1079.02 296.73 1079.02 295.941V283.029ZM1086.8 299.256V286.165H1089.35V299.256H1086.8ZM1088.09 284.145C1087.65 284.145 1087.27 283.997 1086.95 283.702C1086.64 283.401 1086.48 283.043 1086.48 282.628C1086.48 282.208 1086.64 281.85 1086.95 281.554C1087.27 281.253 1087.65 281.102 1088.09 281.102C1088.53 281.102 1088.91 281.253 1089.23 281.554C1089.54 281.85 1089.7 282.208 1089.7 282.628C1089.7 283.043 1089.54 283.401 1089.23 283.702C1088.91 283.997 1088.53 284.145 1088.09 284.145ZM1098.03 299.52C1096.8 299.52 1095.73 299.239 1094.82 298.676C1093.9 298.114 1093.19 297.327 1092.69 296.316C1092.18 295.304 1091.93 294.122 1091.93 292.77C1091.93 291.412 1092.18 290.225 1092.69 289.208C1093.19 288.191 1093.9 287.401 1094.82 286.838C1095.73 286.276 1096.8 285.994 1098.03 285.994C1099.26 285.994 1100.33 286.276 1101.24 286.838C1102.16 287.401 1102.87 288.191 1103.38 289.208C1103.88 290.225 1104.13 291.412 1104.13 292.77C1104.13 294.122 1103.88 295.304 1103.38 296.316C1102.87 297.327 1102.16 298.114 1101.24 298.676C1100.33 299.239 1099.26 299.52 1098.03 299.52ZM1098.04 297.381C1098.84 297.381 1099.49 297.171 1100.02 296.75C1100.54 296.33 1100.93 295.77 1101.18 295.071C1101.43 294.372 1101.56 293.602 1101.56 292.762C1101.56 291.926 1101.43 291.159 1101.18 290.46C1100.93 289.756 1100.54 289.191 1100.02 288.764C1099.49 288.338 1098.84 288.125 1098.04 288.125C1097.24 288.125 1096.57 288.338 1096.05 288.764C1095.52 289.191 1095.13 289.756 1094.88 290.46C1094.63 291.159 1094.5 291.926 1094.5 292.762C1094.5 293.602 1094.63 294.372 1094.88 295.071C1095.13 295.77 1095.52 296.33 1096.05 296.75C1096.57 297.171 1097.24 297.381 1098.04 297.381ZM1109.26 291.483V299.256H1106.71V286.165H1109.16V288.296H1109.32C1109.62 287.602 1110.09 287.046 1110.74 286.625C1111.38 286.205 1112.2 285.994 1113.18 285.994C1114.07 285.994 1114.86 286.182 1115.53 286.557C1116.2 286.926 1116.72 287.477 1117.09 288.21C1117.46 288.943 1117.64 289.85 1117.64 290.929V299.256H1115.09V291.236C1115.09 290.287 1114.84 289.546 1114.35 289.012C1113.86 288.472 1113.18 288.202 1112.31 288.202C1111.72 288.202 1111.2 288.33 1110.74 288.585C1110.28 288.841 1109.92 289.216 1109.65 289.71C1109.39 290.199 1109.26 290.79 1109.26 291.483Z" fill="black"/>
<rect x="1031.64" y="319.354" width="16.7731" height="66.0993" fill="#4E2A1D" stroke="#4E2A1D" stroke-width="4"/>
<path d="M138.419 137.995L137.851 138.462C137.341 138.879 136.682 139.051 136.018 138.939C135.354 138.827 134.74 138.441 134.31 137.866L133.907 137.326C133.007 136.201 132.38 134.866 132.09 133.453C131.869 132.001 131.785 130.539 131.84 129.091C131.91 128.175 131.903 127.249 131.818 126.323C131.729 125.621 131.451 124.948 131.018 124.387C130.018 123.045 128.759 123.027 127.171 124.331C126.299 125.066 125.534 125.933 124.899 126.909C124.652 127.281 124.323 127.581 123.937 127.785C123.552 127.988 123.121 128.089 122.678 128.081C122.235 128.072 121.793 127.953 121.385 127.735C120.978 127.516 120.617 127.202 120.331 126.819L119.516 125.726C119.163 125.258 118.938 124.699 118.868 124.119C118.798 123.539 118.886 122.962 119.121 122.458C120.075 120.511 121.418 118.829 123.062 117.524C124.601 116.212 126.396 115.265 128.339 114.739C129.988 114.283 131.756 114.323 133.454 114.854C135.037 115.376 136.454 116.425 137.49 117.841C138.566 119.218 139.21 120.904 139.323 122.637C139.389 124.655 139.247 126.658 138.9 128.611C138.696 129.816 138.564 131.039 138.503 132.273C138.467 133.075 138.626 133.888 138.965 134.635C139.267 135.203 139.378 135.852 139.278 136.468C139.178 137.083 138.873 137.624 138.419 137.995Z" fill="#0E3832"/>
<path d="M145.723 148.467L145.648 148.529C144.705 149.303 143.484 149.622 142.253 149.415C141.023 149.208 139.884 148.492 139.087 147.424C138.291 146.356 137.902 145.025 138.006 143.722C138.109 142.419 138.698 141.252 139.641 140.478L139.716 140.416C140.66 139.641 141.881 139.322 143.111 139.53C144.342 139.737 145.481 140.453 146.277 141.521C147.074 142.588 147.463 143.92 147.359 145.223C147.255 146.525 146.667 147.692 145.723 148.467Z" fill="#0E3832"/>
</svg>
