<svg width="995" height="812" viewBox="0 0 995 812" fill="none" xmlns="http://www.w3.org/2000/svg">
<path d="M297.5 227C333.991 227 369.662 220.578 400.003 208.546C430.343 196.514 453.991 179.412 467.956 159.404C481.92 139.395 485.574 117.379 478.455 96.1376C471.336 74.8967 453.764 55.3857 427.961 40.0718C402.158 24.758 369.284 14.3291 333.494 10.1041C297.705 5.87898 260.608 8.04744 226.895 16.3352C193.182 24.623 164.367 38.6579 144.094 56.6651C123.821 74.6723 113 95.843 113 117.5C113 135.604 120.38 152.674 133.5 167.712L113 227L212.896 214.833C238.234 222.62 267.016 227 297.5 227Z" fill="#FFC7C7" stroke="black" stroke-width="2" stroke-linecap="round" stroke-linejoin="round"/>
<path d="M912.178 323.3C913.548 327.725 914.626 332.234 915.406 336.8C915.987 340.222 916.326 344.023 914.365 346.88C921.838 335.638 929.642 324.058 940.996 316.802C938.684 314.295 936.925 311.329 935.833 308.098C934.742 304.867 934.342 301.443 934.661 298.047C934.726 297.369 925.34 300.912 924.622 301.315C921.329 303.147 918.311 305.423 915.099 307.384C913.437 308.393 906.512 310.784 906.448 312.226C906.448 313.154 909.2 315.995 909.716 316.971C910.729 319 911.554 321.119 912.178 323.3Z" fill="#ED9DA0"/>
<path d="M946.904 747.288C945.059 745.989 942.896 745.212 940.646 745.042C938.395 744.872 936.141 745.313 934.121 746.32C930.465 748.208 928.004 751.784 924.679 754.205C918.965 758.353 911.42 758.684 904.73 760.928C902.955 761.528 901.066 762.413 900.316 764.156C900.064 764.889 899.963 765.666 900.02 766.44C900.077 767.213 900.29 767.967 900.647 768.656C901.765 771.149 903.725 773.169 906.183 774.362C909.183 775.799 912.639 775.862 915.964 775.903L944.855 776.242C953.75 776.179 962.641 776.619 971.487 777.557C973.545 777.815 975.772 778.098 977.587 777.089C980.541 775.475 980.88 771.389 980.654 768.026C980.059 759.5 978.154 751.116 975.005 743.17C974.658 742.29 974.198 741.29 973.221 741.128C972.528 741.097 971.847 741.314 971.3 741.741C963.149 746.583 952.827 749.319 944.16 745.441" fill="#D6D6E3"/>
<path d="M961.369 562.967C958.141 581.714 960.247 600.978 963.879 619.644C964.548 623.361 965.429 627.036 966.518 630.652C967.818 634.768 969.569 638.722 970.787 642.862C973.887 653.353 973.45 664.571 972.987 675.522L970.869 725.355C970.691 729.535 970.53 733.812 971.789 737.799C972.297 739.413 972.919 741.431 971.636 742.52C971.135 742.88 970.549 743.105 969.936 743.174C964.162 744.239 958.197 743.346 952.988 740.636L952.415 690.294C952.237 674.775 952.052 659.194 949.663 643.866C947.763 631.68 944.474 619.655 944.256 607.324C944.03 594.412 947.194 581.669 950.422 569.152C951.116 566.473 953.65 564.512 955.732 562.696C956.458 561.979 957.343 561.443 958.314 561.13C959.283 560.861 960.769 562.152 961.369 562.967Z" fill="#090814"/>
<path opacity="0.1" d="M961.373 562.967C958.145 581.714 960.251 600.978 963.883 619.644C964.552 623.361 965.433 627.036 966.522 630.652C967.822 634.768 969.573 638.722 970.791 642.862C973.891 653.353 973.454 664.571 972.991 675.522L970.873 725.355C970.695 729.535 970.534 733.812 971.793 737.799C972.301 739.413 972.923 741.431 971.64 742.52C971.139 742.88 970.553 743.105 969.94 743.174C964.166 744.239 958.201 743.346 952.992 740.636L952.419 690.294C952.241 674.775 952.056 659.194 949.667 643.866C947.767 631.68 944.478 619.655 944.26 607.324C944.034 594.412 947.198 581.669 950.426 569.152C951.12 566.473 953.654 564.512 955.736 562.696C956.462 561.979 957.347 561.443 958.318 561.13C959.287 560.861 960.773 562.152 961.373 562.967Z" fill="black"/>
<path d="M900.766 504.382C899.572 509.297 902.106 514.389 901.823 519.441C901.662 522.5 900.459 525.55 901.016 528.552C901.573 531.554 903.716 533.814 904.866 536.566C905.702 538.864 906.144 541.287 906.173 543.732C906.504 549.769 906.238 555.837 906.012 561.85C905.633 571.938 905.35 582.082 906.682 592.081C907.843 600.744 910.198 609.204 913.682 617.219C914.738 619.4 915.61 621.665 916.289 623.99C916.735 626.157 917.032 628.352 917.177 630.559C917.944 637.738 919.871 644.745 922.883 651.307C924.941 655.807 928.532 659.377 929.67 664.147C930.751 668.715 930.025 673.533 930.808 678.157C931.381 681.587 932.777 684.831 933.552 688.22C934.561 692.602 934.536 697.146 935.045 701.62C936.498 714.532 942.365 727.445 938.862 739.969C938.162 742.487 937.07 745.045 937.562 747.611C937.804 748.87 938.417 750.111 938.143 751.364C937.917 752.429 937.094 753.252 936.674 754.264C935.867 756.153 936.722 758.396 938.159 759.857C939.691 761.219 941.473 762.272 943.405 762.957C949.353 765.499 955.51 768.082 961.966 768.025C962.75 768.067 963.532 767.923 964.25 767.605C965.335 766.853 966.123 765.746 966.477 764.474L969.786 756.291C970.186 755.298 970.593 754.136 970.036 753.216C969.648 752.712 969.179 752.275 968.648 751.925C965.977 749.674 966.582 745.469 967.292 742.088C969.105 733.403 970.11 724.569 970.292 715.698C970.647 698.008 967.734 680.423 964.828 662.968C963.989 656.875 962.639 650.863 960.793 644.996C958.784 639.186 955.822 633.596 956.306 627.556C956.822 621.035 955.128 614.2 956.306 607.768C957.484 601.336 959.348 595.041 960.551 588.617C962.109 580.281 962.496 571.783 962.972 563.325C963.172 559.871 963.432 556.304 965.046 553.237C965.99 551.445 967.362 549.912 968.419 548.177C971.147 543.666 971.582 538.077 974.189 533.489C975.424 531.318 977.127 529.405 978.03 527.081C978.665 525.247 978.997 523.322 979.014 521.381C979.27 516.511 978.999 511.627 978.207 506.814C964.469 499.823 949.234 496.287 933.821 496.514C927.909 496.443 922.026 497.368 916.421 499.25C911.143 501.206 906.334 503.958 900.766 504.382Z" fill="#090814"/>
<path d="M933.854 760.06C931.481 763.014 931.643 767.234 930.126 770.713C928.286 774.934 924.186 777.637 920.297 780.099L896.087 795.432C894.763 796.239 893.343 797.232 892.859 798.732C892.629 799.691 892.67 800.695 892.98 801.632C893.558 803.657 894.635 805.504 896.113 807.005C897.591 808.505 899.422 809.61 901.438 810.219C903.581 810.729 905.781 810.954 907.983 810.889L918.87 811.034C922.186 811.163 925.508 811.034 928.804 810.647C931.822 810.211 934.76 809.347 937.762 808.799C943.226 807.806 948.842 807.899 954.314 806.935C957.664 806.276 960.973 805.422 964.224 804.377C968.178 803.191 972.205 801.956 975.595 799.607C976.528 799.039 977.285 798.223 977.782 797.251C978.208 795.856 978.185 794.363 977.717 792.982L972.517 770.143C972.223 768.241 971.53 766.423 970.483 764.808C969.329 763.275 967.255 762.259 965.455 762.909C964.712 763.247 964.011 763.669 963.365 764.168C960.587 765.806 957.294 766.34 954.141 765.661C952.107 765.298 949.42 764.741 947.782 763.393C946.539 762.368 946.168 760.778 945.111 759.616C944.37 758.854 943.477 758.258 942.49 757.864C941.503 757.47 940.445 757.288 939.383 757.33C938.321 757.372 937.28 757.637 936.328 758.107C935.375 758.577 934.532 759.242 933.853 760.06H933.854Z" fill="#D6D6E3"/>
<path d="M918.158 320.156C934.262 320.156 947.316 307.101 947.316 290.998C947.316 274.894 934.262 261.84 918.158 261.84C902.054 261.84 889 274.894 889 290.998C889 307.101 902.054 320.156 918.158 320.156Z" fill="#ED9DA0"/>
<path d="M893.945 294.32C896.737 292.754 896.737 288.243 899.594 286.742C902.451 285.241 905.694 287.848 907.527 290.479C910.197 294.332 912.051 298.691 912.974 303.286C913.076 304.628 913.595 305.903 914.459 306.934C915.476 307.703 916.72 308.109 917.994 308.088C921.68 308.454 925.37 308.788 929.066 309.088C933.182 309.419 937.523 309.688 941.26 307.918C942.735 307.259 944.002 306.21 944.924 304.884C945.664 303.611 946.193 302.227 946.49 300.784C948.419 293.448 950.364 286.024 950.525 278.438C950.59 275.307 950.315 272.063 948.806 269.319C947.926 267.705 946.635 266.301 946.272 264.525C946.079 263.582 937.202 253.825 927.03 250.257C916.858 246.689 906.559 250.276 905.582 250.257C903.5 250.217 901.353 249.45 899.382 250.144C899.667 250.666 899.834 251.244 899.87 251.837C899.905 252.431 899.809 253.025 899.589 253.577C899.368 254.129 899.029 254.625 898.594 255.031C898.159 255.436 897.64 255.741 897.074 255.922L898.051 258.053C897.045 258.254 896.115 258.732 895.366 259.434C894.617 260.136 894.08 261.033 893.814 262.024C892.741 266.261 893.007 272.281 893.265 276.639C893.396 278.551 895.26 293.602 893.945 294.32Z" fill="#192534"/>
<path d="M920.547 328.579C905.9 345.05 902.171 368.236 899.047 390.066L894.447 422.298C893.253 430.659 892.026 439.019 890.985 447.404C890.259 453.142 889.585 458.969 890.372 464.698C890.993 469.217 892.503 473.575 893.761 477.925C897.037 489.335 898.667 501.154 898.603 513.025C899.579 510.152 902.961 508.99 905.931 508.344C930.85 502.937 956.849 505.713 980.064 516.261C984.14 504.842 983.373 492.349 984.511 480.276C986.125 463.062 991.685 446.381 993.332 429.2C993.937 422.8 994.01 416.368 994.074 409.937C994.122 405.216 994.174 400.446 993.186 395.822C992.086 390.706 989.772 385.936 987.375 381.296C980.75 368.397 973.388 355.889 965.328 343.835C961.271 337.768 957.04 331.82 952.634 325.992C950.401 323.038 948.123 320.116 945.799 317.228C943.547 314.428 942.571 311.999 938.999 313.677C932.237 316.835 925.461 323.051 920.547 328.579Z" fill="#0E3832"/>
<path d="M928.939 465.673C925.366 465.802 921.788 465.689 918.23 465.334C915.591 465.076 912.896 464.688 910.321 465.334C909.201 465.616 908.154 466.13 907.246 466.843C906.909 467.143 906.668 467.534 906.55 467.968C906.433 468.403 906.444 468.863 906.584 469.291C906.723 469.719 906.985 470.097 907.336 470.379C907.687 470.661 908.113 470.834 908.561 470.878L911.321 471.12C913.072 471.273 914.896 471.451 916.26 472.734C916.82 473.238 917.175 473.93 917.26 474.679C917.429 476.559 915.799 477.584 914.339 478.367C912.262 479.342 933.917 489.157 939.252 486.647C945.652 483.677 950.034 477.286 951.801 470.458C952.419 468.467 952.528 466.353 952.116 464.309C950.93 459.717 945.264 458.66 941.625 460.879C937.162 463.712 934.572 465.496 928.939 465.673Z" fill="#ED9DA0"/>
<path opacity="0.1" d="M932.822 379.263C937.2 386.024 944.8 389.833 951.322 394.581C952.912 395.617 954.298 396.935 955.412 398.471C957.057 401.01 957.289 404.238 956.951 407.228C956.382 411.159 955.392 415.018 953.999 418.737L951.266 426.899C949.533 432.078 949.277 438.757 945.981 443.11C945.137 444.217 938.106 456.522 938.144 457.91C938.216 458.712 938.492 459.483 938.944 460.149C941.075 463.627 949.044 453.575 953.023 454.462C954.204 454.763 955.442 454.763 956.623 454.462C958.264 453.799 959.693 452.7 960.757 451.285C966.386 445.074 972.015 438.776 976.081 431.485C980.053 424.373 981.23 417.206 983.419 409.385C984.32 406.505 984.948 403.546 985.295 400.547C985.605 394.893 984.423 389.257 981.868 384.204C979.454 379.119 977.332 373.783 973.911 369.311C970.682 364.919 967.094 360.802 963.184 357.002C956.379 350.641 948.054 346.902 938.947 350.51C932.517 353.062 930.109 358.385 929.534 365.202C929.044 370.124 930.2 375.069 932.822 379.263Z" fill="black"/>
<path d="M926.211 373.135C931.86 381.859 941.673 386.774 950.075 392.899C952.12 394.248 953.901 395.961 955.329 397.951C957.451 401.227 957.75 405.384 957.314 409.251C956.757 414.343 955.127 419.242 953.497 424.1L949.97 434.591C947.735 441.273 945.426 448.084 941.17 453.709C940.089 455.137 938.822 456.655 938.87 458.454C938.959 459.488 939.315 460.481 939.903 461.335C941.262 463.557 943.054 465.483 945.173 466.998C947.291 468.514 949.692 469.588 952.234 470.156C953.759 470.544 955.357 470.544 956.882 470.156C959.061 469.518 960.691 467.735 962.216 466.064C969.479 458.042 976.742 449.924 981.988 440.522C987.113 431.346 983.61 366.059 979.196 360.288C975.015 354.65 970.375 349.368 965.323 344.495C956.551 336.295 945.809 331.462 934.059 336.126C925.759 339.419 922.659 346.278 921.905 355.083C921.312 361.41 922.824 367.756 926.205 373.136L926.211 373.135Z" fill="#0E3832"/>
<path d="M81.9174 323.3C80.5477 327.725 79.4694 332.234 78.6895 336.8C78.1085 340.222 77.7695 344.023 79.7305 346.88C72.2575 335.638 64.4534 324.058 53.0994 316.802C55.4116 314.295 57.1706 311.329 58.262 308.098C59.3534 304.867 59.7529 301.443 59.4344 298.047C59.3694 297.369 68.7554 300.912 69.4734 301.315C72.7664 303.147 75.7845 305.423 78.9965 307.384C80.6585 308.393 87.5835 310.784 87.6475 312.226C87.6475 313.154 84.8955 315.995 84.3795 316.971C83.3658 319 82.5416 321.119 81.9174 323.3Z" fill="#ED9DA0"/>
<path d="M47.1913 747.288C49.0365 745.989 51.199 745.212 53.4494 745.042C55.6998 744.872 57.9544 745.313 59.9743 746.32C63.6303 748.208 66.0913 751.784 69.4163 754.205C75.1303 758.353 82.6753 758.684 89.3653 760.928C91.1403 761.528 93.0293 762.413 93.7793 764.156C94.0316 764.889 94.1323 765.666 94.0754 766.44C94.0185 767.213 93.8052 767.967 93.4483 768.656C92.33 771.149 90.3703 773.169 87.9123 774.362C84.9123 775.799 81.4563 775.862 78.1313 775.903L49.2403 776.242C40.3453 776.179 31.4538 776.619 22.6083 777.557C20.5503 777.815 18.3233 778.098 16.5083 777.089C13.5543 775.475 13.2153 771.389 13.4413 768.026C14.036 759.5 15.9414 751.116 19.0903 743.17C19.4373 742.29 19.8973 741.29 20.8743 741.128C21.5673 741.097 22.2486 741.314 22.7953 741.741C30.9463 746.583 41.2683 749.319 49.9353 745.441" fill="#D6D6E3"/>
<path d="M32.7262 562.967C35.9542 581.714 33.8482 600.978 30.2162 619.644C29.5476 623.361 28.6665 627.036 27.5772 630.652C26.2772 634.768 24.5262 638.722 23.3082 642.862C20.2082 653.353 20.6452 664.571 21.1082 675.522L23.2262 725.355C23.4042 729.535 23.5652 733.812 22.3062 737.799C21.7982 739.413 21.1762 741.431 22.4592 742.52C22.9604 742.88 23.5458 743.105 24.1592 743.174C29.9335 744.239 35.8983 743.346 41.1072 740.636L41.6802 690.294C41.8582 674.775 42.0432 659.194 44.4322 643.866C46.3322 631.68 49.6212 619.655 49.8392 607.324C50.0652 594.412 46.9012 581.669 43.6732 569.152C42.9792 566.473 40.4452 564.512 38.3632 562.696C37.6367 561.979 36.7524 561.443 35.7812 561.13C34.8122 560.861 33.3262 562.152 32.7262 562.967Z" fill="#090814"/>
<path opacity="0.1" d="M32.7223 562.967C35.9503 581.714 33.8443 600.978 30.2123 619.644C29.5437 623.361 28.6626 627.036 27.5733 630.652C26.2733 634.768 24.5222 638.722 23.3042 642.862C20.2042 653.353 20.6413 664.571 21.1043 675.522L23.2223 725.355C23.4003 729.535 23.5613 733.812 22.3023 737.799C21.7943 739.413 21.1722 741.431 22.4552 742.52C22.9565 742.88 23.5419 743.105 24.1553 743.174C29.9296 744.239 35.8943 743.346 41.1033 740.636L41.6763 690.294C41.8543 674.775 42.0393 659.194 44.4283 643.866C46.3283 631.68 49.6173 619.655 49.8353 607.324C50.0613 594.412 46.8973 581.669 43.6693 569.152C42.9753 566.473 40.4413 564.512 38.3593 562.696C37.6328 561.979 36.7485 561.443 35.7773 561.13C34.8083 560.861 33.3223 562.152 32.7223 562.967Z" fill="black"/>
<path d="M93.3291 504.382C94.5231 509.297 91.9891 514.389 92.2721 519.441C92.4331 522.5 93.6361 525.55 93.0791 528.552C92.5221 531.554 90.3791 533.814 89.2291 536.566C88.3935 538.864 87.9516 541.287 87.922 543.732C87.591 549.769 87.8571 555.837 88.0831 561.85C88.4621 571.938 88.7451 582.082 87.4131 592.081C86.2525 600.744 83.8967 609.204 80.4131 617.219C79.3573 619.4 78.4853 621.665 77.8061 623.99C77.3601 626.157 77.0634 628.352 76.9181 630.559C76.1508 637.738 74.2238 644.745 71.2121 651.307C69.1541 655.807 65.563 659.377 64.425 664.147C63.344 668.715 64.07 673.533 63.287 678.157C62.714 681.587 61.3181 684.831 60.5431 688.22C59.5341 692.602 59.559 697.146 59.05 701.62C57.597 714.532 51.7301 727.445 55.2331 739.969C55.9331 742.487 57.0251 745.045 56.5331 747.611C56.2911 748.87 55.6781 750.111 55.9521 751.364C56.1781 752.429 57.0011 753.252 57.4211 754.264C58.2281 756.153 57.3731 758.396 55.9361 759.857C54.4038 761.219 52.6223 762.272 50.6901 762.957C44.7421 765.499 38.5851 768.082 32.1291 768.025C31.3453 768.067 30.5628 767.923 29.8451 767.605C28.7601 766.853 27.9723 765.746 27.6181 764.474L24.3091 756.291C23.9091 755.298 23.5021 754.136 24.0591 753.216C24.4469 752.712 24.9159 752.275 25.4471 751.925C28.1181 749.674 27.5131 745.469 26.8031 742.088C24.9897 733.403 23.9854 724.569 23.8031 715.698C23.4481 698.008 26.3611 680.423 29.2671 662.968C30.1066 656.875 31.4563 650.863 33.3021 644.996C35.3111 639.186 38.2731 633.596 37.7891 627.556C37.2731 621.035 38.9671 614.2 37.7891 607.768C36.6111 601.336 34.7471 595.041 33.5441 588.617C31.9861 580.281 31.599 571.783 31.123 563.325C30.923 559.871 30.6631 556.304 29.0491 553.237C28.1051 551.445 26.7331 549.912 25.6761 548.177C22.9481 543.666 22.5131 538.077 19.9061 533.489C18.6711 531.318 16.9681 529.405 16.0651 527.081C15.4304 525.247 15.0981 523.322 15.081 521.381C14.8252 516.511 15.0958 511.627 15.8881 506.814C29.6258 499.823 44.8613 496.287 60.274 496.514C66.1865 496.443 72.0688 497.368 77.6741 499.25C82.9521 501.206 87.7611 503.958 93.3291 504.382Z" fill="#090814"/>
<path d="M60.2413 760.06C62.6143 763.014 62.4523 767.234 63.9693 770.713C65.8093 774.934 69.9093 777.637 73.7983 780.099L98.0083 795.432C99.3323 796.239 100.752 797.232 101.236 798.732C101.467 799.691 101.425 800.695 101.115 801.632C100.537 803.657 99.4602 805.504 97.9823 807.005C96.5045 808.505 94.6735 809.61 92.6573 810.219C90.5147 810.729 88.314 810.954 86.1123 810.889L75.2253 811.034C71.909 811.163 68.5875 811.034 65.2913 810.647C62.2733 810.211 59.3354 809.347 56.3334 808.799C50.8694 807.806 45.2533 807.899 39.7813 806.935C36.431 806.276 33.1219 805.422 29.8713 804.377C25.9173 803.191 21.8903 801.956 18.5003 799.607C17.5673 799.039 16.8102 798.223 16.3133 797.251C15.8872 795.856 15.9099 794.363 16.3783 792.982L21.5783 770.143C21.8718 768.241 22.565 766.423 23.6123 764.808C24.7663 763.275 26.8403 762.259 28.6403 762.909C29.3829 763.247 30.0842 763.669 30.7303 764.168C33.5082 765.806 36.8013 766.34 39.9543 765.661C41.9883 765.298 44.6753 764.741 46.3133 763.393C47.5563 762.368 47.9273 760.778 48.9843 759.616C49.7255 758.854 50.6185 758.258 51.6053 757.864C52.592 757.47 53.6506 757.288 54.7122 757.33C55.7738 757.372 56.8148 757.637 57.7675 758.107C58.7202 758.577 59.5634 759.242 60.2423 760.06H60.2413Z" fill="#D6D6E3"/>
<path d="M75.9372 320.156C59.8337 320.156 46.7792 307.101 46.7792 290.998C46.7792 274.894 59.8337 261.84 75.9372 261.84C92.0407 261.84 105.095 274.894 105.095 290.998C105.095 307.101 92.0407 320.156 75.9372 320.156Z" fill="#ED9DA0"/>
<path d="M100.15 294.32C97.358 292.754 97.3581 288.243 94.5011 286.742C91.6441 285.241 88.4011 287.848 86.5681 290.479C83.8981 294.332 82.0444 298.691 81.1211 303.286C81.019 304.628 80.4997 305.903 79.6361 306.934C78.6194 307.703 77.3751 308.109 76.101 308.088C72.4157 308.454 68.7251 308.788 65.0291 309.088C60.9131 309.419 56.572 309.688 52.835 307.918C51.3604 307.259 50.0936 306.21 49.171 304.884C48.4313 303.611 47.9025 302.227 47.6051 300.784C45.6761 293.448 43.731 286.024 43.57 278.438C43.505 275.307 43.7801 272.063 45.2891 269.319C46.1691 267.705 47.4601 266.301 47.8231 264.525C48.0161 263.582 56.8931 253.825 67.0651 250.257C77.2371 246.689 87.5361 250.276 88.5131 250.257C90.5951 250.217 92.742 249.45 94.713 250.144C94.4278 250.666 94.2614 251.244 94.2257 251.837C94.1899 252.431 94.2857 253.025 94.5062 253.577C94.7268 254.129 95.0666 254.625 95.5013 255.031C95.936 255.436 96.455 255.741 97.0211 255.922L96.0441 258.053C97.0505 258.254 97.9806 258.732 98.7293 259.434C99.4781 260.136 100.016 261.033 100.281 262.024C101.354 266.261 101.088 272.281 100.83 276.639C100.699 278.551 98.835 293.602 100.15 294.32Z" fill="#192534"/>
<path d="M73.5483 328.579C88.1953 345.05 91.9243 368.236 95.0483 390.066L99.6483 422.298C100.842 430.659 102.069 439.019 103.11 447.404C103.836 453.142 104.51 458.969 103.723 464.698C103.102 469.217 101.592 473.575 100.334 477.925C97.0582 489.335 95.4278 501.154 95.4923 513.025C94.5163 510.152 91.1343 508.99 88.1643 508.344C63.2451 502.937 37.2466 505.713 14.0313 516.261C9.95528 504.842 10.7223 492.349 9.58426 480.276C7.97026 463.062 2.41028 446.381 0.763275 429.2C0.158275 422.8 0.0852708 416.368 0.0212708 409.937C-0.0267292 405.216 -0.0787287 400.446 0.909271 395.822C2.00927 390.706 4.32325 385.936 6.72025 381.296C13.3457 368.397 20.7068 355.889 28.7672 343.835C32.8239 337.768 37.0553 331.82 41.4613 325.992C43.6939 323.038 45.9723 320.116 48.2963 317.228C50.5483 314.428 51.5243 311.999 55.0963 313.677C61.8583 316.835 68.6343 323.051 73.5483 328.579Z" fill="#0E3832"/>
<path d="M65.1564 465.673C68.7296 465.802 72.3074 465.689 75.8653 465.334C78.5043 465.076 81.1993 464.688 83.7743 465.334C84.8938 465.616 85.9415 466.13 86.8494 466.843C87.1857 467.143 87.4275 467.534 87.5451 467.968C87.6627 468.403 87.6511 468.863 87.5115 469.291C87.372 469.719 87.1106 470.097 86.7595 470.379C86.4083 470.661 85.9826 470.834 85.5344 470.878L82.7743 471.12C81.0233 471.273 79.1994 471.451 77.8354 472.734C77.2756 473.238 76.9198 473.93 76.8354 474.679C76.6664 476.559 78.2963 477.584 79.7563 478.367C81.8333 479.342 60.1784 489.157 54.8434 486.647C48.4434 483.677 44.0614 477.286 42.2944 470.458C41.6759 468.467 41.5676 466.353 41.9794 464.309C43.1654 459.717 48.8313 458.66 52.4703 460.879C56.9333 463.712 59.5234 465.496 65.1564 465.673Z" fill="#ED9DA0"/>
<path opacity="0.1" d="M61.2735 379.263C56.8955 386.024 49.2955 389.833 42.7735 394.581C41.1835 395.617 39.7972 396.935 38.6835 398.471C37.0385 401.01 36.8065 404.238 37.1445 407.228C37.7135 411.159 38.7031 415.018 40.0965 418.737L42.8295 426.899C44.5625 432.078 44.8185 438.757 48.1145 443.11C48.9585 444.217 55.9895 456.522 55.9515 457.91C55.8788 458.712 55.6035 459.483 55.1514 460.149C53.0204 463.627 45.0515 453.575 41.0725 454.462C39.8913 454.763 38.6536 454.763 37.4725 454.462C35.8315 453.799 34.4023 452.7 33.3385 451.285C27.7095 445.074 22.0805 438.776 18.0145 431.485C14.0425 424.373 12.8655 417.206 10.6765 409.385C9.77506 406.505 9.14697 403.546 8.8005 400.547C8.49057 394.893 9.6724 389.257 12.2275 384.204C14.6415 379.119 16.7635 373.783 20.1845 369.311C23.4136 364.919 27.0015 360.802 30.9115 357.002C37.7165 350.641 46.0415 346.902 55.1485 350.51C61.5785 353.062 63.9865 358.385 64.5615 365.202C65.0513 370.124 63.8949 375.069 61.2735 379.263Z" fill="black"/>
<path d="M67.884 373.135C62.235 381.859 52.422 386.774 44.02 392.899C41.975 394.248 40.1943 395.961 38.766 397.951C36.644 401.227 36.345 405.384 36.781 409.251C37.338 414.343 38.968 419.242 40.598 424.1L44.125 434.591C46.36 441.273 48.669 448.084 52.925 453.709C54.006 455.137 55.273 456.655 55.225 458.454C55.136 459.488 54.78 460.481 54.192 461.335C52.8329 463.557 51.041 465.483 48.9226 466.998C46.8043 468.514 44.4027 469.588 41.861 470.156C40.3358 470.544 38.7381 470.544 37.213 470.156C35.034 469.518 33.404 467.735 31.879 466.064C24.616 458.042 17.353 449.924 12.107 440.522C6.98201 431.346 10.485 366.059 14.899 360.288C19.0798 354.65 23.7199 349.368 28.772 344.495C37.544 336.295 48.286 331.462 60.036 336.126C68.336 339.419 71.436 346.278 72.19 355.083C72.7828 361.41 71.2713 367.756 67.89 373.136L67.884 373.135Z" fill="#0E3832"/>
<path d="M62.6891 200.733L61.7698 201.451C60.9456 202.094 59.9 202.384 58.8625 202.256C57.8251 202.129 56.8806 201.595 56.2364 200.772L55.6334 200C54.2813 198.396 53.3714 196.466 52.9933 194.403C52.7277 192.278 52.6776 190.133 52.8438 187.998C53.006 186.648 53.0462 185.285 52.9638 183.927C52.8636 182.9 52.4644 181.925 51.8155 181.123C50.3174 179.205 48.3405 179.249 45.771 181.257C44.3582 182.386 43.1078 183.705 42.0552 185.175C41.6457 185.738 41.1112 186.197 40.4939 186.518C39.8766 186.839 39.1932 187.012 38.4976 187.024C37.802 187.036 37.1131 186.887 36.4852 186.587C35.8572 186.288 35.3073 185.847 34.8787 185.299L33.6584 183.737C33.1301 183.067 32.8075 182.258 32.7296 181.408C32.6518 180.559 32.822 179.705 33.2197 178.95C34.8294 176.031 37.034 173.482 39.6909 171.469C42.1846 169.452 45.0588 167.959 48.1422 167.077C50.7611 166.314 53.5376 166.273 56.1775 166.961C58.6362 167.639 60.8056 169.104 62.3551 171.13C63.9696 173.096 64.8884 175.541 64.9682 178.084C64.9591 181.05 64.6243 184.006 63.9701 186.898C63.5824 188.683 63.3056 190.49 63.1411 192.308C63.0405 193.49 63.2449 194.678 63.7347 195.758C64.178 196.577 64.3162 197.526 64.1247 198.437C63.9332 199.348 63.4244 200.162 62.6891 200.733Z" fill="#0E3832"/>
<path d="M73.5871 215.736L73.4656 215.831C71.9392 217.023 70.0015 217.561 68.0788 217.325C66.1562 217.089 64.4061 216.098 63.2135 214.572C62.0209 213.045 61.4835 211.108 61.7196 209.185C61.9557 207.262 62.9458 205.512 64.4723 204.32L64.5937 204.225C66.1201 203.032 68.0578 202.495 69.9805 202.731C71.9031 202.967 73.6533 203.957 74.8459 205.484C76.0384 207.01 76.5758 208.948 76.3397 210.87C76.1037 212.793 75.1135 214.543 73.5871 215.736Z" fill="#0E3832"/>
<path d="M177.934 60.94C180.154 60.94 182.094 61.38 183.754 62.26C185.414 63.14 186.694 64.38 187.594 65.98C188.514 67.56 188.974 69.39 188.974 71.47C188.974 73.53 188.514 75.36 187.594 76.96C186.694 78.56 185.404 79.8 183.724 80.68C182.064 81.56 180.134 82 177.934 82H170.044V60.94H177.934ZM177.604 77.56C179.544 77.56 181.054 77.03 182.134 75.97C183.214 74.91 183.754 73.41 183.754 71.47C183.754 69.53 183.214 68.02 182.134 66.94C181.054 65.86 179.544 65.32 177.604 65.32H175.174V77.56H177.604ZM194.42 63.52C193.52 63.52 192.78 63.26 192.2 62.74C191.64 62.2 191.36 61.54 191.36 60.76C191.36 59.96 191.64 59.3 192.2 58.78C192.78 58.24 193.52 57.97 194.42 57.97C195.3 57.97 196.02 58.24 196.58 58.78C197.16 59.3 197.45 59.96 197.45 60.76C197.45 61.54 197.16 62.2 196.58 62.74C196.02 63.26 195.3 63.52 194.42 63.52ZM196.97 65.26V82H191.84V65.26H196.97ZM199.668 73.6C199.668 71.88 199.988 70.37 200.628 69.07C201.288 67.77 202.178 66.77 203.298 66.07C204.418 65.37 205.668 65.02 207.048 65.02C208.148 65.02 209.148 65.25 210.048 65.71C210.968 66.17 211.688 66.79 212.208 67.57V59.8H217.338V82H212.208V79.6C211.728 80.4 211.038 81.04 210.138 81.52C209.258 82 208.228 82.24 207.048 82.24C205.668 82.24 204.418 81.89 203.298 81.19C202.178 80.47 201.288 79.46 200.628 78.16C199.988 76.84 199.668 75.32 199.668 73.6ZM212.208 73.63C212.208 72.35 211.848 71.34 211.128 70.6C210.428 69.86 209.568 69.49 208.548 69.49C207.528 69.49 206.658 69.86 205.938 70.6C205.238 71.32 204.888 72.32 204.888 73.6C204.888 74.88 205.238 75.9 205.938 76.66C206.658 77.4 207.528 77.77 208.548 77.77C209.568 77.77 210.428 77.4 211.128 76.66C211.848 75.92 212.208 74.91 212.208 73.63ZM244.507 65.26L234.007 89.95H228.487L232.327 81.43L225.517 65.26H231.247L235.117 75.73L238.957 65.26H244.507ZM253.982 82.24C252.342 82.24 250.862 81.89 249.542 81.19C248.242 80.49 247.212 79.49 246.452 78.19C245.712 76.89 245.342 75.37 245.342 73.63C245.342 71.91 245.722 70.4 246.482 69.1C247.242 67.78 248.282 66.77 249.602 66.07C250.922 65.37 252.402 65.02 254.042 65.02C255.682 65.02 257.162 65.37 258.482 66.07C259.802 66.77 260.842 67.78 261.602 69.1C262.362 70.4 262.742 71.91 262.742 73.63C262.742 75.35 262.352 76.87 261.572 78.19C260.812 79.49 259.762 80.49 258.422 81.19C257.102 81.89 255.622 82.24 253.982 82.24ZM253.982 77.8C254.962 77.8 255.792 77.44 256.472 76.72C257.172 76 257.522 74.97 257.522 73.63C257.522 72.29 257.182 71.26 256.502 70.54C255.842 69.82 255.022 69.46 254.042 69.46C253.042 69.46 252.212 69.82 251.552 70.54C250.892 71.24 250.562 72.27 250.562 73.63C250.562 74.97 250.882 76 251.522 76.72C252.182 77.44 253.002 77.8 253.982 77.8ZM281.994 65.26V82H276.864V79.72C276.344 80.46 275.634 81.06 274.734 81.52C273.854 81.96 272.874 82.18 271.794 82.18C270.514 82.18 269.384 81.9 268.404 81.34C267.424 80.76 266.664 79.93 266.124 78.85C265.584 77.77 265.314 76.5 265.314 75.04V65.26H270.414V74.35C270.414 75.47 270.704 76.34 271.284 76.96C271.864 77.58 272.644 77.89 273.624 77.89C274.624 77.89 275.414 77.58 275.994 76.96C276.574 76.34 276.864 75.47 276.864 74.35V65.26H281.994ZM297.166 59.8V82H292.036V59.8H297.166ZM316.663 73.36C316.663 73.84 316.633 74.34 316.573 74.86H304.963C305.043 75.9 305.373 76.7 305.953 77.26C306.553 77.8 307.283 78.07 308.143 78.07C309.423 78.07 310.313 77.53 310.813 76.45H316.273C315.993 77.55 315.483 78.54 314.743 79.42C314.023 80.3 313.113 80.99 312.013 81.49C310.913 81.99 309.683 82.24 308.323 82.24C306.683 82.24 305.223 81.89 303.943 81.19C302.663 80.49 301.663 79.49 300.943 78.19C300.223 76.89 299.863 75.37 299.863 73.63C299.863 71.89 300.213 70.37 300.913 69.07C301.633 67.77 302.633 66.77 303.913 66.07C305.193 65.37 306.663 65.02 308.323 65.02C309.943 65.02 311.383 65.36 312.643 66.04C313.903 66.72 314.883 67.69 315.583 68.95C316.303 70.21 316.663 71.68 316.663 73.36ZM311.413 72.01C311.413 71.13 311.113 70.43 310.513 69.91C309.913 69.39 309.163 69.13 308.263 69.13C307.403 69.13 306.673 69.38 306.073 69.88C305.493 70.38 305.133 71.09 304.993 72.01H311.413ZM326.9 77.2L330.53 65.26H335.99L330.05 82H323.72L317.78 65.26H323.27L326.9 77.2ZM353.929 73.36C353.929 73.84 353.899 74.34 353.839 74.86H342.229C342.309 75.9 342.639 76.7 343.219 77.26C343.819 77.8 344.549 78.07 345.409 78.07C346.689 78.07 347.579 77.53 348.079 76.45H353.539C353.259 77.55 352.749 78.54 352.009 79.42C351.289 80.3 350.379 80.99 349.279 81.49C348.179 81.99 346.949 82.24 345.589 82.24C343.949 82.24 342.489 81.89 341.209 81.19C339.929 80.49 338.929 79.49 338.209 78.19C337.489 76.89 337.129 75.37 337.129 73.63C337.129 71.89 337.479 70.37 338.179 69.07C338.899 67.77 339.899 66.77 341.179 66.07C342.459 65.37 343.929 65.02 345.589 65.02C347.209 65.02 348.649 65.36 349.909 66.04C351.169 66.72 352.149 67.69 352.849 68.95C353.569 70.21 353.929 71.68 353.929 73.36ZM348.679 72.01C348.679 71.13 348.379 70.43 347.779 69.91C347.179 69.39 346.429 69.13 345.529 69.13C344.669 69.13 343.939 69.38 343.339 69.88C342.759 70.38 342.399 71.09 342.259 72.01H348.679ZM361.765 68.05C362.365 67.13 363.115 66.41 364.015 65.89C364.915 65.35 365.915 65.08 367.015 65.08V70.51H365.605C364.325 70.51 363.365 70.79 362.725 71.35C362.085 71.89 361.765 72.85 361.765 74.23V82H356.635V65.26H361.765V68.05ZM368.447 73.6C368.447 71.88 368.767 70.37 369.407 69.07C370.067 67.77 370.957 66.77 372.077 66.07C373.197 65.37 374.447 65.02 375.827 65.02C377.007 65.02 378.037 65.26 378.917 65.74C379.817 66.22 380.507 66.85 380.987 67.63V65.26H386.117V82H380.987V79.63C380.487 80.41 379.787 81.04 378.887 81.52C378.007 82 376.977 82.24 375.797 82.24C374.437 82.24 373.197 81.89 372.077 81.19C370.957 80.47 370.067 79.46 369.407 78.16C368.767 76.84 368.447 75.32 368.447 73.6ZM380.987 73.63C380.987 72.35 380.627 71.34 379.907 70.6C379.207 69.86 378.347 69.49 377.327 69.49C376.307 69.49 375.437 69.86 374.717 70.6C374.017 71.32 373.667 72.32 373.667 73.6C373.667 74.88 374.017 75.9 374.717 76.66C375.437 77.4 376.307 77.77 377.327 77.77C378.347 77.77 379.207 77.4 379.907 76.66C380.627 75.92 380.987 74.91 380.987 73.63ZM396.189 65.02C397.369 65.02 398.399 65.26 399.279 65.74C400.179 66.22 400.869 66.85 401.349 67.63V65.26H406.479V81.97C406.479 83.51 406.169 84.9 405.549 86.14C404.949 87.4 404.019 88.4 402.759 89.14C401.519 89.88 399.969 90.25 398.109 90.25C395.629 90.25 393.619 89.66 392.079 88.48C390.539 87.32 389.659 85.74 389.439 83.74H394.509C394.669 84.38 395.049 84.88 395.649 85.24C396.249 85.62 396.989 85.81 397.869 85.81C398.929 85.81 399.769 85.5 400.389 84.88C401.029 84.28 401.349 83.31 401.349 81.97V79.6C400.849 80.38 400.159 81.02 399.279 81.52C398.399 82 397.369 82.24 396.189 82.24C394.809 82.24 393.559 81.89 392.439 81.19C391.319 80.47 390.429 79.46 389.769 78.16C389.129 76.84 388.809 75.32 388.809 73.6C388.809 71.88 389.129 70.37 389.769 69.07C390.429 67.77 391.319 66.77 392.439 66.07C393.559 65.37 394.809 65.02 396.189 65.02ZM401.349 73.63C401.349 72.35 400.989 71.34 400.269 70.6C399.569 69.86 398.709 69.49 397.689 69.49C396.669 69.49 395.799 69.86 395.079 70.6C394.379 71.32 394.029 72.32 394.029 73.6C394.029 74.88 394.379 75.9 395.079 76.66C395.799 77.4 396.669 77.77 397.689 77.77C398.709 77.77 399.569 77.4 400.269 76.66C400.989 75.92 401.349 74.91 401.349 73.63ZM425.97 73.36C425.97 73.84 425.94 74.34 425.88 74.86H414.27C414.35 75.9 414.68 76.7 415.26 77.26C415.86 77.8 416.59 78.07 417.45 78.07C418.73 78.07 419.62 77.53 420.12 76.45H425.58C425.3 77.55 424.79 78.54 424.05 79.42C423.33 80.3 422.42 80.99 421.32 81.49C420.22 81.99 418.99 82.24 417.63 82.24C415.99 82.24 414.53 81.89 413.25 81.19C411.97 80.49 410.97 79.49 410.25 78.19C409.53 76.89 409.17 75.37 409.17 73.63C409.17 71.89 409.52 70.37 410.22 69.07C410.94 67.77 411.94 66.77 413.22 66.07C414.5 65.37 415.97 65.02 417.63 65.02C419.25 65.02 420.69 65.36 421.95 66.04C423.21 66.72 424.19 67.69 424.89 68.95C425.61 70.21 425.97 71.68 425.97 73.36ZM420.72 72.01C420.72 71.13 420.42 70.43 419.82 69.91C419.22 69.39 418.47 69.13 417.57 69.13C416.71 69.13 415.98 69.38 415.38 69.88C414.8 70.38 414.44 71.09 414.3 72.01H420.72ZM252.616 123.28H244.756L243.496 127H238.126L245.746 105.94H251.686L259.306 127H253.876L252.616 123.28ZM251.296 119.32L248.686 111.61L246.106 119.32H251.296ZM266.756 105.94V127H261.626V105.94H266.756ZM300.861 110.26L296.331 127H290.661L288.021 116.14L285.291 127H279.651L275.091 110.26H280.221L282.591 122.23L285.411 110.26H290.841L293.691 122.17L296.031 110.26H300.861ZM313.107 110.08C315.027 110.08 316.567 110.72 317.727 112C318.887 113.26 319.467 115 319.467 117.22V127H314.367V117.91C314.367 116.79 314.077 115.92 313.497 115.3C312.917 114.68 312.137 114.37 311.157 114.37C310.177 114.37 309.397 114.68 308.817 115.3C308.237 115.92 307.947 116.79 307.947 117.91V127H302.817V104.8H307.947V112.51C308.467 111.77 309.177 111.18 310.077 110.74C310.977 110.3 311.987 110.08 313.107 110.08ZM325.612 108.52C324.712 108.52 323.972 108.26 323.392 107.74C322.832 107.2 322.552 106.54 322.552 105.76C322.552 104.96 322.832 104.3 323.392 103.78C323.972 103.24 324.712 102.97 325.612 102.97C326.492 102.97 327.212 103.24 327.772 103.78C328.352 104.3 328.642 104.96 328.642 105.76C328.642 106.54 328.352 107.2 327.772 107.74C327.212 108.26 326.492 108.52 325.612 108.52ZM328.162 110.26V127H323.032V110.26H328.162ZM337.01 104.8V127H331.88V104.8H337.01ZM356.507 118.36C356.507 118.84 356.477 119.34 356.417 119.86H344.807C344.887 120.9 345.217 121.7 345.797 122.26C346.397 122.8 347.127 123.07 347.987 123.07C349.267 123.07 350.157 122.53 350.657 121.45H356.117C355.837 122.55 355.327 123.54 354.587 124.42C353.867 125.3 352.957 125.99 351.857 126.49C350.757 126.99 349.527 127.24 348.167 127.24C346.527 127.24 345.067 126.89 343.787 126.19C342.507 125.49 341.507 124.49 340.787 123.19C340.067 121.89 339.707 120.37 339.707 118.63C339.707 116.89 340.057 115.37 340.757 114.07C341.477 112.77 342.477 111.77 343.757 111.07C345.037 110.37 346.507 110.02 348.167 110.02C349.787 110.02 351.227 110.36 352.487 111.04C353.747 111.72 354.727 112.69 355.427 113.95C356.147 115.21 356.507 116.68 356.507 118.36ZM351.257 117.01C351.257 116.13 350.957 115.43 350.357 114.91C349.757 114.39 349.007 114.13 348.107 114.13C347.247 114.13 346.517 114.38 345.917 114.88C345.337 115.38 344.977 116.09 344.837 117.01H351.257ZM213.057 163.6C213.057 161.88 213.377 160.37 214.017 159.07C214.677 157.77 215.567 156.77 216.687 156.07C217.807 155.37 219.057 155.02 220.437 155.02C221.537 155.02 222.537 155.25 223.437 155.71C224.357 156.17 225.077 156.79 225.597 157.57V149.8H230.727V172H225.597V169.6C225.117 170.4 224.427 171.04 223.527 171.52C222.647 172 221.617 172.24 220.437 172.24C219.057 172.24 217.807 171.89 216.687 171.19C215.567 170.47 214.677 169.46 214.017 168.16C213.377 166.84 213.057 165.32 213.057 163.6ZM225.597 163.63C225.597 162.35 225.237 161.34 224.517 160.6C223.817 159.86 222.957 159.49 221.937 159.49C220.917 159.49 220.047 159.86 219.327 160.6C218.627 161.32 218.277 162.32 218.277 163.6C218.277 164.88 218.627 165.9 219.327 166.66C220.047 167.4 220.917 167.77 221.937 167.77C222.957 167.77 223.817 167.4 224.517 166.66C225.237 165.92 225.597 164.91 225.597 163.63ZM250.218 163.36C250.218 163.84 250.188 164.34 250.128 164.86H238.518C238.598 165.9 238.928 166.7 239.508 167.26C240.108 167.8 240.838 168.07 241.698 168.07C242.978 168.07 243.868 167.53 244.368 166.45H249.828C249.548 167.55 249.038 168.54 248.298 169.42C247.578 170.3 246.668 170.99 245.568 171.49C244.468 171.99 243.238 172.24 241.878 172.24C240.238 172.24 238.778 171.89 237.498 171.19C236.218 170.49 235.218 169.49 234.498 168.19C233.778 166.89 233.418 165.37 233.418 163.63C233.418 161.89 233.768 160.37 234.468 159.07C235.188 157.77 236.188 156.77 237.468 156.07C238.748 155.37 240.218 155.02 241.878 155.02C243.498 155.02 244.938 155.36 246.198 156.04C247.458 156.72 248.438 157.69 249.138 158.95C249.858 160.21 250.218 161.68 250.218 163.36ZM244.968 162.01C244.968 161.13 244.668 160.43 244.068 159.91C243.468 159.39 242.718 159.13 241.818 159.13C240.958 159.13 240.228 159.38 239.628 159.88C239.048 160.38 238.688 161.09 238.548 162.01H244.968ZM259.734 172.24C258.274 172.24 256.974 171.99 255.834 171.49C254.694 170.99 253.794 170.31 253.134 169.45C252.474 168.57 252.104 167.59 252.024 166.51H257.094C257.154 167.09 257.424 167.56 257.904 167.92C258.384 168.28 258.974 168.46 259.674 168.46C260.314 168.46 260.804 168.34 261.144 168.1C261.504 167.84 261.684 167.51 261.684 167.11C261.684 166.63 261.434 166.28 260.934 166.06C260.434 165.82 259.624 165.56 258.504 165.28C257.304 165 256.304 164.71 255.504 164.41C254.704 164.09 254.014 163.6 253.434 162.94C252.854 162.26 252.564 161.35 252.564 160.21C252.564 159.25 252.824 158.38 253.344 157.6C253.884 156.8 254.664 156.17 255.684 155.71C256.724 155.25 257.954 155.02 259.374 155.02C261.474 155.02 263.124 155.54 264.324 156.58C265.544 157.62 266.244 159 266.424 160.72H261.684C261.604 160.14 261.344 159.68 260.904 159.34C260.484 159 259.924 158.83 259.224 158.83C258.624 158.83 258.164 158.95 257.844 159.19C257.524 159.41 257.364 159.72 257.364 160.12C257.364 160.6 257.614 160.96 258.114 161.2C258.634 161.44 259.434 161.68 260.514 161.92C261.754 162.24 262.764 162.56 263.544 162.88C264.324 163.18 265.004 163.68 265.584 164.38C266.184 165.06 266.494 165.98 266.514 167.14C266.514 168.12 266.234 169 265.674 169.78C265.134 170.54 264.344 171.14 263.304 171.58C262.284 172.02 261.094 172.24 259.734 172.24ZM272.233 153.52C271.333 153.52 270.593 153.26 270.013 152.74C269.453 152.2 269.173 151.54 269.173 150.76C269.173 149.96 269.453 149.3 270.013 148.78C270.593 148.24 271.333 147.97 272.233 147.97C273.113 147.97 273.833 148.24 274.393 148.78C274.973 149.3 275.263 149.96 275.263 150.76C275.263 151.54 274.973 152.2 274.393 152.74C273.833 153.26 273.113 153.52 272.233 153.52ZM274.783 155.26V172H269.653V155.26H274.783ZM284.861 155.02C286.041 155.02 287.071 155.26 287.951 155.74C288.851 156.22 289.541 156.85 290.021 157.63V155.26H295.151V171.97C295.151 173.51 294.841 174.9 294.221 176.14C293.621 177.4 292.691 178.4 291.431 179.14C290.191 179.88 288.641 180.25 286.781 180.25C284.301 180.25 282.291 179.66 280.751 178.48C279.211 177.32 278.331 175.74 278.111 173.74H283.181C283.341 174.38 283.721 174.88 284.321 175.24C284.921 175.62 285.661 175.81 286.541 175.81C287.601 175.81 288.441 175.5 289.061 174.88C289.701 174.28 290.021 173.31 290.021 171.97V169.6C289.521 170.38 288.831 171.02 287.951 171.52C287.071 172 286.041 172.24 284.861 172.24C283.481 172.24 282.231 171.89 281.111 171.19C279.991 170.47 279.101 169.46 278.441 168.16C277.801 166.84 277.481 165.32 277.481 163.6C277.481 161.88 277.801 160.37 278.441 159.07C279.101 157.77 279.991 156.77 281.111 156.07C282.231 155.37 283.481 155.02 284.861 155.02ZM290.021 163.63C290.021 162.35 289.661 161.34 288.941 160.6C288.241 159.86 287.381 159.49 286.361 159.49C285.341 159.49 284.471 159.86 283.751 160.6C283.051 161.32 282.701 162.32 282.701 163.6C282.701 164.88 283.051 165.9 283.751 166.66C284.471 167.4 285.341 167.77 286.361 167.77C287.381 167.77 288.241 167.4 288.941 166.66C289.661 165.92 290.021 164.91 290.021 163.63ZM309.062 155.08C311.022 155.08 312.582 155.72 313.742 157C314.922 158.26 315.512 160 315.512 162.22V172H310.412V162.91C310.412 161.79 310.122 160.92 309.542 160.3C308.962 159.68 308.182 159.37 307.202 159.37C306.222 159.37 305.442 159.68 304.862 160.3C304.282 160.92 303.992 161.79 303.992 162.91V172H298.862V155.26H303.992V157.48C304.512 156.74 305.212 156.16 306.092 155.74C306.972 155.3 307.962 155.08 309.062 155.08ZM321.657 153.52C320.757 153.52 320.017 153.26 319.437 152.74C318.877 152.2 318.597 151.54 318.597 150.76C318.597 149.96 318.877 149.3 319.437 148.78C320.017 148.24 320.757 147.97 321.657 147.97C322.537 147.97 323.257 148.24 323.817 148.78C324.397 149.3 324.687 149.96 324.687 150.76C324.687 151.54 324.397 152.2 323.817 152.74C323.257 153.26 322.537 153.52 321.657 153.52ZM324.207 155.26V172H319.077V155.26H324.207ZM338.124 155.08C340.084 155.08 341.644 155.72 342.804 157C343.984 158.26 344.574 160 344.574 162.22V172H339.474V162.91C339.474 161.79 339.184 160.92 338.604 160.3C338.024 159.68 337.244 159.37 336.264 159.37C335.284 159.37 334.504 159.68 333.924 160.3C333.344 160.92 333.054 161.79 333.054 162.91V172H327.924V155.26H333.054V157.48C333.574 156.74 334.274 156.16 335.154 155.74C336.034 155.3 337.024 155.08 338.124 155.08ZM354.499 155.02C355.679 155.02 356.709 155.26 357.589 155.74C358.489 156.22 359.179 156.85 359.659 157.63V155.26H364.789V171.97C364.789 173.51 364.479 174.9 363.859 176.14C363.259 177.4 362.329 178.4 361.069 179.14C359.829 179.88 358.279 180.25 356.419 180.25C353.939 180.25 351.929 179.66 350.389 178.48C348.849 177.32 347.969 175.74 347.749 173.74H352.819C352.979 174.38 353.359 174.88 353.959 175.24C354.559 175.62 355.299 175.81 356.179 175.81C357.239 175.81 358.079 175.5 358.699 174.88C359.339 174.28 359.659 173.31 359.659 171.97V169.6C359.159 170.38 358.469 171.02 357.589 171.52C356.709 172 355.679 172.24 354.499 172.24C353.119 172.24 351.869 171.89 350.749 171.19C349.629 170.47 348.739 169.46 348.079 168.16C347.439 166.84 347.119 165.32 347.119 163.6C347.119 161.88 347.439 160.37 348.079 159.07C348.739 157.77 349.629 156.77 350.749 156.07C351.869 155.37 353.119 155.02 354.499 155.02ZM359.659 163.63C359.659 162.35 359.299 161.34 358.579 160.6C357.879 159.86 357.019 159.49 355.999 159.49C354.979 159.49 354.109 159.86 353.389 160.6C352.689 161.32 352.339 162.32 352.339 163.6C352.339 164.88 352.689 165.9 353.389 166.66C354.109 167.4 354.979 167.77 355.999 167.77C357.019 167.77 357.879 167.4 358.579 166.66C359.299 165.92 359.659 164.91 359.659 163.63ZM374.651 149.77C376.791 149.77 378.501 150.33 379.781 151.45C381.081 152.57 381.731 154.15 381.731 156.19C381.731 158.07 381.111 159.54 379.871 160.6C378.651 161.64 377.031 162.17 375.011 162.19L374.861 164.44H370.361L370.211 158.86H372.011C373.551 158.86 374.721 158.67 375.521 158.29C376.341 157.91 376.751 157.22 376.751 156.22C376.751 155.52 376.561 154.97 376.181 154.57C375.801 154.17 375.271 153.97 374.591 153.97C373.871 153.97 373.311 154.18 372.911 154.6C372.511 155 372.311 155.55 372.311 156.25H367.481C367.441 155.03 367.691 153.93 368.231 152.95C368.791 151.97 369.611 151.2 370.691 150.64C371.791 150.06 373.111 149.77 374.651 149.77ZM372.671 172.24C371.771 172.24 371.031 171.98 370.451 171.46C369.891 170.92 369.611 170.26 369.611 169.48C369.611 168.68 369.891 168.01 370.451 167.47C371.031 166.93 371.771 166.66 372.671 166.66C373.551 166.66 374.271 166.93 374.831 167.47C375.411 168.01 375.701 168.68 375.701 169.48C375.701 170.26 375.411 170.92 374.831 171.46C374.271 171.98 373.551 172.24 372.671 172.24Z" fill="black"/>
<path d="M695.5 220C656.438 220 618.254 213.578 585.775 201.546C553.296 189.514 527.982 172.412 513.034 152.404C498.086 132.395 494.174 110.379 501.795 89.1376C509.416 67.8967 528.226 48.3857 555.847 33.0718C583.467 17.758 618.658 7.32914 656.97 3.10406C695.281 -1.12102 734.992 1.04744 771.08 9.33524C807.168 17.623 838.014 31.6579 859.715 49.6651C881.417 67.6723 893 88.843 893 110.5C893 128.604 885.1 145.674 871.056 160.712L893 220L786.065 207.833C758.941 215.62 728.131 220 695.5 220Z" fill="#E8F5E9" stroke="black" stroke-width="2" stroke-linecap="round" stroke-linejoin="round"/>
<path d="M571.59 54.09L565.53 75H562.47L557.61 58.17L552.57 75L549.54 75.03L543.69 54.09H546.6L551.16 71.82L556.2 54.09H559.26L564.06 71.76L568.65 54.09H571.59ZM589.578 66.15C589.578 66.67 589.548 67.22 589.488 67.8H576.348C576.448 69.42 576.998 70.69 577.998 71.61C579.018 72.51 580.248 72.96 581.688 72.96C582.868 72.96 583.848 72.69 584.628 72.15C585.428 71.59 585.988 70.85 586.308 69.93H589.248C588.808 71.51 587.928 72.8 586.608 73.8C585.288 74.78 583.648 75.27 581.688 75.27C580.128 75.27 578.728 74.92 577.488 74.22C576.268 73.52 575.308 72.53 574.608 71.25C573.908 69.95 573.558 68.45 573.558 66.75C573.558 65.05 573.898 63.56 574.578 62.28C575.258 61 576.208 60.02 577.428 59.34C578.668 58.64 580.088 58.29 581.688 58.29C583.248 58.29 584.628 58.63 585.828 59.31C587.028 59.99 587.948 60.93 588.588 62.13C589.248 63.31 589.578 64.65 589.578 66.15ZM586.758 65.58C586.758 64.54 586.528 63.65 586.068 62.91C585.608 62.15 584.978 61.58 584.178 61.2C583.398 60.8 582.528 60.6 581.568 60.6C580.188 60.6 579.008 61.04 578.028 61.92C577.068 62.8 576.518 64.02 576.378 65.58H586.758ZM595.911 52.8V75H593.181V52.8H595.911ZM603.294 52.8V75H600.564V52.8H603.294ZM619.485 54.09L619.155 69.09H616.875L616.545 54.09H619.485ZM618.135 75.18C617.615 75.18 617.175 75 616.815 74.64C616.455 74.28 616.275 73.84 616.275 73.32C616.275 72.8 616.455 72.36 616.815 72C617.175 71.64 617.615 71.46 618.135 71.46C618.635 71.46 619.055 71.64 619.395 72C619.755 72.36 619.935 72.8 619.935 73.32C619.935 73.84 619.755 74.28 619.395 74.64C619.055 75 618.635 75.18 618.135 75.18ZM661.408 53.94L655.918 75H649.708L646.348 61.14L642.868 75H636.658L631.318 53.94H636.808L639.838 69.27L643.588 53.94H649.228L652.828 69.27L655.888 53.94H661.408ZM679.761 66.36C679.761 66.84 679.731 67.34 679.671 67.86H668.061C668.141 68.9 668.471 69.7 669.051 70.26C669.651 70.8 670.381 71.07 671.241 71.07C672.521 71.07 673.411 70.53 673.911 69.45H679.371C679.091 70.55 678.581 71.54 677.841 72.42C677.121 73.3 676.211 73.99 675.111 74.49C674.011 74.99 672.781 75.24 671.421 75.24C669.781 75.24 668.321 74.89 667.041 74.19C665.761 73.49 664.761 72.49 664.041 71.19C663.321 69.89 662.961 68.37 662.961 66.63C662.961 64.89 663.311 63.37 664.011 62.07C664.731 60.77 665.731 59.77 667.011 59.07C668.291 58.37 669.761 58.02 671.421 58.02C673.041 58.02 674.481 58.36 675.741 59.04C677.001 59.72 677.981 60.69 678.681 61.95C679.401 63.21 679.761 64.68 679.761 66.36ZM674.511 65.01C674.511 64.13 674.211 63.43 673.611 62.91C673.011 62.39 672.261 62.13 671.361 62.13C670.501 62.13 669.771 62.38 669.171 62.88C668.591 63.38 668.231 64.09 668.091 65.01H674.511ZM694.162 66.63C694.162 64.89 694.512 63.37 695.212 62.07C695.932 60.77 696.922 59.77 698.182 59.07C699.462 58.37 700.922 58.02 702.562 58.02C704.662 58.02 706.412 58.57 707.812 59.67C709.232 60.77 710.162 62.32 710.602 64.32H705.142C704.682 63.04 703.792 62.4 702.472 62.4C701.532 62.4 700.782 62.77 700.222 63.51C699.662 64.23 699.382 65.27 699.382 66.63C699.382 67.99 699.662 69.04 700.222 69.78C700.782 70.5 701.532 70.86 702.472 70.86C703.792 70.86 704.682 70.22 705.142 68.94H710.602C710.162 70.9 709.232 72.44 707.812 73.56C706.392 74.68 704.642 75.24 702.562 75.24C700.922 75.24 699.462 74.89 698.182 74.19C696.922 73.49 695.932 72.49 695.212 71.19C694.512 69.89 694.162 68.37 694.162 66.63ZM723.636 58.08C725.556 58.08 727.096 58.72 728.256 60C729.416 61.26 729.996 63 729.996 65.22V75H724.896V65.91C724.896 64.79 724.606 63.92 724.026 63.3C723.446 62.68 722.666 62.37 721.686 62.37C720.706 62.37 719.926 62.68 719.346 63.3C718.766 63.92 718.476 64.79 718.476 65.91V75H713.346V52.8H718.476V60.51C718.996 59.77 719.706 59.18 720.606 58.74C721.506 58.3 722.516 58.08 723.636 58.08ZM732.541 66.6C732.541 64.88 732.861 63.37 733.501 62.07C734.161 60.77 735.051 59.77 736.171 59.07C737.291 58.37 738.541 58.02 739.921 58.02C741.101 58.02 742.131 58.26 743.011 58.74C743.911 59.22 744.601 59.85 745.081 60.63V58.26H750.211V75H745.081V72.63C744.581 73.41 743.881 74.04 742.981 74.52C742.101 75 741.071 75.24 739.891 75.24C738.531 75.24 737.291 74.89 736.171 74.19C735.051 73.47 734.161 72.46 733.501 71.16C732.861 69.84 732.541 68.32 732.541 66.6ZM745.081 66.63C745.081 65.35 744.721 64.34 744.001 63.6C743.301 62.86 742.441 62.49 741.421 62.49C740.401 62.49 739.531 62.86 738.811 63.6C738.111 64.32 737.761 65.32 737.761 66.6C737.761 67.88 738.111 68.9 738.811 69.66C739.531 70.4 740.401 70.77 741.421 70.77C742.441 70.77 743.301 70.4 744.001 69.66C744.721 68.92 745.081 67.91 745.081 66.63ZM759.053 52.8V75H753.923V52.8H759.053ZM767.9 52.8V75H762.77V52.8H767.9ZM787.398 66.36C787.398 66.84 787.368 67.34 787.308 67.86H775.698C775.778 68.9 776.108 69.7 776.688 70.26C777.288 70.8 778.018 71.07 778.878 71.07C780.158 71.07 781.048 70.53 781.548 69.45H787.008C786.728 70.55 786.218 71.54 785.478 72.42C784.758 73.3 783.848 73.99 782.748 74.49C781.648 74.99 780.418 75.24 779.058 75.24C777.418 75.24 775.958 74.89 774.678 74.19C773.398 73.49 772.398 72.49 771.678 71.19C770.958 69.89 770.598 68.37 770.598 66.63C770.598 64.89 770.948 63.37 771.648 62.07C772.368 60.77 773.368 59.77 774.648 59.07C775.928 58.37 777.398 58.02 779.058 58.02C780.678 58.02 782.118 58.36 783.378 59.04C784.638 59.72 785.618 60.69 786.318 61.95C787.038 63.21 787.398 64.68 787.398 66.36ZM782.148 65.01C782.148 64.13 781.848 63.43 781.248 62.91C780.648 62.39 779.898 62.13 778.998 62.13C778.138 62.13 777.408 62.38 776.808 62.88C776.228 63.38 775.868 64.09 775.728 65.01H782.148ZM800.304 58.08C802.264 58.08 803.824 58.72 804.984 60C806.164 61.26 806.754 63 806.754 65.22V75H801.654V65.91C801.654 64.79 801.364 63.92 800.784 63.3C800.204 62.68 799.424 62.37 798.444 62.37C797.464 62.37 796.684 62.68 796.104 63.3C795.524 63.92 795.234 64.79 795.234 65.91V75H790.104V58.26H795.234V60.48C795.754 59.74 796.454 59.16 797.334 58.74C798.214 58.3 799.204 58.08 800.304 58.08ZM816.679 58.02C817.859 58.02 818.889 58.26 819.769 58.74C820.669 59.22 821.359 59.85 821.839 60.63V58.26H826.969V74.97C826.969 76.51 826.659 77.9 826.039 79.14C825.439 80.4 824.509 81.4 823.249 82.14C822.009 82.88 820.459 83.25 818.599 83.25C816.119 83.25 814.109 82.66 812.569 81.48C811.029 80.32 810.149 78.74 809.929 76.74H814.999C815.159 77.38 815.539 77.88 816.139 78.24C816.739 78.62 817.479 78.81 818.359 78.81C819.419 78.81 820.259 78.5 820.879 77.88C821.519 77.28 821.839 76.31 821.839 74.97V72.6C821.339 73.38 820.649 74.02 819.769 74.52C818.889 75 817.859 75.24 816.679 75.24C815.299 75.24 814.049 74.89 812.929 74.19C811.809 73.47 810.919 72.46 810.259 71.16C809.619 69.84 809.299 68.32 809.299 66.6C809.299 64.88 809.619 63.37 810.259 62.07C810.919 60.77 811.809 59.77 812.929 59.07C814.049 58.37 815.299 58.02 816.679 58.02ZM821.839 66.63C821.839 65.35 821.479 64.34 820.759 63.6C820.059 62.86 819.199 62.49 818.179 62.49C817.159 62.49 816.289 62.86 815.569 63.6C814.869 64.32 814.519 65.32 814.519 66.6C814.519 67.88 814.869 68.9 815.569 69.66C816.289 70.4 817.159 70.77 818.179 70.77C819.199 70.77 820.059 70.4 820.759 69.66C821.479 68.92 821.839 67.91 821.839 66.63ZM846.46 66.36C846.46 66.84 846.43 67.34 846.37 67.86H834.76C834.84 68.9 835.17 69.7 835.75 70.26C836.35 70.8 837.08 71.07 837.94 71.07C839.22 71.07 840.11 70.53 840.61 69.45H846.07C845.79 70.55 845.28 71.54 844.54 72.42C843.82 73.3 842.91 73.99 841.81 74.49C840.71 74.99 839.48 75.24 838.12 75.24C836.48 75.24 835.02 74.89 833.74 74.19C832.46 73.49 831.46 72.49 830.74 71.19C830.02 69.89 829.66 68.37 829.66 66.63C829.66 64.89 830.01 63.37 830.71 62.07C831.43 60.77 832.43 59.77 833.71 59.07C834.99 58.37 836.46 58.02 838.12 58.02C839.74 58.02 841.18 58.36 842.44 59.04C843.7 59.72 844.68 60.69 845.38 61.95C846.1 63.21 846.46 64.68 846.46 66.36ZM841.21 65.01C841.21 64.13 840.91 63.43 840.31 62.91C839.71 62.39 838.96 62.13 838.06 62.13C837.2 62.13 836.47 62.38 835.87 62.88C835.29 63.38 834.93 64.09 834.79 65.01H841.21ZM557.97 116.28H550.11L548.85 120H543.48L551.1 98.94H557.04L564.66 120H559.23L557.97 116.28ZM556.65 112.32L554.04 104.61L551.46 112.32H556.65ZM572.109 98.94V120H566.979V98.94H572.109ZM591.514 115.65V120H588.904C587.044 120 585.594 119.55 584.554 118.65C583.514 117.73 582.994 116.24 582.994 114.18V107.52H580.954V103.26H582.994V99.18H588.124V103.26H591.484V107.52H588.124V114.24C588.124 114.74 588.244 115.1 588.484 115.32C588.724 115.54 589.124 115.65 589.684 115.65H591.514ZM601.992 120.24C600.352 120.24 598.872 119.89 597.552 119.19C596.252 118.49 595.222 117.49 594.462 116.19C593.722 114.89 593.352 113.37 593.352 111.63C593.352 109.91 593.732 108.4 594.492 107.1C595.252 105.78 596.292 104.77 597.612 104.07C598.932 103.37 600.412 103.02 602.052 103.02C603.692 103.02 605.172 103.37 606.492 104.07C607.812 104.77 608.852 105.78 609.612 107.1C610.372 108.4 610.752 109.91 610.752 111.63C610.752 113.35 610.362 114.87 609.582 116.19C608.822 117.49 607.772 118.49 606.432 119.19C605.112 119.89 603.632 120.24 601.992 120.24ZM601.992 115.8C602.972 115.8 603.802 115.44 604.482 114.72C605.182 114 605.532 112.97 605.532 111.63C605.532 110.29 605.192 109.26 604.512 108.54C603.852 107.82 603.032 107.46 602.052 107.46C601.052 107.46 600.222 107.82 599.562 108.54C598.902 109.24 598.572 110.27 598.572 111.63C598.572 112.97 598.892 114 599.532 114.72C600.192 115.44 601.012 115.8 601.992 115.8ZM618.811 111.63C618.811 109.89 619.161 108.37 619.861 107.07C620.581 105.77 621.571 104.77 622.831 104.07C624.111 103.37 625.571 103.02 627.211 103.02C629.311 103.02 631.061 103.57 632.461 104.67C633.881 105.77 634.811 107.32 635.251 109.32H629.791C629.331 108.04 628.441 107.4 627.121 107.4C626.181 107.4 625.431 107.77 624.871 108.51C624.311 109.23 624.031 110.27 624.031 111.63C624.031 112.99 624.311 114.04 624.871 114.78C625.431 115.5 626.181 115.86 627.121 115.86C628.441 115.86 629.331 115.22 629.791 113.94H635.251C634.811 115.9 633.881 117.44 632.461 118.56C631.041 119.68 629.291 120.24 627.211 120.24C625.571 120.24 624.111 119.89 622.831 119.19C621.571 118.49 620.581 117.49 619.861 116.19C619.161 114.89 618.811 113.37 618.811 111.63ZM643.125 106.05C643.725 105.13 644.475 104.41 645.375 103.89C646.275 103.35 647.275 103.08 648.375 103.08V108.51H646.965C645.685 108.51 644.725 108.79 644.085 109.35C643.445 109.89 643.125 110.85 643.125 112.23V120H637.995V103.26H643.125V106.05ZM666.607 111.36C666.607 111.84 666.577 112.34 666.517 112.86H654.907C654.987 113.9 655.317 114.7 655.897 115.26C656.497 115.8 657.227 116.07 658.087 116.07C659.367 116.07 660.257 115.53 660.757 114.45H666.217C665.937 115.55 665.427 116.54 664.687 117.42C663.967 118.3 663.057 118.99 661.957 119.49C660.857 119.99 659.627 120.24 658.267 120.24C656.627 120.24 655.167 119.89 653.887 119.19C652.607 118.49 651.607 117.49 650.887 116.19C650.167 114.89 649.807 113.37 649.807 111.63C649.807 109.89 650.157 108.37 650.857 107.07C651.577 105.77 652.577 104.77 653.857 104.07C655.137 103.37 656.607 103.02 658.267 103.02C659.887 103.02 661.327 103.36 662.587 104.04C663.847 104.72 664.827 105.69 665.527 106.95C666.247 108.21 666.607 109.68 666.607 111.36ZM661.357 110.01C661.357 109.13 661.057 108.43 660.457 107.91C659.857 107.39 659.107 107.13 658.207 107.13C657.347 107.13 656.617 107.38 656.017 107.88C655.437 108.38 655.077 109.09 654.937 110.01H661.357ZM668.293 111.6C668.293 109.88 668.613 108.37 669.253 107.07C669.913 105.77 670.803 104.77 671.923 104.07C673.043 103.37 674.293 103.02 675.673 103.02C676.853 103.02 677.883 103.26 678.763 103.74C679.663 104.22 680.353 104.85 680.833 105.63V103.26H685.963V120H680.833V117.63C680.333 118.41 679.633 119.04 678.733 119.52C677.853 120 676.823 120.24 675.643 120.24C674.283 120.24 673.043 119.89 671.923 119.19C670.803 118.47 669.913 117.46 669.253 116.16C668.613 114.84 668.293 113.32 668.293 111.6ZM680.833 111.63C680.833 110.35 680.473 109.34 679.753 108.6C679.053 107.86 678.193 107.49 677.173 107.49C676.153 107.49 675.283 107.86 674.563 108.6C673.863 109.32 673.513 110.32 673.513 111.6C673.513 112.88 673.863 113.9 674.563 114.66C675.283 115.4 676.153 115.77 677.173 115.77C678.193 115.77 679.053 115.4 679.753 114.66C680.473 113.92 680.833 112.91 680.833 111.63ZM699.004 115.65V120H696.394C694.534 120 693.084 119.55 692.044 118.65C691.004 117.73 690.484 116.24 690.484 114.18V107.52H688.444V103.26H690.484V99.18H695.614V103.26H698.974V107.52H695.614V114.24C695.614 114.74 695.734 115.1 695.974 115.32C696.214 115.54 696.614 115.65 697.174 115.65H699.004ZM717.642 111.36C717.642 111.84 717.612 112.34 717.552 112.86H705.942C706.022 113.9 706.352 114.7 706.932 115.26C707.532 115.8 708.262 116.07 709.122 116.07C710.402 116.07 711.292 115.53 711.792 114.45H717.252C716.972 115.55 716.462 116.54 715.722 117.42C715.002 118.3 714.092 118.99 712.992 119.49C711.892 119.99 710.662 120.24 709.302 120.24C707.662 120.24 706.202 119.89 704.922 119.19C703.642 118.49 702.642 117.49 701.922 116.19C701.202 114.89 700.842 113.37 700.842 111.63C700.842 109.89 701.192 108.37 701.892 107.07C702.612 105.77 703.612 104.77 704.892 104.07C706.172 103.37 707.642 103.02 709.302 103.02C710.922 103.02 712.362 103.36 713.622 104.04C714.882 104.72 715.862 105.69 716.562 106.95C717.282 108.21 717.642 109.68 717.642 111.36ZM712.392 110.01C712.392 109.13 712.092 108.43 711.492 107.91C710.892 107.39 710.142 107.13 709.242 107.13C708.382 107.13 707.652 107.38 707.052 107.88C706.472 108.38 706.112 109.09 705.972 110.01H712.392ZM729.286 101.52C728.386 101.52 727.646 101.26 727.066 100.74C726.506 100.2 726.226 99.54 726.226 98.76C726.226 97.96 726.506 97.3 727.066 96.78C727.646 96.24 728.386 95.97 729.286 95.97C730.166 95.97 730.886 96.24 731.446 96.78C732.026 97.3 732.316 97.96 732.316 98.76C732.316 99.54 732.026 100.2 731.446 100.74C730.886 101.26 730.166 101.52 729.286 101.52ZM731.836 103.26V120H726.706V103.26H731.836ZM734.533 111.63C734.533 109.89 734.883 108.37 735.583 107.07C736.303 105.77 737.293 104.77 738.553 104.07C739.833 103.37 741.293 103.02 742.933 103.02C745.033 103.02 746.783 103.57 748.183 104.67C749.603 105.77 750.533 107.32 750.973 109.32H745.513C745.053 108.04 744.163 107.4 742.843 107.4C741.903 107.4 741.153 107.77 740.593 108.51C740.033 109.23 739.753 110.27 739.753 111.63C739.753 112.99 740.033 114.04 740.593 114.78C741.153 115.5 741.903 115.86 742.843 115.86C744.163 115.86 745.053 115.22 745.513 113.94H750.973C750.533 115.9 749.603 117.44 748.183 118.56C746.763 119.68 745.013 120.24 742.933 120.24C741.293 120.24 739.833 119.89 738.553 119.19C737.293 118.49 736.303 117.49 735.583 116.19C734.883 114.89 734.533 113.37 734.533 111.63ZM761.337 120.24C759.697 120.24 758.217 119.89 756.897 119.19C755.597 118.49 754.567 117.49 753.807 116.19C753.067 114.89 752.697 113.37 752.697 111.63C752.697 109.91 753.077 108.4 753.837 107.1C754.597 105.78 755.637 104.77 756.957 104.07C758.277 103.37 759.757 103.02 761.397 103.02C763.037 103.02 764.517 103.37 765.837 104.07C767.157 104.77 768.197 105.78 768.957 107.1C769.717 108.4 770.097 109.91 770.097 111.63C770.097 113.35 769.707 114.87 768.927 116.19C768.167 117.49 767.117 118.49 765.777 119.19C764.457 119.89 762.977 120.24 761.337 120.24ZM761.337 115.8C762.317 115.8 763.147 115.44 763.827 114.72C764.527 114 764.877 112.97 764.877 111.63C764.877 110.29 764.537 109.26 763.857 108.54C763.197 107.82 762.377 107.46 761.397 107.46C760.397 107.46 759.567 107.82 758.907 108.54C758.247 109.24 757.917 110.27 757.917 111.63C757.917 112.97 758.237 114 758.877 114.72C759.537 115.44 760.357 115.8 761.337 115.8ZM783.019 103.08C784.979 103.08 786.539 103.72 787.699 105C788.879 106.26 789.469 108 789.469 110.22V120H784.369V110.91C784.369 109.79 784.079 108.92 783.499 108.3C782.919 107.68 782.139 107.37 781.159 107.37C780.179 107.37 779.399 107.68 778.819 108.3C778.239 108.92 777.949 109.79 777.949 110.91V120H772.819V103.26H777.949V105.48C778.469 104.74 779.169 104.16 780.049 103.74C780.929 103.3 781.919 103.08 783.019 103.08ZM799.844 120.24C798.384 120.24 797.084 119.99 795.944 119.49C794.804 118.99 793.904 118.31 793.244 117.45C792.584 116.57 792.214 115.59 792.134 114.51H797.204C797.264 115.09 797.534 115.56 798.014 115.92C798.494 116.28 799.084 116.46 799.784 116.46C800.424 116.46 800.914 116.34 801.254 116.1C801.614 115.84 801.794 115.51 801.794 115.11C801.794 114.63 801.544 114.28 801.044 114.06C800.544 113.82 799.734 113.56 798.614 113.28C797.414 113 796.414 112.71 795.614 112.41C794.814 112.09 794.124 111.6 793.544 110.94C792.964 110.26 792.674 109.35 792.674 108.21C792.674 107.25 792.934 106.38 793.454 105.6C793.994 104.8 794.774 104.17 795.794 103.71C796.834 103.25 798.064 103.02 799.484 103.02C801.584 103.02 803.234 103.54 804.434 104.58C805.654 105.62 806.354 107 806.534 108.72H801.794C801.714 108.14 801.454 107.68 801.014 107.34C800.594 107 800.034 106.83 799.334 106.83C798.734 106.83 798.274 106.95 797.954 107.19C797.634 107.41 797.474 107.72 797.474 108.12C797.474 108.6 797.724 108.96 798.224 109.2C798.744 109.44 799.544 109.68 800.624 109.92C801.864 110.24 802.874 110.56 803.654 110.88C804.434 111.18 805.114 111.68 805.694 112.38C806.294 113.06 806.604 113.98 806.624 115.14C806.624 116.12 806.344 117 805.784 117.78C805.244 118.54 804.454 119.14 803.414 119.58C802.394 120.02 801.204 120.24 799.844 120.24ZM824.9 105.81H821.45V120H818.72V105.81H816.59V103.56H818.72V102.39C818.72 100.55 819.19 99.21 820.13 98.37C821.09 97.51 822.62 97.08 824.72 97.08V99.36C823.52 99.36 822.67 99.6 822.17 100.08C821.69 100.54 821.45 101.31 821.45 102.39V103.56H824.9V105.81ZM835.253 120.27C833.713 120.27 832.313 119.92 831.053 119.22C829.813 118.52 828.833 117.53 828.113 116.25C827.413 114.95 827.063 113.45 827.063 111.75C827.063 110.07 827.423 108.59 828.143 107.31C828.883 106.01 829.883 105.02 831.143 104.34C832.403 103.64 833.813 103.29 835.373 103.29C836.933 103.29 838.343 103.64 839.603 104.34C840.863 105.02 841.853 106 842.573 107.28C843.313 108.56 843.683 110.05 843.683 111.75C843.683 113.45 843.303 114.95 842.543 116.25C841.803 117.53 840.793 118.52 839.513 119.22C838.233 119.92 836.813 120.27 835.253 120.27ZM835.253 117.87C836.233 117.87 837.153 117.64 838.013 117.18C838.873 116.72 839.563 116.03 840.083 115.11C840.623 114.19 840.893 113.07 840.893 111.75C840.893 110.43 840.633 109.31 840.113 108.39C839.593 107.47 838.913 106.79 838.073 106.35C837.233 105.89 836.323 105.66 835.343 105.66C834.343 105.66 833.423 105.89 832.583 106.35C831.763 106.79 831.103 107.47 830.603 108.39C830.103 109.31 829.853 110.43 829.853 111.75C829.853 113.09 830.093 114.22 830.573 115.14C831.073 116.06 831.733 116.75 832.553 117.21C833.373 117.65 834.273 117.87 835.253 117.87ZM850.003 106.23C850.483 105.29 851.163 104.56 852.043 104.04C852.943 103.52 854.033 103.26 855.313 103.26V106.08H854.593C851.533 106.08 850.003 107.74 850.003 111.06V120H847.273V103.56H850.003V106.23ZM548.04 151.59C548.58 150.65 549.38 149.87 550.44 149.25C551.52 148.61 552.77 148.29 554.19 148.29C555.65 148.29 556.97 148.64 558.15 149.34C559.35 150.04 560.29 151.03 560.97 152.31C561.65 153.57 561.99 155.04 561.99 156.72C561.99 158.38 561.65 159.86 560.97 161.16C560.29 162.46 559.35 163.47 558.15 164.19C556.97 164.91 555.65 165.27 554.19 165.27C552.79 165.27 551.55 164.96 550.47 164.34C549.41 163.7 548.6 162.91 548.04 161.97V172.8H545.31V148.56H548.04V151.59ZM559.2 156.72C559.2 155.48 558.95 154.4 558.45 153.48C557.95 152.56 557.27 151.86 556.41 151.38C555.57 150.9 554.64 150.66 553.62 150.66C552.62 150.66 551.69 150.91 550.83 151.41C549.99 151.89 549.31 152.6 548.79 153.54C548.29 154.46 548.04 155.53 548.04 156.75C548.04 157.99 548.29 159.08 548.79 160.02C549.31 160.94 549.99 161.65 550.83 162.15C551.69 162.63 552.62 162.87 553.62 162.87C554.64 162.87 555.57 162.63 556.41 162.15C557.27 161.65 557.95 160.94 558.45 160.02C558.95 159.08 559.2 157.98 559.2 156.72ZM580.583 156.15C580.583 156.67 580.553 157.22 580.493 157.8H567.353C567.453 159.42 568.003 160.69 569.003 161.61C570.023 162.51 571.253 162.96 572.693 162.96C573.873 162.96 574.853 162.69 575.633 162.15C576.433 161.59 576.993 160.85 577.313 159.93H580.253C579.813 161.51 578.933 162.8 577.613 163.8C576.293 164.78 574.653 165.27 572.693 165.27C571.133 165.27 569.733 164.92 568.493 164.22C567.273 163.52 566.313 162.53 565.613 161.25C564.913 159.95 564.563 158.45 564.563 156.75C564.563 155.05 564.903 153.56 565.583 152.28C566.263 151 567.213 150.02 568.433 149.34C569.673 148.64 571.093 148.29 572.693 148.29C574.253 148.29 575.633 148.63 576.833 149.31C578.033 149.99 578.953 150.93 579.593 152.13C580.253 153.31 580.583 154.65 580.583 156.15ZM577.763 155.58C577.763 154.54 577.533 153.65 577.073 152.91C576.613 152.15 575.983 151.58 575.183 151.2C574.403 150.8 573.533 150.6 572.573 150.6C571.193 150.6 570.013 151.04 569.033 151.92C568.073 152.8 567.523 154.02 567.383 155.58H577.763ZM586.917 151.23C587.397 150.29 588.077 149.56 588.957 149.04C589.857 148.52 590.947 148.26 592.227 148.26V151.08H591.507C588.447 151.08 586.917 152.74 586.917 156.06V165H584.187V148.56H586.917V151.23ZM606.106 151.59C606.646 150.65 607.446 149.87 608.506 149.25C609.586 148.61 610.836 148.29 612.256 148.29C613.716 148.29 615.036 148.64 616.216 149.34C617.416 150.04 618.356 151.03 619.036 152.31C619.716 153.57 620.056 155.04 620.056 156.72C620.056 158.38 619.716 159.86 619.036 161.16C618.356 162.46 617.416 163.47 616.216 164.19C615.036 164.91 613.716 165.27 612.256 165.27C610.856 165.27 609.616 164.96 608.536 164.34C607.476 163.7 606.666 162.91 606.106 161.97V172.8H603.376V148.56H606.106V151.59ZM617.266 156.72C617.266 155.48 617.016 154.4 616.516 153.48C616.016 152.56 615.336 151.86 614.476 151.38C613.636 150.9 612.706 150.66 611.686 150.66C610.686 150.66 609.756 150.91 608.896 151.41C608.056 151.89 607.376 152.6 606.856 153.54C606.356 154.46 606.106 155.53 606.106 156.75C606.106 157.99 606.356 159.08 606.856 160.02C607.376 160.94 608.056 161.65 608.896 162.15C609.756 162.63 610.686 162.87 611.686 162.87C612.706 162.87 613.636 162.63 614.476 162.15C615.336 161.65 616.016 160.94 616.516 160.02C617.016 159.08 617.266 157.98 617.266 156.72ZM638.65 156.15C638.65 156.67 638.62 157.22 638.56 157.8H625.42C625.52 159.42 626.07 160.69 627.07 161.61C628.09 162.51 629.32 162.96 630.76 162.96C631.94 162.96 632.92 162.69 633.7 162.15C634.5 161.59 635.06 160.85 635.38 159.93H638.32C637.88 161.51 637 162.8 635.68 163.8C634.36 164.78 632.72 165.27 630.76 165.27C629.2 165.27 627.8 164.92 626.56 164.22C625.34 163.52 624.38 162.53 623.68 161.25C622.98 159.95 622.63 158.45 622.63 156.75C622.63 155.05 622.97 153.56 623.65 152.28C624.33 151 625.28 150.02 626.5 149.34C627.74 148.64 629.16 148.29 630.76 148.29C632.32 148.29 633.7 148.63 634.9 149.31C636.1 149.99 637.02 150.93 637.66 152.13C638.32 153.31 638.65 154.65 638.65 156.15ZM635.83 155.58C635.83 154.54 635.6 153.65 635.14 152.91C634.68 152.15 634.05 151.58 633.25 151.2C632.47 150.8 631.6 150.6 630.64 150.6C629.26 150.6 628.08 151.04 627.1 151.92C626.14 152.8 625.59 154.02 625.45 155.58H635.83ZM644.983 151.23C645.463 150.29 646.143 149.56 647.023 149.04C647.923 148.52 649.013 148.26 650.293 148.26V151.08H649.573C646.513 151.08 644.983 152.74 644.983 156.06V165H642.253V148.56H644.983V151.23ZM659.265 165.27C658.005 165.27 656.875 165.06 655.875 164.64C654.875 164.2 654.085 163.6 653.505 162.84C652.925 162.06 652.605 161.17 652.545 160.17H655.365C655.445 160.99 655.825 161.66 656.505 162.18C657.205 162.7 658.115 162.96 659.235 162.96C660.275 162.96 661.095 162.73 661.695 162.27C662.295 161.81 662.595 161.23 662.595 160.53C662.595 159.81 662.275 159.28 661.635 158.94C660.995 158.58 660.005 158.23 658.665 157.89C657.445 157.57 656.445 157.25 655.665 156.93C654.905 156.59 654.245 156.1 653.685 155.46C653.145 154.8 652.875 153.94 652.875 152.88C652.875 152.04 653.125 151.27 653.625 150.57C654.125 149.87 654.835 149.32 655.755 148.92C656.675 148.5 657.725 148.29 658.905 148.29C660.725 148.29 662.195 148.75 663.315 149.67C664.435 150.59 665.035 151.85 665.115 153.45H662.385C662.325 152.59 661.975 151.9 661.335 151.38C660.715 150.86 659.875 150.6 658.815 150.6C657.835 150.6 657.055 150.81 656.475 151.23C655.895 151.65 655.605 152.2 655.605 152.88C655.605 153.42 655.775 153.87 656.115 154.23C656.475 154.57 656.915 154.85 657.435 155.07C657.975 155.27 658.715 155.5 659.655 155.76C660.835 156.08 661.795 156.4 662.535 156.72C663.275 157.02 663.905 157.48 664.425 158.1C664.965 158.72 665.245 159.53 665.265 160.53C665.265 161.43 665.015 162.24 664.515 162.96C664.015 163.68 663.305 164.25 662.385 164.67C661.485 165.07 660.445 165.27 659.265 165.27ZM676.289 165.27C674.749 165.27 673.349 164.92 672.089 164.22C670.849 163.52 669.869 162.53 669.149 161.25C668.449 159.95 668.099 158.45 668.099 156.75C668.099 155.07 668.459 153.59 669.179 152.31C669.919 151.01 670.919 150.02 672.179 149.34C673.439 148.64 674.849 148.29 676.409 148.29C677.969 148.29 679.379 148.64 680.639 149.34C681.899 150.02 682.889 151 683.609 152.28C684.349 153.56 684.719 155.05 684.719 156.75C684.719 158.45 684.339 159.95 683.579 161.25C682.839 162.53 681.829 163.52 680.549 164.22C679.269 164.92 677.849 165.27 676.289 165.27ZM676.289 162.87C677.269 162.87 678.189 162.64 679.049 162.18C679.909 161.72 680.599 161.03 681.119 160.11C681.659 159.19 681.929 158.07 681.929 156.75C681.929 155.43 681.669 154.31 681.149 153.39C680.629 152.47 679.949 151.79 679.109 151.35C678.269 150.89 677.359 150.66 676.379 150.66C675.379 150.66 674.459 150.89 673.619 151.35C672.799 151.79 672.139 152.47 671.639 153.39C671.139 154.31 670.889 155.43 670.889 156.75C670.889 158.09 671.129 159.22 671.609 160.14C672.109 161.06 672.769 161.75 673.589 162.21C674.409 162.65 675.309 162.87 676.289 162.87ZM696.318 148.26C698.318 148.26 699.938 148.87 701.178 150.09C702.418 151.29 703.038 153.03 703.038 155.31V165H700.338V155.7C700.338 154.06 699.928 152.81 699.108 151.95C698.288 151.07 697.168 150.63 695.748 150.63C694.308 150.63 693.158 151.08 692.298 151.98C691.458 152.88 691.038 154.19 691.038 155.91V165H688.308V148.56H691.038V150.9C691.578 150.06 692.308 149.41 693.228 148.95C694.168 148.49 695.198 148.26 696.318 148.26ZM718.226 151.59C718.766 150.65 719.566 149.87 720.626 149.25C721.706 148.61 722.956 148.29 724.376 148.29C725.836 148.29 727.156 148.64 728.336 149.34C729.536 150.04 730.476 151.03 731.156 152.31C731.836 153.57 732.176 155.04 732.176 156.72C732.176 158.38 731.836 159.86 731.156 161.16C730.476 162.46 729.536 163.47 728.336 164.19C727.156 164.91 725.836 165.27 724.376 165.27C722.976 165.27 721.736 164.96 720.656 164.34C719.596 163.7 718.786 162.91 718.226 161.97V172.8H715.496V148.56H718.226V151.59ZM729.386 156.72C729.386 155.48 729.136 154.4 728.636 153.48C728.136 152.56 727.456 151.86 726.596 151.38C725.756 150.9 724.826 150.66 723.806 150.66C722.806 150.66 721.876 150.91 721.016 151.41C720.176 151.89 719.496 152.6 718.976 153.54C718.476 154.46 718.226 155.53 718.226 156.75C718.226 157.99 718.476 159.08 718.976 160.02C719.496 160.94 720.176 161.65 721.016 162.15C721.876 162.63 722.806 162.87 723.806 162.87C724.826 162.87 725.756 162.63 726.596 162.15C727.456 161.65 728.136 160.94 728.636 160.02C729.136 159.08 729.386 157.98 729.386 156.72ZM750.769 156.15C750.769 156.67 750.739 157.22 750.679 157.8H737.539C737.639 159.42 738.189 160.69 739.189 161.61C740.209 162.51 741.439 162.96 742.879 162.96C744.059 162.96 745.039 162.69 745.819 162.15C746.619 161.59 747.179 160.85 747.499 159.93H750.439C749.999 161.51 749.119 162.8 747.799 163.8C746.479 164.78 744.839 165.27 742.879 165.27C741.319 165.27 739.919 164.92 738.679 164.22C737.459 163.52 736.499 162.53 735.799 161.25C735.099 159.95 734.749 158.45 734.749 156.75C734.749 155.05 735.089 153.56 735.769 152.28C736.449 151 737.399 150.02 738.619 149.34C739.859 148.64 741.279 148.29 742.879 148.29C744.439 148.29 745.819 148.63 747.019 149.31C748.219 149.99 749.139 150.93 749.779 152.13C750.439 153.31 750.769 154.65 750.769 156.15ZM747.949 155.58C747.949 154.54 747.719 153.65 747.259 152.91C746.799 152.15 746.169 151.58 745.369 151.2C744.589 150.8 743.719 150.6 742.759 150.6C741.379 150.6 740.199 151.04 739.219 151.92C738.259 152.8 737.709 154.02 737.569 155.58H747.949ZM757.103 151.23C757.583 150.29 758.263 149.56 759.143 149.04C760.043 148.52 761.133 148.26 762.413 148.26V151.08H761.693C758.633 151.08 757.103 152.74 757.103 156.06V165H754.373V148.56H757.103V151.23ZM772.542 156.72C772.542 155.04 772.882 153.57 773.562 152.31C774.242 151.03 775.172 150.04 776.352 149.34C777.552 148.64 778.892 148.29 780.372 148.29C781.652 148.29 782.842 148.59 783.942 149.19C785.042 149.77 785.882 150.54 786.462 151.5V142.8H789.222V165H786.462V161.91C785.922 162.89 785.122 163.7 784.062 164.34C783.002 164.96 781.762 165.27 780.342 165.27C778.882 165.27 777.552 164.91 776.352 164.19C775.172 163.47 774.242 162.46 773.562 161.16C772.882 159.86 772.542 158.38 772.542 156.72ZM786.462 156.75C786.462 155.51 786.212 154.43 785.712 153.51C785.212 152.59 784.532 151.89 783.672 151.41C782.832 150.91 781.902 150.66 780.882 150.66C779.862 150.66 778.932 150.9 778.092 151.38C777.252 151.86 776.582 152.56 776.082 153.48C775.582 154.4 775.332 155.48 775.332 156.72C775.332 157.98 775.582 159.08 776.082 160.02C776.582 160.94 777.252 161.65 778.092 162.15C778.932 162.63 779.862 162.87 780.882 162.87C781.902 162.87 782.832 162.63 783.672 162.15C784.532 161.65 785.212 160.94 785.712 160.02C786.212 159.08 786.462 157.99 786.462 156.75ZM792.815 156.72C792.815 155.04 793.155 153.57 793.835 152.31C794.515 151.03 795.445 150.04 796.625 149.34C797.825 148.64 799.155 148.29 800.615 148.29C802.055 148.29 803.305 148.6 804.365 149.22C805.425 149.84 806.215 150.62 806.735 151.56V148.56H809.495V165H806.735V161.94C806.195 162.9 805.385 163.7 804.305 164.34C803.245 164.96 802.005 165.27 800.585 165.27C799.125 165.27 797.805 164.91 796.625 164.19C795.445 163.47 794.515 162.46 793.835 161.16C793.155 159.86 792.815 158.38 792.815 156.72ZM806.735 156.75C806.735 155.51 806.485 154.43 805.985 153.51C805.485 152.59 804.805 151.89 803.945 151.41C803.105 150.91 802.175 150.66 801.155 150.66C800.135 150.66 799.205 150.9 798.365 151.38C797.525 151.86 796.855 152.56 796.355 153.48C795.855 154.4 795.605 155.48 795.605 156.72C795.605 157.98 795.855 159.08 796.355 160.02C796.855 160.94 797.525 161.65 798.365 162.15C799.205 162.63 800.135 162.87 801.155 162.87C802.175 162.87 803.105 162.63 803.945 162.15C804.805 161.65 805.485 160.94 805.985 160.02C806.485 159.08 806.735 157.99 806.735 156.75ZM828.269 148.56L818.369 172.74H815.549L818.789 164.82L812.159 148.56H815.189L820.349 161.88L825.449 148.56H828.269Z" fill="black"/>
</svg>
