<svg width="995" height="805" viewBox="0 0 995 805" fill="none" xmlns="http://www.w3.org/2000/svg">
<path d="M297.5 220C333.991 220 369.662 213.578 400.003 201.546C430.343 189.514 453.991 172.412 467.956 152.404C481.92 132.395 485.574 110.379 478.455 89.1376C471.336 67.8967 453.764 48.3857 427.961 33.0718C402.158 17.758 369.284 7.32914 333.494 3.10406C297.705 -1.12102 260.608 1.04744 226.895 9.33524C193.182 17.623 164.367 31.6579 144.094 49.6651C123.821 67.6723 113 88.843 113 110.5C113 128.604 120.38 145.674 133.5 160.712L113 220L212.896 207.833C238.234 215.62 267.016 220 297.5 220Z" fill="#FFC7C7" stroke="black" stroke-width="2" stroke-linecap="round" stroke-linejoin="round"/>
<path d="M706 220C669.015 220 632.86 213.578 602.108 201.546C571.356 189.514 547.388 172.412 533.235 152.404C519.081 132.395 515.378 110.379 522.593 89.1376C529.809 67.8967 547.619 48.3857 573.771 33.0718C599.924 17.758 633.244 7.32914 669.518 3.10406C705.793 -1.12102 743.392 1.04744 777.562 9.33524C811.732 17.623 840.937 31.6579 861.485 49.6651C882.033 67.6723 893 88.843 893 110.5C893 128.604 885.52 145.674 872.222 160.712L893 220L791.75 207.833C766.069 215.62 736.897 220 706 220Z" fill="#E8F5E9" stroke="black" stroke-width="2" stroke-linecap="round" stroke-linejoin="round"/>
<path d="M912.178 316.3C913.548 320.725 914.626 325.234 915.406 329.8C915.987 333.222 916.326 337.023 914.365 339.88C921.838 328.638 929.642 317.058 940.996 309.802C938.684 307.295 936.925 304.329 935.833 301.098C934.742 297.867 934.342 294.443 934.661 291.047C934.726 290.369 925.34 293.912 924.622 294.315C921.329 296.147 918.311 298.423 915.099 300.384C913.437 301.393 906.512 303.784 906.448 305.226C906.448 306.154 909.2 308.995 909.716 309.971C910.729 312 911.554 314.119 912.178 316.3Z" fill="#ED9DA0"/>
<path d="M946.904 740.288C945.059 738.989 942.896 738.212 940.646 738.042C938.395 737.872 936.141 738.313 934.121 739.32C930.465 741.208 928.004 744.784 924.679 747.205C918.965 751.353 911.42 751.684 904.73 753.928C902.955 754.528 901.066 755.413 900.316 757.156C900.064 757.889 899.963 758.666 900.02 759.44C900.077 760.213 900.29 760.967 900.647 761.656C901.765 764.149 903.725 766.169 906.183 767.362C909.183 768.799 912.639 768.862 915.964 768.903L944.855 769.242C953.75 769.179 962.641 769.619 971.487 770.557C973.545 770.815 975.772 771.098 977.587 770.089C980.541 768.475 980.88 764.389 980.654 761.026C980.059 752.5 978.154 744.116 975.005 736.17C974.658 735.29 974.198 734.29 973.221 734.128C972.528 734.097 971.847 734.314 971.3 734.741C963.149 739.583 952.827 742.319 944.16 738.441" fill="#D6D6E3"/>
<path d="M961.369 555.967C958.141 574.714 960.247 593.978 963.879 612.644C964.548 616.361 965.429 620.036 966.518 623.652C967.818 627.768 969.569 631.722 970.787 635.862C973.887 646.353 973.45 657.571 972.987 668.522L970.869 718.355C970.691 722.535 970.53 726.812 971.789 730.799C972.297 732.413 972.919 734.431 971.636 735.52C971.135 735.88 970.549 736.105 969.936 736.174C964.162 737.239 958.197 736.346 952.988 733.636L952.415 683.294C952.237 667.775 952.052 652.194 949.663 636.866C947.763 624.68 944.474 612.655 944.256 600.324C944.03 587.412 947.194 574.669 950.422 562.152C951.116 559.473 953.65 557.512 955.732 555.696C956.458 554.979 957.343 554.443 958.314 554.13C959.283 553.861 960.769 555.152 961.369 555.967Z" fill="#090814"/>
<path opacity="0.1" d="M961.373 555.967C958.145 574.714 960.251 593.978 963.883 612.644C964.552 616.361 965.433 620.036 966.522 623.652C967.822 627.768 969.573 631.722 970.791 635.862C973.891 646.353 973.454 657.571 972.991 668.522L970.873 718.355C970.695 722.535 970.534 726.812 971.793 730.799C972.301 732.413 972.923 734.431 971.64 735.52C971.139 735.88 970.553 736.105 969.94 736.174C964.166 737.239 958.201 736.346 952.992 733.636L952.419 683.294C952.241 667.775 952.056 652.194 949.667 636.866C947.767 624.68 944.478 612.655 944.26 600.324C944.034 587.412 947.198 574.669 950.426 562.152C951.12 559.473 953.654 557.512 955.736 555.696C956.462 554.979 957.347 554.443 958.318 554.13C959.287 553.861 960.773 555.152 961.373 555.967Z" fill="black"/>
<path d="M900.766 497.382C899.572 502.297 902.106 507.389 901.823 512.441C901.662 515.5 900.459 518.55 901.016 521.552C901.573 524.554 903.716 526.814 904.866 529.566C905.702 531.864 906.144 534.287 906.173 536.732C906.504 542.769 906.238 548.837 906.012 554.85C905.633 564.938 905.35 575.082 906.682 585.081C907.843 593.744 910.198 602.204 913.682 610.219C914.738 612.4 915.61 614.665 916.289 616.99C916.735 619.157 917.032 621.352 917.177 623.559C917.944 630.738 919.871 637.745 922.883 644.307C924.941 648.807 928.532 652.377 929.67 657.147C930.751 661.715 930.025 666.533 930.808 671.157C931.381 674.587 932.777 677.831 933.552 681.22C934.561 685.602 934.536 690.146 935.045 694.62C936.498 707.532 942.365 720.445 938.862 732.969C938.162 735.487 937.07 738.045 937.562 740.611C937.804 741.87 938.417 743.111 938.143 744.364C937.917 745.429 937.094 746.252 936.674 747.264C935.867 749.153 936.722 751.396 938.159 752.857C939.691 754.219 941.473 755.272 943.405 755.957C949.353 758.499 955.51 761.082 961.966 761.025C962.75 761.067 963.532 760.923 964.25 760.605C965.335 759.853 966.123 758.746 966.477 757.474L969.786 749.291C970.186 748.298 970.593 747.136 970.036 746.216C969.648 745.712 969.179 745.275 968.648 744.925C965.977 742.674 966.582 738.469 967.292 735.088C969.105 726.403 970.11 717.569 970.292 708.698C970.647 691.008 967.734 673.423 964.828 655.968C963.989 649.875 962.639 643.863 960.793 637.996C958.784 632.186 955.822 626.596 956.306 620.556C956.822 614.035 955.128 607.2 956.306 600.768C957.484 594.336 959.348 588.041 960.551 581.617C962.109 573.281 962.496 564.783 962.972 556.325C963.172 552.871 963.432 549.304 965.046 546.237C965.99 544.445 967.362 542.912 968.419 541.177C971.147 536.666 971.582 531.077 974.189 526.489C975.424 524.318 977.127 522.405 978.03 520.081C978.665 518.247 978.997 516.322 979.014 514.381C979.27 509.511 978.999 504.627 978.207 499.814C964.469 492.823 949.234 489.287 933.821 489.514C927.909 489.443 922.026 490.368 916.421 492.25C911.143 494.206 906.334 496.958 900.766 497.382Z" fill="#090814"/>
<path d="M933.854 753.06C931.481 756.014 931.643 760.234 930.126 763.713C928.286 767.934 924.186 770.637 920.297 773.099L896.087 788.432C894.763 789.239 893.343 790.232 892.859 791.732C892.629 792.691 892.67 793.695 892.98 794.632C893.558 796.657 894.635 798.504 896.113 800.005C897.591 801.505 899.422 802.61 901.438 803.219C903.581 803.729 905.781 803.954 907.983 803.889L918.87 804.034C922.186 804.163 925.508 804.034 928.804 803.647C931.822 803.211 934.76 802.347 937.762 801.799C943.226 800.806 948.842 800.899 954.314 799.935C957.664 799.276 960.973 798.422 964.224 797.377C968.178 796.191 972.205 794.956 975.595 792.607C976.528 792.039 977.285 791.223 977.782 790.251C978.208 788.856 978.185 787.363 977.717 785.982L972.517 763.143C972.223 761.241 971.53 759.423 970.483 757.808C969.329 756.275 967.255 755.259 965.455 755.909C964.712 756.247 964.011 756.669 963.365 757.168C960.587 758.806 957.294 759.34 954.141 758.661C952.107 758.298 949.42 757.741 947.782 756.393C946.539 755.368 946.168 753.778 945.111 752.616C944.37 751.854 943.477 751.258 942.49 750.864C941.503 750.47 940.445 750.288 939.383 750.33C938.321 750.372 937.28 750.637 936.328 751.107C935.375 751.577 934.532 752.242 933.853 753.06H933.854Z" fill="#D6D6E3"/>
<path d="M918.158 313.156C934.262 313.156 947.316 300.101 947.316 283.998C947.316 267.894 934.262 254.84 918.158 254.84C902.054 254.84 889 267.894 889 283.998C889 300.101 902.054 313.156 918.158 313.156Z" fill="#ED9DA0"/>
<path d="M893.945 287.32C896.737 285.754 896.737 281.243 899.594 279.742C902.451 278.241 905.694 280.848 907.527 283.479C910.197 287.332 912.051 291.691 912.974 296.286C913.076 297.628 913.595 298.903 914.459 299.934C915.476 300.703 916.72 301.109 917.994 301.088C921.68 301.454 925.37 301.788 929.066 302.088C933.182 302.419 937.523 302.688 941.26 300.918C942.735 300.259 944.002 299.21 944.924 297.884C945.664 296.611 946.193 295.227 946.49 293.784C948.419 286.448 950.364 279.024 950.525 271.438C950.59 268.307 950.315 265.063 948.806 262.319C947.926 260.705 946.635 259.301 946.272 257.525C946.079 256.582 937.202 246.825 927.03 243.257C916.858 239.689 906.559 243.276 905.582 243.257C903.5 243.217 901.353 242.45 899.382 243.144C899.667 243.666 899.834 244.244 899.87 244.837C899.905 245.431 899.809 246.025 899.589 246.577C899.368 247.129 899.029 247.625 898.594 248.031C898.159 248.436 897.64 248.741 897.074 248.922L898.051 251.053C897.045 251.254 896.115 251.732 895.366 252.434C894.617 253.136 894.08 254.033 893.814 255.024C892.741 259.261 893.007 265.281 893.265 269.639C893.396 271.551 895.26 286.602 893.945 287.32Z" fill="#192534"/>
<path d="M920.547 321.579C905.9 338.05 902.171 361.236 899.047 383.066L894.447 415.298C893.253 423.659 892.026 432.019 890.985 440.404C890.259 446.142 889.585 451.969 890.372 457.698C890.993 462.217 892.503 466.575 893.761 470.925C897.037 482.335 898.667 494.154 898.603 506.025C899.579 503.152 902.961 501.99 905.931 501.344C930.85 495.937 956.849 498.713 980.064 509.261C984.14 497.842 983.373 485.349 984.511 473.276C986.125 456.062 991.685 439.381 993.332 422.2C993.937 415.8 994.01 409.368 994.074 402.937C994.122 398.216 994.174 393.446 993.186 388.822C992.086 383.706 989.772 378.936 987.375 374.296C980.75 361.397 973.388 348.889 965.328 336.835C961.271 330.768 957.04 324.82 952.634 318.992C950.401 316.038 948.123 313.116 945.799 310.228C943.547 307.428 942.571 304.999 938.999 306.677C932.237 309.835 925.461 316.051 920.547 321.579Z" fill="#0E3832"/>
<path d="M928.939 458.673C925.366 458.802 921.788 458.689 918.23 458.334C915.591 458.076 912.896 457.688 910.321 458.334C909.201 458.616 908.154 459.13 907.246 459.843C906.909 460.143 906.668 460.534 906.55 460.968C906.433 461.403 906.444 461.863 906.584 462.291C906.723 462.719 906.985 463.097 907.336 463.379C907.687 463.661 908.113 463.834 908.561 463.878L911.321 464.12C913.072 464.273 914.896 464.451 916.26 465.734C916.82 466.238 917.175 466.93 917.26 467.679C917.429 469.559 915.799 470.584 914.339 471.367C912.262 472.342 933.917 482.157 939.252 479.647C945.652 476.677 950.034 470.286 951.801 463.458C952.419 461.467 952.528 459.353 952.116 457.309C950.93 452.717 945.264 451.66 941.625 453.879C937.162 456.712 934.572 458.496 928.939 458.673Z" fill="#ED9DA0"/>
<path opacity="0.1" d="M932.822 372.263C937.2 379.024 944.8 382.833 951.322 387.581C952.912 388.617 954.298 389.935 955.412 391.471C957.057 394.01 957.289 397.238 956.951 400.228C956.382 404.159 955.392 408.018 953.999 411.737L951.266 419.899C949.533 425.078 949.277 431.757 945.981 436.11C945.137 437.217 938.106 449.522 938.144 450.91C938.216 451.712 938.492 452.483 938.944 453.149C941.075 456.627 949.044 446.575 953.023 447.462C954.204 447.763 955.442 447.763 956.623 447.462C958.264 446.799 959.693 445.7 960.757 444.285C966.386 438.074 972.015 431.776 976.081 424.485C980.053 417.373 981.23 410.206 983.419 402.385C984.32 399.505 984.948 396.546 985.295 393.547C985.605 387.893 984.423 382.257 981.868 377.204C979.454 372.119 977.332 366.783 973.911 362.311C970.682 357.919 967.094 353.802 963.184 350.002C956.379 343.641 948.054 339.902 938.947 343.51C932.517 346.062 930.109 351.385 929.534 358.202C929.044 363.124 930.2 368.069 932.822 372.263Z" fill="black"/>
<path d="M926.211 366.135C931.86 374.859 941.673 379.774 950.075 385.899C952.12 387.248 953.901 388.961 955.329 390.951C957.451 394.227 957.75 398.384 957.314 402.251C956.757 407.343 955.127 412.242 953.497 417.1L949.97 427.591C947.735 434.273 945.426 441.084 941.17 446.709C940.089 448.137 938.822 449.655 938.87 451.454C938.959 452.488 939.315 453.481 939.903 454.335C941.262 456.557 943.054 458.483 945.173 459.998C947.291 461.514 949.692 462.588 952.234 463.156C953.759 463.544 955.357 463.544 956.882 463.156C959.061 462.518 960.691 460.735 962.216 459.064C969.479 451.042 976.742 442.924 981.988 433.522C987.113 424.346 983.61 359.059 979.196 353.288C975.015 347.65 970.375 342.368 965.323 337.495C956.551 329.295 945.809 324.462 934.059 329.126C925.759 332.419 922.659 339.278 921.905 348.083C921.312 354.41 922.824 360.756 926.205 366.136L926.211 366.135Z" fill="#0E3832"/>
<path d="M81.9174 316.3C80.5477 320.725 79.4694 325.234 78.6895 329.8C78.1085 333.222 77.7695 337.023 79.7305 339.88C72.2575 328.638 64.4534 317.058 53.0994 309.802C55.4116 307.295 57.1706 304.329 58.262 301.098C59.3534 297.867 59.7529 294.443 59.4344 291.047C59.3694 290.369 68.7554 293.912 69.4734 294.315C72.7664 296.147 75.7845 298.423 78.9965 300.384C80.6585 301.393 87.5835 303.784 87.6475 305.226C87.6475 306.154 84.8955 308.995 84.3795 309.971C83.3658 312 82.5416 314.119 81.9174 316.3Z" fill="#ED9DA0"/>
<path d="M47.1913 740.288C49.0365 738.989 51.199 738.212 53.4494 738.042C55.6998 737.872 57.9544 738.313 59.9743 739.32C63.6303 741.208 66.0913 744.784 69.4163 747.205C75.1303 751.353 82.6753 751.684 89.3653 753.928C91.1403 754.528 93.0293 755.413 93.7793 757.156C94.0316 757.889 94.1323 758.666 94.0754 759.44C94.0185 760.213 93.8052 760.967 93.4483 761.656C92.33 764.149 90.3703 766.169 87.9123 767.362C84.9123 768.799 81.4563 768.862 78.1313 768.903L49.2403 769.242C40.3453 769.179 31.4538 769.619 22.6083 770.557C20.5503 770.815 18.3233 771.098 16.5083 770.089C13.5543 768.475 13.2153 764.389 13.4413 761.026C14.036 752.5 15.9414 744.116 19.0903 736.17C19.4373 735.29 19.8973 734.29 20.8743 734.128C21.5673 734.097 22.2486 734.314 22.7953 734.741C30.9463 739.583 41.2683 742.319 49.9353 738.441" fill="#D6D6E3"/>
<path d="M32.7262 555.967C35.9542 574.714 33.8482 593.978 30.2162 612.644C29.5476 616.361 28.6665 620.036 27.5772 623.652C26.2772 627.768 24.5262 631.722 23.3082 635.862C20.2082 646.353 20.6452 657.571 21.1082 668.522L23.2262 718.355C23.4042 722.535 23.5652 726.812 22.3062 730.799C21.7982 732.413 21.1762 734.431 22.4592 735.52C22.9604 735.88 23.5458 736.105 24.1592 736.174C29.9335 737.239 35.8983 736.346 41.1072 733.636L41.6802 683.294C41.8582 667.775 42.0432 652.194 44.4322 636.866C46.3322 624.68 49.6212 612.655 49.8392 600.324C50.0652 587.412 46.9012 574.669 43.6732 562.152C42.9792 559.473 40.4452 557.512 38.3632 555.696C37.6367 554.979 36.7524 554.443 35.7812 554.13C34.8122 553.861 33.3262 555.152 32.7262 555.967Z" fill="#090814"/>
<path opacity="0.1" d="M32.7223 555.967C35.9503 574.714 33.8443 593.978 30.2123 612.644C29.5437 616.361 28.6626 620.036 27.5733 623.652C26.2733 627.768 24.5222 631.722 23.3042 635.862C20.2042 646.353 20.6413 657.571 21.1043 668.522L23.2223 718.355C23.4003 722.535 23.5613 726.812 22.3023 730.799C21.7943 732.413 21.1722 734.431 22.4552 735.52C22.9565 735.88 23.5419 736.105 24.1553 736.174C29.9296 737.239 35.8943 736.346 41.1033 733.636L41.6763 683.294C41.8543 667.775 42.0393 652.194 44.4283 636.866C46.3283 624.68 49.6173 612.655 49.8353 600.324C50.0613 587.412 46.8973 574.669 43.6693 562.152C42.9753 559.473 40.4413 557.512 38.3593 555.696C37.6328 554.979 36.7485 554.443 35.7773 554.13C34.8083 553.861 33.3223 555.152 32.7223 555.967Z" fill="black"/>
<path d="M93.3291 497.382C94.5231 502.297 91.9891 507.389 92.2721 512.441C92.4331 515.5 93.6361 518.55 93.0791 521.552C92.5221 524.554 90.3791 526.814 89.2291 529.566C88.3935 531.864 87.9516 534.287 87.922 536.732C87.5911 542.769 87.8571 548.837 88.0831 554.85C88.4621 564.938 88.7451 575.082 87.4131 585.081C86.2525 593.744 83.8967 602.204 80.4131 610.219C79.3573 612.4 78.4853 614.665 77.8061 616.99C77.3601 619.157 77.0634 621.352 76.9181 623.559C76.1508 630.738 74.2238 637.745 71.2121 644.307C69.1541 648.807 65.563 652.377 64.425 657.147C63.344 661.715 64.07 666.533 63.287 671.157C62.714 674.587 61.3181 677.831 60.5431 681.22C59.5341 685.602 59.559 690.146 59.05 694.62C57.597 707.532 51.7301 720.445 55.2331 732.969C55.9331 735.487 57.0251 738.045 56.5331 740.611C56.2911 741.87 55.6781 743.111 55.9521 744.364C56.1781 745.429 57.0011 746.252 57.4211 747.264C58.2281 749.153 57.3731 751.396 55.9361 752.857C54.4038 754.219 52.6223 755.272 50.6901 755.957C44.7421 758.499 38.5851 761.082 32.1291 761.025C31.3453 761.067 30.5628 760.923 29.8451 760.605C28.7601 759.853 27.9723 758.746 27.6181 757.474L24.3091 749.291C23.9091 748.298 23.5021 747.136 24.0591 746.216C24.4469 745.712 24.9159 745.275 25.4471 744.925C28.1181 742.674 27.5131 738.469 26.8031 735.088C24.9897 726.403 23.9854 717.569 23.8031 708.698C23.4481 691.008 26.3611 673.423 29.2671 655.968C30.1066 649.875 31.4563 643.863 33.3021 637.996C35.3111 632.186 38.2731 626.596 37.7891 620.556C37.2731 614.035 38.9671 607.2 37.7891 600.768C36.6111 594.336 34.7471 588.041 33.5441 581.617C31.9861 573.281 31.599 564.783 31.123 556.325C30.923 552.871 30.6631 549.304 29.0491 546.237C28.1051 544.445 26.7331 542.912 25.6761 541.177C22.9481 536.666 22.5131 531.077 19.9061 526.489C18.6711 524.318 16.9681 522.405 16.0651 520.081C15.4304 518.247 15.0981 516.322 15.081 514.381C14.8252 509.511 15.0958 504.627 15.8881 499.814C29.6258 492.823 44.8613 489.287 60.274 489.514C66.1865 489.443 72.0688 490.368 77.6741 492.25C82.9521 494.206 87.7611 496.958 93.3291 497.382Z" fill="#090814"/>
<path d="M60.2413 753.06C62.6143 756.014 62.4523 760.234 63.9693 763.713C65.8093 767.934 69.9093 770.637 73.7983 773.099L98.0083 788.432C99.3323 789.239 100.752 790.232 101.236 791.732C101.467 792.691 101.425 793.695 101.115 794.632C100.537 796.657 99.4602 798.504 97.9823 800.005C96.5045 801.505 94.6735 802.61 92.6573 803.219C90.5147 803.729 88.314 803.954 86.1123 803.889L75.2253 804.034C71.909 804.163 68.5875 804.034 65.2913 803.647C62.2733 803.211 59.3354 802.347 56.3334 801.799C50.8694 800.806 45.2533 800.899 39.7813 799.935C36.431 799.276 33.1219 798.422 29.8713 797.377C25.9173 796.191 21.8903 794.956 18.5003 792.607C17.5673 792.039 16.8102 791.223 16.3133 790.251C15.8872 788.856 15.9099 787.363 16.3783 785.982L21.5783 763.143C21.8718 761.241 22.565 759.423 23.6123 757.808C24.7663 756.275 26.8403 755.259 28.6403 755.909C29.3829 756.247 30.0842 756.669 30.7303 757.168C33.5082 758.806 36.8013 759.34 39.9543 758.661C41.9883 758.298 44.6753 757.741 46.3133 756.393C47.5563 755.368 47.9273 753.778 48.9843 752.616C49.7255 751.854 50.6185 751.258 51.6053 750.864C52.592 750.47 53.6506 750.288 54.7122 750.33C55.7738 750.372 56.8148 750.637 57.7675 751.107C58.7202 751.577 59.5634 752.242 60.2423 753.06H60.2413Z" fill="#D6D6E3"/>
<path d="M75.9372 313.156C59.8337 313.156 46.7792 300.101 46.7792 283.998C46.7792 267.894 59.8337 254.84 75.9372 254.84C92.0407 254.84 105.095 267.894 105.095 283.998C105.095 300.101 92.0407 313.156 75.9372 313.156Z" fill="#ED9DA0"/>
<path d="M100.15 287.32C97.358 285.754 97.3581 281.243 94.5011 279.742C91.6441 278.241 88.4011 280.848 86.5681 283.479C83.8981 287.332 82.0444 291.691 81.1211 296.286C81.019 297.628 80.4997 298.903 79.6361 299.934C78.6194 300.703 77.3751 301.109 76.101 301.088C72.4157 301.454 68.7251 301.788 65.0291 302.088C60.9131 302.419 56.572 302.688 52.835 300.918C51.3604 300.259 50.0936 299.21 49.171 297.884C48.4313 296.611 47.9025 295.227 47.6051 293.784C45.6761 286.448 43.731 279.024 43.57 271.438C43.505 268.307 43.7801 265.063 45.2891 262.319C46.1691 260.705 47.4601 259.301 47.8231 257.525C48.0161 256.582 56.8931 246.825 67.0651 243.257C77.2371 239.689 87.5361 243.276 88.5131 243.257C90.5951 243.217 92.742 242.45 94.713 243.144C94.4278 243.666 94.2614 244.244 94.2257 244.837C94.1899 245.431 94.2857 246.025 94.5062 246.577C94.7268 247.129 95.0666 247.625 95.5013 248.031C95.936 248.436 96.455 248.741 97.0211 248.922L96.0441 251.053C97.0505 251.254 97.9806 251.732 98.7293 252.434C99.4781 253.136 100.016 254.033 100.281 255.024C101.354 259.261 101.088 265.281 100.83 269.639C100.699 271.551 98.835 286.602 100.15 287.32Z" fill="#192534"/>
<path d="M73.5483 321.579C88.1953 338.05 91.9242 361.236 95.0483 383.066L99.6483 415.298C100.842 423.659 102.069 432.019 103.11 440.404C103.836 446.142 104.51 451.969 103.723 457.698C103.102 462.217 101.592 466.575 100.334 470.925C97.0582 482.335 95.4278 494.154 95.4923 506.025C94.5163 503.152 91.1343 501.99 88.1643 501.344C63.2451 495.937 37.2466 498.713 14.0313 509.261C9.95528 497.842 10.7223 485.349 9.58426 473.276C7.97026 456.062 2.41028 439.381 0.763275 422.2C0.158272 415.8 0.0852737 409.368 0.0212708 402.937C-0.0267258 398.216 -0.0787277 393.446 0.909271 388.822C2.00927 383.706 4.32324 378.936 6.72025 374.296C13.3457 361.397 20.7068 348.889 28.7672 336.835C32.8239 330.768 37.0553 324.82 41.4613 318.992C43.6939 316.038 45.9723 313.116 48.2963 310.228C50.5483 307.428 51.5243 304.999 55.0963 306.677C61.8583 309.835 68.6343 316.051 73.5483 321.579Z" fill="#0E3832"/>
<path d="M65.1564 458.673C68.7296 458.802 72.3074 458.689 75.8653 458.334C78.5043 458.076 81.1993 457.688 83.7743 458.334C84.8938 458.616 85.9415 459.13 86.8494 459.843C87.1857 460.143 87.4275 460.534 87.5451 460.968C87.6627 461.403 87.6511 461.863 87.5115 462.291C87.372 462.719 87.1106 463.097 86.7595 463.379C86.4083 463.661 85.9826 463.834 85.5344 463.878L82.7743 464.12C81.0233 464.273 79.1994 464.451 77.8354 465.734C77.2756 466.238 76.9198 466.93 76.8354 467.679C76.6664 469.559 78.2963 470.584 79.7563 471.367C81.8333 472.342 60.1784 482.157 54.8434 479.647C48.4434 476.677 44.0614 470.286 42.2944 463.458C41.6759 461.467 41.5676 459.353 41.9794 457.309C43.1654 452.717 48.8313 451.66 52.4703 453.879C56.9333 456.712 59.5234 458.496 65.1564 458.673Z" fill="#ED9DA0"/>
<path opacity="0.1" d="M61.2735 372.263C56.8955 379.024 49.2955 382.833 42.7735 387.581C41.1835 388.617 39.7972 389.935 38.6835 391.471C37.0385 394.01 36.8065 397.238 37.1445 400.228C37.7135 404.159 38.7031 408.018 40.0965 411.737L42.8295 419.899C44.5625 425.078 44.8185 431.757 48.1145 436.11C48.9585 437.217 55.9895 449.522 55.9515 450.91C55.8788 451.712 55.6035 452.483 55.1514 453.149C53.0204 456.627 45.0515 446.575 41.0725 447.462C39.8913 447.763 38.6536 447.763 37.4725 447.462C35.8315 446.799 34.4023 445.7 33.3385 444.285C27.7095 438.074 22.0805 431.776 18.0145 424.485C14.0425 417.373 12.8655 410.206 10.6765 402.385C9.77505 399.505 9.14697 396.546 8.8005 393.547C8.49057 387.893 9.6724 382.257 12.2275 377.204C14.6415 372.119 16.7635 366.783 20.1845 362.311C23.4136 357.919 27.0015 353.802 30.9115 350.002C37.7165 343.641 46.0415 339.902 55.1485 343.51C61.5785 346.062 63.9865 351.385 64.5615 358.202C65.0513 363.124 63.8949 368.069 61.2735 372.263Z" fill="black"/>
<path d="M67.884 366.135C62.235 374.859 52.422 379.774 44.02 385.899C41.975 387.248 40.1943 388.961 38.766 390.951C36.644 394.227 36.345 398.384 36.781 402.251C37.338 407.343 38.968 412.242 40.598 417.1L44.125 427.591C46.36 434.273 48.669 441.084 52.925 446.709C54.006 448.137 55.273 449.655 55.225 451.454C55.136 452.488 54.78 453.481 54.192 454.335C52.8329 456.557 51.041 458.483 48.9226 459.998C46.8043 461.514 44.4028 462.588 41.861 463.156C40.3358 463.544 38.7381 463.544 37.213 463.156C35.034 462.518 33.404 460.735 31.879 459.064C24.616 451.042 17.353 442.924 12.107 433.522C6.98201 424.346 10.485 359.059 14.899 353.288C19.0798 347.65 23.7199 342.368 28.772 337.495C37.544 329.295 48.286 324.462 60.036 329.126C68.336 332.419 71.436 339.278 72.19 348.083C72.7828 354.41 71.2713 360.756 67.89 366.136L67.884 366.135Z" fill="#0E3832"/>
<path d="M62.6891 193.733L61.7698 194.451C60.9456 195.094 59.9 195.384 58.8625 195.256C57.8251 195.129 56.8806 194.595 56.2364 193.772L55.6334 193C54.2813 191.396 53.3714 189.466 52.9933 187.403C52.7277 185.278 52.6776 183.133 52.8438 180.998C53.006 179.648 53.0462 178.285 52.9638 176.927C52.8636 175.9 52.4644 174.925 51.8155 174.123C50.3174 172.205 48.3405 172.249 45.771 174.257C44.3582 175.386 43.1078 176.705 42.0552 178.175C41.6457 178.738 41.1112 179.197 40.4939 179.518C39.8766 179.839 39.1932 180.012 38.4976 180.024C37.802 180.036 37.1131 179.887 36.4852 179.587C35.8572 179.288 35.3073 178.847 34.8787 178.299L33.6584 176.737C33.1301 176.067 32.8075 175.258 32.7296 174.408C32.6518 173.559 32.822 172.705 33.2197 171.95C34.8294 169.031 37.034 166.482 39.6909 164.469C42.1846 162.452 45.0588 160.959 48.1422 160.077C50.7611 159.314 53.5376 159.273 56.1775 159.961C58.6362 160.639 60.8056 162.104 62.3551 164.13C63.9696 166.096 64.8884 168.541 64.9682 171.084C64.9591 174.05 64.6243 177.006 63.9701 179.898C63.5824 181.683 63.3056 183.49 63.1411 185.308C63.0405 186.49 63.2449 187.678 63.7347 188.758C64.178 189.577 64.3162 190.526 64.1247 191.437C63.9332 192.348 63.4244 193.162 62.6891 193.733Z" fill="#0E3832"/>
<path d="M73.5866 208.732L73.4651 208.827C71.9387 210.019 70.001 210.557 68.0784 210.321C66.1557 210.085 64.4056 209.094 63.213 207.568C62.0204 206.042 61.483 204.104 61.7191 202.181C61.9552 200.259 62.9453 198.508 64.4718 197.316L64.5932 197.221C66.1197 196.028 68.0573 195.491 69.98 195.727C71.9026 195.963 73.6528 196.953 74.8454 198.48C76.038 200.006 76.5753 201.944 76.3393 203.867C76.1032 205.789 75.113 207.539 73.5866 208.732Z" fill="#0E3832"/>
<path d="M173.211 85.94V107H168.081V85.94H173.211ZM183.738 107.24C182.278 107.24 180.978 106.99 179.838 106.49C178.698 105.99 177.798 105.31 177.138 104.45C176.478 103.57 176.108 102.59 176.028 101.51H181.098C181.158 102.09 181.428 102.56 181.908 102.92C182.388 103.28 182.978 103.46 183.678 103.46C184.318 103.46 184.808 103.34 185.148 103.1C185.508 102.84 185.688 102.51 185.688 102.11C185.688 101.63 185.438 101.28 184.938 101.06C184.438 100.82 183.628 100.56 182.508 100.28C181.308 100 180.308 99.71 179.508 99.41C178.708 99.09 178.018 98.6 177.438 97.94C176.858 97.26 176.568 96.35 176.568 95.21C176.568 94.25 176.828 93.38 177.348 92.6C177.888 91.8 178.668 91.17 179.688 90.71C180.728 90.25 181.958 90.02 183.378 90.02C185.478 90.02 187.128 90.54 188.328 91.58C189.548 92.62 190.248 94 190.428 95.72H185.688C185.608 95.14 185.348 94.68 184.908 94.34C184.488 94 183.928 93.83 183.228 93.83C182.628 93.83 182.168 93.95 181.848 94.19C181.528 94.41 181.368 94.72 181.368 95.12C181.368 95.6 181.618 95.96 182.118 96.2C182.638 96.44 183.438 96.68 184.518 96.92C185.758 97.24 186.768 97.56 187.548 97.88C188.328 98.18 189.008 98.68 189.588 99.38C190.188 100.06 190.498 100.98 190.518 102.14C190.518 103.12 190.238 104 189.678 104.78C189.138 105.54 188.348 106.14 187.308 106.58C186.288 107.02 185.098 107.24 183.738 107.24ZM209.344 102.65V107H206.734C204.874 107 203.424 106.55 202.384 105.65C201.344 104.73 200.824 103.24 200.824 101.18V94.52H198.784V90.26H200.824V86.18H205.954V90.26H209.314V94.52H205.954V101.24C205.954 101.74 206.074 102.1 206.314 102.32C206.554 102.54 206.954 102.65 207.514 102.65H209.344ZM222.492 90.08C224.412 90.08 225.952 90.72 227.112 92C228.272 93.26 228.852 95 228.852 97.22V107H223.752V97.91C223.752 96.79 223.462 95.92 222.882 95.3C222.302 94.68 221.522 94.37 220.542 94.37C219.562 94.37 218.782 94.68 218.202 95.3C217.622 95.92 217.332 96.79 217.332 97.91V107H212.202V84.8H217.332V92.51C217.852 91.77 218.562 91.18 219.462 90.74C220.362 90.3 221.372 90.08 222.492 90.08ZM248.197 98.36C248.197 98.84 248.167 99.34 248.107 99.86H236.497C236.577 100.9 236.907 101.7 237.487 102.26C238.087 102.8 238.817 103.07 239.677 103.07C240.957 103.07 241.847 102.53 242.347 101.45H247.807C247.527 102.55 247.017 103.54 246.277 104.42C245.557 105.3 244.647 105.99 243.547 106.49C242.447 106.99 241.217 107.24 239.857 107.24C238.217 107.24 236.757 106.89 235.477 106.19C234.197 105.49 233.197 104.49 232.477 103.19C231.757 101.89 231.397 100.37 231.397 98.63C231.397 96.89 231.747 95.37 232.447 94.07C233.167 92.77 234.167 91.77 235.447 91.07C236.727 90.37 238.197 90.02 239.857 90.02C241.477 90.02 242.917 90.36 244.177 91.04C245.437 91.72 246.417 92.69 247.117 93.95C247.837 95.21 248.197 96.68 248.197 98.36ZM242.947 97.01C242.947 96.13 242.647 95.43 242.047 94.91C241.447 94.39 240.697 94.13 239.797 94.13C238.937 94.13 238.207 94.38 237.607 94.88C237.027 95.38 236.667 96.09 236.527 97.01H242.947ZM262.39 92.63C262.89 91.85 263.58 91.22 264.46 90.74C265.34 90.26 266.37 90.02 267.55 90.02C268.93 90.02 270.18 90.37 271.3 91.07C272.42 91.77 273.3 92.77 273.94 94.07C274.6 95.37 274.93 96.88 274.93 98.6C274.93 100.32 274.6 101.84 273.94 103.16C273.3 104.46 272.42 105.47 271.3 106.19C270.18 106.89 268.93 107.24 267.55 107.24C266.39 107.24 265.36 107 264.46 106.52C263.58 106.04 262.89 105.42 262.39 104.66V114.98H257.26V90.26H262.39V92.63ZM269.71 98.6C269.71 97.32 269.35 96.32 268.63 95.6C267.93 94.86 267.06 94.49 266.02 94.49C265 94.49 264.13 94.86 263.41 95.6C262.71 96.34 262.36 97.35 262.36 98.63C262.36 99.91 262.71 100.92 263.41 101.66C264.13 102.4 265 102.77 266.02 102.77C267.04 102.77 267.91 102.4 268.63 101.66C269.35 100.9 269.71 99.88 269.71 98.6ZM282.752 93.05C283.352 92.13 284.102 91.41 285.002 90.89C285.902 90.35 286.902 90.08 288.002 90.08V95.51H286.592C285.312 95.51 284.352 95.79 283.712 96.35C283.072 96.89 282.752 97.85 282.752 99.23V107H277.622V90.26H282.752V93.05ZM293.034 88.52C292.134 88.52 291.394 88.26 290.814 87.74C290.254 87.2 289.974 86.54 289.974 85.76C289.974 84.96 290.254 84.3 290.814 83.78C291.394 83.24 292.134 82.97 293.034 82.97C293.914 82.97 294.634 83.24 295.194 83.78C295.774 84.3 296.064 84.96 296.064 85.76C296.064 86.54 295.774 87.2 295.194 87.74C294.634 88.26 293.914 88.52 293.034 88.52ZM295.584 90.26V107H290.454V90.26H295.584ZM298.281 98.63C298.281 96.89 298.631 95.37 299.331 94.07C300.051 92.77 301.041 91.77 302.301 91.07C303.581 90.37 305.041 90.02 306.681 90.02C308.781 90.02 310.531 90.57 311.931 91.67C313.351 92.77 314.281 94.32 314.721 96.32H309.261C308.801 95.04 307.911 94.4 306.591 94.4C305.651 94.4 304.901 94.77 304.341 95.51C303.781 96.23 303.501 97.27 303.501 98.63C303.501 99.99 303.781 101.04 304.341 101.78C304.901 102.5 305.651 102.86 306.591 102.86C307.911 102.86 308.801 102.22 309.261 100.94H314.721C314.281 102.9 313.351 104.44 311.931 105.56C310.511 106.68 308.761 107.24 306.681 107.24C305.041 107.24 303.581 106.89 302.301 106.19C301.041 105.49 300.051 104.49 299.331 103.19C298.631 101.89 298.281 100.37 298.281 98.63ZM333.245 98.36C333.245 98.84 333.215 99.34 333.155 99.86H321.545C321.625 100.9 321.955 101.7 322.535 102.26C323.135 102.8 323.865 103.07 324.725 103.07C326.005 103.07 326.895 102.53 327.395 101.45H332.855C332.575 102.55 332.065 103.54 331.325 104.42C330.605 105.3 329.695 105.99 328.595 106.49C327.495 106.99 326.265 107.24 324.905 107.24C323.265 107.24 321.805 106.89 320.525 106.19C319.245 105.49 318.245 104.49 317.525 103.19C316.805 101.89 316.445 100.37 316.445 98.63C316.445 96.89 316.795 95.37 317.495 94.07C318.215 92.77 319.215 91.77 320.495 91.07C321.775 90.37 323.245 90.02 324.905 90.02C326.525 90.02 327.965 90.36 329.225 91.04C330.485 91.72 331.465 92.69 332.165 93.95C332.885 95.21 333.245 96.68 333.245 98.36ZM327.995 97.01C327.995 96.13 327.695 95.43 327.095 94.91C326.495 94.39 325.745 94.13 324.845 94.13C323.985 94.13 323.255 94.38 322.655 94.88C322.075 95.38 321.715 96.09 321.575 97.01H327.995ZM347.439 93.05C348.039 92.13 348.789 91.41 349.689 90.89C350.589 90.35 351.589 90.08 352.689 90.08V95.51H351.279C349.999 95.51 349.039 95.79 348.399 96.35C347.759 96.89 347.439 97.85 347.439 99.23V107H342.309V90.26H347.439V93.05ZM370.921 98.36C370.921 98.84 370.891 99.34 370.831 99.86H359.221C359.301 100.9 359.631 101.7 360.211 102.26C360.811 102.8 361.541 103.07 362.401 103.07C363.681 103.07 364.571 102.53 365.071 101.45H370.531C370.251 102.55 369.741 103.54 369.001 104.42C368.281 105.3 367.371 105.99 366.271 106.49C365.171 106.99 363.941 107.24 362.581 107.24C360.941 107.24 359.481 106.89 358.201 106.19C356.921 105.49 355.921 104.49 355.201 103.19C354.481 101.89 354.121 100.37 354.121 98.63C354.121 96.89 354.471 95.37 355.171 94.07C355.891 92.77 356.891 91.77 358.171 91.07C359.451 90.37 360.921 90.02 362.581 90.02C364.201 90.02 365.641 90.36 366.901 91.04C368.161 91.72 369.141 92.69 369.841 93.95C370.561 95.21 370.921 96.68 370.921 98.36ZM365.671 97.01C365.671 96.13 365.371 95.43 364.771 94.91C364.171 94.39 363.421 94.13 362.521 94.13C361.661 94.13 360.931 94.38 360.331 94.88C359.751 95.38 359.391 96.09 359.251 97.01H365.671ZM372.608 98.6C372.608 96.88 372.928 95.37 373.568 94.07C374.228 92.77 375.118 91.77 376.238 91.07C377.358 90.37 378.608 90.02 379.988 90.02C381.168 90.02 382.198 90.26 383.078 90.74C383.978 91.22 384.668 91.85 385.148 92.63V90.26H390.278V107H385.148V104.63C384.648 105.41 383.948 106.04 383.048 106.52C382.168 107 381.138 107.24 379.958 107.24C378.598 107.24 377.358 106.89 376.238 106.19C375.118 105.47 374.228 104.46 373.568 103.16C372.928 101.84 372.608 100.32 372.608 98.6ZM385.148 98.63C385.148 97.35 384.788 96.34 384.068 95.6C383.368 94.86 382.508 94.49 381.488 94.49C380.468 94.49 379.598 94.86 378.878 95.6C378.178 96.32 377.828 97.32 377.828 98.6C377.828 99.88 378.178 100.9 378.878 101.66C379.598 102.4 380.468 102.77 381.488 102.77C382.508 102.77 383.368 102.4 384.068 101.66C384.788 100.92 385.148 99.91 385.148 98.63ZM399.119 84.8V107H393.989V84.8H399.119ZM407.967 84.8V107H402.837V84.8H407.967ZM428.784 90.26L418.284 114.95H412.764L416.604 106.43L409.794 90.26H415.524L419.394 100.73L423.234 90.26H428.784ZM237.997 147.65V152H235.387C233.527 152 232.077 151.55 231.037 150.65C229.997 149.73 229.477 148.24 229.477 146.18V139.52H227.437V135.26H229.477V131.18H234.607V135.26H237.967V139.52H234.607V146.24C234.607 146.74 234.727 147.1 234.967 147.32C235.207 147.54 235.607 147.65 236.167 147.65H237.997ZM251.144 135.08C253.064 135.08 254.604 135.72 255.764 137C256.924 138.26 257.504 140 257.504 142.22V152H252.404V142.91C252.404 141.79 252.114 140.92 251.534 140.3C250.954 139.68 250.174 139.37 249.194 139.37C248.214 139.37 247.434 139.68 246.854 140.3C246.274 140.92 245.984 141.79 245.984 142.91V152H240.854V129.8H245.984V137.51C246.504 136.77 247.214 136.18 248.114 135.74C249.014 135.3 250.024 135.08 251.144 135.08ZM260.049 143.6C260.049 141.88 260.369 140.37 261.009 139.07C261.669 137.77 262.559 136.77 263.679 136.07C264.799 135.37 266.049 135.02 267.429 135.02C268.609 135.02 269.639 135.26 270.519 135.74C271.419 136.22 272.109 136.85 272.589 137.63V135.26H277.719V152H272.589V149.63C272.089 150.41 271.389 151.04 270.489 151.52C269.609 152 268.579 152.24 267.399 152.24C266.039 152.24 264.799 151.89 263.679 151.19C262.559 150.47 261.669 149.46 261.009 148.16C260.369 146.84 260.049 145.32 260.049 143.6ZM272.589 143.63C272.589 142.35 272.229 141.34 271.509 140.6C270.809 139.86 269.949 139.49 268.929 139.49C267.909 139.49 267.039 139.86 266.319 140.6C265.619 141.32 265.269 142.32 265.269 143.6C265.269 144.88 265.619 145.9 266.319 146.66C267.039 147.4 267.909 147.77 268.929 147.77C269.949 147.77 270.809 147.4 271.509 146.66C272.229 145.92 272.589 144.91 272.589 143.63ZM290.76 147.65V152H288.15C286.29 152 284.84 151.55 283.8 150.65C282.76 149.73 282.24 148.24 282.24 146.18V139.52H280.2V135.26H282.24V131.18H287.37V135.26H290.73V139.52H287.37V146.24C287.37 146.74 287.49 147.1 287.73 147.32C287.97 147.54 288.37 147.65 288.93 147.65H290.76ZM305.105 129.8V152H299.975V129.8H305.105ZM316.443 152.24C314.803 152.24 313.323 151.89 312.003 151.19C310.703 150.49 309.673 149.49 308.913 148.19C308.173 146.89 307.803 145.37 307.803 143.63C307.803 141.91 308.183 140.4 308.943 139.1C309.703 137.78 310.743 136.77 312.063 136.07C313.383 135.37 314.863 135.02 316.503 135.02C318.143 135.02 319.623 135.37 320.943 136.07C322.263 136.77 323.303 137.78 324.063 139.1C324.823 140.4 325.203 141.91 325.203 143.63C325.203 145.35 324.813 146.87 324.033 148.19C323.273 149.49 322.223 150.49 320.883 151.19C319.563 151.89 318.083 152.24 316.443 152.24ZM316.443 147.8C317.423 147.8 318.253 147.44 318.933 146.72C319.633 146 319.983 144.97 319.983 143.63C319.983 142.29 319.643 141.26 318.963 140.54C318.303 139.82 317.483 139.46 316.503 139.46C315.503 139.46 314.673 139.82 314.013 140.54C313.353 141.24 313.023 142.27 313.023 143.63C313.023 144.97 313.343 146 313.983 146.72C314.643 147.44 315.463 147.8 316.443 147.8ZM351.954 135.26L347.424 152H341.754L339.114 141.14L336.384 152H330.744L326.184 135.26H331.314L333.684 147.23L336.504 135.26H341.934L344.784 147.17L347.124 135.26H351.954ZM360.061 129.77C362.201 129.77 363.911 130.33 365.191 131.45C366.491 132.57 367.141 134.15 367.141 136.19C367.141 138.07 366.521 139.54 365.281 140.6C364.061 141.64 362.441 142.17 360.421 142.19L360.271 144.44H355.771L355.621 138.86H357.421C358.961 138.86 360.131 138.67 360.931 138.29C361.751 137.91 362.161 137.22 362.161 136.22C362.161 135.52 361.971 134.97 361.591 134.57C361.211 134.17 360.681 133.97 360.001 133.97C359.281 133.97 358.721 134.18 358.321 134.6C357.921 135 357.721 135.55 357.721 136.25H352.891C352.851 135.03 353.101 133.93 353.641 132.95C354.201 131.97 355.021 131.2 356.101 130.64C357.201 130.06 358.521 129.77 360.061 129.77ZM358.081 152.24C357.181 152.24 356.441 151.98 355.861 151.46C355.301 150.92 355.021 150.26 355.021 149.48C355.021 148.68 355.301 148.01 355.861 147.47C356.441 146.93 357.181 146.66 358.081 146.66C358.961 146.66 359.681 146.93 360.241 147.47C360.821 148.01 361.111 148.68 361.111 149.48C361.111 150.26 360.821 150.92 360.241 151.46C359.681 151.98 358.961 152.24 358.081 152.24Z" fill="black"/>
<path d="M699.84 99.94L694.35 121H688.14L684.78 107.14L681.3 121H675.09L669.75 99.94H675.24L678.27 115.27L682.02 99.94H687.66L691.26 115.27L694.32 99.94H699.84ZM718.193 112.36C718.193 112.84 718.163 113.34 718.103 113.86H706.493C706.573 114.9 706.903 115.7 707.483 116.26C708.083 116.8 708.813 117.07 709.673 117.07C710.953 117.07 711.843 116.53 712.343 115.45H717.803C717.523 116.55 717.013 117.54 716.273 118.42C715.553 119.3 714.643 119.99 713.543 120.49C712.443 120.99 711.213 121.24 709.853 121.24C708.213 121.24 706.753 120.89 705.473 120.19C704.193 119.49 703.193 118.49 702.473 117.19C701.753 115.89 701.393 114.37 701.393 112.63C701.393 110.89 701.743 109.37 702.443 108.07C703.163 106.77 704.163 105.77 705.443 105.07C706.723 104.37 708.193 104.02 709.853 104.02C711.473 104.02 712.913 104.36 714.173 105.04C715.433 105.72 716.413 106.69 717.113 107.95C717.833 109.21 718.193 110.68 718.193 112.36ZM712.943 111.01C712.943 110.13 712.643 109.43 712.043 108.91C711.443 108.39 710.693 108.13 709.793 108.13C708.933 108.13 708.203 108.38 707.603 108.88C707.023 109.38 706.663 110.09 706.523 111.01H712.943ZM726.029 98.8V121H720.899V98.8H726.029ZM734.877 98.8V121H729.747V98.8H734.877ZM751.702 99.19L751.102 113.56H746.752L746.152 99.19H751.702ZM749.002 121.24C748.102 121.24 747.362 120.98 746.782 120.46C746.222 119.92 745.942 119.26 745.942 118.48C745.942 117.68 746.222 117.01 746.782 116.47C747.362 115.93 748.102 115.66 749.002 115.66C749.882 115.66 750.602 115.93 751.162 116.47C751.742 117.01 752.032 117.68 752.032 118.48C752.032 119.26 751.742 119.92 751.162 120.46C750.602 120.98 749.882 121.24 749.002 121.24Z" fill="black"/>
</svg>
