<svg width="1185" height="979" viewBox="0 0 1185 979" fill="none" xmlns="http://www.w3.org/2000/svg">
<g clip-path="url(#clip0_389_864)">
<rect width="446" height="979" rx="8" fill="#D9D9D9"/>
<path d="M145 0H301V26C301 31.5228 296.523 36 291 36H155C149.477 36 145 31.5228 145 26V0Z" fill="black"/>
<path d="M28.8963 87V65.1818H37.5043C39.1591 65.1818 40.5689 65.4979 41.7337 66.13C42.8984 66.755 43.7862 67.625 44.397 68.7401C45.0149 69.848 45.3239 71.1264 45.3239 72.5753C45.3239 74.0241 45.0114 75.3026 44.3864 76.4105C43.7614 77.5185 42.8558 78.3814 41.6697 78.9993C40.4908 79.6172 39.0632 79.9261 37.3871 79.9261H31.9006V76.2294H36.6413C37.5291 76.2294 38.2607 76.0767 38.8359 75.7713C39.4183 75.4588 39.8516 75.0291 40.1357 74.4822C40.4268 73.9283 40.5724 73.2926 40.5724 72.5753C40.5724 71.8509 40.4268 71.2187 40.1357 70.679C39.8516 70.1321 39.4183 69.7095 38.8359 69.4112C38.2536 69.1058 37.5149 68.9531 36.62 68.9531H33.5092V87H28.8963ZM52.4616 87.3089C51.4176 87.3089 50.4872 87.1278 49.6705 86.7656C48.8537 86.3963 48.2074 85.853 47.7315 85.1357C47.2628 84.4112 47.0284 83.5092 47.0284 82.4297C47.0284 81.5206 47.1953 80.7571 47.5291 80.1392C47.8629 79.5213 48.3175 79.0241 48.8928 78.6477C49.468 78.2713 50.1214 77.9872 50.853 77.7955C51.5916 77.6037 52.3658 77.4688 53.1754 77.3906C54.1271 77.2912 54.8942 77.1989 55.4766 77.1136C56.0589 77.0213 56.4815 76.8864 56.7443 76.7088C57.0071 76.5312 57.1385 76.2685 57.1385 75.9205V75.8565C57.1385 75.1818 56.9254 74.6598 56.4993 74.2905C56.0803 73.9212 55.4837 73.7365 54.7095 73.7365C53.8928 73.7365 53.2429 73.9176 52.7599 74.2798C52.277 74.6349 51.9574 75.0824 51.8011 75.6222L47.6037 75.2812C47.8168 74.2869 48.2358 73.4276 48.8608 72.7031C49.4858 71.9716 50.2919 71.4105 51.2791 71.0199C52.2734 70.6222 53.424 70.4233 54.7308 70.4233C55.6399 70.4233 56.5099 70.5298 57.3409 70.7429C58.179 70.956 58.9212 71.2862 59.5675 71.7337C60.2209 72.1811 60.7358 72.7564 61.1122 73.4595C61.4886 74.1555 61.6768 74.9901 61.6768 75.9631V87H57.3729V84.7308H57.245C56.9822 85.2422 56.6307 85.6932 56.1903 86.0838C55.75 86.4673 55.2209 86.7692 54.603 86.9893C53.9851 87.2024 53.2713 87.3089 52.4616 87.3089ZM53.7614 84.1768C54.429 84.1768 55.0185 84.0455 55.5298 83.7827C56.0412 83.5128 56.4425 83.1506 56.7337 82.696C57.0249 82.2415 57.1705 81.7266 57.1705 81.1513V79.4148C57.0284 79.5071 56.8331 79.5923 56.5845 79.6705C56.343 79.7415 56.0696 79.8089 55.7642 79.8729C55.4588 79.9297 55.1534 79.983 54.848 80.0327C54.5426 80.0753 54.2656 80.1143 54.017 80.1499C53.4844 80.228 53.0192 80.3523 52.6214 80.5227C52.2237 80.6932 51.9148 80.924 51.6946 81.2152C51.4744 81.4993 51.3643 81.8544 51.3643 82.2805C51.3643 82.8984 51.5881 83.3707 52.0355 83.6974C52.4901 84.017 53.0653 84.1768 53.7614 84.1768ZM72.5913 87.3196C70.9151 87.3196 69.4734 86.9645 68.266 86.2543C67.0657 85.5369 66.1424 84.5426 65.4961 83.2713C64.8569 82 64.5373 80.5369 64.5373 78.8821C64.5373 77.206 64.8604 75.7358 65.5067 74.4716C66.1602 73.2003 67.087 72.2095 68.2873 71.4993C69.4876 70.782 70.9151 70.4233 72.57 70.4233C73.9975 70.4233 75.2475 70.6825 76.32 71.201C77.3924 71.7195 78.2411 72.4474 78.8661 73.3849C79.4911 74.3224 79.8356 75.4233 79.8995 76.6875H75.6168C75.4961 75.8707 75.1765 75.2138 74.658 74.7166C74.1467 74.2124 73.4755 73.9602 72.6445 73.9602C71.9414 73.9602 71.3271 74.152 70.8015 74.5355C70.283 74.9119 69.8782 75.4624 69.587 76.1868C69.2958 76.9112 69.1502 77.7884 69.1502 78.8182C69.1502 79.8622 69.2923 80.75 69.5763 81.4815C69.8675 82.2131 70.2759 82.7706 70.8015 83.1541C71.3271 83.5376 71.9414 83.7294 72.6445 83.7294C73.163 83.7294 73.6282 83.6229 74.0401 83.4098C74.4592 83.1967 74.8036 82.8878 75.0735 82.483C75.3505 82.071 75.5316 81.5774 75.6168 81.0021H79.8995C79.8285 82.2521 79.4876 83.353 78.8768 84.3047C78.2731 85.2493 77.4386 85.9879 76.3732 86.5206C75.3079 87.0533 74.0472 87.3196 72.5913 87.3196ZM86.9174 82.2912L86.9281 76.8473H87.5886L92.8301 70.6364H98.0396L90.9977 78.8608H89.9217L86.9174 82.2912ZM82.8052 87V65.1818H87.3436V87H82.8052ZM93.0325 87L88.2172 79.8729L91.2427 76.6662L98.3485 87H93.0325ZM104.932 87.3089C103.888 87.3089 102.958 87.1278 102.141 86.7656C101.324 86.3963 100.678 85.853 100.202 85.1357C99.7335 84.4112 99.4991 83.5092 99.4991 82.4297C99.4991 81.5206 99.666 80.7571 99.9998 80.1392C100.334 79.5213 100.788 79.0241 101.363 78.6477C101.939 78.2713 102.592 77.9872 103.324 77.7955C104.062 77.6037 104.836 77.4688 105.646 77.3906C106.598 77.2912 107.365 77.1989 107.947 77.1136C108.53 77.0213 108.952 76.8864 109.215 76.7088C109.478 76.5312 109.609 76.2685 109.609 75.9205V75.8565C109.609 75.1818 109.396 74.6598 108.97 74.2905C108.551 73.9212 107.954 73.7365 107.18 73.7365C106.363 73.7365 105.714 73.9176 105.231 74.2798C104.748 74.6349 104.428 75.0824 104.272 75.6222L100.074 75.2812C100.287 74.2869 100.706 73.4276 101.331 72.7031C101.956 71.9716 102.763 71.4105 103.75 71.0199C104.744 70.6222 105.895 70.4233 107.202 70.4233C108.111 70.4233 108.981 70.5298 109.812 70.7429C110.65 70.956 111.392 71.2862 112.038 71.7337C112.692 72.1811 113.206 72.7564 113.583 73.4595C113.959 74.1555 114.148 74.9901 114.148 75.9631V87H109.844V84.7308H109.716C109.453 85.2422 109.101 85.6932 108.661 86.0838C108.221 86.4673 107.692 86.7692 107.074 86.9893C106.456 87.2024 105.742 87.3089 104.932 87.3089ZM106.232 84.1768C106.9 84.1768 107.489 84.0455 108.001 83.7827C108.512 83.5128 108.913 83.1506 109.204 82.696C109.496 82.2415 109.641 81.7266 109.641 81.1513V79.4148C109.499 79.5071 109.304 79.5923 109.055 79.6705C108.814 79.7415 108.54 79.8089 108.235 79.8729C107.93 79.9297 107.624 79.983 107.319 80.0327C107.013 80.0753 106.736 80.1143 106.488 80.1499C105.955 80.228 105.49 80.3523 105.092 80.5227C104.694 80.6932 104.385 80.924 104.165 81.2152C103.945 81.4993 103.835 81.8544 103.835 82.2805C103.835 82.8984 104.059 83.3707 104.506 83.6974C104.961 84.017 105.536 84.1768 106.232 84.1768ZM125.041 93.4773C123.57 93.4773 122.31 93.2749 121.259 92.87C120.215 92.4723 119.384 91.929 118.766 91.2401C118.148 90.5511 117.747 89.777 117.562 88.9176L121.759 88.353C121.887 88.6797 122.09 88.9851 122.367 89.2692C122.644 89.5533 123.009 89.7805 123.464 89.951C123.926 90.1286 124.487 90.2173 125.147 90.2173C126.134 90.2173 126.948 89.9759 127.587 89.4929C128.233 89.017 128.556 88.218 128.556 87.0959V84.1023H128.365C128.166 84.5568 127.867 84.9865 127.47 85.3913C127.072 85.7962 126.561 86.1264 125.936 86.3821C125.311 86.6378 124.565 86.7656 123.698 86.7656C122.47 86.7656 121.351 86.4815 120.343 85.9134C119.341 85.3381 118.542 84.4609 117.945 83.282C117.356 82.0959 117.061 80.5973 117.061 78.7862C117.061 76.9325 117.363 75.3842 117.967 74.1413C118.57 72.8984 119.373 71.968 120.374 71.3501C121.383 70.7322 122.487 70.4233 123.688 70.4233C124.604 70.4233 125.371 70.5795 125.989 70.892C126.607 71.1974 127.104 71.581 127.48 72.0426C127.864 72.4972 128.159 72.9446 128.365 73.3849H128.535V70.6364H133.041V87.1598C133.041 88.5518 132.7 89.7166 132.019 90.6541C131.337 91.5916 130.392 92.2947 129.185 92.7635C127.985 93.2393 126.603 93.4773 125.041 93.4773ZM125.137 83.3565C125.868 83.3565 126.486 83.1754 126.99 82.8132C127.502 82.4439 127.892 81.9183 128.162 81.2365C128.439 80.5476 128.578 79.7237 128.578 78.7649C128.578 77.8061 128.443 76.9751 128.173 76.272C127.903 75.5618 127.512 75.0114 127.001 74.6207C126.49 74.2301 125.868 74.0348 125.137 74.0348C124.391 74.0348 123.762 74.2372 123.251 74.642C122.74 75.0398 122.352 75.5937 122.09 76.304C121.827 77.0142 121.695 77.8345 121.695 78.7649C121.695 79.7095 121.827 80.5263 122.09 81.2152C122.36 81.897 122.747 82.4261 123.251 82.8026C123.762 83.1719 124.391 83.3565 125.137 83.3565ZM144.11 87.3196C142.427 87.3196 140.978 86.9787 139.764 86.2969C138.556 85.608 137.626 84.6349 136.972 83.3778C136.319 82.1136 135.992 80.6186 135.992 78.8928C135.992 77.2095 136.319 75.7322 136.972 74.4609C137.626 73.1896 138.546 72.1989 139.732 71.4886C140.925 70.7784 142.324 70.4233 143.929 70.4233C145.009 70.4233 146.014 70.5973 146.944 70.9453C147.882 71.2862 148.698 71.8011 149.394 72.4901C150.097 73.179 150.644 74.0455 151.035 75.0895C151.426 76.1264 151.621 77.3409 151.621 78.733V79.9794H137.803V77.1669H147.349C147.349 76.5135 147.207 75.9347 146.923 75.4304C146.639 74.9261 146.244 74.532 145.74 74.2479C145.243 73.9567 144.664 73.8111 144.004 73.8111C143.315 73.8111 142.704 73.9709 142.171 74.2905C141.646 74.603 141.234 75.0256 140.936 75.5582C140.637 76.0838 140.485 76.6697 140.477 77.3161V79.9901C140.477 80.7997 140.627 81.4993 140.925 82.0888C141.23 82.6783 141.66 83.1328 142.214 83.4524C142.768 83.772 143.425 83.9318 144.185 83.9318C144.689 83.9318 145.151 83.8608 145.57 83.7188C145.989 83.5767 146.347 83.3636 146.646 83.0795C146.944 82.7955 147.171 82.4474 147.328 82.0355L151.525 82.3125C151.312 83.321 150.875 84.2017 150.215 84.9545C149.561 85.7003 148.716 86.2827 147.679 86.7017C146.649 87.1136 145.46 87.3196 144.11 87.3196Z" fill="black"/>
<rect x="27.5" y="116.5" width="391" height="501" rx="7.5" fill="white"/>
<rect x="27.5" y="116.5" width="391" height="501" rx="7.5" stroke="black"/>
<rect x="43" y="135" width="360" height="362" rx="4" fill="#B2B2B2"/>
<rect x="43" y="513.5" width="360" height="19" rx="4" fill="#B2B2B2"/>
<rect x="43" y="544.5" width="82" height="19" rx="4" fill="#B2B2B2"/>
<rect x="43" y="580" width="360" height="19" rx="4" fill="#B2B2B2"/>
<rect x="27.5" y="640.5" width="391" height="501" rx="7.5" fill="white"/>
<rect x="27.5" y="640.5" width="391" height="501" rx="7.5" stroke="black"/>
<rect x="43" y="659" width="360" height="362" rx="4" fill="#B2B2B2"/>
</g>
<rect x="0.5" y="0.5" width="445" height="978" rx="7.5" stroke="black"/>
<path d="M513.639 339.5V317.682H522.247C523.902 317.682 525.312 317.998 526.477 318.63C527.642 319.255 528.529 320.125 529.14 321.24C529.758 322.348 530.067 323.626 530.067 325.075C530.067 326.524 529.755 327.803 529.13 328.911C528.505 330.018 527.599 330.881 526.413 331.499C525.234 332.117 523.806 332.426 522.13 332.426H516.644V328.729H521.384C522.272 328.729 523.004 328.577 523.579 328.271C524.161 327.959 524.595 327.529 524.879 326.982C525.17 326.428 525.316 325.793 525.316 325.075C525.316 324.351 525.17 323.719 524.879 323.179C524.595 322.632 524.161 322.21 523.579 321.911C522.997 321.606 522.258 321.453 521.363 321.453H518.252V339.5H513.639ZM532.978 339.5V323.136H537.378V325.991H537.548C537.847 324.976 538.347 324.209 539.051 323.69C539.754 323.165 540.563 322.902 541.479 322.902C541.707 322.902 541.952 322.916 542.215 322.945C542.477 322.973 542.708 323.012 542.907 323.062V327.089C542.694 327.025 542.399 326.968 542.023 326.918C541.646 326.869 541.302 326.844 540.989 326.844C540.322 326.844 539.725 326.989 539.2 327.281C538.681 327.565 538.269 327.962 537.964 328.474C537.666 328.985 537.516 329.575 537.516 330.242V339.5H532.978ZM545.253 339.5V323.136H549.792V339.5H545.253ZM547.533 321.027C546.859 321.027 546.28 320.803 545.797 320.356C545.321 319.901 545.083 319.358 545.083 318.726C545.083 318.101 545.321 317.565 545.797 317.117C546.28 316.663 546.859 316.435 547.533 316.435C548.208 316.435 548.783 316.663 549.259 317.117C549.742 317.565 549.984 318.101 549.984 318.726C549.984 319.358 549.742 319.901 549.259 320.356C548.783 320.803 548.208 321.027 547.533 321.027ZM560.821 339.82C559.166 339.82 557.735 339.468 556.527 338.765C555.327 338.055 554.4 337.067 553.747 335.803C553.093 334.532 552.767 333.058 552.767 331.382C552.767 329.692 553.093 328.214 553.747 326.95C554.4 325.679 555.327 324.692 556.527 323.989C557.735 323.278 559.166 322.923 560.821 322.923C562.476 322.923 563.903 323.278 565.103 323.989C566.311 324.692 567.241 325.679 567.895 326.95C568.548 328.214 568.875 329.692 568.875 331.382C568.875 333.058 568.548 334.532 567.895 335.803C567.241 337.067 566.311 338.055 565.103 338.765C563.903 339.468 562.476 339.82 560.821 339.82ZM560.842 336.304C561.595 336.304 562.223 336.091 562.728 335.665C563.232 335.232 563.612 334.642 563.868 333.896C564.13 333.151 564.262 332.302 564.262 331.35C564.262 330.398 564.13 329.55 563.868 328.804C563.612 328.058 563.232 327.469 562.728 327.036C562.223 326.602 561.595 326.386 560.842 326.386C560.082 326.386 559.443 326.602 558.924 327.036C558.413 327.469 558.026 328.058 557.763 328.804C557.508 329.55 557.38 330.398 557.38 331.35C557.38 332.302 557.508 333.151 557.763 333.896C558.026 334.642 558.413 335.232 558.924 335.665C559.443 336.091 560.082 336.304 560.842 336.304ZM571.826 339.5V323.136H576.226V325.991H576.396C576.694 324.976 577.195 324.209 577.898 323.69C578.601 323.165 579.411 322.902 580.327 322.902C580.554 322.902 580.799 322.916 581.062 322.945C581.325 322.973 581.556 323.012 581.755 323.062V327.089C581.542 327.025 581.247 326.968 580.87 326.918C580.494 326.869 580.15 326.844 579.837 326.844C579.169 326.844 578.573 326.989 578.047 327.281C577.529 327.565 577.117 327.962 576.812 328.474C576.513 328.985 576.364 329.575 576.364 330.242V339.5H571.826ZM584.101 339.5V323.136H588.639V339.5H584.101ZM586.381 321.027C585.706 321.027 585.127 320.803 584.644 320.356C584.169 319.901 583.931 319.358 583.931 318.726C583.931 318.101 584.169 317.565 584.644 317.117C585.127 316.663 585.706 316.435 586.381 316.435C587.056 316.435 587.631 316.663 588.107 317.117C588.59 317.565 588.831 318.101 588.831 318.726C588.831 319.358 588.59 319.901 588.107 320.356C587.631 320.803 587.056 321.027 586.381 321.027ZM600.979 323.136V326.545H591.124V323.136H600.979ZM593.362 319.216H597.9V334.472C597.9 334.891 597.964 335.217 598.092 335.452C598.22 335.679 598.397 335.839 598.624 335.931C598.859 336.023 599.129 336.07 599.434 336.07C599.647 336.07 599.86 336.052 600.073 336.016C600.286 335.974 600.45 335.942 600.563 335.92L601.277 339.298C601.05 339.369 600.73 339.45 600.318 339.543C599.906 339.642 599.406 339.702 598.816 339.724C597.722 339.766 596.764 339.621 595.94 339.287C595.123 338.953 594.487 338.435 594.033 337.732C593.578 337.028 593.354 336.141 593.362 335.068V319.216ZM603.935 339.5V323.136H608.473V339.5H603.935ZM606.215 321.027C605.54 321.027 604.961 320.803 604.478 320.356C604.003 319.901 603.765 319.358 603.765 318.726C603.765 318.101 604.003 317.565 604.478 317.117C604.961 316.663 605.54 316.435 606.215 316.435C606.89 316.435 607.465 316.663 607.941 317.117C608.424 317.565 608.665 318.101 608.665 318.726C608.665 319.358 608.424 319.901 607.941 320.356C607.465 320.803 606.89 321.027 606.215 321.027ZM612.024 339.5V336.794L620.035 326.876V326.759H612.301V323.136H625.5V326.087L617.979 335.761V335.878H625.777V339.5H612.024ZM629.248 339.5V323.136H633.786V339.5H629.248ZM631.527 321.027C630.853 321.027 630.274 320.803 629.791 320.356C629.315 319.901 629.077 319.358 629.077 318.726C629.077 318.101 629.315 317.565 629.791 317.117C630.274 316.663 630.853 316.435 631.527 316.435C632.202 316.435 632.777 316.663 633.253 317.117C633.736 317.565 633.978 318.101 633.978 318.726C633.978 319.358 633.736 319.901 633.253 320.356C632.777 320.803 632.202 321.027 631.527 321.027ZM641.96 330.04V339.5H637.421V323.136H641.747V326.023H641.938C642.301 325.072 642.908 324.319 643.76 323.765C644.612 323.204 645.646 322.923 646.86 322.923C647.997 322.923 648.987 323.172 649.833 323.669C650.678 324.166 651.335 324.876 651.804 325.8C652.272 326.716 652.507 327.81 652.507 329.081V339.5H647.968V329.891C647.975 328.889 647.72 328.108 647.201 327.547C646.683 326.979 645.969 326.695 645.06 326.695C644.449 326.695 643.909 326.826 643.441 327.089C642.979 327.352 642.617 327.735 642.354 328.239C642.098 328.737 641.967 329.337 641.96 330.04ZM663.456 345.977C661.986 345.977 660.725 345.775 659.674 345.37C658.63 344.972 657.799 344.429 657.181 343.74C656.563 343.051 656.162 342.277 655.977 341.418L660.174 340.853C660.302 341.18 660.505 341.485 660.782 341.769C661.059 342.053 661.424 342.281 661.879 342.451C662.341 342.629 662.902 342.717 663.562 342.717C664.549 342.717 665.363 342.476 666.002 341.993C666.648 341.517 666.971 340.718 666.971 339.596V336.602H666.78C666.581 337.057 666.282 337.487 665.885 337.891C665.487 338.296 664.976 338.626 664.351 338.882C663.726 339.138 662.98 339.266 662.113 339.266C660.885 339.266 659.766 338.982 658.758 338.413C657.756 337.838 656.957 336.961 656.361 335.782C655.771 334.596 655.476 333.097 655.476 331.286C655.476 329.433 655.778 327.884 656.382 326.641C656.986 325.398 657.788 324.468 658.79 323.85C659.798 323.232 660.902 322.923 662.103 322.923C663.019 322.923 663.786 323.08 664.404 323.392C665.022 323.697 665.519 324.081 665.895 324.543C666.279 324.997 666.574 325.445 666.78 325.885H666.95V323.136H671.456V339.66C671.456 341.052 671.116 342.217 670.434 343.154C669.752 344.092 668.807 344.795 667.6 345.263C666.4 345.739 665.018 345.977 663.456 345.977ZM663.552 335.857C664.283 335.857 664.901 335.675 665.405 335.313C665.917 334.944 666.307 334.418 666.577 333.737C666.854 333.048 666.993 332.224 666.993 331.265C666.993 330.306 666.858 329.475 666.588 328.772C666.318 328.062 665.927 327.511 665.416 327.121C664.905 326.73 664.283 326.535 663.552 326.535C662.806 326.535 662.177 326.737 661.666 327.142C661.155 327.54 660.767 328.094 660.505 328.804C660.242 329.514 660.111 330.335 660.111 331.265C660.111 332.21 660.242 333.026 660.505 333.715C660.775 334.397 661.162 334.926 661.666 335.303C662.177 335.672 662.806 335.857 663.552 335.857ZM518.722 375.5H510.988V353.682H518.786C520.981 353.682 522.87 354.119 524.454 354.992C526.038 355.859 527.256 357.105 528.108 358.732C528.968 360.358 529.397 362.304 529.397 364.57C529.397 366.842 528.968 368.795 528.108 370.429C527.256 372.062 526.031 373.316 524.433 374.19C522.842 375.063 520.938 375.5 518.722 375.5ZM515.601 371.548H518.531C519.894 371.548 521.041 371.306 521.972 370.823C522.909 370.333 523.612 369.577 524.081 368.554C524.557 367.524 524.795 366.196 524.795 364.57C524.795 362.957 524.557 361.64 524.081 360.617C523.612 359.594 522.913 358.842 521.982 358.359C521.052 357.876 519.905 357.634 518.541 357.634H515.601V371.548ZM540.186 375.82C538.503 375.82 537.054 375.479 535.84 374.797C534.632 374.108 533.702 373.135 533.049 371.878C532.395 370.614 532.069 369.119 532.069 367.393C532.069 365.71 532.395 364.232 533.049 362.961C533.702 361.69 534.622 360.699 535.808 359.989C537.001 359.278 538.4 358.923 540.005 358.923C541.085 358.923 542.09 359.097 543.02 359.445C543.958 359.786 544.775 360.301 545.471 360.99C546.174 361.679 546.721 362.545 547.111 363.589C547.502 364.626 547.697 365.841 547.697 367.233V368.479H533.88V365.667H543.425C543.425 365.013 543.283 364.435 542.999 363.93C542.715 363.426 542.321 363.032 541.816 362.748C541.319 362.457 540.74 362.311 540.08 362.311C539.391 362.311 538.78 362.471 538.248 362.79C537.722 363.103 537.31 363.526 537.012 364.058C536.713 364.584 536.561 365.17 536.554 365.816V368.49C536.554 369.3 536.703 369.999 537.001 370.589C537.306 371.178 537.736 371.633 538.29 371.952C538.844 372.272 539.501 372.432 540.261 372.432C540.765 372.432 541.227 372.361 541.646 372.219C542.065 372.077 542.424 371.864 542.722 371.58C543.02 371.295 543.248 370.947 543.404 370.536L547.601 370.812C547.388 371.821 546.951 372.702 546.291 373.455C545.637 374.2 544.792 374.783 543.755 375.202C542.725 375.614 541.536 375.82 540.186 375.82ZM564.274 363.803L560.119 364.058C560.048 363.703 559.895 363.384 559.661 363.099C559.426 362.808 559.118 362.577 558.734 362.407C558.358 362.229 557.907 362.141 557.381 362.141C556.678 362.141 556.085 362.29 555.602 362.588C555.119 362.879 554.877 363.27 554.877 363.76C554.877 364.151 555.034 364.481 555.346 364.751C555.659 365.021 556.195 365.237 556.955 365.401L559.917 365.997C561.507 366.324 562.694 366.849 563.475 367.574C564.256 368.298 564.647 369.25 564.647 370.429C564.647 371.501 564.331 372.442 563.699 373.252C563.074 374.062 562.214 374.694 561.12 375.148C560.034 375.596 558.78 375.82 557.36 375.82C555.194 375.82 553.468 375.369 552.182 374.467C550.904 373.558 550.154 372.322 549.934 370.759L554.398 370.525C554.533 371.185 554.86 371.69 555.378 372.038C555.897 372.379 556.561 372.549 557.37 372.549C558.166 372.549 558.805 372.396 559.288 372.091C559.778 371.778 560.027 371.377 560.034 370.887C560.027 370.475 559.853 370.138 559.512 369.875C559.171 369.605 558.645 369.399 557.935 369.257L555.101 368.692C553.503 368.373 552.314 367.819 551.532 367.031C550.758 366.242 550.371 365.237 550.371 364.016C550.371 362.964 550.655 362.059 551.223 361.299C551.799 360.539 552.605 359.953 553.642 359.541C554.686 359.129 555.907 358.923 557.306 358.923C559.373 358.923 561 359.36 562.186 360.234C563.379 361.107 564.075 362.297 564.274 363.803ZM567.504 375.5V359.136H572.043V375.5H567.504ZM569.784 357.027C569.11 357.027 568.531 356.803 568.048 356.356C567.572 355.901 567.334 355.358 567.334 354.726C567.334 354.101 567.572 353.565 568.048 353.117C568.531 352.663 569.11 352.435 569.784 352.435C570.459 352.435 571.034 352.663 571.51 353.117C571.993 353.565 572.235 354.101 572.235 354.726C572.235 355.358 571.993 355.901 571.51 356.356C571.034 356.803 570.459 357.027 569.784 357.027ZM575.678 375.5V359.136H580.078V361.991H580.249C580.547 360.976 581.048 360.209 581.751 359.69C582.454 359.165 583.263 358.902 584.18 358.902C584.407 358.902 584.652 358.916 584.915 358.945C585.178 358.973 585.408 359.012 585.607 359.062V363.089C585.394 363.025 585.099 362.968 584.723 362.918C584.347 362.869 584.002 362.844 583.69 362.844C583.022 362.844 582.425 362.989 581.9 363.281C581.381 363.565 580.969 363.962 580.664 364.474C580.366 364.985 580.217 365.575 580.217 366.242V375.5H575.678ZM592.151 375.809C591.107 375.809 590.177 375.628 589.36 375.266C588.543 374.896 587.897 374.353 587.421 373.636C586.952 372.911 586.718 372.009 586.718 370.93C586.718 370.021 586.885 369.257 587.219 368.639C587.552 368.021 588.007 367.524 588.582 367.148C589.157 366.771 589.811 366.487 590.542 366.295C591.281 366.104 592.055 365.969 592.865 365.891C593.817 365.791 594.584 365.699 595.166 365.614C595.748 365.521 596.171 365.386 596.434 365.209C596.697 365.031 596.828 364.768 596.828 364.42V364.357C596.828 363.682 596.615 363.16 596.189 362.79C595.77 362.421 595.173 362.237 594.399 362.237C593.582 362.237 592.932 362.418 592.449 362.78C591.966 363.135 591.647 363.582 591.491 364.122L587.293 363.781C587.506 362.787 587.925 361.928 588.55 361.203C589.175 360.472 589.981 359.911 590.969 359.52C591.963 359.122 593.113 358.923 594.42 358.923C595.329 358.923 596.199 359.03 597.03 359.243C597.868 359.456 598.611 359.786 599.257 360.234C599.91 360.681 600.425 361.256 600.802 361.96C601.178 362.656 601.366 363.49 601.366 364.463V375.5H597.062V373.231H596.934C596.672 373.742 596.32 374.193 595.88 374.584C595.439 374.967 594.91 375.269 594.292 375.489C593.675 375.702 592.961 375.809 592.151 375.809ZM593.451 372.677C594.118 372.677 594.708 372.545 595.219 372.283C595.731 372.013 596.132 371.651 596.423 371.196C596.714 370.741 596.86 370.227 596.86 369.651V367.915C596.718 368.007 596.523 368.092 596.274 368.17C596.032 368.241 595.759 368.309 595.454 368.373C595.148 368.43 594.843 368.483 594.537 368.533C594.232 368.575 593.955 368.614 593.706 368.65C593.174 368.728 592.709 368.852 592.311 369.023C591.913 369.193 591.604 369.424 591.384 369.715C591.164 369.999 591.054 370.354 591.054 370.781C591.054 371.398 591.278 371.871 591.725 372.197C592.18 372.517 592.755 372.677 593.451 372.677ZM604.972 375.5V353.682H609.511V361.885H609.649C609.848 361.445 610.136 360.997 610.512 360.543C610.896 360.081 611.393 359.697 612.004 359.392C612.622 359.08 613.389 358.923 614.305 358.923C615.498 358.923 616.599 359.236 617.607 359.861C618.616 360.479 619.422 361.413 620.026 362.663C620.629 363.906 620.931 365.464 620.931 367.339C620.931 369.165 620.637 370.706 620.047 371.963C619.465 373.213 618.669 374.161 617.661 374.808C616.659 375.447 615.537 375.766 614.294 375.766C613.414 375.766 612.664 375.621 612.046 375.33C611.436 375.038 610.935 374.673 610.544 374.232C610.154 373.785 609.855 373.334 609.649 372.879H609.447V375.5H604.972ZM609.415 367.318C609.415 368.291 609.55 369.14 609.82 369.864C610.09 370.589 610.48 371.153 610.992 371.558C611.503 371.956 612.124 372.155 612.856 372.155C613.595 372.155 614.22 371.952 614.731 371.548C615.242 371.136 615.629 370.567 615.892 369.843C616.162 369.112 616.297 368.27 616.297 367.318C616.297 366.374 616.166 365.543 615.903 364.825C615.64 364.108 615.253 363.547 614.742 363.142C614.23 362.737 613.602 362.535 612.856 362.535C612.117 362.535 611.492 362.73 610.981 363.121C610.477 363.511 610.09 364.065 609.82 364.783C609.55 365.5 609.415 366.345 609.415 367.318ZM623.96 375.5V359.136H628.498V375.5H623.96ZM626.239 357.027C625.565 357.027 624.986 356.803 624.503 356.356C624.027 355.901 623.789 355.358 623.789 354.726C623.789 354.101 624.027 353.565 624.503 353.117C624.986 352.663 625.565 352.435 626.239 352.435C626.914 352.435 627.489 352.663 627.965 353.117C628.448 353.565 628.69 354.101 628.69 354.726C628.69 355.358 628.448 355.901 627.965 356.356C627.489 356.803 626.914 357.027 626.239 357.027ZM636.672 353.682V375.5H632.133V353.682H636.672ZM640.307 375.5V359.136H644.846V375.5H640.307ZM642.587 357.027C641.912 357.027 641.333 356.803 640.85 356.356C640.375 355.901 640.137 355.358 640.137 354.726C640.137 354.101 640.375 353.565 640.85 353.117C641.333 352.663 641.912 352.435 642.587 352.435C643.262 352.435 643.837 352.663 644.313 353.117C644.796 353.565 645.037 354.101 645.037 354.726C645.037 355.358 644.796 355.901 644.313 356.356C643.837 356.803 643.262 357.027 642.587 357.027ZM657.185 359.136V362.545H647.33V359.136H657.185ZM649.568 355.216H654.106V370.472C654.106 370.891 654.17 371.217 654.298 371.452C654.426 371.679 654.603 371.839 654.83 371.931C655.065 372.023 655.335 372.07 655.64 372.07C655.853 372.07 656.066 372.052 656.279 372.016C656.492 371.974 656.656 371.942 656.769 371.92L657.483 375.298C657.256 375.369 656.936 375.45 656.524 375.543C656.112 375.642 655.612 375.702 655.022 375.724C653.928 375.766 652.97 375.621 652.146 375.287C651.329 374.953 650.693 374.435 650.239 373.732C649.784 373.028 649.561 372.141 649.568 371.068V355.216ZM662.943 381.636C662.368 381.636 661.828 381.59 661.324 381.498C660.827 381.413 660.415 381.303 660.088 381.168L661.111 377.78C661.643 377.943 662.123 378.032 662.549 378.046C662.982 378.06 663.355 377.961 663.667 377.748C663.987 377.535 664.246 377.173 664.445 376.661L664.711 375.969L658.841 359.136H663.614L667.002 371.153H667.172L670.592 359.136H675.397L669.037 377.268C668.731 378.149 668.316 378.916 667.79 379.57C667.272 380.23 666.615 380.738 665.819 381.093C665.024 381.455 664.065 381.636 662.943 381.636ZM541.848 400.591C541.848 402.97 541.397 404.994 540.495 406.663C539.6 408.332 538.379 409.607 536.831 410.488C535.289 411.362 533.556 411.798 531.632 411.798C529.693 411.798 527.953 411.358 526.412 410.477C524.87 409.597 523.652 408.322 522.757 406.653C521.863 404.984 521.415 402.963 521.415 400.591C521.415 398.212 521.863 396.188 522.757 394.518C523.652 392.849 524.87 391.578 526.412 390.705C527.953 389.824 529.693 389.384 531.632 389.384C533.556 389.384 535.289 389.824 536.831 390.705C538.379 391.578 539.6 392.849 540.495 394.518C541.397 396.188 541.848 398.212 541.848 400.591ZM537.172 400.591C537.172 399.05 536.941 397.75 536.479 396.692C536.025 395.634 535.382 394.831 534.551 394.284C533.72 393.737 532.747 393.464 531.632 393.464C530.517 393.464 529.544 393.737 528.713 394.284C527.882 394.831 527.235 395.634 526.774 396.692C526.319 397.75 526.092 399.05 526.092 400.591C526.092 402.132 526.319 403.432 526.774 404.49C527.235 405.548 527.882 406.351 528.713 406.898C529.544 407.445 530.517 407.718 531.632 407.718C532.747 407.718 533.72 407.445 534.551 406.898C535.382 406.351 536.025 405.548 536.479 404.49C536.941 403.432 537.172 402.132 537.172 400.591ZM560.436 395.136L554.715 411.5H549.601L543.881 395.136H548.675L552.073 406.844H552.243L555.631 395.136H560.436ZM569.688 411.82C568.005 411.82 566.556 411.479 565.342 410.797C564.134 410.108 563.204 409.135 562.551 407.878C561.897 406.614 561.57 405.119 561.57 403.393C561.57 401.71 561.897 400.232 562.551 398.961C563.204 397.69 564.124 396.699 565.31 395.989C566.503 395.278 567.902 394.923 569.507 394.923C570.587 394.923 571.592 395.097 572.522 395.445C573.46 395.786 574.276 396.301 574.972 396.99C575.676 397.679 576.222 398.545 576.613 399.589C577.004 400.626 577.199 401.841 577.199 403.233V404.479H563.382V401.667H572.927C572.927 401.013 572.785 400.435 572.501 399.93C572.217 399.426 571.823 399.032 571.318 398.748C570.821 398.457 570.242 398.311 569.582 398.311C568.893 398.311 568.282 398.471 567.749 398.79C567.224 399.103 566.812 399.526 566.514 400.058C566.215 400.584 566.063 401.17 566.056 401.816V404.49C566.056 405.3 566.205 405.999 566.503 406.589C566.808 407.178 567.238 407.633 567.792 407.952C568.346 408.272 569.003 408.432 569.763 408.432C570.267 408.432 570.729 408.361 571.148 408.219C571.567 408.077 571.926 407.864 572.224 407.58C572.522 407.295 572.749 406.947 572.906 406.536L577.103 406.812C576.89 407.821 576.453 408.702 575.793 409.455C575.139 410.2 574.294 410.783 573.257 411.202C572.227 411.614 571.038 411.82 569.688 411.82ZM580.161 411.5V395.136H584.561V397.991H584.731C585.029 396.976 585.53 396.209 586.233 395.69C586.936 395.165 587.746 394.902 588.662 394.902C588.889 394.902 589.134 394.916 589.397 394.945C589.66 394.973 589.891 395.012 590.09 395.062V399.089C589.877 399.025 589.582 398.968 589.205 398.918C588.829 398.869 588.485 398.844 588.172 398.844C587.504 398.844 586.908 398.989 586.382 399.281C585.864 399.565 585.452 399.962 585.146 400.474C584.848 400.985 584.699 401.575 584.699 402.242V411.5H580.161ZM599.465 411.5V389.682H608.073C609.727 389.682 611.137 389.998 612.302 390.63C613.467 391.255 614.355 392.125 614.965 393.24C615.583 394.348 615.892 395.626 615.892 397.075C615.892 398.524 615.58 399.803 614.955 400.911C614.33 402.018 613.424 402.881 612.238 403.499C611.059 404.117 609.632 404.426 607.955 404.426H602.469V400.729H607.21C608.097 400.729 608.829 400.577 609.404 400.271C609.987 399.959 610.42 399.529 610.704 398.982C610.995 398.428 611.141 397.793 611.141 397.075C611.141 396.351 610.995 395.719 610.704 395.179C610.42 394.632 609.987 394.21 609.404 393.911C608.822 393.606 608.083 393.453 607.188 393.453H604.078V411.5H599.465ZM629.297 404.533V395.136H633.835V411.5H629.478V408.528H629.308C628.938 409.487 628.324 410.257 627.464 410.839C626.612 411.422 625.572 411.713 624.343 411.713C623.249 411.713 622.287 411.464 621.456 410.967C620.625 410.47 619.975 409.763 619.506 408.847C619.045 407.931 618.81 406.834 618.803 405.555V395.136H623.342V404.746C623.349 405.712 623.608 406.475 624.119 407.036C624.631 407.597 625.316 407.878 626.175 407.878C626.722 407.878 627.234 407.754 627.71 407.505C628.185 407.249 628.569 406.873 628.86 406.376C629.158 405.879 629.304 405.264 629.297 404.533ZM637.465 411.5V395.136H641.865V397.991H642.036C642.334 396.976 642.835 396.209 643.538 395.69C644.241 395.165 645.051 394.902 645.967 394.902C646.194 394.902 646.439 394.916 646.702 394.945C646.965 394.973 647.195 395.012 647.394 395.062V399.089C647.181 399.025 646.887 398.968 646.51 398.918C646.134 398.869 645.789 398.844 645.477 398.844C644.809 398.844 644.213 398.989 643.687 399.281C643.169 399.565 642.757 399.962 642.451 400.474C642.153 400.985 642.004 401.575 642.004 402.242V411.5H637.465ZM656.436 411.82C654.753 411.82 653.304 411.479 652.09 410.797C650.882 410.108 649.952 409.135 649.299 407.878C648.645 406.614 648.319 405.119 648.319 403.393C648.319 401.71 648.645 400.232 649.299 398.961C649.952 397.69 650.872 396.699 652.058 395.989C653.251 395.278 654.65 394.923 656.255 394.923C657.335 394.923 658.34 395.097 659.27 395.445C660.208 395.786 661.025 396.301 661.721 396.99C662.424 397.679 662.971 398.545 663.361 399.589C663.752 400.626 663.947 401.841 663.947 403.233V404.479H650.13V401.667H659.675C659.675 401.013 659.533 400.435 659.249 399.93C658.965 399.426 658.571 399.032 658.066 398.748C657.569 398.457 656.99 398.311 656.33 398.311C655.641 398.311 655.03 398.471 654.498 398.79C653.972 399.103 653.56 399.526 653.262 400.058C652.963 400.584 652.811 401.17 652.804 401.816V404.49C652.804 405.3 652.953 405.999 653.251 406.589C653.556 407.178 653.986 407.633 654.54 407.952C655.094 408.272 655.751 408.432 656.511 408.432C657.015 408.432 657.477 408.361 657.896 408.219C658.315 408.077 658.674 407.864 658.972 407.58C659.27 407.295 659.498 406.947 659.654 406.536L663.851 406.812C663.638 407.821 663.201 408.702 662.541 409.455C661.887 410.2 661.042 410.783 660.005 411.202C658.975 411.614 657.786 411.82 656.436 411.82ZM492.458 447.5H484.723V425.682H492.522C494.716 425.682 496.606 426.119 498.189 426.992C499.773 427.859 500.991 429.105 501.843 430.732C502.703 432.358 503.133 434.304 503.133 436.57C503.133 438.842 502.703 440.795 501.843 442.429C500.991 444.062 499.766 445.316 498.168 446.19C496.577 447.063 494.674 447.5 492.458 447.5ZM489.336 443.548H492.266C493.63 443.548 494.777 443.306 495.707 442.823C496.645 442.333 497.348 441.577 497.816 440.554C498.292 439.524 498.53 438.196 498.53 436.57C498.53 434.957 498.292 433.64 497.816 432.617C497.348 431.594 496.648 430.842 495.718 430.359C494.787 429.876 493.64 429.634 492.277 429.634H489.336V443.548ZM506.464 447.5V431.136H511.003V447.5H506.464ZM508.744 429.027C508.07 429.027 507.491 428.803 507.008 428.356C506.532 427.901 506.294 427.358 506.294 426.726C506.294 426.101 506.532 425.565 507.008 425.117C507.491 424.663 508.07 424.435 508.744 424.435C509.419 424.435 509.994 424.663 510.47 425.117C510.953 425.565 511.195 426.101 511.195 426.726C511.195 427.358 510.953 427.901 510.47 428.356C509.994 428.803 509.419 429.027 508.744 429.027ZM528.253 435.803L524.098 436.058C524.027 435.703 523.875 435.384 523.64 435.099C523.406 434.808 523.097 434.577 522.714 434.407C522.337 434.229 521.886 434.141 521.361 434.141C520.657 434.141 520.064 434.29 519.581 434.588C519.098 434.879 518.857 435.27 518.857 435.76C518.857 436.151 519.013 436.481 519.326 436.751C519.638 437.021 520.174 437.237 520.934 437.401L523.896 437.997C525.487 438.324 526.673 438.849 527.454 439.574C528.236 440.298 528.626 441.25 528.626 442.429C528.626 443.501 528.31 444.442 527.678 445.252C527.053 446.062 526.194 446.694 525.1 447.148C524.013 447.596 522.76 447.82 521.339 447.82C519.173 447.82 517.447 447.369 516.162 446.467C514.883 445.558 514.134 444.322 513.914 442.759L518.378 442.525C518.513 443.185 518.839 443.69 519.358 444.038C519.876 444.379 520.54 444.549 521.35 444.549C522.145 444.549 522.785 444.396 523.267 444.091C523.758 443.778 524.006 443.377 524.013 442.887C524.006 442.475 523.832 442.138 523.491 441.875C523.15 441.605 522.625 441.399 521.915 441.257L519.081 440.692C517.483 440.373 516.293 439.819 515.512 439.031C514.738 438.242 514.351 437.237 514.351 436.016C514.351 434.964 514.635 434.059 515.203 433.299C515.778 432.539 516.584 431.953 517.621 431.541C518.665 431.129 519.887 430.923 521.286 430.923C523.353 430.923 524.979 431.36 526.165 432.234C527.358 433.107 528.054 434.297 528.253 435.803ZM538.877 447.82C537.201 447.82 535.759 447.464 534.552 446.754C533.352 446.037 532.429 445.043 531.782 443.771C531.143 442.5 530.823 441.037 530.823 439.382C530.823 437.706 531.147 436.236 531.793 434.972C532.446 433.7 533.373 432.71 534.573 431.999C535.774 431.282 537.201 430.923 538.856 430.923C540.284 430.923 541.534 431.183 542.606 431.701C543.679 432.219 544.527 432.947 545.152 433.885C545.777 434.822 546.122 435.923 546.186 437.188H541.903C541.782 436.371 541.463 435.714 540.944 435.217C540.433 434.712 539.762 434.46 538.931 434.46C538.228 434.46 537.613 434.652 537.088 435.036C536.569 435.412 536.164 435.962 535.873 436.687C535.582 437.411 535.436 438.288 535.436 439.318C535.436 440.362 535.578 441.25 535.862 441.982C536.154 442.713 536.562 443.271 537.088 443.654C537.613 444.038 538.228 444.229 538.931 444.229C539.449 444.229 539.914 444.123 540.326 443.91C540.745 443.697 541.09 443.388 541.36 442.983C541.637 442.571 541.818 442.077 541.903 441.502H546.186C546.115 442.752 545.774 443.853 545.163 444.805C544.559 445.749 543.725 446.488 542.659 447.021C541.594 447.553 540.333 447.82 538.877 447.82ZM556.485 447.82C554.83 447.82 553.399 447.468 552.191 446.765C550.991 446.055 550.064 445.067 549.411 443.803C548.758 442.532 548.431 441.058 548.431 439.382C548.431 437.692 548.758 436.214 549.411 434.95C550.064 433.679 550.991 432.692 552.191 431.989C553.399 431.278 554.83 430.923 556.485 430.923C558.14 430.923 559.567 431.278 560.767 431.989C561.975 432.692 562.905 433.679 563.559 434.95C564.212 436.214 564.539 437.692 564.539 439.382C564.539 441.058 564.212 442.532 563.559 443.803C562.905 445.067 561.975 446.055 560.767 446.765C559.567 447.468 558.14 447.82 556.485 447.82ZM556.506 444.304C557.259 444.304 557.888 444.091 558.392 443.665C558.896 443.232 559.276 442.642 559.532 441.896C559.794 441.151 559.926 440.302 559.926 439.35C559.926 438.398 559.794 437.55 559.532 436.804C559.276 436.058 558.896 435.469 558.392 435.036C557.888 434.602 557.259 434.386 556.506 434.386C555.746 434.386 555.107 434.602 554.589 435.036C554.077 435.469 553.69 436.058 553.427 436.804C553.172 437.55 553.044 438.398 553.044 439.35C553.044 440.302 553.172 441.151 553.427 441.896C553.69 442.642 554.077 443.232 554.589 443.665C555.107 444.091 555.746 444.304 556.506 444.304ZM582.218 431.136L576.497 447.5H571.384L565.663 431.136H570.457L573.855 442.844H574.026L577.413 431.136H582.218ZM591.471 447.82C589.787 447.82 588.339 447.479 587.124 446.797C585.917 446.108 584.986 445.135 584.333 443.878C583.679 442.614 583.353 441.119 583.353 439.393C583.353 437.71 583.679 436.232 584.333 434.961C584.986 433.69 585.906 432.699 587.092 431.989C588.285 431.278 589.684 430.923 591.29 430.923C592.369 430.923 593.374 431.097 594.304 431.445C595.242 431.786 596.059 432.301 596.755 432.99C597.458 433.679 598.005 434.545 598.395 435.589C598.786 436.626 598.981 437.841 598.981 439.233V440.479H585.164V437.667H594.709C594.709 437.013 594.567 436.435 594.283 435.93C593.999 435.426 593.605 435.032 593.101 434.748C592.603 434.457 592.025 434.311 591.364 434.311C590.675 434.311 590.064 434.471 589.532 434.79C589.006 435.103 588.594 435.526 588.296 436.058C587.998 436.584 587.845 437.17 587.838 437.816V440.49C587.838 441.3 587.987 441.999 588.285 442.589C588.591 443.178 589.02 443.633 589.574 443.952C590.128 444.272 590.785 444.432 591.545 444.432C592.049 444.432 592.511 444.361 592.93 444.219C593.349 444.077 593.708 443.864 594.006 443.58C594.304 443.295 594.532 442.947 594.688 442.536L598.885 442.812C598.672 443.821 598.236 444.702 597.575 445.455C596.922 446.2 596.076 446.783 595.04 447.202C594.01 447.614 592.82 447.82 591.471 447.82ZM601.943 447.5V431.136H606.343V433.991H606.513C606.812 432.976 607.312 432.209 608.015 431.69C608.718 431.165 609.528 430.902 610.444 430.902C610.672 430.902 610.917 430.916 611.179 430.945C611.442 430.973 611.673 431.012 611.872 431.062V435.089C611.659 435.025 611.364 434.968 610.988 434.918C610.611 434.869 610.267 434.844 609.954 434.844C609.287 434.844 608.69 434.989 608.165 435.281C607.646 435.565 607.234 435.962 606.929 436.474C606.63 436.985 606.481 437.575 606.481 438.242V447.5H601.943ZM618.416 447.809C617.372 447.809 616.441 447.628 615.625 447.266C614.808 446.896 614.161 446.353 613.686 445.636C613.217 444.911 612.983 444.009 612.983 442.93C612.983 442.021 613.149 441.257 613.483 440.639C613.817 440.021 614.272 439.524 614.847 439.148C615.422 438.771 616.076 438.487 616.807 438.295C617.546 438.104 618.32 437.969 619.13 437.891C620.081 437.791 620.848 437.699 621.431 437.614C622.013 437.521 622.436 437.386 622.698 437.209C622.961 437.031 623.093 436.768 623.093 436.42V436.357C623.093 435.682 622.88 435.16 622.453 434.79C622.034 434.421 621.438 434.237 620.664 434.237C619.847 434.237 619.197 434.418 618.714 434.78C618.231 435.135 617.911 435.582 617.755 436.122L613.558 435.781C613.771 434.787 614.19 433.928 614.815 433.203C615.44 432.472 616.246 431.911 617.233 431.52C618.228 431.122 619.378 430.923 620.685 430.923C621.594 430.923 622.464 431.03 623.295 431.243C624.133 431.456 624.875 431.786 625.522 432.234C626.175 432.681 626.69 433.256 627.066 433.96C627.443 434.656 627.631 435.49 627.631 436.463V447.5H623.327V445.231H623.199C622.936 445.742 622.585 446.193 622.144 446.584C621.704 446.967 621.175 447.269 620.557 447.489C619.939 447.702 619.225 447.809 618.416 447.809ZM619.715 444.677C620.383 444.677 620.973 444.545 621.484 444.283C621.995 444.013 622.397 443.651 622.688 443.196C622.979 442.741 623.125 442.227 623.125 441.651V439.915C622.983 440.007 622.787 440.092 622.539 440.17C622.297 440.241 622.024 440.309 621.718 440.373C621.413 440.43 621.108 440.483 620.802 440.533C620.497 440.575 620.22 440.614 619.971 440.65C619.438 440.728 618.973 440.852 618.576 441.023C618.178 441.193 617.869 441.424 617.649 441.715C617.429 441.999 617.318 442.354 617.318 442.781C617.318 443.398 617.542 443.871 617.99 444.197C618.444 444.517 619.019 444.677 619.715 444.677ZM631.237 447.5V425.682H635.775V433.885H635.914C636.113 433.445 636.4 432.997 636.777 432.543C637.16 432.081 637.658 431.697 638.268 431.392C638.886 431.08 639.653 430.923 640.57 430.923C641.763 430.923 642.864 431.236 643.872 431.861C644.881 432.479 645.687 433.413 646.29 434.663C646.894 435.906 647.196 437.464 647.196 439.339C647.196 441.165 646.901 442.706 646.312 443.963C645.729 445.213 644.934 446.161 643.925 446.808C642.924 447.447 641.802 447.766 640.559 447.766C639.678 447.766 638.929 447.621 638.311 447.33C637.7 447.038 637.199 446.673 636.809 446.232C636.418 445.785 636.12 445.334 635.914 444.879H635.712V447.5H631.237ZM635.68 439.318C635.68 440.291 635.815 441.14 636.084 441.864C636.354 442.589 636.745 443.153 637.256 443.558C637.768 443.956 638.389 444.155 639.121 444.155C639.859 444.155 640.484 443.952 640.996 443.548C641.507 443.136 641.894 442.567 642.157 441.843C642.427 441.112 642.562 440.27 642.562 439.318C642.562 438.374 642.43 437.543 642.168 436.825C641.905 436.108 641.518 435.547 641.006 435.142C640.495 434.737 639.866 434.535 639.121 434.535C638.382 434.535 637.757 434.73 637.246 435.121C636.741 435.511 636.354 436.065 636.084 436.783C635.815 437.5 635.68 438.345 635.68 439.318ZM650.224 447.5V431.136H654.763V447.5H650.224ZM652.504 429.027C651.829 429.027 651.25 428.803 650.767 428.356C650.292 427.901 650.054 427.358 650.054 426.726C650.054 426.101 650.292 425.565 650.767 425.117C651.25 424.663 651.829 424.435 652.504 424.435C653.179 424.435 653.754 424.663 654.23 425.117C654.713 425.565 654.954 426.101 654.954 426.726C654.954 427.358 654.713 427.901 654.23 428.356C653.754 428.803 653.179 429.027 652.504 429.027ZM662.936 425.682V447.5H658.398V425.682H662.936ZM666.572 447.5V431.136H671.11V447.5H666.572ZM668.852 429.027C668.177 429.027 667.598 428.803 667.115 428.356C666.639 427.901 666.401 427.358 666.401 426.726C666.401 426.101 666.639 425.565 667.115 425.117C667.598 424.663 668.177 424.435 668.852 424.435C669.526 424.435 670.102 424.663 670.578 425.117C671.06 425.565 671.302 426.101 671.302 426.726C671.302 427.358 671.06 427.901 670.578 428.356C670.102 428.803 669.526 429.027 668.852 429.027ZM683.449 431.136V434.545H673.595V431.136H683.449ZM675.832 427.216H680.371V442.472C680.371 442.891 680.435 443.217 680.562 443.452C680.69 443.679 680.868 443.839 681.095 443.931C681.329 444.023 681.599 444.07 681.905 444.07C682.118 444.07 682.331 444.052 682.544 444.016C682.757 443.974 682.92 443.942 683.034 443.92L683.748 447.298C683.521 447.369 683.201 447.45 682.789 447.543C682.377 447.642 681.876 447.702 681.287 447.724C680.193 447.766 679.234 447.621 678.41 447.287C677.594 446.953 676.958 446.435 676.503 445.732C676.049 445.028 675.825 444.141 675.832 443.068V427.216ZM689.208 453.636C688.632 453.636 688.093 453.59 687.588 453.498C687.091 453.413 686.679 453.303 686.353 453.168L687.375 449.78C687.908 449.943 688.387 450.032 688.813 450.046C689.247 450.06 689.62 449.961 689.932 449.748C690.252 449.535 690.511 449.173 690.71 448.661L690.976 447.969L685.106 431.136H689.879L693.267 443.153H693.437L696.857 431.136H701.661L695.301 449.268C694.996 450.149 694.581 450.916 694.055 451.57C693.536 452.23 692.88 452.738 692.084 453.093C691.289 453.455 690.33 453.636 689.208 453.636Z" fill="black"/>
<path d="M634.286 590.335L550.714 627.135V603.096L607.932 580.126L607.161 581.372V578.405L607.932 579.651L550.714 556.681V532.642L634.286 569.442V590.335Z" fill="black"/>
<g clip-path="url(#clip1_389_864)">
<rect x="739" width="446" height="979" rx="8" fill="#D9D9D9"/>
<path d="M884 0H1040V26C1040 31.5228 1035.52 36 1030 36H894C888.477 36 884 31.5228 884 26V0Z" fill="black"/>
<path d="M767.896 87V65.1818H776.504C778.159 65.1818 779.569 65.4979 780.734 66.13C781.898 66.755 782.786 67.625 783.397 68.7401C784.015 69.848 784.324 71.1264 784.324 72.5753C784.324 74.0241 784.011 75.3026 783.386 76.4105C782.761 77.5185 781.856 78.3814 780.67 78.9993C779.491 79.6172 778.063 79.9261 776.387 79.9261H770.901V76.2294H775.641C776.529 76.2294 777.261 76.0767 777.836 75.7713C778.418 75.4588 778.852 75.0291 779.136 74.4822C779.427 73.9283 779.572 73.2926 779.572 72.5753C779.572 71.8509 779.427 71.2187 779.136 70.679C778.852 70.1321 778.418 69.7095 777.836 69.4112C777.254 69.1058 776.515 68.9531 775.62 68.9531H772.509V87H767.896ZM791.462 87.3089C790.418 87.3089 789.487 87.1278 788.67 86.7656C787.854 86.3963 787.207 85.853 786.732 85.1357C786.263 84.4112 786.028 83.5092 786.028 82.4297C786.028 81.5206 786.195 80.7571 786.529 80.1392C786.863 79.5213 787.317 79.0241 787.893 78.6477C788.468 78.2713 789.121 77.9872 789.853 77.7955C790.592 77.6037 791.366 77.4688 792.175 77.3906C793.127 77.2912 793.894 77.1989 794.477 77.1136C795.059 77.0213 795.482 76.8864 795.744 76.7088C796.007 76.5312 796.138 76.2685 796.138 75.9205V75.8565C796.138 75.1818 795.925 74.6598 795.499 74.2905C795.08 73.9212 794.484 73.7365 793.71 73.7365C792.893 73.7365 792.243 73.9176 791.76 74.2798C791.277 74.6349 790.957 75.0824 790.801 75.6222L786.604 75.2812C786.817 74.2869 787.236 73.4276 787.861 72.7031C788.486 71.9716 789.292 71.4105 790.279 71.0199C791.273 70.6222 792.424 70.4233 793.731 70.4233C794.64 70.4233 795.51 70.5298 796.341 70.7429C797.179 70.956 797.921 71.2862 798.567 71.7337C799.221 72.1811 799.736 72.7564 800.112 73.4595C800.489 74.1555 800.677 74.9901 800.677 75.9631V87H796.373V84.7308H796.245C795.982 85.2422 795.631 85.6932 795.19 86.0838C794.75 86.4673 794.221 86.7692 793.603 86.9893C792.985 87.2024 792.271 87.3089 791.462 87.3089ZM792.761 84.1768C793.429 84.1768 794.018 84.0455 794.53 83.7827C795.041 83.5128 795.442 83.1506 795.734 82.696C796.025 82.2415 796.17 81.7266 796.17 81.1513V79.4148C796.028 79.5071 795.833 79.5923 795.585 79.6705C795.343 79.7415 795.07 79.8089 794.764 79.8729C794.459 79.9297 794.153 79.983 793.848 80.0327C793.543 80.0753 793.266 80.1143 793.017 80.1499C792.484 80.228 792.019 80.3523 791.621 80.5227C791.224 80.6932 790.915 80.924 790.695 81.2152C790.474 81.4993 790.364 81.8544 790.364 82.2805C790.364 82.8984 790.588 83.3707 791.036 83.6974C791.49 84.017 792.065 84.1768 792.761 84.1768ZM811.591 87.3196C809.915 87.3196 808.473 86.9645 807.266 86.2543C806.066 85.5369 805.142 84.5426 804.496 83.2713C803.857 82 803.537 80.5369 803.537 78.8821C803.537 77.206 803.86 75.7358 804.507 74.4716C805.16 73.2003 806.087 72.2095 807.287 71.4993C808.488 70.782 809.915 70.4233 811.57 70.4233C812.998 70.4233 814.248 70.6825 815.32 71.201C816.392 71.7195 817.241 72.4474 817.866 73.3849C818.491 74.3224 818.836 75.4233 818.9 76.6875H814.617C814.496 75.8707 814.176 75.2138 813.658 74.7166C813.147 74.2124 812.475 73.9602 811.645 73.9602C810.941 73.9602 810.327 74.152 809.801 74.5355C809.283 74.9119 808.878 75.4624 808.587 76.1868C808.296 76.9112 808.15 77.7884 808.15 78.8182C808.15 79.8622 808.292 80.75 808.576 81.4815C808.868 82.2131 809.276 82.7706 809.801 83.1541C810.327 83.5376 810.941 83.7294 811.645 83.7294C812.163 83.7294 812.628 83.6229 813.04 83.4098C813.459 83.1967 813.804 82.8878 814.074 82.483C814.35 82.071 814.532 81.5774 814.617 81.0021H818.9C818.828 82.2521 818.488 83.353 817.877 84.3047C817.273 85.2493 816.439 85.9879 815.373 86.5206C814.308 87.0533 813.047 87.3196 811.591 87.3196ZM825.917 82.2912L825.928 76.8473H826.589L831.83 70.6364H837.04L829.998 78.8608H828.922L825.917 82.2912ZM821.805 87V65.1818H826.344V87H821.805ZM832.032 87L827.217 79.8729L830.243 76.6662L837.349 87H832.032ZM843.932 87.3089C842.888 87.3089 841.958 87.1278 841.141 86.7656C840.324 86.3963 839.678 85.853 839.202 85.1357C838.733 84.4112 838.499 83.5092 838.499 82.4297C838.499 81.5206 838.666 80.7571 839 80.1392C839.334 79.5213 839.788 79.0241 840.363 78.6477C840.939 78.2713 841.592 77.9872 842.324 77.7955C843.062 77.6037 843.836 77.4688 844.646 77.3906C845.598 77.2912 846.365 77.1989 846.947 77.1136C847.53 77.0213 847.952 76.8864 848.215 76.7088C848.478 76.5312 848.609 76.2685 848.609 75.9205V75.8565C848.609 75.1818 848.396 74.6598 847.97 74.2905C847.551 73.9212 846.954 73.7365 846.18 73.7365C845.363 73.7365 844.714 73.9176 844.231 74.2798C843.748 74.6349 843.428 75.0824 843.272 75.6222L839.074 75.2812C839.287 74.2869 839.706 73.4276 840.331 72.7031C840.956 71.9716 841.763 71.4105 842.75 71.0199C843.744 70.6222 844.895 70.4233 846.202 70.4233C847.111 70.4233 847.981 70.5298 848.812 70.7429C849.65 70.956 850.392 71.2862 851.038 71.7337C851.692 72.1811 852.206 72.7564 852.583 73.4595C852.959 74.1555 853.148 74.9901 853.148 75.9631V87H848.844V84.7308H848.716C848.453 85.2422 848.101 85.6932 847.661 86.0838C847.221 86.4673 846.692 86.7692 846.074 86.9893C845.456 87.2024 844.742 87.3089 843.932 87.3089ZM845.232 84.1768C845.9 84.1768 846.489 84.0455 847.001 83.7827C847.512 83.5128 847.913 83.1506 848.204 82.696C848.496 82.2415 848.641 81.7266 848.641 81.1513V79.4148C848.499 79.5071 848.304 79.5923 848.055 79.6705C847.814 79.7415 847.54 79.8089 847.235 79.8729C846.93 79.9297 846.624 79.983 846.319 80.0327C846.013 80.0753 845.736 80.1143 845.488 80.1499C844.955 80.228 844.49 80.3523 844.092 80.5227C843.694 80.6932 843.385 80.924 843.165 81.2152C842.945 81.4993 842.835 81.8544 842.835 82.2805C842.835 82.8984 843.059 83.3707 843.506 83.6974C843.961 84.017 844.536 84.1768 845.232 84.1768ZM864.041 93.4773C862.57 93.4773 861.31 93.2749 860.259 92.87C859.215 92.4723 858.384 91.929 857.766 91.2401C857.148 90.5511 856.747 89.777 856.562 88.9176L860.759 88.353C860.887 88.6797 861.09 88.9851 861.367 89.2692C861.644 89.5533 862.009 89.7805 862.464 89.951C862.926 90.1286 863.487 90.2173 864.147 90.2173C865.134 90.2173 865.948 89.9759 866.587 89.4929C867.233 89.017 867.556 88.218 867.556 87.0959V84.1023H867.365C867.166 84.5568 866.867 84.9865 866.47 85.3913C866.072 85.7962 865.561 86.1264 864.936 86.3821C864.311 86.6378 863.565 86.7656 862.698 86.7656C861.47 86.7656 860.351 86.4815 859.343 85.9134C858.341 85.3381 857.542 84.4609 856.945 83.282C856.356 82.0959 856.061 80.5973 856.061 78.7862C856.061 76.9325 856.363 75.3842 856.967 74.1413C857.57 72.8984 858.373 71.968 859.374 71.3501C860.383 70.7322 861.487 70.4233 862.688 70.4233C863.604 70.4233 864.371 70.5795 864.989 70.892C865.607 71.1974 866.104 71.581 866.48 72.0426C866.864 72.4972 867.159 72.9446 867.365 73.3849H867.535V70.6364H872.041V87.1598C872.041 88.5518 871.7 89.7166 871.019 90.6541C870.337 91.5916 869.392 92.2947 868.185 92.7635C866.985 93.2393 865.603 93.4773 864.041 93.4773ZM864.137 83.3565C864.868 83.3565 865.486 83.1754 865.99 82.8132C866.502 82.4439 866.892 81.9183 867.162 81.2365C867.439 80.5476 867.578 79.7237 867.578 78.7649C867.578 77.8061 867.443 76.9751 867.173 76.272C866.903 75.5618 866.512 75.0114 866.001 74.6207C865.49 74.2301 864.868 74.0348 864.137 74.0348C863.391 74.0348 862.762 74.2372 862.251 74.642C861.74 75.0398 861.352 75.5937 861.09 76.304C860.827 77.0142 860.695 77.8345 860.695 78.7649C860.695 79.7095 860.827 80.5263 861.09 81.2152C861.36 81.897 861.747 82.4261 862.251 82.8026C862.762 83.1719 863.391 83.3565 864.137 83.3565ZM883.11 87.3196C881.427 87.3196 879.978 86.9787 878.764 86.2969C877.556 85.608 876.626 84.6349 875.972 83.3778C875.319 82.1136 874.992 80.6186 874.992 78.8928C874.992 77.2095 875.319 75.7322 875.972 74.4609C876.626 73.1896 877.546 72.1989 878.732 71.4886C879.925 70.7784 881.324 70.4233 882.929 70.4233C884.009 70.4233 885.014 70.5973 885.944 70.9453C886.882 71.2862 887.698 71.8011 888.394 72.4901C889.097 73.179 889.644 74.0455 890.035 75.0895C890.426 76.1264 890.621 77.3409 890.621 78.733V79.9794H876.803V77.1669H886.349C886.349 76.5135 886.207 75.9347 885.923 75.4304C885.639 74.9261 885.244 74.532 884.74 74.2479C884.243 73.9567 883.664 73.8111 883.004 73.8111C882.315 73.8111 881.704 73.9709 881.171 74.2905C880.646 74.603 880.234 75.0256 879.936 75.5582C879.637 76.0838 879.485 76.6697 879.477 77.3161V79.9901C879.477 80.7997 879.627 81.4993 879.925 82.0888C880.23 82.6783 880.66 83.1328 881.214 83.4524C881.768 83.772 882.425 83.9318 883.185 83.9318C883.689 83.9318 884.151 83.8608 884.57 83.7188C884.989 83.5767 885.347 83.3636 885.646 83.0795C885.944 82.7955 886.171 82.4474 886.328 82.0355L890.525 82.3125C890.312 83.321 889.875 84.2017 889.215 84.9545C888.561 85.7003 887.716 86.2827 886.679 86.7017C885.649 87.1136 884.46 87.3196 883.11 87.3196Z" fill="black"/>
<rect x="766" y="116" width="176" height="261" rx="8" fill="white"/>
<rect x="782.5" y="132.5" width="143" height="119" rx="3.5" fill="#B2B2B2" stroke="black"/>
<rect x="782.5" y="272.5" width="143" height="18" rx="3.5" fill="#B2B2B2" stroke="black"/>
<rect x="782.5" y="303.5" width="81" height="18" rx="3.5" fill="#B2B2B2" stroke="black"/>
<rect x="782.5" y="342.5" width="143" height="18" rx="3.5" fill="#B2B2B2" stroke="black"/>
<rect x="982" y="116" width="176" height="261" rx="8" fill="white"/>
<rect x="998.5" y="132.5" width="143" height="119" rx="3.5" fill="#B2B2B2" stroke="black"/>
<rect x="998.5" y="272.5" width="143" height="18" rx="3.5" fill="#B2B2B2" stroke="black"/>
<rect x="998.5" y="303.5" width="81" height="18" rx="3.5" fill="#B2B2B2" stroke="black"/>
<rect x="998.5" y="342.5" width="143" height="18" rx="3.5" fill="#B2B2B2" stroke="black"/>
<rect x="766" y="393" width="176" height="261" rx="8" fill="white"/>
<rect x="782.5" y="409.5" width="143" height="119" rx="3.5" fill="#B2B2B2" stroke="black"/>
<rect x="782.5" y="549.5" width="143" height="18" rx="3.5" fill="#B2B2B2" stroke="black"/>
<rect x="782.5" y="580.5" width="81" height="18" rx="3.5" fill="#B2B2B2" stroke="black"/>
<rect x="782.5" y="619.5" width="143" height="18" rx="3.5" fill="#B2B2B2" stroke="black"/>
<rect x="982" y="393" width="176" height="261" rx="8" fill="white"/>
<rect x="998.5" y="409.5" width="143" height="119" rx="3.5" fill="#B2B2B2" stroke="black"/>
<rect x="998.5" y="549.5" width="143" height="18" rx="3.5" fill="#B2B2B2" stroke="black"/>
<rect x="998.5" y="580.5" width="81" height="18" rx="3.5" fill="#B2B2B2" stroke="black"/>
<rect x="998.5" y="619.5" width="143" height="18" rx="3.5" fill="#B2B2B2" stroke="black"/>
<rect x="766" y="670" width="176" height="261" rx="8" fill="white"/>
<rect x="782.5" y="686.5" width="143" height="119" rx="3.5" fill="#B2B2B2" stroke="black"/>
<rect x="782.5" y="826.5" width="143" height="18" rx="3.5" fill="#B2B2B2" stroke="black"/>
<rect x="782.5" y="857.5" width="81" height="18" rx="3.5" fill="#B2B2B2" stroke="black"/>
<rect x="782.5" y="896.5" width="143" height="18" rx="3.5" fill="#B2B2B2" stroke="black"/>
<rect x="982" y="670" width="176" height="261" rx="8" fill="white"/>
<rect x="998.5" y="686.5" width="143" height="119" rx="3.5" fill="#B2B2B2" stroke="black"/>
<rect x="998.5" y="826.5" width="143" height="18" rx="3.5" fill="#B2B2B2" stroke="black"/>
<rect x="998.5" y="857.5" width="81" height="18" rx="3.5" fill="#B2B2B2" stroke="black"/>
<rect x="998.5" y="896.5" width="143" height="18" rx="3.5" fill="#B2B2B2" stroke="black"/>
</g>
<rect x="739.5" y="0.5" width="445" height="978" rx="7.5" stroke="black"/>
<defs>
<clipPath id="clip0_389_864">
<rect width="446" height="979" rx="8" fill="white"/>
</clipPath>
<clipPath id="clip1_389_864">
<rect x="739" width="446" height="979" rx="8" fill="white"/>
</clipPath>
</defs>
</svg>
